<?xml version="1.0" encoding="UTF-8"?>
<svg xmlns="http://www.w3.org/2000/svg" xmlns:xlink="http://www.w3.org/1999/xlink" id="svg" version="1.1" width="400" height="304.23266683978187" viewBox="0, 0, 400,304.23266683978187">
  <g id="svgg">
    <path id="path0" d="M360.669 0.125 C 360.668 0.261,360.402 0.333,359.906 0.333 C 357.040 0.333,356.149 4.819,358.809 5.853 C 359.231 6.017,359.236 7.076,358.830 10.167 C 358.751 10.762,358.636 12.938,358.573 15.000 C 358.510 17.063,358.406 18.848,358.342 18.967 C 358.207 19.222,356.588 17.492,355.020 15.417 C 354.466 14.683,353.951 14.008,353.874 13.917 C 353.798 13.825,353.446 13.280,353.092 12.705 L 352.448 11.660 352.802 11.283 C 354.518 9.457,353.159 6.333,350.648 6.333 C 348.640 6.333,347.348 8.001,347.740 10.088 C 347.898 10.930,349.137 12.167,349.822 12.167 C 350.417 12.167,350.352 12.096,351.932 14.491 C 352.624 15.541,353.391 16.633,353.637 16.919 C 353.882 17.205,354.377 17.809,354.737 18.261 C 355.096 18.713,356.087 19.777,356.940 20.625 L 358.491 22.166 358.582 24.208 C 358.632 25.331,358.712 26.850,358.758 27.583 L 358.843 28.917 358.487 28.250 C 356.945 25.361,353.843 21.752,351.739 20.400 C 351.470 20.227,351.124 19.973,350.969 19.835 C 349.531 18.547,345.144 16.978,342.353 16.753 L 340.955 16.640 341.048 18.362 C 341.241 21.937,341.897 25.866,342.805 28.879 C 343.724 31.927,345.003 34.586,346.500 36.560 C 347.147 37.413,351.754 42.096,354.344 44.534 C 356.250 46.328,358.478 48.346,359.116 48.857 L 359.816 49.417 359.825 56.310 L 359.833 63.204 358.576 61.322 C 357.884 60.286,356.917 59.022,356.428 58.511 C 355.938 58.001,355.286 57.288,354.977 56.926 C 354.669 56.565,354.252 56.089,354.051 55.870 C 353.849 55.650,353.362 55.046,352.968 54.527 C 352.573 54.008,352.211 53.546,352.163 53.500 C 352.114 53.454,351.816 53.079,351.500 52.667 C 351.184 52.254,350.886 51.879,350.837 51.833 C 350.789 51.788,350.412 51.300,350.000 50.750 C 349.587 50.200,349.156 49.650,349.041 49.529 C 348.925 49.407,348.751 49.157,348.653 48.974 C 348.554 48.790,348.369 48.515,348.240 48.362 C 348.112 48.209,347.897 47.933,347.764 47.750 C 347.577 47.492,347.477 47.461,347.322 47.615 C 347.142 47.792,348.749 51.345,349.908 53.333 C 351.717 56.436,354.049 60.180,354.744 61.098 C 355.317 61.854,357.488 64.000,357.679 64.000 C 357.751 64.000,357.909 64.096,358.030 64.213 C 358.151 64.331,358.614 64.649,359.059 64.922 L 359.868 65.417 359.767 67.151 C 359.712 68.105,359.667 70.117,359.667 71.623 C 359.667 74.628,359.536 74.936,358.978 73.246 C 358.797 72.698,358.541 72.014,358.408 71.725 C 358.275 71.436,358.167 71.150,358.167 71.088 C 358.167 70.636,355.148 65.177,354.293 64.083 C 354.222 63.992,353.727 63.354,353.194 62.667 C 349.494 57.895,343.181 53.689,338.333 52.765 C 338.012 52.704,337.450 52.586,337.083 52.503 C 336.717 52.420,335.826 52.315,335.104 52.270 L 333.791 52.189 333.887 54.386 C 333.983 56.568,334.337 59.743,334.681 61.500 C 334.780 62.004,334.960 62.942,335.081 63.583 C 335.651 66.607,336.963 70.757,338.091 73.100 C 338.316 73.567,338.500 73.992,338.500 74.043 C 338.500 74.309,340.000 76.755,340.894 77.947 C 341.813 79.173,350.593 88.083,353.349 90.585 C 353.953 91.134,355.032 92.108,355.746 92.750 C 356.460 93.392,357.466 94.310,357.981 94.791 C 358.495 95.271,358.973 95.665,359.042 95.666 C 359.110 95.666,359.167 97.858,359.167 100.537 C 359.167 105.187,359.154 105.389,358.881 104.995 C 358.724 104.769,358.534 104.508,358.459 104.417 C 358.385 104.325,358.080 103.899,357.782 103.469 C 357.313 102.793,355.625 100.829,354.580 99.745 C 354.395 99.552,353.985 99.062,353.668 98.656 C 353.351 98.249,353.052 97.879,353.003 97.833 C 352.955 97.787,352.710 97.475,352.460 97.139 C 352.210 96.804,351.910 96.429,351.794 96.306 C 351.678 96.184,351.246 95.633,350.834 95.083 C 350.421 94.533,350.045 94.046,349.997 94.000 C 349.949 93.954,349.395 93.220,348.766 92.368 C 346.483 89.276,347.012 91.286,349.837 96.437 C 350.773 98.144,354.125 103.651,354.338 103.833 C 354.392 103.879,354.552 104.087,354.695 104.295 C 355.307 105.192,356.893 106.708,358.250 107.695 L 359.083 108.300 359.026 113.275 C 358.994 116.075,358.910 118.068,358.836 117.833 C 358.763 117.604,358.575 116.967,358.419 116.417 C 357.563 113.399,354.371 106.119,353.792 105.861 C 353.723 105.831,353.667 105.730,353.667 105.637 C 353.667 105.500,351.806 102.559,351.319 101.927 C 349.552 99.636,346.310 96.199,344.917 95.141 C 344.642 94.932,344.379 94.721,344.333 94.672 C 341.585 91.734,332.639 88.014,327.775 87.786 L 326.633 87.732 326.720 90.241 C 326.801 92.568,327.137 95.941,327.486 97.917 C 327.566 98.375,327.745 99.388,327.883 100.167 C 328.265 102.333,328.854 104.775,329.441 106.631 C 329.565 107.024,329.667 107.445,329.667 107.567 C 329.667 107.689,329.808 108.155,329.981 108.603 C 330.154 109.050,330.501 109.979,330.753 110.667 C 332.024 114.139,333.803 117.471,335.710 119.947 C 337.489 122.259,346.846 131.639,351.738 136.015 C 352.190 136.419,352.758 136.938,353.000 137.167 C 354.149 138.254,356.219 140.089,356.351 140.139 C 356.631 140.243,356.500 140.655,356.125 140.851 C 354.429 141.739,349.833 145.647,349.833 146.201 C 349.833 146.378,349.043 146.371,348.933 146.193 C 348.885 146.116,348.187 145.808,347.381 145.508 C 346.576 145.208,345.767 144.899,345.583 144.821 C 345.251 144.680,344.018 144.309,342.750 143.968 C 342.383 143.869,341.858 143.725,341.583 143.648 C 340.675 143.392,338.393 143.000,337.814 143.000 C 337.214 143.000,337.145 143.083,335.826 145.417 C 334.288 148.137,332.805 151.712,332.573 153.260 C 332.470 153.944,332.454 153.959,331.693 154.059 C 326.332 154.761,321.990 155.952,321.811 156.769 C 321.267 159.254,321.877 166.533,322.870 169.409 C 323.095 170.061,323.151 170.422,323.032 170.461 C 322.877 170.513,322.288 170.948,321.333 171.715 C 321.195 171.826,320.745 172.174,320.333 172.489 C 319.301 173.278,315.574 177.055,314.700 178.199 L 313.983 179.137 314.450 180.027 C 314.706 180.516,314.960 180.954,315.012 181.000 C 315.065 181.046,315.156 181.215,315.216 181.377 C 315.364 181.778,317.139 184.494,317.558 184.961 L 317.897 185.339 317.512 186.128 C 316.969 187.243,316.698 188.220,316.569 189.531 C 316.469 190.542,316.301 190.933,316.139 190.527 C 316.053 190.313,314.340 189.178,313.577 188.830 C 312.112 188.163,310.386 188.251,309.484 189.039 C 309.088 189.385,308.896 189.728,308.357 191.050 C 308.252 191.306,308.167 192.345,308.167 193.359 C 308.167 195.051,308.143 195.192,307.875 195.077 C 305.902 194.227,304.000 195.314,304.000 197.290 L 304.000 198.198 303.224 197.743 C 295.072 192.966,290.556 196.746,294.924 204.692 C 295.057 204.936,295.167 205.162,295.167 205.196 C 295.167 205.229,294.612 205.228,293.933 205.194 C 292.115 205.102,291.112 205.368,290.277 206.163 L 289.583 206.824 289.583 208.453 C 289.583 210.139,289.897 211.139,290.860 212.526 C 291.304 213.166,291.303 213.167,289.708 213.168 C 284.130 213.171,282.846 216.995,286.982 221.288 L 287.339 221.659 286.961 221.736 C 286.753 221.779,285.946 221.851,285.167 221.896 C 284.237 221.949,283.367 222.120,282.638 222.392 C 281.392 222.856,281.427 222.876,281.252 221.563 C 280.969 219.426,280.631 218.377,279.755 216.917 C 277.992 213.974,275.932 212.621,273.232 212.629 C 272.397 212.632,271.572 212.706,271.399 212.795 C 271.225 212.883,270.634 213.161,270.085 213.412 C 268.892 213.958,268.119 214.530,266.656 215.950 L 265.563 217.012 264.657 216.157 C 260.197 211.949,254.848 211.950,252.292 216.161 C 252.095 216.485,251.889 216.787,251.834 216.833 C 251.310 217.269,250.451 219.722,250.157 221.625 C 250.054 222.290,249.915 222.833,249.848 222.833 C 249.781 222.833,249.394 222.731,248.988 222.606 C 242.865 220.719,239.063 223.462,238.949 229.848 L 238.917 231.663 237.603 231.665 C 236.331 231.667,235.959 231.731,234.000 232.292 C 231.397 233.036,229.500 235.356,229.500 237.794 C 229.500 237.840,229.144 237.389,228.708 236.794 C 226.805 234.191,224.700 232.042,221.554 229.487 C 219.276 227.638,213.219 224.333,212.107 224.333 C 211.967 224.333,211.812 224.267,211.762 224.187 C 211.712 224.106,211.502 223.998,211.294 223.946 C 211.087 223.895,210.504 223.742,210.000 223.606 C 209.496 223.471,208.671 223.250,208.167 223.116 C 201.828 221.428,192.166 222.154,186.000 224.781 C 183.404 225.887,182.875 226.217,182.519 226.951 L 182.166 227.676 182.708 228.150 C 183.006 228.410,183.509 228.839,183.826 229.103 C 184.143 229.367,184.600 229.771,184.841 230.000 C 185.486 230.613,186.301 231.321,187.334 232.166 C 187.838 232.578,188.325 232.996,188.417 233.094 C 188.508 233.192,188.995 233.605,189.497 234.011 C 190.760 235.032,190.926 235.168,192.250 236.275 C 193.643 237.439,193.518 237.338,195.500 238.908 C 196.371 239.597,197.158 240.221,197.250 240.294 C 197.342 240.367,197.717 240.649,198.083 240.921 C 198.450 241.192,198.787 241.453,198.833 241.499 C 198.879 241.546,199.366 241.921,199.916 242.334 C 200.466 242.746,200.991 243.140,201.083 243.210 C 201.175 243.280,201.550 243.561,201.917 243.833 C 202.283 244.106,202.660 244.393,202.754 244.470 C 202.848 244.547,203.148 244.752,203.421 244.926 C 203.694 245.100,203.954 245.285,204.000 245.338 C 204.046 245.391,204.381 245.615,204.745 245.836 L 205.406 246.239 204.828 246.372 C 204.255 246.503,200.617 246.858,196.737 247.160 C 193.870 247.383,191.206 247.397,190.333 247.193 C 188.578 246.782,187.537 246.517,186.833 246.300 L 186.083 246.070 185.977 243.660 C 185.622 235.596,180.775 230.525,177.431 234.719 C 176.290 236.151,177.314 239.838,179.446 241.970 C 179.568 242.091,179.667 242.241,179.667 242.304 C 179.668 242.366,180.111 242.904,180.653 243.500 C 181.809 244.771,181.803 244.722,180.748 244.347 C 179.355 243.851,179.260 243.814,178.961 243.655 C 178.801 243.570,178.590 243.500,178.492 243.500 C 178.393 243.500,177.902 243.312,177.401 243.083 C 176.900 242.854,176.448 242.667,176.397 242.667 C 176.292 242.667,174.217 241.741,173.837 241.525 C 173.637 241.411,173.600 241.026,173.642 239.484 C 173.787 234.188,171.255 228.459,168.600 228.073 C 164.178 227.431,163.170 231.753,166.693 236.248 C 166.766 236.341,167.248 236.927,167.764 237.551 C 168.982 239.021,168.887 239.046,166.951 237.760 C 162.702 234.939,161.019 233.396,160.004 231.391 C 159.593 230.580,159.200 229.892,159.129 229.861 C 159.058 229.831,159.000 229.718,159.000 229.611 C 158.998 229.018,156.469 225.862,155.509 225.256 C 152.322 223.244,149.320 226.250,151.068 229.705 C 151.522 230.602,151.677 230.813,152.833 232.104 C 153.731 233.107,156.115 235.000,156.479 235.000 C 156.567 235.000,156.664 235.056,156.694 235.125 C 156.771 235.298,158.770 236.256,159.583 236.510 C 160.641 236.840,161.369 237.186,161.740 237.536 L 162.083 237.860 161.667 237.697 C 157.151 235.937,152.948 236.592,152.570 239.115 C 152.096 242.274,154.064 243.834,158.524 243.833 C 160.410 243.833,163.819 243.253,164.417 242.830 C 164.508 242.766,164.781 242.665,165.023 242.608 C 165.265 242.550,165.902 242.256,166.440 241.953 L 167.417 241.404 168.250 241.866 C 168.708 242.120,169.346 242.465,169.667 242.633 C 169.987 242.800,170.400 243.023,170.583 243.127 C 171.070 243.406,174.486 245.000,174.595 245.000 C 174.646 245.000,175.098 245.187,175.599 245.417 C 176.100 245.646,176.553 245.833,176.605 245.833 C 176.657 245.833,176.936 245.939,177.225 246.067 C 178.165 246.486,180.070 247.158,180.628 247.269 C 182.606 247.659,180.302 247.782,176.422 247.492 C 171.073 247.093,167.970 246.753,166.000 246.351 C 165.587 246.267,164.612 246.080,163.833 245.935 C 163.054 245.791,162.042 245.591,161.583 245.492 C 161.125 245.393,160.075 245.201,159.250 245.066 C 158.425 244.931,157.300 244.747,156.750 244.656 C 155.745 244.490,152.660 244.094,150.333 243.832 C 146.083 243.353,138.261 242.960,134.272 243.026 L 130.794 243.082 130.497 242.333 C 128.091 236.253,121.257 230.779,118.024 232.341 C 113.282 234.632,115.156 239.030,122.410 242.631 L 124.069 243.455 122.576 243.648 C 121.755 243.754,120.558 243.911,119.917 243.997 C 119.275 244.083,118.300 244.197,117.750 244.251 C 117.200 244.305,116.450 244.415,116.083 244.495 C 115.717 244.576,114.667 244.765,113.750 244.916 C 112.833 245.067,111.483 245.332,110.750 245.504 C 108.413 246.053,108.427 246.052,107.471 245.617 C 106.983 245.394,106.396 245.160,106.167 245.096 C 105.938 245.032,105.600 244.917,105.417 244.842 C 104.960 244.654,103.958 244.385,102.667 244.103 C 102.071 243.973,101.133 243.765,100.583 243.642 C 99.252 243.342,93.354 243.338,92.417 243.635 C 92.050 243.752,91.355 243.972,90.873 244.125 C 87.975 245.045,86.581 248.106,87.906 250.642 C 89.213 253.142,94.293 253.642,100.640 251.895 C 101.159 251.752,101.996 251.539,102.500 251.422 C 103.004 251.305,103.754 251.095,104.167 250.956 C 104.579 250.817,105.367 250.570,105.917 250.407 C 106.467 250.245,107.008 250.042,107.119 249.957 C 107.230 249.872,107.792 249.765,108.369 249.719 L 109.417 249.635 108.750 250.005 C 104.632 252.290,103.164 254.912,104.749 257.154 C 106.262 259.296,108.223 259.826,110.609 258.739 C 110.897 258.608,111.178 258.500,111.232 258.500 C 111.422 258.500,113.760 256.941,114.582 256.266 C 116.222 254.920,117.768 253.238,118.809 251.667 C 119.143 251.162,119.455 250.731,119.501 250.708 C 119.548 250.685,119.923 249.956,120.335 249.088 C 120.998 247.691,121.141 247.501,121.583 247.423 C 123.871 247.022,135.387 246.577,139.083 246.747 C 141.976 246.880,142.031 246.909,140.333 247.409 C 139.829 247.558,139.267 247.744,139.083 247.822 C 138.900 247.901,138.375 248.096,137.917 248.256 C 131.628 250.452,129.245 253.933,132.086 256.774 C 135.049 259.737,141.945 255.482,145.194 248.687 L 145.917 247.174 146.667 247.175 C 147.468 247.176,149.579 247.377,151.750 247.659 C 154.723 248.045,156.635 248.320,157.583 248.497 C 158.133 248.599,159.221 248.791,160.000 248.923 C 160.779 249.055,161.754 249.239,162.167 249.331 C 162.930 249.503,165.008 249.890,166.667 250.168 C 167.780 250.355,169.843 250.612,171.408 250.759 L 172.565 250.867 171.908 251.178 C 171.546 251.349,171.196 251.491,171.130 251.494 C 171.064 251.497,170.600 251.688,170.099 251.917 C 169.598 252.146,169.148 252.333,169.099 252.333 C 169.019 252.333,168.561 252.531,166.500 253.452 C 166.179 253.596,165.210 254.053,164.346 254.468 C 162.450 255.379,162.686 255.380,161.195 254.452 C 155.032 250.618,146.208 250.221,144.756 253.712 C 143.838 255.919,144.526 258.063,146.460 259.024 C 147.424 259.503,153.138 259.617,154.801 259.190 C 156.077 258.862,156.008 258.993,154.334 260.073 C 153.512 260.605,152.676 261.180,152.477 261.353 C 152.278 261.526,152.066 261.667,152.006 261.667 C 151.946 261.667,151.751 261.798,151.572 261.958 C 151.394 262.119,150.824 262.573,150.306 262.967 C 149.787 263.362,149.185 263.849,148.967 264.051 C 147.944 264.997,147.150 265.502,146.160 265.835 C 138.793 268.310,132.375 276.066,134.909 279.430 C 136.937 282.122,140.117 281.457,142.474 277.848 C 142.809 277.336,143.136 276.876,143.202 276.827 C 143.416 276.667,145.527 272.616,146.299 270.885 C 146.768 269.834,149.203 267.445,152.010 265.281 C 153.059 264.473,154.029 263.723,154.167 263.614 C 154.304 263.505,154.829 263.156,155.333 262.838 C 155.837 262.521,156.302 262.186,156.366 262.094 C 156.430 262.002,156.526 261.970,156.579 262.023 C 156.632 262.077,156.240 262.862,155.707 263.768 C 154.853 265.220,153.546 267.792,153.174 268.750 C 153.103 268.933,152.963 269.271,152.864 269.500 C 150.862 274.121,153.018 277.586,157.386 276.767 C 158.648 276.530,160.105 274.483,160.721 272.083 C 160.862 271.533,161.076 270.708,161.197 270.250 C 161.541 268.945,161.477 263.224,161.103 261.833 C 160.669 260.222,160.515 259.593,160.551 259.588 C 160.569 259.585,161.108 259.301,161.750 258.957 C 163.842 257.836,167.981 255.848,169.667 255.155 C 170.171 254.948,170.655 254.716,170.742 254.639 C 170.829 254.563,171.016 254.500,171.158 254.499 C 171.300 254.498,171.616 254.394,171.861 254.266 C 173.352 253.488,174.534 253.261,173.955 253.863 C 173.136 254.714,170.705 259.282,169.668 261.917 C 168.064 265.993,169.246 268.994,172.567 269.275 C 174.858 269.469,176.796 267.761,177.512 264.917 C 177.581 264.642,177.762 263.967,177.913 263.417 C 178.529 261.185,178.503 255.541,177.867 253.303 L 177.551 252.190 178.401 251.813 C 179.211 251.453,179.519 251.431,185.167 251.319 C 191.041 251.202,196.590 250.933,197.215 250.735 C 197.431 250.666,197.503 250.694,197.428 250.815 C 197.365 250.917,197.237 251.000,197.143 251.000 C 196.798 251.000,193.513 252.737,191.840 253.805 C 188.436 255.976,184.020 259.890,181.746 262.750 C 181.381 263.208,181.045 263.621,180.999 263.667 C 180.351 264.308,177.717 268.259,176.836 269.911 C 175.894 271.680,175.903 271.662,175.504 272.482 C 174.432 274.683,174.388 275.084,175.207 275.220 C 175.506 275.269,176.088 275.389,176.500 275.486 C 177.455 275.710,180.224 276.117,182.583 276.379 C 185.036 276.652,193.774 276.647,195.833 276.371 C 196.704 276.255,198.064 276.064,198.855 275.948 L 200.293 275.737 199.771 276.406 C 199.485 276.774,199.156 277.176,199.042 277.299 C 198.927 277.423,198.833 277.579,198.833 277.647 C 198.833 277.715,198.700 277.916,198.537 278.094 C 197.100 279.664,193.705 286.541,192.744 289.833 C 192.596 290.337,192.406 290.880,192.321 291.039 C 192.059 291.530,192.140 292.765,192.458 293.135 C 193.215 294.015,203.522 294.537,206.833 293.863 C 207.429 293.742,208.479 293.528,209.167 293.389 C 212.706 292.671,216.819 291.022,220.226 288.955 C 220.973 288.502,221.621 288.083,221.667 288.024 C 221.713 287.965,222.125 287.658,222.583 287.342 C 223.042 287.026,223.454 286.726,223.500 286.675 C 223.546 286.625,223.958 286.288,224.417 285.927 C 225.502 285.074,229.134 281.364,229.254 280.988 C 229.466 280.320,230.167 280.681,230.167 281.458 C 230.167 283.484,233.622 285.508,237.292 285.631 L 239.500 285.705 239.500 287.178 C 239.500 289.818,240.394 292.259,241.821 293.516 C 242.869 294.439,242.955 294.500,243.210 294.500 C 243.333 294.500,243.527 294.594,243.642 294.708 C 244.082 295.148,248.407 294.982,249.781 294.472 L 250.980 294.028 251.063 294.472 C 251.108 294.717,251.194 295.354,251.253 295.890 C 251.757 300.443,255.320 304.167,259.175 304.167 C 261.622 304.167,263.185 303.381,265.894 300.788 L 266.899 299.827 267.658 300.557 C 272.136 304.867,276.865 305.005,279.957 300.917 C 281.406 298.999,282.333 296.524,282.333 294.571 C 282.333 293.890,282.174 293.904,284.099 294.417 C 288.569 295.606,291.891 294.085,292.993 290.345 C 293.411 288.929,293.730 286.475,293.593 285.741 L 293.485 285.167 294.701 285.167 C 295.370 285.166,296.479 285.038,297.167 284.880 C 297.854 284.723,298.829 284.611,299.333 284.632 C 300.499 284.682,303.282 284.057,303.742 283.643 C 304.096 283.324,304.333 283.509,304.333 284.106 C 304.333 285.824,305.210 286.871,306.672 286.900 C 307.494 286.917,307.497 286.919,307.413 287.417 C 306.565 292.423,307.019 295.346,308.808 296.390 C 310.037 297.108,312.617 296.605,314.234 295.333 C 315.030 294.707,315.992 293.863,316.859 293.031 L 317.801 292.125 318.090 293.438 C 318.553 295.542,319.080 296.422,320.301 297.125 C 321.071 297.569,323.164 297.321,323.804 296.710 C 323.925 296.595,324.076 296.500,324.139 296.500 C 324.301 296.500,326.292 294.540,326.371 294.303 C 326.492 293.940,326.786 294.320,327.004 295.121 C 328.132 299.276,331.133 300.710,333.676 298.309 C 334.373 297.651,335.833 295.634,335.833 295.330 C 335.833 295.214,336.091 295.456,336.406 295.869 C 337.403 297.174,338.898 297.510,339.994 296.674 L 340.406 296.361 341.087 297.722 C 345.090 305.719,350.519 304.271,351.445 294.958 C 351.559 293.805,351.494 293.815,352.462 294.807 C 356.092 298.527,359.451 297.376,360.038 292.213 L 360.214 290.665 360.899 291.222 C 365.164 294.687,368.417 293.442,368.417 288.343 L 368.417 286.238 369.250 286.459 C 370.837 286.881,372.301 286.268,372.606 285.054 C 372.731 284.555,372.716 284.553,374.265 285.316 C 378.528 287.415,381.667 287.049,382.473 284.357 C 382.922 282.860,382.456 280.675,381.052 277.688 C 380.210 275.896,380.214 275.877,381.347 276.138 C 386.483 277.324,388.719 274.179,386.112 269.436 L 385.528 268.372 387.055 268.291 C 389.033 268.186,390.148 267.920,390.741 267.410 C 391.004 267.185,391.265 267.000,391.321 267.000 C 391.378 267.000,391.566 266.736,391.740 266.414 C 392.572 264.868,391.732 262.158,389.863 260.366 C 389.394 259.916,389.376 259.946,390.351 259.528 C 391.935 258.849,392.514 257.595,391.953 256.059 C 391.834 255.734,391.888 255.694,392.536 255.622 C 394.629 255.391,396.867 254.687,397.852 253.950 C 398.071 253.786,398.329 253.599,398.425 253.535 C 399.478 252.827,399.882 250.891,399.252 249.565 C 398.633 248.259,394.582 245.000,393.579 245.000 C 393.150 245.000,392.914 244.491,393.296 244.391 C 394.578 244.056,396.654 242.504,397.168 241.497 C 398.222 239.432,397.144 237.493,394.134 236.037 C 392.636 235.313,392.647 235.334,393.462 234.795 C 398.065 231.749,397.475 227.663,392.265 226.502 C 391.028 226.227,390.928 226.140,391.291 225.656 C 392.424 224.149,392.207 222.567,390.745 221.664 L 390.163 221.304 391.246 220.193 C 391.842 219.583,392.457 218.896,392.613 218.667 C 392.770 218.438,392.947 218.213,393.008 218.167 C 394.233 217.240,394.518 213.778,393.462 212.645 C 392.356 211.459,387.439 210.823,385.212 211.578 C 384.863 211.696,384.876 211.637,385.426 210.600 C 385.748 209.993,386.093 209.093,386.192 208.601 L 386.371 207.707 387.130 207.603 C 387.898 207.498,390.337 206.831,391.610 206.379 L 392.304 206.133 392.425 204.358 C 392.570 202.246,392.418 197.927,392.153 196.655 C 391.770 194.810,391.467 193.564,391.231 192.853 C 391.098 192.451,391.010 192.107,391.036 192.088 C 391.062 192.068,391.528 191.728,392.073 191.332 C 395.280 188.993,400.000 184.202,400.000 183.285 C 400.000 182.883,398.727 180.581,397.542 178.841 C 396.531 177.357,394.680 175.059,393.849 174.258 C 393.036 173.473,393.034 173.446,393.648 172.028 C 394.705 169.584,395.818 165.831,396.103 163.750 L 396.194 163.083 394.639 162.056 C 393.212 161.114,389.956 159.360,388.750 158.885 C 387.575 158.422,386.203 157.959,385.583 157.818 C 385.217 157.735,384.603 157.583,384.220 157.481 L 383.524 157.297 383.341 156.107 C 383.166 154.969,383.015 154.081,382.684 152.250 C 382.377 150.548,381.357 147.139,380.695 145.602 L 380.417 144.954 376.750 145.049 C 373.147 145.142,372.366 145.233,369.802 145.854 C 368.277 146.223,368.234 146.210,367.545 145.196 C 367.250 144.760,366.875 144.254,366.712 144.071 C 366.550 143.888,366.025 143.281,365.546 142.721 L 364.675 141.702 365.953 140.560 C 366.656 139.931,367.425 139.229,367.662 139.000 C 367.899 138.771,368.801 137.946,369.667 137.167 C 372.917 134.240,379.866 127.424,382.921 124.166 C 386.349 120.512,388.633 116.346,390.325 110.667 C 391.106 108.047,391.117 108.007,391.406 106.750 C 391.554 106.108,391.744 105.283,391.829 104.917 C 392.142 103.561,392.330 102.550,392.509 101.250 C 392.610 100.517,392.761 99.429,392.846 98.833 C 393.116 96.928,393.322 94.457,393.328 93.042 L 393.333 91.667 392.542 91.667 C 391.827 91.667,390.666 91.847,388.250 92.333 C 387.487 92.486,386.997 92.637,386.083 92.999 C 385.900 93.072,385.375 93.263,384.917 93.425 C 382.970 94.110,378.715 96.428,377.890 97.253 C 377.754 97.389,377.587 97.500,377.520 97.500 C 377.452 97.500,377.250 97.631,377.071 97.792 C 376.893 97.952,376.406 98.357,375.990 98.692 C 373.368 100.802,370.187 104.530,368.169 107.859 C 367.095 109.630,365.333 112.971,365.333 113.237 C 365.333 113.284,365.146 113.733,364.917 114.234 C 364.688 114.735,364.500 115.226,364.500 115.325 C 364.500 115.424,364.426 115.635,364.336 115.794 C 364.161 116.103,363.074 119.360,362.961 119.917 C 362.923 120.100,362.842 118.375,362.780 116.083 C 362.718 113.792,362.637 111.129,362.599 110.167 L 362.529 108.417 363.341 107.859 C 364.210 107.262,367.000 104.575,367.000 104.335 C 367.000 104.256,367.096 104.091,367.214 103.970 C 367.572 103.603,370.964 98.057,372.027 96.101 C 373.076 94.173,374.341 91.428,374.269 91.239 C 374.120 90.851,373.953 90.964,373.250 91.928 C 372.502 92.955,371.358 94.467,370.693 95.311 C 369.070 97.370,367.423 99.429,367.344 99.500 C 367.292 99.546,366.801 100.108,366.253 100.750 C 365.704 101.392,365.166 101.973,365.058 102.042 C 364.878 102.157,363.775 103.586,363.167 104.493 C 362.492 105.498,362.511 105.557,362.505 102.458 C 362.502 100.831,362.556 99.500,362.625 99.499 C 362.694 99.499,363.091 99.180,363.507 98.791 C 363.923 98.402,364.598 97.790,365.007 97.432 C 370.495 92.622,378.638 84.500,380.282 82.196 C 381.784 80.091,383.631 76.015,384.411 73.083 C 384.533 72.625,384.747 71.837,384.885 71.333 C 385.115 70.499,385.224 69.996,385.683 67.667 C 386.049 65.804,386.371 62.888,386.450 60.708 L 386.537 58.333 385.894 58.337 C 384.919 58.342,381.668 58.965,380.583 59.354 C 379.277 59.823,376.982 60.854,376.474 61.199 C 376.231 61.365,375.989 61.500,375.936 61.500 C 375.155 61.500,370.057 65.837,368.687 67.667 C 368.447 67.987,368.114 68.400,367.947 68.583 C 366.863 69.777,364.182 74.411,363.752 75.833 C 363.683 76.063,363.568 76.325,363.497 76.417 C 363.426 76.508,363.163 77.183,362.914 77.917 C 362.664 78.650,362.406 79.350,362.340 79.473 C 362.188 79.756,362.001 74.060,362.000 69.125 C 362.000 65.965,362.039 65.333,362.236 65.333 C 362.366 65.333,362.497 65.273,362.528 65.199 C 362.558 65.125,363.010 64.783,363.531 64.439 C 366.109 62.741,369.799 57.382,373.342 50.192 C 374.256 48.337,374.442 47.667,374.041 47.667 C 373.966 47.667,373.763 47.910,373.590 48.208 C 373.417 48.506,373.232 48.788,373.179 48.833 C 373.126 48.879,372.745 49.367,372.333 49.917 C 371.921 50.467,371.546 50.954,371.500 51.000 C 371.454 51.046,371.079 51.533,370.667 52.083 C 370.255 52.633,369.880 53.121,369.833 53.167 C 369.787 53.212,369.113 54.038,368.335 55.000 C 366.851 56.837,366.418 57.337,365.128 58.706 C 364.694 59.167,363.981 60.076,363.544 60.726 C 363.108 61.377,362.619 62.056,362.458 62.236 C 362.298 62.416,362.157 62.642,362.146 62.740 C 362.134 62.837,362.065 62.579,361.991 62.167 C 361.807 61.128,361.800 56.207,361.983 56.139 C 362.130 56.084,363.797 54.618,365.741 52.833 C 375.564 43.817,377.608 40.691,379.144 32.333 C 379.794 28.798,380.041 25.000,379.621 25.000 C 377.239 25.000,371.863 26.718,370.641 27.869 C 370.517 27.987,370.002 28.363,369.499 28.706 C 367.112 30.328,364.356 33.765,362.681 37.208 C 362.070 38.465,361.671 38.989,361.665 38.542 C 361.664 38.473,361.548 37.442,361.407 36.250 C 361.266 35.058,361.043 32.996,360.912 31.667 L 360.674 29.250 361.212 28.796 C 362.257 27.913,362.907 27.233,363.964 25.917 C 364.540 25.199,366.333 22.603,366.333 22.487 C 366.333 22.406,366.623 22.192,366.977 22.012 C 369.003 20.978,368.236 18.082,365.946 18.116 C 364.421 18.139,363.466 19.660,364.131 21.005 L 364.475 21.700 363.862 22.620 C 363.526 23.126,363.131 23.718,362.987 23.935 C 362.842 24.152,362.504 24.575,362.237 24.874 C 361.969 25.174,361.534 25.737,361.269 26.126 C 360.593 27.120,360.564 27.073,360.442 24.807 C 360.203 20.363,360.267 19.410,360.834 18.971 C 361.877 18.164,362.612 17.401,363.969 15.713 C 364.273 15.335,364.705 14.814,364.927 14.555 C 365.150 14.295,365.333 14.032,365.333 13.970 C 365.333 13.908,365.431 13.758,365.549 13.637 C 365.668 13.516,366.241 12.693,366.823 11.809 C 367.786 10.346,367.936 10.193,368.498 10.103 C 371.759 9.581,371.081 4.333,367.753 4.333 C 365.388 4.333,363.640 7.370,365.163 8.833 C 365.935 9.575,365.935 9.570,364.998 10.953 C 364.044 12.362,362.542 14.385,362.055 14.917 C 361.887 15.100,361.453 15.644,361.091 16.125 C 360.728 16.606,360.399 17.000,360.359 17.000 C 360.267 17.000,360.477 12.467,360.676 10.167 C 360.930 7.217,361.187 5.985,361.577 5.833 C 363.684 5.012,363.480 1.088,361.295 0.406 C 361.087 0.342,360.862 0.205,360.794 0.103 C 360.708 -0.028,360.671 -0.021,360.669 0.125 M345.752 20.251 C 353.643 23.174,359.084 31.891,359.433 42.167 L 359.521 44.750 359.026 43.333 C 357.055 37.693,353.005 31.112,348.575 26.354 C 347.165 24.840,347.099 24.980,348.098 27.367 C 349.921 31.727,353.546 37.950,357.349 43.250 L 358.066 44.250 356.242 42.559 C 346.963 33.961,345.184 30.782,343.910 20.534 L 343.800 19.652 344.275 19.766 C 344.536 19.828,345.201 20.046,345.752 20.251 M377.000 28.328 C 377.000 30.751,375.292 37.296,373.993 39.850 C 373.038 41.727,368.935 46.263,365.114 49.667 L 364.272 50.417 364.991 49.417 C 368.263 44.869,371.236 39.710,372.997 35.523 C 374.113 32.870,374.041 32.808,372.160 34.791 C 368.530 38.620,364.602 44.961,362.998 49.583 L 362.478 51.083 362.569 48.833 C 362.868 41.496,366.141 34.617,371.077 30.954 C 373.310 29.297,377.000 27.661,377.000 28.328 M338.003 55.508 C 350.432 58.911,358.848 72.367,358.831 88.809 C 358.828 91.278,358.651 92.276,358.428 91.085 C 357.613 86.740,352.891 77.665,347.618 70.306 C 345.171 66.892,341.833 62.887,341.833 63.365 C 341.833 63.883,345.212 70.522,347.544 74.583 C 349.609 78.181,356.625 89.251,357.729 90.655 C 358.843 92.069,354.016 87.548,348.239 81.766 C 341.616 75.137,340.161 72.730,338.253 65.250 C 337.377 61.817,336.361 55.167,336.712 55.167 C 336.736 55.167,337.318 55.320,338.003 55.508 M383.733 62.125 C 382.724 70.624,381.139 75.866,378.203 80.410 C 377.189 81.980,363.439 95.703,364.252 94.333 C 364.334 94.196,365.501 92.433,366.847 90.417 C 372.102 82.540,376.037 75.718,378.327 70.515 C 379.163 68.614,379.129 68.553,377.944 69.833 C 372.410 75.810,365.478 87.388,363.824 93.417 C 363.200 95.693,363.163 95.589,363.233 91.750 C 363.421 81.412,366.757 73.014,373.033 67.077 C 375.974 64.296,380.795 61.708,383.705 61.348 C 383.772 61.340,383.785 61.690,383.733 62.125 M331.247 91.087 C 344.469 94.522,354.552 107.125,357.310 123.667 C 357.943 127.460,358.357 136.955,357.920 137.661 C 357.712 137.998,357.376 137.533,357.258 136.747 C 356.381 130.895,347.101 114.524,338.744 104.083 C 335.911 100.544,335.873 100.620,338.197 105.167 C 341.551 111.727,345.065 117.727,351.913 128.583 C 354.226 132.250,356.372 135.700,356.681 136.250 L 357.244 137.250 356.747 136.860 C 354.119 134.800,340.641 121.625,338.306 118.833 C 334.796 114.637,331.989 107.567,330.428 98.994 C 330.074 97.048,329.876 95.580,329.411 91.458 C 329.307 90.530,329.194 90.553,331.247 91.087 M390.500 95.292 C 390.498 100.120,388.008 110.301,385.561 115.488 C 383.355 120.161,377.967 126.013,365.434 137.345 L 364.618 138.083 364.909 137.518 C 365.069 137.207,366.979 134.169,369.155 130.768 C 376.024 120.025,382.157 109.360,383.926 105.083 L 384.202 104.417 383.752 104.833 C 377.916 110.242,366.487 129.705,364.500 137.618 C 364.003 139.600,363.746 137.613,363.883 132.833 C 364.417 114.148,374.035 99.325,388.333 95.149 C 390.467 94.526,390.500 94.529,390.500 95.292 M362.270 143.208 C 363.691 144.678,365.669 147.051,365.663 147.279 C 365.662 147.355,365.026 147.815,364.251 148.301 C 362.062 149.675,359.419 152.583,358.914 154.175 C 358.758 154.667,358.640 154.582,357.922 153.455 C 357.000 152.010,354.936 149.922,353.351 148.833 C 352.617 148.329,352.013 147.869,352.008 147.810 C 351.968 147.289,356.443 143.767,358.833 142.439 C 360.471 141.529,360.696 141.580,362.270 143.208 M359.508 143.125 C 356.911 145.817,356.299 150.377,358.180 153.019 C 358.824 153.923,358.883 153.675,358.793 150.458 C 358.676 146.225,359.021 144.595,360.427 142.751 C 361.145 141.810,360.540 142.056,359.508 143.125 M339.947 146.074 C 350.605 148.329,357.995 154.334,357.096 160.008 C 356.973 160.783,356.819 162.354,356.754 163.500 C 356.548 167.141,355.247 169.848,353.444 170.385 C 352.053 170.800,352.525 171.423,349.239 164.833 C 346.018 158.372,344.384 155.333,344.132 155.333 C 343.888 155.333,344.097 157.516,344.515 159.330 C 345.526 163.718,347.263 167.390,349.783 170.464 C 350.631 171.498,350.816 171.833,350.539 171.833 C 350.468 171.833,350.025 172.171,349.552 172.584 C 348.564 173.449,348.751 173.469,346.250 172.242 C 345.320 171.785,344.370 171.155,343.750 170.583 C 342.585 169.508,341.338 168.642,339.977 167.962 C 336.072 166.011,333.852 159.809,335.098 154.333 C 335.643 151.940,338.280 145.833,338.769 145.833 C 338.792 145.833,339.323 145.941,339.947 146.074 M379.138 149.375 C 383.616 163.884,379.332 172.533,367.222 173.432 L 365.695 173.546 364.766 172.731 C 364.255 172.283,363.837 171.865,363.835 171.802 C 363.833 171.645,366.411 167.628,369.159 163.507 C 373.844 156.483,374.042 155.849,370.693 158.598 C 367.194 161.468,363.993 165.952,362.639 169.877 C 362.339 170.744,362.192 170.978,362.000 170.890 C 361.863 170.828,361.287 170.621,360.721 170.430 L 359.693 170.083 359.555 168.833 C 358.020 154.930,363.787 147.914,376.930 147.695 L 378.611 147.667 379.138 149.375 M332.127 157.358 C 331.851 159.245,332.778 163.148,333.996 165.227 C 334.860 166.700,334.873 166.666,333.458 166.670 C 331.458 166.674,329.054 167.308,326.789 168.427 C 326.152 168.742,325.609 169.000,325.583 169.000 C 325.161 169.000,324.341 163.449,324.337 160.566 L 324.333 158.382 325.542 158.025 C 327.498 157.448,330.284 156.908,331.561 156.858 C 332.192 156.834,332.203 156.844,332.127 157.358 M325.070 159.292 C 325.524 162.606,328.996 165.922,332.224 166.124 C 334.593 166.271,334.165 165.751,330.315 163.804 C 327.848 162.555,326.534 161.370,325.667 159.610 C 325.018 158.291,324.927 158.242,325.070 159.292 M385.440 160.592 C 387.109 161.072,390.150 162.479,391.970 163.612 L 393.190 164.371 393.077 165.061 C 392.866 166.347,390.962 171.833,390.726 171.833 C 390.689 171.833,390.374 171.644,390.024 171.413 C 388.132 170.161,385.174 169.333,382.590 169.333 C 381.716 169.333,381.000 169.306,381.000 169.272 C 381.000 169.239,381.330 168.508,381.734 167.647 C 382.636 165.725,383.154 163.738,383.284 161.708 C 383.399 159.903,383.274 159.968,385.440 160.592 M387.185 164.330 C 385.292 164.843,384.171 165.426,383.303 166.349 C 382.542 167.160,381.704 168.593,381.886 168.775 C 382.015 168.903,383.893 167.930,385.083 167.119 C 385.633 166.744,386.340 166.262,386.653 166.048 C 387.712 165.327,389.821 164.790,391.328 164.858 C 392.860 164.928,393.003 164.814,391.875 164.425 C 390.587 163.980,388.623 163.940,387.185 164.330 M337.394 169.737 C 340.375 170.738,342.866 172.859,345.264 176.440 C 346.020 177.568,346.148 177.862,346.026 178.190 C 345.945 178.406,345.825 178.948,345.760 179.393 L 345.641 180.202 343.445 180.091 C 342.238 180.030,339.563 179.875,337.500 179.747 C 335.438 179.619,332.538 179.463,331.057 179.400 L 328.364 179.285 327.608 179.905 C 326.276 180.997,325.290 182.996,324.825 185.552 C 324.722 186.119,324.606 186.684,324.568 186.808 C 324.522 186.956,324.189 186.749,323.588 186.200 C 322.698 185.387,321.474 184.667,320.980 184.667 C 320.672 184.667,319.324 182.899,318.122 180.918 L 317.212 179.420 318.347 178.162 C 324.660 171.172,331.998 167.926,337.394 169.737 M385.411 172.261 C 389.515 173.368,394.338 177.804,396.604 182.555 L 396.900 183.178 394.909 185.184 C 384.381 195.785,375.196 195.953,368.626 185.664 L 368.039 184.744 368.302 183.519 L 368.565 182.294 371.241 182.407 C 372.713 182.470,374.742 182.588,375.750 182.670 C 376.758 182.752,379.441 182.910,381.712 183.023 C 386.408 183.255,386.919 183.166,385.233 182.410 C 380.793 180.420,375.048 179.572,370.522 180.238 C 369.481 180.392,368.612 180.495,368.591 180.467 C 368.471 180.303,368.156 177.986,368.236 177.856 C 368.437 177.532,371.771 175.378,372.250 175.264 C 373.340 175.004,375.811 173.916,376.889 173.222 C 377.932 172.550,378.916 172.209,380.583 171.941 C 381.490 171.795,384.399 171.988,385.411 172.261 M353.488 178.070 C 354.037 178.655,354.007 179.618,353.424 180.119 C 352.449 180.958,351.000 180.339,351.000 179.083 C 351.000 177.808,352.621 177.148,353.488 178.070 M356.238 177.929 C 356.741 178.432,356.452 179.167,355.750 179.167 C 354.743 179.167,354.772 177.698,355.780 177.672 C 355.888 177.669,356.094 177.785,356.238 177.929 M359.300 180.700 C 359.410 180.810,359.500 181.058,359.500 181.250 C 359.500 181.442,359.410 181.690,359.300 181.800 C 359.190 181.910,358.942 182.000,358.750 182.000 C 358.558 182.000,358.310 181.910,358.200 181.800 C 358.090 181.690,358.000 181.442,358.000 181.250 C 358.000 181.058,358.090 180.810,358.200 180.700 C 358.310 180.590,358.558 180.500,358.750 180.500 C 358.942 180.500,359.190 180.590,359.300 180.700 M330.750 182.542 C 331.766 183.585,333.060 185.845,333.990 188.199 L 334.365 189.149 334.020 190.699 C 333.412 193.432,332.996 196.433,332.699 200.220 L 332.583 201.690 331.767 199.720 C 330.588 196.873,329.018 193.706,327.673 191.457 C 326.368 189.277,326.359 189.230,326.756 186.957 C 327.342 183.609,328.363 181.500,329.399 181.500 C 329.593 181.500,330.167 181.943,330.750 182.542 M335.167 182.003 C 338.075 182.587,341.888 182.615,344.833 182.074 C 345.168 182.013,345.152 182.036,344.750 182.190 C 343.475 182.679,342.303 183.854,341.128 185.821 C 340.877 186.240,340.671 186.500,340.670 186.398 C 340.668 186.297,340.362 185.867,339.989 185.444 C 338.757 184.044,337.411 184.042,336.182 185.439 L 335.522 186.189 334.745 184.636 C 334.318 183.782,333.708 182.721,333.391 182.277 C 332.953 181.667,332.886 181.493,333.115 181.561 C 333.281 181.611,334.204 181.810,335.167 182.003 M346.133 184.428 C 346.826 184.914,347.545 186.712,348.008 189.115 L 348.206 190.147 347.584 191.260 C 346.612 192.997,345.124 196.079,344.329 198.000 C 343.434 200.164,343.333 200.285,343.333 199.206 C 343.333 197.903,342.726 193.445,342.240 191.182 L 341.808 189.172 342.606 187.657 C 344.006 185.003,345.283 183.833,346.133 184.428 M355.944 187.167 C 358.011 191.469,355.160 207.222,351.217 213.282 C 349.475 215.959,348.230 218.051,347.411 219.677 C 346.745 221.000,346.848 220.964,345.276 220.422 C 344.620 220.196,343.760 219.930,343.364 219.830 C 342.699 219.662,342.652 219.613,342.739 219.199 C 343.063 217.666,343.455 212.725,343.720 206.833 C 343.766 205.819,343.958 205.081,344.737 202.917 C 348.799 191.643,354.347 183.844,355.944 187.167 M321.271 187.160 C 325.573 189.627,332.233 203.828,332.655 211.431 C 332.819 214.387,333.157 217.801,333.431 219.268 C 333.525 219.771,333.504 219.793,332.723 219.989 C 332.280 220.101,331.373 220.404,330.706 220.663 L 329.494 221.133 329.106 220.442 C 328.893 220.061,328.321 219.037,327.836 218.167 C 326.771 216.253,325.008 213.479,323.494 211.333 C 319.916 206.261,317.323 189.614,319.710 187.042 C 320.154 186.563,320.242 186.570,321.271 187.160 M338.639 187.241 C 341.259 191.681,342.507 212.225,340.569 219.018 C 340.451 219.431,335.722 219.441,335.595 219.029 C 334.196 214.477,334.546 197.384,336.170 191.000 C 337.135 187.204,337.916 186.015,338.639 187.241 M366.234 188.221 C 366.885 189.099,366.653 193.481,365.817 196.083 C 365.724 196.373,365.327 196.828,364.870 197.167 C 363.751 197.997,359.836 201.972,358.175 203.966 C 356.504 205.970,356.552 205.973,357.068 203.899 C 357.902 200.541,358.415 197.503,358.759 193.892 C 359.030 191.058,364.985 186.539,366.234 188.221 M313.069 191.146 C 314.406 191.859,316.667 193.931,316.667 194.443 C 316.667 195.325,317.359 199.511,317.916 201.996 C 318.232 203.408,318.471 204.585,318.445 204.610 C 318.420 204.635,317.916 204.087,317.325 203.390 C 316.734 202.694,315.040 200.951,313.561 199.516 C 310.479 196.525,310.473 196.513,310.452 193.341 C 310.434 190.534,311.012 190.049,313.069 191.146 M370.392 191.889 C 371.793 193.130,372.709 193.767,374.098 194.467 C 375.431 195.138,377.113 196.893,376.486 196.959 C 375.554 197.055,374.266 197.384,373.335 197.762 C 372.788 197.985,372.301 198.167,372.253 198.167 C 372.206 198.167,372.167 197.789,372.167 197.328 C 372.167 195.400,371.356 194.593,369.533 194.708 C 368.555 194.769,368.333 194.740,368.403 194.558 C 368.451 194.434,368.584 193.545,368.698 192.583 C 368.943 190.521,368.878 190.548,370.392 191.889 M388.901 194.492 C 389.693 197.316,390.157 203.486,389.618 204.025 C 389.472 204.171,388.526 204.495,387.516 204.746 L 385.680 205.201 385.234 204.850 C 384.706 204.436,383.333 204.000,382.553 204.000 C 382.020 204.000,382.000 203.976,382.000 203.344 C 382.000 201.683,381.004 198.563,379.923 196.833 L 379.350 195.917 380.966 195.809 C 383.323 195.651,385.372 195.087,387.417 194.032 C 388.691 193.374,388.578 193.339,388.901 194.492 M369.953 197.792 C 369.544 202.625,361.910 214.873,354.036 223.328 L 352.722 224.739 351.653 223.899 C 351.065 223.437,350.157 222.797,349.637 222.477 L 348.690 221.894 349.587 220.205 C 354.990 210.028,366.200 197.094,369.983 196.674 C 370.019 196.670,370.006 197.173,369.953 197.792 M307.964 197.688 C 312.790 200.609,321.246 210.801,326.198 219.667 C 327.678 222.316,327.657 222.049,326.452 222.857 C 325.883 223.239,325.011 223.894,324.515 224.312 L 323.613 225.072 322.140 223.518 C 314.764 215.739,307.020 203.441,306.246 198.279 C 306.040 196.907,306.444 196.768,307.964 197.688 M298.511 198.101 C 299.747 198.465,301.803 199.481,303.465 200.548 L 304.847 201.435 305.642 203.276 C 306.517 205.304,308.187 208.406,309.692 210.800 C 310.228 211.653,310.667 212.385,310.667 212.427 C 310.667 212.468,310.085 212.138,309.375 211.694 C 306.431 209.851,302.710 207.908,300.126 206.865 C 298.124 206.057,298.292 206.199,297.414 204.587 C 295.880 201.773,295.167 198.891,295.812 198.110 C 296.110 197.750,297.309 197.746,298.511 198.101 M377.529 199.442 C 378.442 200.269,376.759 205.368,375.383 205.940 C 373.746 206.620,369.226 209.000,368.000 209.827 C 367.771 209.982,367.304 210.276,366.962 210.482 L 366.341 210.856 367.515 208.886 C 368.898 206.565,370.732 202.961,371.021 201.996 C 371.496 200.409,376.449 198.466,377.529 199.442 M379.305 204.518 C 378.996 204.710,378.953 204.470,379.193 203.900 L 379.398 203.417 379.462 203.899 C 379.500 204.182,379.435 204.437,379.305 204.518 M383.468 206.347 C 385.296 206.984,383.227 210.945,378.467 215.924 C 375.166 219.377,368.333 224.822,366.448 225.501 C 364.142 226.333,360.471 227.851,358.667 228.719 C 357.183 229.433,356.722 229.590,356.624 229.417 C 356.356 228.940,354.519 226.532,354.339 226.420 C 354.218 226.345,354.688 225.743,355.622 224.776 C 357.288 223.051,359.834 220.030,361.719 217.541 C 362.698 216.248,363.305 215.636,364.369 214.869 C 372.255 209.185,380.744 205.398,383.468 206.347 M296.534 207.907 C 303.341 209.880,312.747 215.738,316.499 220.343 C 317.645 221.748,319.351 223.724,320.291 224.734 C 322.308 226.901,322.207 226.476,321.062 227.999 C 320.545 228.685,320.046 229.416,319.951 229.623 C 319.729 230.112,319.753 230.116,318.045 229.314 C 317.241 228.937,316.171 228.444,315.667 228.219 C 314.356 227.634,309.987 225.959,308.417 225.439 C 305.488 224.468,297.375 217.515,294.101 213.169 C 290.275 208.090,291.089 206.329,296.534 207.907 M391.349 213.937 C 392.652 214.695,391.700 216.692,388.682 219.533 L 387.180 220.947 384.833 221.143 C 382.255 221.359,378.998 221.918,375.927 222.671 C 373.505 223.266,373.535 223.291,375.121 221.983 C 376.757 220.635,381.229 216.265,382.000 215.262 C 382.647 214.419,383.230 214.181,385.500 213.830 C 386.188 213.724,386.863 213.610,387.000 213.578 C 387.838 213.380,390.816 213.626,391.349 213.937 M274.859 215.680 C 277.468 217.011,278.736 220.101,278.745 225.149 L 278.750 227.880 278.252 228.232 C 276.386 229.550,275.968 230.928,276.865 232.806 L 277.210 233.529 276.814 234.389 C 276.049 236.048,274.138 238.691,272.567 240.262 C 270.296 242.533,270.431 242.542,270.186 240.115 C 269.839 236.681,269.155 233.338,268.117 230.000 L 267.728 228.750 267.614 232.250 C 267.495 235.908,267.362 237.256,266.876 239.750 C 266.662 240.847,266.573 241.093,266.543 240.667 C 266.329 237.550,265.779 233.778,265.168 231.250 C 264.724 229.407,263.859 226.304,263.764 226.209 C 263.726 226.170,263.736 227.439,263.786 229.028 C 263.949 234.135,263.024 242.143,262.237 242.445 C 261.667 242.664,257.738 238.881,256.312 236.741 C 249.313 226.234,253.145 211.278,261.377 216.975 C 262.331 217.636,264.120 219.451,264.926 220.575 C 265.728 221.694,265.605 221.705,266.454 220.445 C 269.161 216.426,272.553 214.503,274.859 215.680 M291.739 215.523 L 293.250 215.713 295.047 217.597 C 296.035 218.633,297.685 220.211,298.714 221.103 C 299.742 221.995,300.733 222.872,300.917 223.052 L 301.250 223.380 300.917 223.262 C 299.626 222.805,294.438 221.883,292.008 221.677 L 290.434 221.544 289.149 220.210 C 285.471 216.391,286.326 214.844,291.739 215.523 M389.452 223.560 L 389.889 223.788 389.077 224.656 C 385.703 228.263,373.123 233.446,362.523 235.597 C 360.855 235.935,359.453 236.175,359.408 236.130 C 359.362 236.085,359.174 235.503,358.990 234.838 C 358.806 234.173,358.470 233.190,358.244 232.653 C 358.018 232.116,357.833 231.644,357.833 231.603 C 357.833 231.469,361.382 229.816,363.667 228.886 C 373.555 224.859,386.736 222.137,389.452 223.560 M295.128 224.254 C 303.060 225.595,319.074 231.086,318.582 232.295 C 318.081 233.527,317.638 234.896,317.479 235.706 C 317.375 236.234,317.206 236.667,317.103 236.666 C 314.567 236.663,303.973 233.638,298.167 231.259 C 291.975 228.721,285.739 224.782,286.892 224.137 C 287.911 223.567,291.352 223.616,295.128 224.254 M247.217 224.932 C 247.877 225.077,248.795 225.421,249.257 225.696 L 250.098 226.195 250.299 227.889 C 250.929 233.183,253.255 237.885,257.154 241.750 C 258.630 243.212,258.845 243.759,258.103 244.156 C 257.735 244.353,257.620 244.297,256.542 243.393 C 253.864 241.147,246.989 236.833,246.088 236.833 C 246.041 236.833,246.875 237.677,247.943 238.708 C 250.061 240.756,252.199 243.217,253.529 245.141 L 254.381 246.373 252.498 244.854 C 249.440 242.386,246.081 240.198,243.107 238.736 L 241.583 237.987 242.750 239.021 C 247.172 242.939,252.418 249.297,252.065 250.309 C 251.738 251.244,250.872 251.031,249.294 249.628 C 245.056 245.861,240.717 243.879,235.534 243.345 C 233.495 243.135,232.930 242.477,232.378 239.670 C 231.561 235.527,234.598 233.732,241.025 234.559 L 242.133 234.702 241.891 233.559 C 240.596 227.441,242.754 223.946,247.217 224.932 M284.667 224.893 C 284.667 225.018,284.858 225.402,285.092 225.746 C 285.325 226.091,285.494 226.388,285.467 226.406 C 285.439 226.425,284.667 226.530,283.750 226.641 C 282.833 226.751,281.915 226.886,281.708 226.940 C 281.088 227.103,281.241 226.434,281.958 225.842 C 282.934 225.037,284.667 224.430,284.667 224.893 M205.083 225.247 C 215.345 227.045,224.082 233.281,229.079 242.375 C 229.861 243.798,230.011 243.829,225.718 241.682 C 212.114 234.880,195.825 229.095,187.886 228.247 C 185.922 228.037,185.890 227.747,187.755 227.035 C 192.878 225.080,199.956 224.349,205.083 225.247 M154.684 228.283 C 154.998 228.631,155.438 229.217,155.661 229.583 C 155.883 229.950,156.107 230.287,156.158 230.333 C 156.375 230.529,156.700 231.317,156.639 231.499 C 156.554 231.754,155.447 230.845,154.574 229.803 C 152.893 227.795,152.993 226.409,154.684 228.283 M333.833 227.833 C 334.865 228.865,333.336 230.402,332.209 229.466 C 332.094 229.371,332.000 229.006,332.000 228.656 C 332.000 227.611,333.112 227.112,333.833 227.833 M391.333 228.613 C 393.127 229.049,394.333 229.760,394.333 230.381 C 394.333 231.742,390.203 234.660,388.742 234.332 C 386.422 233.810,381.602 233.171,379.968 233.168 C 378.564 233.166,378.674 232.981,380.553 232.181 C 382.495 231.354,386.186 229.471,387.417 228.679 C 388.352 228.077,389.080 228.065,391.333 228.613 M191.500 229.963 C 192.646 230.423,196.058 231.826,199.083 233.082 C 208.957 237.182,217.520 240.532,223.814 242.758 C 226.823 243.821,227.012 243.912,226.557 244.075 C 225.514 244.450,223.772 245.568,222.764 246.512 L 221.708 247.500 220.205 247.500 C 215.034 247.500,210.313 246.289,207.121 244.143 C 202.442 240.998,193.330 233.834,187.599 228.796 L 187.083 228.343 188.250 228.735 C 188.892 228.950,190.354 229.503,191.500 229.963 M289.348 229.349 C 291.176 230.457,294.944 232.292,297.497 233.319 L 299.526 234.135 298.055 234.242 C 294.082 234.534,290.371 235.083,287.498 235.805 L 285.652 236.269 284.451 235.736 C 277.744 232.760,276.887 230.268,282.167 229.097 C 286.064 228.234,287.596 228.287,289.348 229.349 M168.687 231.542 C 169.318 232.396,170.050 233.968,170.306 235.020 C 170.409 235.444,170.541 235.913,170.598 236.062 C 171.038 237.208,168.468 234.021,167.747 232.526 C 166.916 230.804,167.609 230.080,168.687 231.542 M325.315 231.927 C 325.953 232.464,326.129 233.267,325.763 233.975 C 325.099 235.260,323.118 235.118,322.668 233.753 C 322.127 232.115,324.002 230.822,325.315 231.927 M121.705 235.859 C 123.341 236.970,125.875 239.688,126.686 241.202 C 126.873 241.553,126.752 241.515,124.779 240.603 C 124.062 240.271,123.445 240.000,123.407 240.000 C 123.370 240.000,122.832 239.693,122.211 239.318 C 118.588 237.127,117.809 236.170,118.846 235.180 C 119.472 234.581,120.011 234.709,121.705 235.859 M381.265 235.420 C 389.953 236.250,396.092 238.453,395.196 240.419 C 394.118 242.784,385.068 244.914,375.250 245.114 L 370.917 245.202 368.833 244.615 C 366.191 243.872,364.264 243.416,361.790 242.952 L 359.830 242.583 359.790 240.458 C 359.768 239.290,359.768 238.333,359.791 238.333 C 360.661 238.334,367.687 236.665,370.583 235.770 C 372.782 235.091,376.530 234.968,381.265 235.420 M281.375 236.630 C 282.375 237.203,282.441 237.041,280.542 238.692 C 275.474 243.098,271.736 245.071,274.858 241.692 C 276.280 240.153,277.707 238.205,278.542 236.665 L 279.248 235.363 279.916 235.770 C 280.283 235.994,280.940 236.381,281.375 236.630 M180.910 236.623 C 181.557 237.321,182.688 239.882,182.916 241.167 L 183.019 241.750 182.468 241.152 C 181.725 240.348,181.506 240.059,180.890 239.083 C 179.665 237.144,179.419 236.461,179.875 236.277 C 180.293 236.108,180.495 236.176,180.910 236.623 M308.122 236.898 C 310.332 237.530,313.889 238.351,315.750 238.658 L 316.917 238.850 316.917 240.982 L 316.918 243.113 314.917 243.481 C 312.398 243.945,308.908 244.811,306.000 245.693 L 303.750 246.375 300.167 246.278 C 288.723 245.967,279.631 243.215,281.745 240.703 C 284.473 237.461,301.502 235.005,308.122 236.898 M331.739 236.681 C 333.762 237.191,334.889 239.533,334.017 241.417 C 332.922 243.782,329.820 244.203,328.177 242.210 C 326.062 239.644,328.498 235.865,331.739 236.681 M159.289 239.917 C 161.806 240.601,161.984 240.722,160.727 240.894 C 157.615 241.320,154.299 240.571,155.445 239.700 C 155.823 239.413,157.858 239.528,159.289 239.917 M280.164 243.869 C 280.166 243.934,279.698 244.302,279.125 244.686 C 278.011 245.434,278.028 245.383,279.404 243.876 C 279.858 243.378,280.154 243.376,280.164 243.869 M363.894 245.599 C 374.100 247.871,385.579 252.655,389.117 256.109 C 392.899 259.802,375.900 257.021,363.500 251.918 C 359.813 250.401,357.975 249.470,358.096 249.181 C 358.471 248.279,359.184 246.034,359.275 245.466 L 359.382 244.793 360.316 244.901 C 360.830 244.961,362.440 245.275,363.894 245.599 M317.601 246.281 C 317.722 246.757,318.056 247.756,318.344 248.501 C 318.631 249.246,318.835 249.887,318.797 249.925 C 318.045 250.678,309.636 253.973,304.583 255.496 C 296.233 258.012,287.000 259.098,287.000 257.564 C 287.000 255.408,299.970 249.353,310.179 246.743 C 316.379 245.158,317.300 245.101,317.601 246.281 M283.556 245.767 L 284.338 246.033 283.201 246.832 C 281.983 247.687,280.500 249.213,280.500 249.611 C 280.500 249.909,280.227 249.757,279.999 249.332 C 279.858 249.069,279.987 248.841,280.767 247.966 C 281.283 247.389,281.934 246.598,282.214 246.208 C 282.494 245.819,282.735 245.500,282.749 245.500 C 282.763 245.500,283.126 245.620,283.556 245.767 M391.931 246.732 C 399.102 250.181,398.945 252.602,391.492 253.504 L 389.750 253.715 388.250 252.707 C 386.014 251.204,380.936 248.693,378.201 247.737 C 377.085 247.347,377.317 247.252,379.750 247.096 C 381.933 246.956,385.532 246.451,387.500 246.007 C 389.345 245.592,389.669 245.645,391.931 246.732 M236.445 246.083 C 241.271 246.865,245.320 249.112,248.989 253.044 C 250.086 254.219,250.129 254.177,247.571 254.440 C 244.608 254.745,237.644 256.303,237.181 256.764 C 237.142 256.802,237.971 256.833,239.022 256.833 C 242.164 256.833,248.924 257.535,249.288 257.899 C 249.314 257.925,248.342 258.039,247.126 258.151 C 243.028 258.529,235.135 260.143,234.557 260.720 C 234.531 260.747,235.823 260.736,237.430 260.697 C 242.236 260.578,250.500 261.524,250.500 262.193 C 250.500 263.155,246.030 267.470,243.393 269.054 C 235.750 273.645,224.396 272.567,223.424 267.159 C 223.091 265.300,225.070 262.219,228.081 259.913 L 229.338 258.950 228.211 258.200 C 226.608 257.135,224.371 254.818,223.677 253.504 C 221.066 248.561,227.754 244.673,236.445 246.083 M268.830 246.083 C 278.515 248.120,281.991 260.039,274.938 267.027 C 268.219 273.684,256.699 270.370,254.336 261.098 C 252.133 252.455,260.064 244.239,268.830 246.083 M101.167 246.656 C 104.695 247.406,105.332 247.692,104.146 247.996 C 103.745 248.098,103.229 248.245,103.000 248.322 C 102.253 248.572,101.417 248.789,98.500 249.491 C 93.336 250.733,89.720 250.148,90.313 248.167 C 90.866 246.324,96.148 245.589,101.167 246.656 M289.167 247.342 C 291.454 247.788,294.036 248.126,296.241 248.269 C 298.219 248.397,298.227 248.415,296.583 249.077 C 294.973 249.726,290.823 251.803,289.441 252.650 L 288.299 253.351 287.028 253.158 C 281.443 252.312,280.977 250.604,285.584 247.875 C 287.299 246.859,286.953 246.911,289.167 247.342 M325.529 247.776 C 325.908 248.120,325.924 248.957,325.558 249.362 C 324.929 250.057,323.625 249.531,323.625 248.583 C 323.625 247.652,324.828 247.142,325.529 247.776 M338.597 248.981 C 339.193 249.345,339.667 250.238,339.667 251.000 C 339.667 253.703,335.753 254.246,334.976 251.651 C 334.363 249.605,336.742 247.850,338.597 248.981 M116.500 250.071 C 116.500 250.111,116.406 250.244,116.292 250.367 C 116.177 250.491,115.833 250.913,115.527 251.305 C 113.770 253.555,110.722 255.844,108.799 256.356 C 107.948 256.583,107.000 255.970,107.000 255.194 C 107.000 254.002,112.436 251.023,116.458 250.010 C 116.481 250.005,116.500 250.032,116.500 250.071 M140.833 250.305 C 140.833 250.807,137.704 253.613,136.184 254.473 C 134.811 255.251,133.667 255.130,133.667 254.208 C 133.667 253.535,136.259 251.904,138.917 250.905 C 139.890 250.539,140.755 250.209,140.792 250.189 C 140.815 250.177,140.833 250.229,140.833 250.305 M219.188 250.503 L 220.458 250.701 220.540 251.892 C 220.629 253.190,221.108 254.453,222.005 255.757 C 222.645 256.688,222.786 256.573,220.583 256.912 C 208.198 258.819,192.163 264.631,180.625 271.396 C 179.456 272.081,178.500 272.613,178.500 272.577 C 178.500 272.109,181.716 267.177,183.440 265.000 C 191.931 254.281,206.225 248.484,219.188 250.503 M365.167 254.884 C 366.771 255.482,368.401 256.064,368.790 256.178 C 369.604 256.416,372.973 258.896,375.982 261.473 C 381.907 266.544,386.091 272.385,384.756 273.720 C 383.495 274.981,377.136 272.966,370.715 269.273 C 365.360 266.192,362.473 263.977,360.365 261.333 C 359.452 260.188,357.852 258.323,356.810 257.190 C 354.363 254.528,354.516 254.799,355.094 254.137 C 355.363 253.829,355.905 253.082,356.298 252.476 L 357.012 251.375 359.631 252.586 C 361.071 253.252,363.563 254.286,365.167 254.884 M320.421 252.542 C 320.676 252.931,321.211 253.667,321.609 254.177 C 322.523 255.346,322.582 255.126,320.869 256.900 C 319.177 258.652,316.574 261.747,314.874 264.029 C 311.064 269.142,294.796 277.094,292.756 274.840 C 290.488 272.333,304.202 258.210,311.608 255.425 C 313.949 254.545,318.047 252.778,319.167 252.166 C 319.937 251.745,319.888 251.731,320.421 252.542 M263.518 252.566 C 262.655 253.044,262.389 254.435,263.009 255.224 C 263.844 256.285,265.511 256.099,266.090 254.880 C 266.840 253.299,265.069 251.706,263.518 252.566 M152.917 254.327 C 153.558 254.428,154.346 254.595,154.667 254.699 C 157.231 255.531,157.588 255.735,156.792 255.909 C 156.366 256.002,154.820 256.298,153.583 256.522 C 149.933 257.185,147.158 256.766,147.172 255.554 C 147.188 254.162,149.161 253.741,152.917 254.327 M283.167 254.424 L 283.583 254.669 283.083 254.562 C 282.380 254.412,281.973 254.177,282.417 254.178 C 282.600 254.178,282.938 254.289,283.167 254.424 M260.204 256.593 C 259.471 257.106,259.933 258.333,260.858 258.333 C 261.280 258.333,261.860 257.518,261.736 257.099 C 261.519 256.364,260.847 256.142,260.204 256.593 M355.126 258.542 C 362.971 267.264,369.852 278.433,370.435 283.391 C 370.858 286.990,362.266 279.097,355.573 269.740 C 352.992 266.131,348.927 259.471,349.186 259.274 C 349.221 259.247,349.775 258.877,350.417 258.451 C 351.058 258.025,351.883 257.415,352.250 257.095 C 353.161 256.299,353.066 256.252,355.126 258.542 M175.496 261.083 C 174.890 264.681,173.989 266.500,172.811 266.500 C 171.435 266.500,171.422 264.774,172.776 261.833 C 173.564 260.122,174.335 258.626,174.923 257.663 L 175.583 256.583 175.638 258.250 C 175.668 259.167,175.604 260.442,175.496 261.083 M325.263 257.724 C 325.898 258.213,326.771 258.819,327.204 259.070 L 327.992 259.527 327.558 260.388 C 323.012 269.409,312.856 281.785,307.964 284.268 C 306.828 284.844,306.667 284.805,306.667 283.952 C 306.667 279.698,314.537 266.883,322.273 258.542 C 324.136 256.534,323.830 256.617,325.263 257.724 M256.234 257.817 C 253.845 258.902,254.697 262.668,257.331 262.666 C 259.974 262.665,260.846 258.913,258.455 257.827 C 257.573 257.427,257.099 257.425,256.234 257.817 M224.526 258.608 L 224.986 259.049 223.951 260.171 C 223.382 260.789,222.654 261.708,222.333 262.214 C 221.764 263.113,221.686 263.166,219.083 264.430 C 217.617 265.142,215.253 266.293,213.831 266.987 C 212.408 267.682,210.477 268.576,209.539 268.974 C 208.601 269.372,207.139 270.115,206.291 270.626 C 201.496 273.517,191.399 274.741,181.833 273.591 C 178.373 273.175,178.368 273.250,181.949 271.856 C 188.810 269.183,195.002 266.872,199.417 265.335 C 200.517 264.952,201.939 264.454,202.577 264.227 C 207.560 262.458,218.212 259.424,223.167 258.363 C 223.579 258.275,223.950 258.194,223.991 258.185 C 224.032 258.175,224.272 258.365,224.526 258.608 M377.420 258.583 C 380.011 259.173,382.825 259.635,384.645 259.769 L 386.206 259.884 387.359 261.037 C 390.737 264.416,390.629 265.855,386.988 265.972 C 383.811 266.073,383.728 266.038,381.234 263.494 C 379.479 261.704,377.988 260.332,375.592 258.301 C 375.374 258.117,375.361 258.115,377.420 258.583 M284.891 258.578 C 284.966 258.773,284.878 258.801,284.451 258.717 C 283.208 258.473,283.056 258.362,283.941 258.348 C 284.550 258.337,284.825 258.404,284.891 258.578 M302.742 258.476 C 302.655 258.555,301.983 259.128,301.250 259.750 C 299.417 261.304,295.701 264.982,294.401 266.529 C 293.075 268.106,291.162 268.677,287.178 268.686 C 282.969 268.696,282.841 267.127,286.733 263.233 C 289.351 260.614,289.778 260.334,291.150 260.332 C 293.075 260.331,299.227 259.275,301.750 258.513 C 302.411 258.313,302.944 258.294,302.742 258.476 M261.567 259.573 C 260.711 259.943,260.545 261.061,261.242 261.758 C 262.427 262.942,264.252 261.179,263.125 259.939 C 262.635 259.400,262.201 259.298,261.567 259.573 M347.872 261.542 C 348.865 263.471,351.015 266.980,352.610 269.277 C 354.509 272.012,354.364 271.718,355.232 274.599 C 358.816 286.503,358.917 296.497,355.431 294.342 C 351.381 291.839,344.409 277.488,344.091 271.000 C 343.965 268.445,343.580 264.239,343.335 262.750 C 343.209 261.984,343.218 261.732,343.377 261.673 C 343.757 261.532,347.082 260.375,347.167 260.355 C 347.212 260.344,347.530 260.878,347.872 261.542 M331.908 261.188 C 332.729 261.451,333.535 261.667,333.700 261.667 C 334.044 261.667,334.060 261.807,333.841 262.958 C 333.597 264.246,333.199 269.255,333.082 272.500 C 332.790 280.649,323.803 297.388,321.088 294.838 C 318.516 292.421,321.284 274.415,325.103 268.719 C 326.427 266.744,328.793 262.781,329.438 261.455 C 329.786 260.740,329.972 260.520,330.162 260.601 C 330.302 260.661,331.088 260.925,331.908 261.188 M264.465 261.875 C 264.011 262.232,263.964 262.743,264.343 263.224 C 264.927 263.967,266.000 263.606,266.000 262.667 C 266.000 261.885,265.066 261.403,264.465 261.875 M284.361 262.458 C 284.180 262.710,283.853 263.084,283.633 263.289 L 283.234 263.661 282.690 262.956 L 282.146 262.250 282.948 262.151 C 283.389 262.097,283.961 262.041,284.220 262.026 L 284.689 262.000 284.361 262.458 M341.278 263.585 C 342.790 274.694,341.745 289.843,339.165 294.215 C 337.624 296.827,335.548 287.817,335.236 277.167 C 335.103 272.607,335.556 264.782,336.083 262.546 C 336.165 262.198,338.245 261.993,340.829 262.078 C 341.010 262.084,341.127 262.476,341.278 263.585 M158.666 267.583 C 158.137 272.507,156.773 275.051,155.257 273.942 C 154.369 273.293,155.500 269.787,157.971 265.531 L 158.581 264.479 158.723 265.115 C 158.808 265.498,158.785 266.478,158.666 267.583 M261.667 265.167 C 261.483 265.350,261.333 265.650,261.333 265.833 C 261.333 266.017,261.483 266.317,261.667 266.500 C 261.850 266.683,262.150 266.833,262.333 266.833 C 262.517 266.833,262.817 266.683,263.000 266.500 C 263.183 266.317,263.333 266.017,263.333 265.833 C 263.333 265.650,263.183 265.350,263.000 265.167 C 262.817 264.983,262.517 264.833,262.333 264.833 C 262.150 264.833,261.850 264.983,261.667 265.167 M281.813 266.769 C 281.734 267.192,281.715 267.717,281.770 267.935 C 281.921 268.538,281.773 268.423,281.107 267.419 C 280.296 266.198,280.313 266.000,281.228 266.000 L 281.957 266.000 281.813 266.769 M252.334 266.502 C 252.488 266.789,252.374 267.002,251.538 267.995 C 249.325 270.624,245.000 277.517,245.000 278.415 C 245.000 278.440,246.069 277.392,247.375 276.087 C 249.609 273.855,251.841 271.957,253.750 270.666 L 254.583 270.103 253.955 270.843 C 251.519 273.716,248.636 278.010,246.856 281.417 L 245.986 283.083 246.618 282.409 C 246.966 282.038,247.839 281.079,248.560 280.278 C 250.893 277.683,257.388 272.333,258.204 272.333 C 258.450 272.333,258.667 272.977,258.667 273.709 C 258.667 273.893,258.183 274.556,257.591 275.183 C 253.864 279.134,251.811 283.507,251.153 288.896 L 250.932 290.708 250.080 291.274 C 248.196 292.525,245.338 292.786,243.996 291.830 C 242.479 290.750,241.752 287.159,242.352 283.713 C 242.578 282.415,242.660 282.486,241.250 282.761 C 236.167 283.750,232.500 282.261,232.500 279.206 C 232.500 276.298,233.459 274.588,235.186 274.415 C 240.674 273.864,246.522 270.954,250.000 267.044 C 250.867 266.069,251.966 265.814,252.334 266.502 M220.991 268.125 C 221.099 268.560,221.414 269.320,221.690 269.812 C 221.966 270.305,222.130 270.765,222.055 270.835 C 221.979 270.905,219.892 272.407,217.417 274.172 C 209.183 280.042,201.287 286.052,196.271 290.264 C 194.957 291.368,194.964 291.457,196.124 288.500 C 199.045 281.050,203.459 275.163,208.051 272.595 C 209.803 271.615,219.934 267.404,220.689 267.342 C 220.746 267.337,220.882 267.690,220.991 268.125 M368.667 270.563 C 370.772 271.827,373.405 273.212,375.335 274.070 L 376.754 274.700 377.613 276.142 C 382.242 283.909,380.898 286.437,374.135 282.681 L 372.433 281.735 371.741 279.909 C 370.655 277.044,368.110 272.201,366.273 269.504 L 365.765 268.757 366.341 269.135 C 366.658 269.342,367.704 269.985,368.667 270.563 M282.940 273.617 C 285.041 275.097,287.106 276.356,289.417 277.566 L 291.250 278.526 290.167 277.559 C 287.532 275.207,285.451 273.038,283.175 270.269 C 282.924 269.964,282.932 269.962,283.441 270.223 C 284.224 270.623,285.366 270.837,286.795 270.852 C 287.895 270.863,288.254 270.949,289.378 271.468 L 290.684 272.070 290.550 272.744 C 289.818 276.431,292.174 278.130,296.582 277.093 C 297.816 276.803,297.763 276.707,297.235 278.270 C 296.935 279.158,296.776 280.015,296.745 280.917 C 296.699 282.232,296.692 282.251,296.224 282.355 C 295.431 282.531,292.884 282.511,291.644 282.318 C 290.214 282.097,290.301 281.993,290.585 283.589 C 291.259 287.370,290.576 290.620,288.900 291.602 C 286.789 292.839,282.483 291.727,282.260 289.886 C 281.496 283.610,278.921 278.323,274.821 274.612 C 273.890 273.769,273.849 273.699,273.945 273.106 C 274.123 272.010,274.841 271.812,275.720 272.618 C 277.846 274.566,286.508 280.074,286.499 279.472 C 286.499 279.441,285.354 278.254,283.954 276.833 C 281.747 274.592,279.617 272.048,278.605 270.443 C 278.400 270.120,278.780 270.364,279.801 271.214 C 280.624 271.899,282.036 272.980,282.940 273.617 M309.100 272.651 C 307.916 274.646,306.502 277.416,305.756 279.201 C 304.943 281.149,299.967 283.211,299.093 281.963 C 298.496 281.111,300.060 275.661,300.899 275.668 C 301.252 275.671,306.431 272.989,308.250 271.861 C 309.258 271.236,310.108 270.743,310.139 270.765 C 310.170 270.788,309.702 271.637,309.100 272.651 M142.003 271.792 C 142.004 272.044,142.071 272.355,142.152 272.483 C 142.250 272.637,142.156 272.973,141.873 273.483 C 141.639 273.905,141.365 274.400,141.265 274.583 C 141.165 274.767,141.045 274.954,140.998 275.000 C 140.952 275.046,140.700 275.421,140.438 275.833 C 139.821 276.805,138.244 278.333,137.858 278.333 C 136.216 278.333,137.629 275.191,140.401 272.674 C 140.759 272.349,141.209 271.919,141.401 271.719 C 141.869 271.230,142.000 271.246,142.003 271.792 M226.089 273.460 C 226.705 273.771,227.680 274.064,228.652 274.230 C 229.515 274.378,230.247 274.525,230.278 274.556 C 230.479 274.757,228.020 278.261,226.125 280.474 C 219.403 288.321,206.471 293.086,196.583 291.359 L 195.917 291.243 197.583 290.344 C 204.440 286.649,215.062 279.429,222.075 273.696 L 223.900 272.205 224.498 272.582 C 224.827 272.790,225.543 273.185,226.089 273.460 M273.503 276.996 C 277.629 281.127,279.666 286.121,279.666 292.110 C 279.667 301.963,273.399 304.233,267.641 296.465 C 266.647 295.125,266.814 295.176,266.249 296.042 C 260.476 304.895,253.667 302.527,253.667 291.667 C 253.667 285.162,256.208 279.629,261.171 275.330 C 262.382 274.281,262.342 274.253,262.525 276.286 C 262.803 279.376,263.641 283.479,264.576 286.333 L 264.985 287.583 264.996 285.167 C 265.008 282.454,265.317 279.037,265.765 276.667 L 266.063 275.083 266.343 277.751 C 266.800 282.105,268.310 289.366,268.877 289.933 C 268.902 289.957,268.894 288.666,268.859 287.063 C 268.768 282.924,269.276 277.527,270.012 274.788 L 270.182 274.159 271.216 274.950 C 271.785 275.385,272.814 276.306,273.503 276.996 M319.595 277.598 C 318.748 281.039,318.469 282.731,317.897 287.917 C 317.708 289.622,312.260 294.500,310.544 294.500 C 309.012 294.500,308.774 291.904,309.859 287.055 L 310.202 285.526 311.559 284.447 C 313.145 283.186,317.106 279.189,318.739 277.201 C 320.109 275.534,320.103 275.532,319.595 277.598 M361.998 280.887 C 362.870 281.787,364.085 282.942,364.697 283.453 C 365.984 284.526,366.224 285.279,366.229 288.250 C 366.235 291.573,364.702 291.672,361.357 288.565 L 360.034 287.336 359.918 286.126 C 359.759 284.483,359.235 281.452,358.742 279.333 C 358.519 278.371,358.292 277.396,358.240 277.167 C 358.168 276.857,358.434 277.071,359.278 278.000 C 359.902 278.688,361.126 279.987,361.998 280.887 M347.051 286.442 C 347.566 287.465,348.336 288.890,348.763 289.609 L 349.540 290.917 349.438 292.636 C 349.185 296.875,347.861 300.667,346.633 300.667 C 345.497 300.667,343.755 298.378,342.323 295.006 L 341.795 293.762 342.076 292.870 C 343.031 289.842,343.987 283.679,344.005 280.435 L 344.010 279.583 345.062 282.083 C 345.641 283.458,346.536 285.420,347.051 286.442 M333.998 287.886 C 334.181 288.968,334.456 290.375,334.609 291.012 C 334.934 292.357,334.785 292.828,333.321 295.081 C 331.406 298.027,330.235 297.849,329.189 294.454 C 328.436 292.006,328.407 291.339,329.010 290.320 C 329.303 289.823,330.045 288.404,330.657 287.167 C 331.624 285.213,332.029 284.310,333.023 281.894 C 333.198 281.469,333.245 281.665,333.443 283.667 C 333.566 284.904,333.816 286.803,333.998 287.886 " stroke="none" fill="#fff" fill-rule="evenodd"></path>
  </g>
</svg>
