<svg height="402.777778" viewBox="0 0 400 402.77777778" width="400" xmlns="http://www.w3.org/2000/svg"><path d="m178.968 2.029c-51.284 30.825-69.732 69.707-53.272 112.28l1.16 2.999-4.003-3.013c-34.394-25.883-73.015-20.783-117.992 15.581-5.747 4.647-5.524 3.536-2.516 12.522 14.446 43.162 40.04 75.185 67.38 84.305l2.86.954-4.447 3.01c-27.485 18.605-38.088 51.042-31.808 97.309 1.964 14.477.769 12.832 10.782 14.837 42.49 8.511 81.915 3.55 104.081-13.095 2.002-1.504 3.699-2.734 3.771-2.734.071 0 .609 1.473 1.195 3.274 7.987 24.535 34.557 50.303 70.767 68.632 10.19 5.158 8.241 5.684 19.057-5.14 32.24-32.264 43.085-62.562 33.41-93.339-1.411-4.492-1.542-4.273 1.685-2.825 14.835 6.656 35.036 7.438 55.628 2.153 18.554-4.762 41.801-15.706 58.969-27.761l4.41-3.097-.246-1.801c-1.874-13.738-11.033-38.925-18.819-51.748-13.285-21.882-29.582-33.337-54.328-38.186-.773-.152-.319-.724 3.513-4.426 21.431-20.706 33.009-66.265 27.481-108.139l-.249-1.887-4.413-1.374c-46.381-14.44-80.761-10.177-103.833 12.875l-3.784 3.781-1.688-5.159c-7.567-23.13-30.473-51.309-57.369-70.572-3.784-2.71-3.259-2.694-7.382-.216m10.119 15.249c25.603 20.914 43.342 46.232 47.454 67.726l.822 4.295-1.765 3.069c-6.222 10.813-15.36 36.204-15.36 42.68 0 .584-.206.711-.893.551-.491-.114-2.768-.677-5.059-1.251-2.292-.574-4.697-1.176-5.345-1.338l-1.179-.295-3.583-20.532-3.584-20.531-.242 6.456c-.134 3.55-.268 11.653-.298 18.004-.061 12.827-.296 16.428-1.072 16.428-.658 0-.383 1.514-4.742-26.191-2.077-13.204-3.856-24.186-3.953-24.405-.096-.218-.156 11.201-.132 25.376l.043 25.773-2.143.483c-1.179.266-2.219.408-2.31.317-.092-.092-1.989-12.532-4.216-27.645-2.226-15.113-4.15-27.835-4.274-28.272-.228-.8-.072 18.096.367 44.467l.238 14.309-1.706.67c-.956.375-1.803.511-1.926.308-.122-.199-2.275-15.761-4.785-34.582-5.375-40.305-5.123-40.518-3.986 3.393.447 17.246.805 32.517.796 33.935l-.017 2.58-2.464 1.878c-1.355 1.033-3.149 2.461-3.987 3.174l-1.524 1.295-1.254-1.546c-2.376-2.929-8.03-10.961-10.482-14.89-29.028-46.508-19.673-83.906 29.203-116.748l6.483-4.356 1.453 1.087c.8.597 3.24 2.545 5.422 4.328m131.945 46.968c7.805 1.159 14.079 2.505 22.297 4.783l4.639 1.286.269 2.151c.479 3.836-.088 27.698-.8 33.685-6.711 56.374-34.716 81.211-82.497 73.165-8.284-1.395-8.819-.526 9.561-15.508 8.459-6.895 15.826-12.92 16.372-13.389l.992-.852-1.712.833c-.942.458-8.972 4.759-17.844 9.557l-16.132 8.724-.677-.897c-.901-1.195-2.757.428 19.918-17.415 19.205-15.113 21.917-17.338 18.927-15.525-1.219.74-41.181 23.23-43.035 24.22-.79.422-1.004.293-2.267-1.361l-1.395-1.827 22.704-17.468c12.487-9.607 22.882-17.655 23.1-17.884.515-.54.791-.697-26.699 15.153-12.938 7.46-23.782 13.663-24.097 13.784-.552.211-2.907-1.335-2.952-1.939-.012-.163 12.836-9.94 28.55-21.728s28.571-21.517 28.571-21.618c0-.102-1.741.861-3.869 2.141-10.722 6.446-59.122 35.103-59.839 35.43-.886.404-3.752-.94-3.752-1.758 0-.93 2.166-9.967 3.634-15.164 13.289-47.034 42.742-67.302 88.033-60.579m-231.667 45.253c18.39 3.948 35.477 16.515 51.564 37.922 4.561 6.07 8.757 12.504 8.534 13.086-.153.398-5.026-.685-20.558-4.57-11.197-2.801-20.409-5.041-20.472-4.979-.063.063 6.184 3.03 13.881 6.593 7.698 3.563 15.995 7.414 18.44 8.558l4.444 2.079-.853 2.019c-.664 1.571-1.007 1.969-1.55 1.797-2.148-.682-47.74-12.826-47.827-12.739-.057.057 10.204 4.663 22.801 10.236l22.906 10.132-.129 1.549c-.07.851-.171 1.591-.223 1.644-.053.052-12.493-3.371-27.645-7.608-15.152-4.236-27.592-7.659-27.645-7.606-.052.053 11.999 5.295 26.781 11.65 25.004 10.749 26.885 11.625 27.002 12.574.168 1.367 3.312 2.176-33.857-8.719-18.276-5.358-33.299-9.671-33.385-9.585-.085.085 14.624 6.28 32.687 13.765 18.063 7.486 32.986 13.737 33.161 13.892.42.372-5.443 4.364-11.516 7.843-41.141 23.562-77.064 8.059-103.436-44.64-3.945-7.885-10.962-24.908-10.962-26.596 0-.172 1.745-1.675 3.879-3.342 26.878-20.995 52.368-29.594 73.978-24.955m119.96 47.44c34.471 10.132 42.14 61.098 12.104 80.435-25.995 16.735-59.537-5.598-59.523-39.633.009-21.531 13.297-38.254 33.332-41.948 2.793-.515 10.595.119 14.087 1.146m114.881 30.203c32.091 4.654 54.505 31.102 64.457 76.056.697 3.145-27.872 18.188-45.806 24.119-37.464 12.389-64.974 5.391-82.735-21.047-2.063-3.071-8.507-15.612-9.125-17.758-.329-1.144-2.02-1.222 19.664.908 10.084.991 18.495 1.748 18.692 1.682s-8.086-2.598-18.406-5.626c-10.321-3.029-18.895-5.58-19.055-5.669-.16-.09.19-.913.777-1.83s1.082-1.704 1.1-1.75c.028-.069 34.132 3.798 38.89 4.41 3.053.392.085-.508-17.659-5.358-20.529-5.611-18.127-4.645-17.21-6.929.998-2.484-.991-2.534 23.837.596 12.215 1.54 22.462 2.788 22.771 2.774s-9.17-2.605-21.065-5.758-21.833-5.808-22.085-5.9c-1.094-.399.628-4.967 1.792-4.753 2.456.45 52.584 7.294 52.685 7.193.062-.061-11.174-2.951-24.969-6.42-13.795-3.47-25.646-6.459-26.336-6.641l-1.254-.332.064-6.535.064-6.535 5.357-1.766c9.122-3.007 10.488-3.301 16.545-3.563 6.95-.3 13.958-1.46 19.51-3.228 4.793-1.527 10.617-1.628 19.5-.34m-181.469 34.912c.077.235-6.918 6.826-15.544 14.646-8.627 7.82-15.685 14.278-15.685 14.352s2.277-1.263 5.059-2.971c29.993-18.408 30.206-18.525 30.252-16.689.005.173-31.453 27.964-38.062 33.625-1.351 1.157 30.156-18.585 41.509-26.009 2.745-1.795-.961 1.505-21.512 19.153-20.641 17.726-23.632 20.384-20.917 18.59 31.786-20.997 48.622-31.536 49.34-30.887.418.378.76.822.76.986s-12.411 10.685-27.58 23.38c-15.169 12.694-27.579 23.157-27.579 23.251s13.834-9.052 30.742-20.324l30.742-20.494 1.952 1.346c2.379 1.64 2.428 1.897 2.433 12.773.016 33.225-12.929 53.451-40.887 63.89-18.603 6.945-48.615 7.986-76.327 2.646-4.71-.908-4.143-.366-4.823-4.606-4.439-27.684-1.076-54.254 8.932-70.577 9.083-14.816 27.232-27.392 41.485-28.748 5.454-.519 12.604-2.245 18.828-4.547 4.471-1.653 5.238-1.808 11.824-2.396 11.136-.993 14.83-1.089 15.058-.39m96.734 37.172c44.252 41.015 43.885 83.505-1.106 128.033l-4.167 4.124-5.98-3.225c-34.86-18.801-57.727-42.233-63.71-65.285-1.302-5.015-1.426-4.331 1.6-8.848 7.425-11.084 11.416-23.963 12.434-40.128l.382-6.063 1.907-2.365c1.393-1.729 2.121-2.326 2.701-2.218.639.119 7.382 1.892 7.598 1.998.032.016 1.96 9.136 4.284 20.267s4.304 20.417 4.401 20.635c.096.218.067-8.666-.065-19.742-.202-16.897-.154-20.139.302-20.136.403.002 1.761 6.412 5.273 24.9 5.072 26.706 5.311 27.757 5.1 22.432-.511-12.916-1.66-47.503-1.58-47.583.474-.474 4.161-.553 4.332-.093.11.297 2.498 13.277 5.306 28.846s5.167 28.124 5.242 27.9c.136-.41-2.116-52.542-2.465-57.047l-.189-2.428 1.638-.643c.901-.354 1.673-.601 1.717-.549.043.052 2.734 15.969 5.981 35.371 3.246 19.402 5.956 34.664 6.02 33.917.088-1.012-2.272-43.776-3.967-71.885-.083-1.372 1.802-3.36 3.267-3.446.116-.007 1.801 1.461 3.744 3.261" fill="#fff" fill-rule="evenodd"/></svg>