<?xml version="1.0" encoding="UTF-8"?>
<svg id="_倨_1" data-name="倨1" xmlns="http://www.w3.org/2000/svg" viewBox="0 0 1672.97 1726.14">
  <defs>
    <style>
      .cls-1 {
        fill: #1d1d1b;
        stroke-width: 0px;
      }
    </style>
  </defs>
  <path class="cls-1" d="M1404.85,1413.84c-2.14-.2-2.69,1.62-3.46,2.92-9.75,16.46-19.44,32.97-29.15,49.45-3.4,5.76-5.67,11.65-5.36,18.67.16,3.72-1.21,7.93-3.09,11.23-3.25,5.69-6.95,11.3-11.37,16.11-4.55,4.95-10.54,7.69-17.78,6.75-8.57-1.11-14.64-6.97-15.14-15.53-.73-12.64,4.87-22.4,14.7-29.72,7.4-5.52,15.6-8.68,25.2-4.33,1.6-3.01,3.04-5.55,4.33-8.17,13.34-26.97,28.64-52.77,46.58-76.94,4.32-5.83,9.06-11.34,13.41-17.15,1.75-2.33,3.53-4.91,4.31-7.66,4.64-16.45,9-32.98,13.71-50.44-1.81,1.46-3.3,2.34-4.38,3.59-14.45,16.72-28.46,33.85-43.35,50.17-26.5,29.06-54.59,56.49-86.87,79.24-5.86,4.13-9.79,9.13-12.44,15.99-3.67,9.5-8.76,18.45-13.31,27.6-9.71,19.48-19.44,38.96-29.21,58.41-6.38,12.7-13.76,24.79-22.25,36.22-6.74,9.08-14.56,17.12-23.31,24.16-4.32,3.48-9.41,6.03-14.22,8.87-1.4.83-3.02,1.35-4.59,1.81-10.59,3.11-18.54-2.65-18.85-13.68-.28-9.97,3.61-18.72,8.55-26.99,10.71-17.91,23.7-34.15,37.43-49.8,13.93-15.88,28.08-31.56,43.32-46.22,1.34-1.29,2.43-2.84,4.8-5.64-2.87.68-4.14.71-5.13,1.26-25.78,14.19-52.79,25.49-80.73,34.63-2.91.95-5.49,2.06-7.49,4.46-15.98,19.24-37.14,30.18-60.47,37.63-.3.1-.56.33-.84.5-.36.53-.99,1.03-1.05,1.58-1.78,18.11-30.09,31.21-44.91,26.24-3.96-1.33-8.51-.7-11.86-4.29-.87-.93-3.79-.36-5.62.12-7,1.83-13.95,3.9-21.25,5.98-4.88,11.68-11.78,22.47-18.87,33.17-11.87,17.91-24.56,35.18-38.57,51.48-10.39,12.09-22.18,22.62-35.36,31.56-6.61,4.48-13.71,8.04-21.77,8.85-5.94.6-11.28-.89-14.11-6.82-.96-2.02-1.51-4.35-1.7-6.59-.49-5.72.9-11.12,3.32-16.3,4.93-10.55,11.31-20.12,19.19-28.68,13.28-14.43,28.96-26,44.88-37.23,10.5-7.41,21.42-14.24,32.13-21.35.74-.49,1.33-1.22,2.18-2.01-9.7,1.67-109.27,33.87-128.51,41.57-6.12,19.07-14.58,37.6-26.85,54.31,5.08,9.87,2.74,18.72-2.99,27.12-1.67,2.45-3.51,4.79-5.19,7.23-4.12,5.98-10.44,7.82-17.05,8.83-3.87.59-7.16-1.07-9.33-4.4-2.69-4.14-3.14-8.63-1.48-13.27,4.33-12.17,11.98-21.28,24.66-25.01,3.86-1.14,6.51-2.93,8.3-6.28,4.35-8.14,8.9-16.18,12.87-24.5,2.97-6.23,5.16-12.83,7.68-19.24-1.02-2.1-2.63-1.44-4.15-.97-3.02.95-4.7,3.36-6.49,5.78-9.43,12.76-19.35,25.12-31.3,35.66-4.69,4.14-9.6,8.04-14.66,12.27,1.29,5.88.47,11.69-3,16.84-4.65,6.9-9.86,13.66-17.76,16.73-4.73,1.83-10.34,2.08-15.52,1.89-6.29-.23-10.02-5.2-9.65-11.5.35-5.91,3.03-10.79,7.4-14.63,6.51-5.73,13.72-10.62,22.35-12.13,9.59-1.68,17.2-6.6,23.89-13.06,6.39-6.17,12.29-12.87,18.27-19.46,3.08-3.39,5.88-7.03,8.7-10.43-.25-.57-.3-.89-.49-1.05-.23-.19-.64-.39-.88-.31-11.14,4.02-22.41,7.73-33.34,12.25-7.87,3.25-15.29,7.6-22.71,11.35-1.92,17.53-13.53,26.3-27.58,32.5-6.03,2.67-12.99,2.44-19.5,1.73-7.8-.85-13.38-9.28-12.44-17.61.76-6.75,4.51-11.68,10-15.18,3.01-1.92,6.42-3.53,9.88-4.38,10.24-2.52,20.57-4.96,31.21-2.19,3.02.78,5.69.29,8.53-1.17,12.89-6.64,25.89-13.04,38.84-19.56.83-.42,1.52-1.1,2.41-1.75-1.66-1.86-3.63-.98-5.34-.89-19.45,1.09-38.73,3.48-57.67,8.18-2.55.63-5.19,1.22-7.53,2.35-12.89,6.22-26.11,6.07-39.48,2.14-5.89-1.73-10.83-4.79-12.61-11.39-.65-2.41-.44-4.45.53-6.67,2.29-5.24,6.7-8.22,11.57-10.29,11.5-4.89,23.58-6.02,35.88-4.14,2.54.39,5.02,1.62,7.36,2.79,5.49,2.75,8.72,6.94,7.85,13.47-.09.65-.16,1.31-.13,1.96,0,.21.35.4.67.74,6.99-1.18,14.11-2.29,21.18-3.6,15.02-2.8,30.18-3.35,45.34-2.02,8.13.71,15.49-.77,23.09-3.56,20.7-7.61,41.65-14.58,62.46-21.89,3.98-1.4,8.33-2.05,11.71-5.32-23.51,1.08-46.85,2.36-70.2,3.15-12.2.42-24.47.6-36.64-.19-19.74-1.27-39.42-3.44-59.13-5.21-3.28-.29-6.58-.49-9.88-.64-16.81-.76-33.63-1.35-50.09-5.37-3.7-.9-7.1-.43-10.42,1.61-4.77,2.94-9.78,5.5-14.56,8.42-22.68,13.87-47.26,23.22-72.58,30.9-17.07,5.18-34.5,8.8-52.08,11.41-13.01,1.94-26.17,3.32-39.43,2.6-9.33-.51-18.37-2.56-26.81-6.3-4.03-1.79-7.9-5.09-10.52-8.67-5.39-7.38-6.57-15.81.64-24.55,7.63-9.23,17.82-14.53,29.26-17.39,13.4-3.35,26.94-6.22,40.66-7.76,12.43-1.4,24.96-2.11,37.46-2.65,20.11-.87,40.25-1.36,60.37-2.05.47-.02.93-.57,1.67-1.05-.77-.7-1.33-1.58-2.11-1.85-18.6-6.65-36.95-14.11-56.44-17.91-7.44-1.45-14.97-2.42-22.38-3.99-17.11-3.62-33.9-8.34-49.89-15.58-1.17-.53-2.43-.88-3.47-1.26-11.48,9.35-23.29,7.98-35.36,2.24-2.07-.98-4.2-1.86-6.34-2.67-7.24-2.74-10.53-7.4-10.14-14.99.15-2.92.91-5.81,1.48-9.25-1.76-1.56-3.6-3.41-5.66-4.97-4.47-3.39-9.43-6.22-13.51-10.01-8.96-8.32-19.99-9.65-31.22-9.53-11.53.12-23.08.99-34.56,2.13-21.54,2.15-42.76.04-63.97-3.56-14.01-2.38-27.77-5.56-41.12-10.44-4.32-1.58-8.66-3.24-12.73-5.37-3.47-1.82-6.85-4.05-9.77-6.67-7.41-6.66-5.96-15.95,3.2-19.85,6.41-2.73,13.25-3.62,20.32-2.84,16.1,1.77,31.86,5.27,47.41,9.61,25.37,7.06,50.64,14.5,75.98,21.67,2.77.78,5.75.82,8.64,1.2-.02.3-.09.86-.04.87.74.18,1.5.29,2.26.39.01,0,.15-.54.1-.56-.52-.26-1.06-.51-1.63-.66-.26-.07-.59.1-.88.17-1.06-1.12-1.92-2.59-3.2-3.32-32.78-18.48-66.13-35.77-102.05-47.48-11.9-3.88-24-7.12-36-10.67-4.09-1.21-8.17-2.45-12.84-3.86-1.21,1.02-2.71,2.23-4.13,3.52-3.82,3.45-8.47,5.34-13.41,5.85-13.89,1.43-26.89-1.32-38.49-9.46-1.08-.76-2.17-1.52-3.11-2.44-6.03-5.91-6.19-14.18-.39-20.33,3.52-3.74,8.03-5.95,12.92-6.84,13.16-2.38,25.61-.47,36.76,7.39,5.29,3.73,8.95,8.67,10.71,14.9,12.42,4.77,41.62,12.21,48.85,12.28-13.99-15.36-31.92-25.11-46.91-38.55-5.94-.32-11.93.1-17.53-2.42-5.1-2.29-10.53-3.92-15.43-6.56-6.18-3.32-11.19-8.28-14.68-14.38-4.06-7.1-.64-16.9,6.92-20.11,3.95-1.68,8.2-2.62,12.57-1.37,16.2,4.66,26.31,15.75,32.22,31.01,1.02,2.64.69,5.82,1.03,9.2,13.32,9.32,26.78,18.75,41.23,28.87-.44-2.67-.33-4.57-1.06-6.05-4.8-9.76-9.79-19.44-14.85-29.42-8.04-1.07-12.82-6.28-16.52-12.83-4.22-7.48-8.5-14.97-9.33-23.74-.28-2.94-1.73-4.9-3.72-6.68-10.15-9.04-19.15-19.12-27.02-30.2-2.05-2.89-4.66-4.15-8.1-4.98-21.13-5.08-42.28-10.15-63.26-15.79-20.49-5.51-39.83-13.79-57.38-25.96-12.86-8.92-24.26-19.35-33.06-32.36-2.93-4.33-5.11-9.19-7.53-13.85-1.9-3.65-1.98-7.65-1.72-11.62.48-7.3,4.52-12.32,11.71-14.13,6.19-1.55,12.43-1.34,18.57.55,8.21,2.53,16.12,5.76,23.62,9.99,31.71,17.87,61.93,37.82,88.67,62.7.7.66,1.63,1.07,2.89,1.89.67-3.15-1.25-5.09-2.37-7.21-9.46-17.77-18.41-35.79-25.33-54.71-3.62-9.89-6.53-20.05-10.07-31.03-3.23-1.49-7.05-3.32-10.92-5.03-9.05-3.98-18.13-7.89-27.18-11.86-25.37-11.11-47.73-26.79-67.82-45.64-10.33-9.7-19.92-20.21-29.55-30.64-3.55-3.85-6.41-8.38-9.24-12.83-1.38-2.17-2.36-4.78-2.79-7.32-1.12-6.6,2.63-10.29,9.15-8.96,3.52.72,7.04,1.9,10.25,3.51,5,2.51,9.98,5.2,14.52,8.45,21.49,15.37,42.35,31.48,60.65,50.74,14.32,15.07,28.99,29.84,45.04,43.13,1.23,1.02,2.57,1.92,4.7,3.49-.31-2.55-.5-4.06-.67-5.57-1.18-10.49-2.42-20.98-3.49-31.48-.5-4.88-2.16-8.73-6.66-11.38-16.03-9.44-30.74-20.53-42.42-35.61-1.78,0-3.38.05-4.97,0-6.31-.26-11.41-3.1-15.53-7.7-4.66-5.2-8.19-11.12-10.66-17.69-.9-2.39-.64-4.55.52-6.65,3.99-7.16,11.65-9.11,18.65-5.61,11.19,5.59,18.37,19.45,16.77,33.31,9.71,9.92,19.21,20.36,32.71,27.58-3.72-13.83-7.2-26.78-10.77-40.04-.93-.38-2.1-1.1-3.36-1.34-5.01-.94-8.05-4.29-10.52-8.33-4.22-6.91-6.24-14.53-6.7-22.54-.41-7.27-.19-14.53,1.47-21.68.91-3.92.85-7.65-.67-11.61-5.83-15.19-8.3-31.17-10.41-47.21-3.11-23.66-2.98-47.46-1.8-71.19.87-17.43,2.51-34.89,6.5-51.99,1.54-6.59,2.43-12.99-2.14-18.84-8.93-22.34-18.41-44.48-26.66-67.07-9.86-26.99-10.47-54.87-5.26-82.96.6-3.22,1.74-6.36,2.8-9.48.52-1.54,1.23-3.09,2.15-4.42,5.03-7.31,11.6-7.69,16.87-.54,2.89,3.93,5.18,8.45,6.99,13,4.63,11.67,8.02,23.73,10.02,36.16.51,3.18,1.42,6.31,3.41,9.43,1.49-5.53,3.17-11.03,4.44-16.61,5.83-25.46,14.32-50.07,24.07-74.23,5.67-14.06,11.87-27.93,18.5-41.57,2.94-6.06,3.62-11.63,2.08-18.07-3.69-15.49-9.82-30.07-16.06-44.6-13.06-30.4-19.77-62.1-20.24-95.18-.15-10.59-.05-21.16,1.73-31.6.93-5.48,2.46-10.94,4.44-16.12.98-2.58,3.29-4.95,5.56-6.66,3.44-2.58,7.21-2.51,11.04.02,7.5,4.96,11.95,12.2,15.52,20.08,5.47,12.09,8.96,24.82,11.02,37.91,4.27,27.16,5.27,54.51,4.19,81.94-.32,8.23-1.23,16.45-1.84,24.67-.19,2.61-.3,5.23-.45,7.77,2.58.78,3.05-1.14,3.67-2.43,10.62-22.33,21.71-44.46,31.59-67.11,8.43-19.34,14.72-39.52,19.68-60.07.8-3.32.69-6.42-.9-9.59-2.95-5.89-5.21-12.16-8.46-17.87-8.11-14.27-12.71-29.69-15.48-45.68-1.97-11.34-3.21-22.81-4.9-35.15-10.01-7.53-13.38-19.44-15.14-32.1-.36-2.61-.04-5.48-1.04-7.79-2.52-5.82-.77-11,1.53-16.2.93-2.1,2.3-4,3.39-6.04,4.68-8.7,19.81-12.01,28.01-2.24,2.89,3.44,5.19,7.76,6.48,12.07,3.9,12.97,3.66,26.01-.73,38.95-2.01,5.93-6.26,9.97-11.04,13.84-1.27,6.99.67,13.8,1.88,20.48,3.83,21.12,9.93,41.56,20.61,61.62.98-2.16,1.95-3.45,2.13-4.85,1.56-11.77,2.87-23.57,4.46-35.33,3.15-23.32,1.38-46.81,2.94-70.44-11.95-5.98-15.17-16.57-15.03-28.78.06-5.26.24-10.55.88-15.77.78-6.44,4.01-11.91,8.56-16.39,5.22-5.15,12.17-5.16,19.02-.51,4.58,3.1,7.5,7.48,8.88,12.72,2.85,10.84,2.06,21.62-1.57,32.16-2.21,6.42-6.42,11.47-12.19,15.59-1,27.6,2.1,55.35-1.72,84.79,1.8-2.59,2.9-3.62,3.33-4.87,6.99-20.59,12.89-41.5,17.97-62.83-10.51-12.57-5.66-25.21-.32-38,3.54-8.48,10.99-10.93,18.75-12.71,3.75-.86,7.25,1.21,9.52,4.17,1.74,2.27,3.34,5.13,3.68,7.89,1.75,14.5-3.57,26.54-14.04,36.33-2.32,2.17-5.59,3.32-9.13,5.34-1.39,5.97-2.96,12.7-4.51,19.43-1.47,6.43-2.68,12.93-4.42,19.29-1.78,6.49-4.13,12.83-4.64,20.12.51-.82,1.04-1.64,1.53-2.47,10.41-17.6,20.87-35.17,31.2-52.82,3.17-5.42,5.75-10.94,4.86-17.73-.6-4.6,1.33-9.15,3.89-13.06,3.24-4.96,6.42-10.08,10.39-14.43,4.83-5.29,11.02-8.18,18.61-7.14,8.1,1.1,13.88,6.72,14.59,14.95.98,11.39-3.4,20.77-11.83,28.07-7.76,6.71-16.45,11.14-27.3,6.81-3.27,2.32-4.03,6.08-5.58,9.22-13.38,26.96-28.84,52.65-46.77,76.83-4.13,5.56-8.68,10.8-12.86,16.33-1.56,2.06-3.09,4.37-3.78,6.8-4.75,16.74-9.27,33.54-14.14,51.33,1.9-1.63,3.4-2.61,4.53-3.92,14.46-16.72,28.5-33.81,43.35-50.16,26.68-29.35,55.07-56.92,87.61-79.88,5.25-3.7,9.17-7.98,11.28-14.44,2.22-6.84,5.97-13.2,9.21-19.69,11.64-23.31,23.14-46.7,35.1-69.85,10.19-19.72,22.08-38.31,38.83-53.33,6.43-5.77,13.19-10.99,21.37-14.04,2.14-.8,4.37-1.61,6.62-1.83,8.3-.82,14.01,3.93,14.8,12.31.98,10.33-2.46,19.64-7.81,28.09-6.35,10.02-13.02,19.89-20.28,29.27-18.2,23.53-38.31,45.38-59.56,66.2-2.33,2.28-4.59,4.65-6.93,7.03,2.17,1.64,3.55.15,4.83-.56,26.01-14.47,53.34-25.85,81.55-35.19,2.9-.96,5.53-1.94,7.53-4.36,15.45-18.76,36.03-29.48,58.5-37.19,1.22-.42,2.43-.85,3.76-1.32.56-2.04.96-3.97,1.63-5.82,1.58-4.4,3.83-8.37,7.53-11.4,12.61-10.34,26.66-13.91,42.52-9.22.32.09.75.08.94.29,4.81,5.44,10.17,2.73,15.51,1.16,5.05-1.48,10.16-2.79,15.24-4.17,12.6-25.55,29.12-48.51,46.48-70.93,8.71-11.26,18.07-21.92,28.71-31.37,8.89-7.89,18.19-15.27,29.21-20.13,4.61-2.03,9.37-3.19,14.4-2.74,6.78.61,10.79,4.31,11.95,11.11,1.09,6.41-.37,12.49-3.04,18.27-6.45,13.96-15.49,26.05-26.75,36.5-12.13,11.25-25.28,21.21-38.87,30.59-10.84,7.47-21.81,14.75-32.71,22.1,7.52-.58,112.2-34.43,127.99-41.39,3.87-9.46,7.26-19.13,11.74-28.27,4.47-9.13,10.03-17.73,15.25-26.82-4.78-8.41-2.76-16.44,1.92-24.16,1.71-2.82,3.66-5.49,5.55-8.19,4.04-5.75,9.68-8.67,16.56-9.67,6.65-.97,11.76,2.49,12.79,9.16.67,4.36,0,8.6-2.06,12.5-5.26,9.93-12.21,18.1-23.7,20.88-3.54.86-5.93,2.72-7.55,5.78-4.61,8.74-9.41,17.4-13.68,26.31-2.8,5.86-4.81,12.11-7.41,18.82,4.66.76,7.38-.99,9.67-4.09,3.34-4.51,6.75-8.97,10.23-13.37,10.09-12.73,21.2-24.42,34.44-33.96.79-.57,1.43-1.37,2.21-2.14-1.89-15.8,7.78-25.16,19.37-32.84,5.58-3.7,12.64-3.4,19.17-2.39,5.11.79,8.15,5.6,7.72,11.08-.46,5.86-3,10.77-7.42,14.63-6.54,5.71-13.73,10.63-22.37,12.08-9.65,1.62-16.92,6.98-23.93,13.07-10.53,9.14-18.92,20.15-28.38,32.05,3.69-.92,6.29-1.23,8.61-2.19,17.01-7.01,34.95-11.96,50.21-22.89,2.11-16.7,13.45-25.88,27.69-31.7,5.53-2.26,12.32-2.24,18.48-1.94,9.09.43,15.56,10.52,13.31,19.55-1.52,6.1-5.35,10.54-10.53,13.84-1.93,1.23-4.06,2.3-6.24,2.95-11.11,3.32-22.31,6.01-34,3.15-2.99-.73-5.64-.42-8.53,1.07-12.59,6.52-25.34,12.72-37.99,19.11-1.04.53-2.59.82-2.58,2.96,1.18.1,2.38.33,3.57.27,20.46-1.05,40.69-3.75,60.58-8.73,1.91-.48,3.86-1.01,5.61-1.87,12.87-6.34,26.09-6.03,39.46-2.1,5.21,1.53,9.65,4.21,11.97,9.53,1.42,3.26,1.37,6.28-.4,9.45-2.57,4.59-6.6,7.45-11.18,9.36-11.52,4.8-23.56,6.08-35.88,4.08-2.24-.36-4.45-1.28-6.51-2.28-5.42-2.62-9.2-6.41-8.59-13.07.09-.95-.12-1.92-.18-2.79-2.01-1.83-3.74-.04-5.53.14-1.64.17-3.29.37-4.9.72-19.14,4.1-38.45,5.84-57.99,3.92-6.68-.65-12.9.37-19.29,2.72-21.34,7.83-42.87,15.12-64.34,22.6-4.21,1.47-8.61,2.5-12.93,5.72,18.9-1.03,37.01-2.26,55.13-2.94,22.1-.83,44.21-1.61,66.29.84,10.49,1.17,21.04,1.74,31.57,2.54,18.09,1.38,36.2,2.59,54.27,4.18,5.88.52,11.72,1.79,17.51,3.06,5.08,1.12,9.47.59,14.15-2.14,12.23-7.15,24.51-14.32,37.28-20.41,25.99-12.39,53.39-20.78,81.69-26.03,12.29-2.28,24.67-4.35,37.1-5.6,14.51-1.45,29-.76,43.06,3.93,4.8,1.6,8.99,4.03,12.57,7.57,8.34,8.25,8.91,19.42,1.16,28.42-6.88,7.98-15.73,13.14-25.81,15.74-16.89,4.36-33.97,7.61-51.41,9.29-27.96,2.69-55.98,3.05-84.01,3.8-2.48.07-4.95.2-8.13,1.8.84.44,1.64,1,2.52,1.31,18.62,6.58,36.95,14.06,56.42,17.93,7.43,1.48,14.96,2.46,22.38,3.99,17.14,3.52,33.9,8.32,49.91,15.49,1.19.53,2.43.93,3.37,1.29.97-.34,1.73-.38,2.16-.78,9.9-9.02,20.73-6.27,31.58-2.43,3.08,1.09,5.91,2.93,9.02,3.89,6.34,1.96,8.94,6.55,9.18,12.64.14,3.58-.56,7.19-.96,11.56,1.49,1.35,3.29,3.23,5.34,4.79,4.47,3.39,9.46,6.19,13.52,10,8.94,8.39,19.96,9.63,31.21,9.53,10.54-.09,21.09-.98,31.6-1.91,23.16-2.04,46.04-.47,68.9,3.74,16.92,3.12,33.55,6.98,49.17,14.28,4.43,2.07,8.6,4.86,12.5,7.83,7.96,6.07,4.87,16.69-3.25,19.91-6.2,2.46-12.68,3.66-19.36,2.93-16.09-1.76-31.89-5.17-47.45-9.49-25.7-7.13-51.31-14.62-76.94-22.01-3.15-.91-6.17-2.45-9.5-.88.83-1.12.36-1.72-.8-1.97-.27-.06-.6.16-.9.24.65.5,1.31,1,1.96,1.5,4.43,2.79,8.72,5.82,13.3,8.34,23.11,12.73,46.56,24.83,71.17,34.37,14.1,5.46,28.67,9.77,43.1,14.34,9.08,2.88,18.3,5.29,27.85,8.02,7.5-8.78,17.64-10.68,28.58-9.58,7.9.8,15.54,2.9,22.56,6.74,2.3,1.26,4.48,2.84,6.47,4.55,7.7,6.64,7.48,16.62-.52,22.99-4.52,3.6-9.89,5.6-15.52,5.94-9.99.6-19.72-.87-28.62-5.93-7.14-4.06-12.33-9.76-14.54-17.98-15.85-4.57-31.69-8.74-48.76-12.73,3.17,5.35,7.03,8.45,10.81,11.45,11.37,9.02,22.93,17.81,34.48,26.6,1.23.94,2.98,1.87,4.4,1.76,9.34-.72,17.19,3.54,25.48,6.77,6.43,2.5,11.36,6.54,15.83,11.43,6.31,6.91,7.26,12.48,3.44,18.71-4.33,7.06-12.1,9.74-20.61,7.4-7.57-2.08-13.7-6.46-19.23-11.74-7.57-7.22-11.74-16.5-12.68-27.96-13.47-9.53-27.4-19.38-41.34-29.24.94,7.39,5.57,17.31,16.44,35.32,9.8,3.86,11.37,5.1,16.72,14.23,4.18,7.14,7.82,14.57,8.91,22.89.37,2.85,1.66,4.96,3.7,6.73,10.29,8.91,19.07,19.18,27.02,30.18,2.09,2.89,4.78,4,8.18,4.82,21.13,5.08,42.28,10.1,63.24,15.81,20.45,5.56,39.8,13.84,57.33,26.03,12.57,8.75,23.73,18.95,32.46,31.58,2.8,4.04,5.01,8.5,7.35,12.84,2.1,3.9,2.41,8.19,2.25,12.52-.33,8.71-5.03,14.2-13.72,15.39-5.9.81-11.91.94-17.58-1.38-7.31-2.98-14.87-5.54-21.75-9.33-31.87-17.57-62.01-37.68-88.86-62.43-.94-.87-2.05-1.56-3.65-2.76-.29,3.8,1.75,6.07,3.06,8.5,9.37,17.44,18,35.22,24.9,53.79,3.1,8.34,5.49,16.94,8.22,25.41.6,1.87,1.31,3.7,2.09,5.9,9.57,4.16,19.15,8.52,28.88,12.53,31.55,12.98,59.18,31.77,83.2,55.9,7.91,7.95,15.64,16.09,23.13,24.44,3.5,3.9,6.39,8.39,9.21,12.84,1.38,2.17,2.37,4.77,2.85,7.31,1.19,6.3-2.94,10.37-9.18,8.99-3.51-.77-7.06-1.91-10.23-3.57-5.54-2.9-10.99-6.05-16.15-9.58-25.98-17.8-49.13-38.83-70.91-61.52-10.04-10.46-21.04-19.99-31.64-29.91-1.15-1.07-2.5-1.93-3.65-2.81-2.73,1.52-1.81,3.67-1.63,5.38,1.1,10.16,2.6,20.29,3.46,30.47.44,5.19,2.84,8.47,7.09,11.03,4.51,2.73,8.84,5.76,13.24,8.66,8.31,5.48,15.82,11.88,22.34,19.44,2.15,2.49,4.54,4.77,6.97,7.31,14.53-1.73,21.28,8.1,27.51,18.62.66,1.12.7,2.62,1.41,3.68,3.13,4.59,2.32,8.75-1.29,12.51-3.7,3.84-8.2,5.55-13.43,3.66-2.45-.88-5.06-1.93-6.95-3.63-8.4-7.51-14.66-16.14-12.89-28.35.09-.63-.07-1.3-.14-2.46-9.32-10.16-19.33-20.06-31.58-27.28-.45.28-.77.38-.92.59-.16.22-.3.6-.23.84,3.69,12.62,7.41,25.24,11.34,38.57.9.33,2.36,1.07,3.91,1.41,4.63,1.01,7.26,4.38,9.55,8.04,3.91,6.28,5.96,13.22,6.5,20.56.61,8.26.45,16.52-1.41,24.62-.77,3.34-.72,6.32.5,9.62,5.9,15.86,8.62,32.42,10.73,49.16,3.15,25.01,2.65,50.08,1.46,75.13-.77,16.13-2.67,32.23-6.26,48.02-1.45,6.36-1.03,11.71,1.96,17.92,6.73,13.92,12.22,28.46,17.94,42.85,3.89,9.78,7.85,19.59,10.87,29.66,5.75,19.12,7.74,38.71,5.94,58.69-.8,8.91-1.99,17.68-4.5,26.27-1.24,4.24-3.26,7.91-7,10.47-3.09,2.12-6.27,2.38-9.11,0-2.23-1.87-4.49-4.07-5.78-6.61-2.95-5.86-5.6-11.91-7.86-18.07-3.76-10.24-6.04-20.9-7.8-31.66-.21-1.28-.64-2.52-1.04-3.76-.06-.19-.53-.25-.91-.41-2.2.27-1.83,2.28-2.22,3.69-4.46,15.86-8.61,31.82-13.37,47.59-6.21,20.53-14.22,40.41-23.02,59.97-3.38,7.51-6.91,14.96-10.49,22.38-1.95,4.04-2.33,8.01-1.36,12.46,2.26,10.36,5.57,20.35,9.46,30.17,4.01,10.11,8.38,20.08,12.23,30.24,10.03,26.49,15,53.93,15.02,82.27,0,11.56.42,23.15-2,34.53-.95,4.49-2.29,8.95-4.03,13.18-.95,2.32-2.79,4.51-4.75,6.12-3.81,3.14-7.65,3.07-11.86.37-7.54-4.85-11.89-12.2-15.48-20.08-5.94-13-9.42-26.75-11.5-40.82-4.25-28.84-4.98-57.85-3.49-86.92.46-8.88,1.66-17.72,2.53-26.59-2.84-.18-3.03,2.41-3.84,4.1-10.78,22.62-22.03,45.04-32.01,68.01-8.27,19.03-14.6,38.84-19.32,59.12-.87,3.75-.93,7.03.78,10.49,2.64,5.31,4.86,10.84,7.64,16.07,6.68,12.6,11.97,25.61,14.64,39.74,2.57,13.63,5.61,27.14,5.36,41.57,11.13,8.52,14.96,20.83,16.28,34.34.25,2.61.57,5.31,1.48,7.73,1.38,3.68.98,7.22-.32,10.62-1.29,3.37-2.87,6.69-4.78,9.74-7.1,11.31-21.94,11.95-29.8,1.2-2.1-2.87-3.74-6.29-4.75-9.71-3.42-11.61-3.7-23.33-.73-35.17,1.66-6.64,4.49-12.34,10.18-16.41.78-.56,1.37-1.41,2.63-2.75-2.28-28-9.62-55.04-23.09-81.69-1.08,3-2.13,4.93-2.44,6.98-3.55,23.51-6.19,47.11-6.33,70.93-.07,11.2-.01,22.39-.01,33.52,10.05,5.18,13.64,14.04,14.04,24.44.25,6.58.14,13.23-.57,19.77-.73,6.77-4.29,12.48-9.32,16.99-3.64,3.27-7.93,4.02-12.9,2.37-8.91-2.96-13.34-9.42-14.88-18.07-1.39-7.85-1.14-15.81.5-23.64,1.83-8.73,6.32-15.86,13.96-21.43,0-8.09.24-16.32-.05-24.54-.62-17.83-1.04-35.64,1.06-53.42.15-1.25.02-2.54.02-6.44-1.55,2.74-2.14,3.52-2.46,4.4-7.4,20.48-12.96,41.48-18.12,62.83,1.04,1.65,2.1,3.28,3.11,4.94,2.48,4.07,3.83,8.49,2.91,13.21-1,5.16-2.21,10.3-3.75,15.31-2.71,8.83-8.41,14.57-17.65,16.84-6.05,1.48-12.25-.65-14.78-6.48-1.28-2.94-2.08-6.37-2.03-9.57.17-11.33,4.31-21.33,12.1-29.5,2.86-3,6.89-4.88,11.63-8.12.95-3.94,2.3-9.34,3.56-14.75,2.92-12.51,5.19-25.19,9.7-37.29.42-1.14.11-2.54.14-3.83.5-.55,1.01-1.1,1.51-1.64-.24-.2-.48-.4-.72-.59-.33.52-.72,1.01-.94,1.56-.08.2.23.56.36.84ZM863.49,148.09c-.1-.56-.05-1.24-.36-1.65-.16-.21-.95.06-1.45.11.16.19.29.46.49.57.51.26,1.07.46,1.6.68,2.23,1.67,4.49,2.86,7,.47-.54,1.25-.96,2.52.61,3.35,5.52,2.94,11.23,5.57,16.55,8.82,24.45,14.95,48.82,30.03,73.16,45.15,6.99,4.34,13.69,9.16,20.74,13.4,8.73,5.26,17.58,10.37,27.55,13.1,2.79.76,5.49,1.43,8.24.25-.3-2.87-2.37-3.47-3.95-4.49-13.33-8.52-26.71-16.96-40-25.52-19.95-12.85-39.59-26.22-61.42-35.82-13.85-6.09-27.8-11.97-41.78-17.85-2.33-.19-4.66-.37-6.98-.58ZM115.74,891.01c3.32-.1,3.12-2.31,2.76-4.61.84-.83,1.98-1.51,2.47-2.52,8.83-17.79,19.38-34.48,31.32-50.34,8.33-11.07,16.35-22.38,24.46-33.62,8.53-11.84,15.08-24.78,20.51-38.26,1.82-4.51,2.37-9.55,3.22-14.4.24-1.36.51-3.36-2.05-4.17-.74.88-1.65,1.76-2.32,2.79-21.67,33.55-42.63,67.53-62.13,102.4-5.66,10.12-10.18,20.71-14.01,31.62-.74,2.11-.86,4.45-1.25,6.69-1,1.49-2,2.98-3,4.54v4.11c.22-.03.44-.05.66-.08-.21-1.38-.43-2.77-.64-4.15ZM913.75,1577.09c1.55.1,3.09.2,4.64.31-.02-.24-.03-.48-.05-.73-1.54.12-3.08.25-4.62.37-.69-.94-1.19-2.39-2.11-2.76-22.23-8.9-43.68-19.46-65.21-29.87-1.98-.96-4.29-1.23-6.44-1.82-.52-.52-1.05-1.03-1.57-1.55-.2.23-.39.47-.59.7.78.21,1.56.41,2.34.62.66,1.01,1.1,2.41,2.03,2.95,7.92,4.62,15.83,9.29,23.95,13.53,15.16,7.9,31.33,13.24,47.63,18.23ZM758.3,148.7c-1.52-.12-3.03-.24-4.55-.36.01.24.03.48.04.71,1.52-.1,3.03-.2,4.55-.3.05,2.07,1.64,2.41,3.17,3.11,21.23,9.7,42.42,19.49,63.63,29.24,2.86,1.31,5.77,2.5,10.34,4.48-1.72-2.23-2.11-3.11-2.79-3.55-4.41-2.88-8.76-5.87-13.35-8.43-19.32-10.79-39.8-18.77-61.03-24.9ZM1407.23,265.81c.33.7.64,1.4,1.01,2.07.03.04.55-.2.85-.3-.7-.51-1.4-1.01-2.1-1.52-.53-.38-1-.93-1.59-1.13-27.01-9.27-54.78-14.23-83.35-14.6-.33,0-.67.73-1.42,1.61,3.92.44,7.5.62,10.98,1.28,22.34,4.21,44.65,8.55,66.98,12.78,2.86.54,5.82,1.51,8.62-.19ZM264.63,1460.14c.08-.59.35-1.27.15-1.75-.11-.27-1.01-.22-1.55-.31.32.39.62.79.95,1.17.2.24.43.46.64.69,7.79,2.44,15.5,5.21,23.39,7.26,21.31,5.52,43.04,8.22,65.06,8.79.94-.05,1.89-.11,2.83-.16,0-.06-.02-.12-.02-.18-.96.1-1.91.21-2.87.31-1.3-.84-2.5-2.15-3.91-2.43-3.2-.63-6.54-.51-9.74-1.12-22.14-4.18-44.27-8.49-66.4-12.71-2.87-.55-5.81-1.27-8.53.44ZM925.43,1573.87c-.01.3-.13.8-.02.85.66.31,1.36.53,2.06.75,0,0,.21-.52.19-.53-.52-.25-1.05-.48-1.6-.67-.28-.1-.58-.1-.88-.14-.74-.62-1.41-1.36-2.23-1.83-12.3-7.02-24.68-13.9-36.91-21.03-11.97-6.98-24.31-13.21-37.27-18.06-6.92-2.59-13.97-5.53-21.68-4.08-.35,2.57,1.26,3.09,2.77,3.77,7.19,3.26,14.43,6.43,21.54,9.86,8.6,4.15,16.97,8.79,25.66,12.74,13.17,5.98,26.53,11.53,39.81,17.29,2.76,1.2,5.53,2.21,8.57,1.09ZM746.41,152.08c.09-.31.34-.76.22-.92-.34-.45-.81-.83-1.3-1.11-.17-.09-.56.21-.85.33.42.36.82.76,1.27,1.08.26.18.6.24.91.35,10.59,5.98,21.3,11.77,31.75,17.98,14.15,8.42,28.46,16.5,43.95,22.24,4.61,1.71,9.31,3.18,14.03,4.53,3.13.9,3.6.67,9.19-1-.73-2.26-2.89-2.48-4.55-3.26-6.56-3.06-13.2-5.94-19.7-9.1-10.07-4.89-19.92-10.23-30.1-14.87-11.96-5.45-24.17-10.34-36.25-15.52-2.81-1.2-5.6-1.95-8.56-.74ZM1254.31,1516.91c-2.53-.29-3.19,1.91-4.26,3.37-11.46,15.67-22.82,31.41-34.3,47.07-7.2,9.82-14.58,19.51-21.78,29.33-1,1.36-2.87,2.55-1.93,5.46,1.86-1.06,3.6-1.83,5.08-2.94,7.94-5.95,15.1-12.74,21.33-20.46,14.57-18.04,25.23-38.45,35.4-59.13.4-.81.17-1.92.23-2.89.56-.53,1.13-1.07,1.69-1.6-.39-.23-.78-.46-1.17-.68-.09.82-.19,1.65-.28,2.47ZM415.04,211.58c.91.06,2.25.54,2.66.12,1.6-1.64,2.95-3.52,4.31-5.38,11.85-16.23,23.64-32.51,35.53-48.71,7.21-9.83,14.58-19.54,21.81-29.37.81-1.1,2.59-2.34.49-4.3-1.87,1.23-3.84,2.38-5.66,3.74-11.2,8.39-20.23,18.82-28.17,30.26-9.79,14.11-17.73,29.28-25.54,44.53-1.62,3.17-3.69,6.12-5.54,9.18.15.24.4.46.43.71.03.21-.18.46-.28.69-.02-.49-.03-.98-.05-1.47ZM285.03,539.74c-2.71,1.09-5.34,2.6-8.16,3.2-7.25,1.54-11.76,6.39-16.13,11.85-6.77,8.46-13.81,16.72-20.93,24.88-4.97,5.69-10.33,11.04-15.4,16.64-.91,1.01-3.01,1.9-1.29,4.28,16.39-10.31,33.07-20.1,48.58-31.96-.97-9.6,3.06-16.83,9.45-23.07,1.62-1.58,2.92-3.49,4.37-5.25,3.35-1.08,5.95-3.12,7.87-6.05,2.62-1.34,5.17-2.82,7.86-3.99,4.52-1.97,9.01-4.12,13.71-5.52,5.92-1.76,11.86-.76,17.31,2.01,4.99,2.54,7.99,6.65,8.49,12.49.67,7.86-2.68,14.16-7.63,19.68-4.64,5.19-10.11,9.55-16.4,12.6-13.2,6.4-26.73,9.18-40.92,2.52-.81.43-1.71.81-2.51,1.35-16.7,11.23-33.33,22.55-50.09,33.69-6.59,4.38-13.47,8.33-20.16,12.57-1.76,1.12-3.85,2.21-3.73,5.48,25.66-4.85,50.35-11.7,75.05-18.69.66-1.34,1.31-2.47,1.79-3.67,3.46-8.62,9.74-14.02,18.78-15.94,6.1-1.29,12.27-2.29,18.45-3.11,4.67-.62,9.29.21,13.49,2.34,10.66,5.41,12.91,17.89,5.29,25.61-1.84,1.87-3.74,3.75-5.9,5.21-8.83,5.96-18.89,7.73-29.24,7.39-6.28-.2-12.39-1.9-17.31-6.38-1.18-1.08-2.58-1.92-3.69-2.72-9.22,2.84-18,5.62-26.83,8.25-13.58,4.05-27.11,8.19-41.23,10.15-5.82.81-11.48,2.86-17.2,4.38-4.02,1.07-6.93,3.55-9.28,6.95-8.26,11.93-16.75,23.69-23.42,36.66-12.24,23.77-23.8,47.78-31.54,73.49-6.38,21.19-11.57,42.62-15.03,64.47-.69,4.38-1.45,8.86-.03,15.62,2.06-7.45,3.6-12.72,4.96-18.03,7.76-30.35,23.01-55.96,47.85-75.43,8.84-6.93,18.01-13.37,29.24-16.02,10.85-2.57,19.13,3.07,20.2,14.21.44,4.56.27,9.12-1.04,13.71-3.74,13.13-9.86,25.14-16.96,36.65-11.45,18.55-24.48,36.01-37.44,53.52-8.83,11.93-17.28,24.15-25.4,36.57-9.33,14.28-13.39,30.7-18.27,46.81-2.95,9.72-1.32,23.53,3.62,36.29,9.87-2,15.75.56,20.49,9.1,1.28,2.3,2.46,4.72,3.23,7.22,3.43,11.25,3.86,22.77,2,34.29-.56,3.47-2.4,6.8-4.04,10-1.18,2.31-2.97,4.31-4.37,6.28,3.14,18.14,8,31.98,14.5,41.12,1.71-3.53,1.63-7.14,1.8-10.64.28-5.94.38-11.88.54-17.82.09-3.29-.17-6.44-1.14-9.72-1.98-6.68-2.39-13.6-1.15-20.58,2.34-13.19,7.11-25.43,14.66-36.43,2.74-3.99,6.48-7.56,10.41-10.41,6.6-4.78,13.23-2.05,15.1,5.72.46,1.91.86,3.93.74,5.87-.9,13.95-3.41,27.59-10.43,39.86-5.19,9.07-9.93,18.75-20.98,23.39,0,5.66-.07,11.26.03,16.85.06,3.29.37,6.58.59,9.87.02.32.13.71.34.91.21.2.61.2,1.48.43,7.91-8.46,15.11-17.81,21.84-27.52.87-1.25,1.45-3.07,1.34-4.57-.54-7.88,2.01-15.01,5.41-21.8,3.53-7.05,7.46-13.94,11.67-20.61,1.51-2.39,4.09-4.4,6.63-5.75,3.45-1.85,7.25-3.21,11.04-4.22,5.47-1.45,9.53.8,12.14,5.96,1.9,3.77,1.78,7.64.92,11.59-2.16,9.91-6.87,18.53-13.53,26.08-8,9.07-16.86,16.75-29.31,16.42-10.08,13.09-19.71,25.61-30.13,39.14.61,6.43,1.41,13.96,2.01,21.5,1.95,24.24,8.82,47.31,17.2,69.91,9.3,25.1,21.73,48.78,34.81,72.1.64,1.15,1.9,1.96,4.09,4.15-.55-3.72-.79-5.65-1.13-7.56-2.91-16.25-5.19-32.56-6.46-49.04-.81-10.63.1-21.13,1.78-31.55.78-4.83,2.44-9.6,4.35-14.13,1.24-2.95,3.29-5.78,5.6-8.02,5.24-5.07,13.3-4.15,17.08,1.95,1.87,3.02,3.24,6.51,4.12,9.97,2.74,10.69,2.45,21.63,1.43,32.49-1.38,14.78-3.34,29.51-4.8,44.28-1.79,18.14-1.81,36.26,1.76,54.24.44,2.24.9,4.67,2.1,6.53,3.18,4.94,6.77,9.61,10.25,14.46,1.26-.86,2.07-1.42,2.88-1.96,6.73-4.45,10.85-4.5,16.94.37,2.28,1.82,4.54,4.07,5.86,6.62,7.44,14.32,13.58,28.89,4.35,45.02,2.57,4.36,4.95,8.68,7.61,12.83,7.71,12.02,14.18,24.56,16.88,38.75.82,4.29,3.49,6.91,7.47,8.46,6.44,2.51,12.96,4.86,19.25,7.73,18.9,8.63,37.53,17.77,55.59,28.08,2.05,1.17,4.04,3.68,7.04,1.98-.23-.7-.29-1.43-.66-1.9-15.9-20.02-28.19-42.23-39.37-65.09-7.7-15.74-14.1-32-18.01-49.13-1.98-8.69-3.53-17.49-1.28-26.41,1.39-5.49,4.45-9.85,10.14-10.99,5.92-1.18,12.01-.72,16.94,3.37,3.52,2.93,6.93,6.14,9.8,9.7,8.01,9.91,12.17,21.84,16.39,33.61,8.02,22.37,13.53,45.5,19.35,68.49,4.06,16.03,9.13,31.67,14.7,47.19,3.47,9.67,9.58,17.18,17.75,23.21,4.77,3.53,9.43,7.22,14.14,10.83,1.79,1.37,3.59,2.73,5.58,4.24,9.69-5.04,18.79-2.71,27.52,1.93,8.87,4.71,14.41,12.33,17.07,22.01,23.19,8.94,46.64,14.89,72.29,16.82-1.51-1.77-2.14-2.91-3.11-3.57-23.36-15.97-46.66-32.05-71.59-44.73-1.63.71-2.61.97-3.41,1.51-5.59,3.72-11.26,3.04-16.89.25-2.94-1.46-5.85-3.06-8.54-4.93-2.97-2.06-5.41-5.03-8.56-6.68-7.67-3.99-9.33-10.48-8.86-18.28.64-10.54,9.48-17.52,19.76-15.11,15.62,3.67,25.15,13.61,28.97,29.11.54,2.19.81,4.45,1.17,6.48,4.23,2.14,8.09,4.01,11.87,6.02,4.37,2.32,8.83,4.51,12.96,7.2,12.98,8.47,25.83,17.14,38.74,25.72.21.14.62.21.8.1.23-.15.32-.52.74-1.3-10-11.94-20.75-23.39-32.57-33.86-11.42,3.41-19.16-2.11-25.4-9.89-4.09-5.08-7.56-10.88-10.19-16.85-3.17-7.2-5.72-14.81-5.52-22.91.06-2.26.2-4.79,1.24-6.69,2.94-5.35,11.16-8.36,17.21-7,6.06,1.36,10.92,4.72,14.97,9.15,6.33,6.93,10.82,14.93,12.58,24.29,1.47,7.82,2.42,15.64,0,23.15,6.11,6.24,11.95,12.03,17.6,18,5.77,6.1,11.34,12.39,17.67,19.33,0-2.17.27-3.23-.04-4.08-4.91-13.64-9.94-27.23-14.82-40.88-.99-2.77-3.11-3.93-5.4-5.36-12.92-8.07-16.63-20.89-16.54-34.95.05-8.26,6.66-13.18,14.89-11.95,3.47.52,7.08,1.89,10.01,3.82,9.7,6.38,15.77,23.44,12.02,34.39-1.32,3.86-4.41,7.12-6.88,10.96,5.76,11.12,12.26,22.31,15.51,34.87,3.29,12.7,6.26,25.48,9.47,38.64,7.11,2.56,14.53,5.21,21.94,7.9,17.03,6.18,33.91,12.8,51.11,18.44,17.86,5.86,36.27,9.56,55.01,11.62,14.08,1.55,28.12,3.49,42.19,5.18,1.87.22,3.78.03,5.68.03-2.99-1.67-6.09-2.61-9.23-3.41-22.12-5.58-43.51-13.12-63.82-23.59-18.07-9.31-34.2-21.18-47.64-36.51-6.59-7.52-11.61-15.97-14.62-25.6-4.03-12.88,5.59-20.09,14.35-21.21,2.58-.33,5.37-.3,7.87.32,7.99,1.97,16.02,3.94,23.11,8.45,9.17,5.85,18.59,11.34,27.48,17.58,17.82,12.5,35.24,25.56,53.04,38.1,17.02,11.99,34.93,22.48,54.03,30.88,12.99,5.71,26.25,10.55,40.19,13.47,18.39,3.85,36.61,1.01,54.95-.57-.14-.75-.09-1.25-.27-1.36-1.12-.65-2.24-1.49-3.47-1.76-22.99-5.11-44.59-13.97-65.4-24.77-8.77-4.55-17.36-9.64-24.5-16.61-3.01-2.94-5.81-6.39-7.68-10.12-3.73-7.44,1.46-14.1,7.12-15.83,2.8-.86,5.85-1.52,8.73-1.35,6.91.41,13.87,1.03,20.4,3.55,12,4.61,24,9.22,34.76,16.47,9.57,6.44,19.3,12.66,28.89,19.08,8.78,5.88,17.71,11.44,27.37,15.8,12.25,5.53,24.99,8.49,38.42,7.49,6.87-.51,13.7-1.82,20.52-2.94,15.89-2.6,30.81-9.87,47.61-9.23.82-14.7,8.65-23.51,21.64-28.22,12.71-4.61,24.61-3.67,35.18,5.49,12.28-2.68,23.46-7.51,34.07-13.51,5.7-3.23,10.76-7.57,16.03-11.52.84-.63,2.3-1.5,1.01-3.02-.68-.08-1.37-.34-1.96-.19-11.2,2.86-22.53,4.9-34.04,6.05-10.5,1.05-20.99,2.26-31.47,3.55-2.22.27-4.5.9-6.5,1.87-6.07,2.97-12.43,4.28-19.15,4.19-5.61-.07-11.22-.06-16.84-.1-8.16-.06-15.53-2.98-22.48-6.81-2.77-1.53-5.21-4.13-7.04-6.77-3.97-5.71-3.05-11.25,2.08-15.93,4.36-3.98,9.73-5.3,15.43-5.84,11.69-1.11,23.11.51,34.12,4.21,8.81,2.96,17.28,6.91,19.93,16.91,12.4.54,55.22-7.01,66.36-11.97-10.85-5.02-20.41-10.33-29.6-12.96-5.26,2.93-8.97,6.19-13.21,7.16-18.43,4.22-35.39,1.2-49.48-12.36-6.29-6.05-6.43-13.81-.49-20.13,4.95-5.27,11.2-8.02,18.36-8.67,13.24-1.22,24.74,3.18,34.7,11.56,2.94,2.47,5.03,6.04,7.22,9.3,1.25,1.86,1.9,4.13,2.26,4.93,14.65,6.54,28.16,12.57,42.48,18.96-.4.06.27.04.88-.15,17.03-5.24,33.59-11.74,49.73-19.22,20.65-9.57,40.86-19.96,59.8-32.72,24.42-16.44,47.3-34.8,68.76-54.91,22.17-20.78,42.78-43.09,63.42-65.37,1.2-1.3,2.08-2.9,3.12-4.39-2.1-1.37-3.01-.11-3.97.59-10.34,7.65-20.52,15.51-30.98,22.98-26.01,18.55-54.38,32.18-85.38,40.14-8.34,2.14-16.83,3.15-25.48,2.81-5.47-.22-10.38-1.85-14.84-4.84-3.78-2.53-5.74-6.15-6.06-10.79-.53-7.58,2.68-13.66,8.08-18.31,5.47-4.71,11.32-9.17,17.59-12.71,14.66-8.27,30.28-14.51,45.98-20.53,35.07-13.46,70.04-27.13,103.79-43.71,14.86-7.3,28.77-16.06,41.51-26.71,3.92-3.27,6.81-6.99,9.03-11.53,14.04-28.74,28.82-57.13,41.34-86.59,10.96-25.8,21.1-51.92,28.84-78.91,4.64-16.16,9.19-32.36,14.48-48.3,1.92-5.8,2.84-11.31,2.55-17.33-.53-10.87-.62-21.77-.92-32.65-.03-1.26.06-2.74-1.95-2.67-.98,2.77-1.94,5.56-2.93,8.33-4.65,13.07-10.38,25.63-16.74,37.98-7.41,14.39-15.18,28.5-24.25,41.93-3.48,5.16-6.62,10.68-9.04,16.4-7.44,17.6-14.71,35.29-21.57,53.13-7,18.2-14.41,36.14-25.04,52.61-3.55,5.51-6.68,11.28-10.19,17.24,8.84,9.08,6.9,18.83,2.24,28.57-4.98,10.4-13.75,16.86-24.14,20.82-11.4,4.35-22.31-4.86-19.39-16.61,3.84-15.48,13.14-27.08,28.14-33.44,2.87-1.22,5.1-2.69,6.59-5.52,6.61-12.55,14.01-24.73,19.85-37.62,7.87-17.4,14.58-35.33,21.73-53.05.19-.47-.27-1.2-.63-2.59-8.9,7.86-16.1,16.84-24.05,25.07-8.26,8.55-16.56,17.06-24.56,25.85-7.75,8.51-15.13,17.35-21.74,26.5,4.07,8.48,4.72,11.08,3.39,16.41-2.77,11.11-8.02,20.87-16.09,29.09-4.02,4.1-8.86,6.93-14.13,8.9-10.37,3.88-20.42-3.1-20.78-14.05-.18-5.49,1.13-10.37,4.21-14.94,3.35-4.96,6.95-9.58,11.66-13.36,2.23-1.79,3.98-4.16,5.95-6.26,3.85-1.72,7.56-4,11.58-5.05,6.44-1.68,10.93-5.61,14.66-10.71,7.81-10.66,16.49-20.56,25.71-30.02,3.91-4.01,7.63-8.21,11.33-12.42.61-.7,2.34-1.65-.06-3.32-15.97,9.88-32.28,19.62-47.35,31.13.96,9.92-3.23,16.99-9.55,23.37-2.17,2.19-5.73,3.45-6.12,7.21-3.08-.5-4.7,2.01-6.81,3.4-5.8,3.82-11.71,7.39-18.47,9.29-6.26,1.76-12.36,1.62-18.37-1.04-7.66-3.4-11.81-11.61-9.28-19.61,1.48-4.68,3.56-9.26,7.12-12.91,8.22-8.44,17.73-14.66,29.32-17.48,9.86-2.4,19.49-2.42,28.47,2.49,18.65-14,37.79-26.32,57.11-38.37,5.04-3.14,10.16-6.15,15.17-9.33,1.85-1.18,4.07-2.24,3.82-5.68-25.56,5.18-50.65,11.67-75.11,18.95-1.25,2.68-2.11,4.83-3.21,6.85-2.94,5.44-7.3,9.5-13.17,11.38-8.48,2.72-17.18,4.54-26.19,4.32-4.06-.1-7.82-1.14-11.27-3.25-9.33-5.71-11.11-16.34-3.84-24.47,2.37-2.65,5.32-4.93,8.35-6.83,5.68-3.58,12.12-4.94,18.76-5.63,10.27-1.07,19.76.2,27.52,7.83.42.41,1.2.46,2.08.78,8.25-2.58,16.68-5.36,25.19-7.84,14.23-4.16,28.36-8.65,43.17-10.53,4.86-.62,9.62-2.18,14.37-3.51,5.25-1.47,9.39-4.4,12.39-9.15,3.87-6.14,8.25-11.95,12.23-18.01,9.25-14.11,16.24-29.41,23.58-44.55,16.99-35.07,26.57-72.31,33.1-110.48.56-3.24.48-6.59.94-9.85.42-2.93.97-5.8.16-8.74-1.35,3.44-2.2,6.93-3.16,10.4-2.02,7.31-3.79,14.7-6.2,21.87-10.11,30.12-28.21,54.17-54.99,71.55-6.15,3.99-12.71,6.89-19.76,8.83-6.99,1.93-13.59-.85-17.25-8.04-3-5.89-2.87-12.04-1.43-18.33,2.83-12.39,8.65-23.54,14.98-34.31,11.37-19.36,24.79-37.37,38.17-55.39,9.24-12.44,18.07-25.21,26.62-38.14,9.98-15.08,14.66-32.33,19.09-49.61,2.51-9.75.73-24.62-4.12-34.58-6.71,3.05-12.2.71-16.88-4.24-1.56-1.65-2.95-3.59-3.91-5.64-6.54-14-7.71-28.65-3.79-43.44,1.3-4.92,4.75-9.27,7.59-14.58-2.73-12.08-6.01-24.82-11.92-36.71-.61-1.23-1.02-3.26-3.58-2.34-.54,10.12-1.16,20.33-1.58,30.54-.08,1.9.71,3.82,1,5.74.78,5.2,2.47,10.48,2.07,15.59-1.32,16.81-7.42,32.02-17.52,45.54-1.56,2.09-3.59,3.88-5.54,5.64-1.21,1.09-2.58,2.21-4.08,2.75-6.64,2.4-11.93.9-13.67-6.54-.59-2.53-.52-5.24-.49-7.87.11-8.66,1.71-17.18,4.67-25.2,5.38-14.59,12.1-28.47,26.39-36.69,0-8.41.03-16.65-.04-24.89,0-.88-.58-1.75-1.12-3.25-1.3,1.05-2.39,1.68-3.13,2.58-5.01,6.14-9.94,12.33-14.89,18.52-3.73,4.66-7.42,9.3-6.21,15.95.22,1.19-.58,2.54-.8,3.84-2.33,13.42-10.83,23.87-17.2,35.32-1.17,2.11-3.87,3.6-6.16,4.8-2.89,1.52-6.03,2.72-9.18,3.61-7.67,2.18-12.95-.92-14.7-8.78-.55-2.46-.31-5.24.16-7.76,2.54-13.55,9.96-24.27,20.04-33.28,6.52-5.83,13.63-10.53,22.49-9.5,10.01-12.99,19.66-25.5,29.72-38.55.43-7.88-.81-16.35-1.6-24.9-2.15-23.24-8.79-45.35-16.76-67.02-9.35-25.43-21.98-49.39-35.27-72.97-.64-1.13-1.94-1.89-3.92-3.74,1.23,7.28,2.26,13.1,3.18,18.93,2.73,17.29,5.18,34.6,4.59,52.18-.3,8.96-1.47,17.77-4.17,26.32-1.5,4.74-3.56,9.28-7.33,12.73-5.82,5.33-13.8,4.42-17.75-2.31-1.81-3.08-3.24-6.57-3.95-10.06-1.79-8.76-2.5-17.67-1.63-26.6,1.35-13.79,2.93-27.56,4.37-41.35,2.1-20.06,3.66-40.09-.6-60.14-.98-4.62-1.75-9.08-4.96-12.64-3-3.33-4.4-8.03-8.55-10.5-1.23,1.11-2.15,2.07-3.2,2.86-4.21,3.19-8.51,2.79-12.97.43-4.58-2.42-7.97-6.11-10.02-10.63-2.57-5.67-4.75-11.59-6.36-17.6-2.29-8.55-1.93-17,3.67-24.7-1.26-2.15-2.39-4.13-3.57-6.08-8.89-14.67-18.31-29.08-21.38-46.45-.76-4.27-3.74-6.72-7.73-8.24-6.46-2.46-12.96-4.89-19.24-7.76-18.9-8.62-37.54-17.77-55.59-28.11-1.95-1.12-3.95-3.58-7-1.73.63,1.05,1.06,1.95,1.65,2.72,20.22,26.37,35.84,55.33,48.18,86.1,5.17,12.88,9.05,26.14,10.8,39.99.68,5.4.13,10.57-1.52,15.62-1.96,6.01-6.34,9.07-12.52,9.44-6.23.37-11.81-1.16-16.38-5.52-2.62-2.49-5.19-5.08-7.44-7.91-8.13-10.26-12.44-22.46-16.71-34.57-8.01-22.73-13.59-46.16-19.49-69.48-3.97-15.7-9.06-30.99-14.62-46.16-3.42-9.32-9.48-16.49-17.37-22.32-4.77-3.53-9.42-7.22-14.13-10.84-1.79-1.38-3.59-2.74-5.15-3.92-20.74,6.21-34.71-1.26-45.98-24.78-7.52-2.45-15.55-5.38-23.77-7.67-14.93-4.15-30.05-7.49-45.59-8.44-.32-.02-.75.04-.93.24-.16.17-.03.6-.03,1.5,23.55,16.84,47.94,32.93,73.56,46.53,1.51-.61,2.52-.81,3.29-1.36,5.49-3.95,11.16-3.19,16.85-.64,2.4,1.08,4.83,2.2,6.97,3.7,4.85,3.4,9.53,7.03,14.26,10.61,2.48,1.88,4,4.45,4.4,7.49.39,2.93.65,5.93.45,8.87-.7,10.54-9.83,16.97-20.19,14.41-15.82-3.91-26.08-15.32-28.5-31.63-.19-1.27-.62-2.5-.94-3.77-5.13-2.67-10.14-5.19-15.05-7.86-15.39-8.36-29.97-17.99-44.16-28.24-1.58-1.14-3.09-3-6.48-2.42,10.57,12.64,21.21,23.8,32.85,34.29,13.34-3.38,21.41,4.09,28.38,13.55,2.14,2.91,4.01,6.07,5.64,9.3,3.9,7.72,6.19,15.99,7.45,24.51.54,3.63.32,7.35-2.24,10.32-5.35,6.2-13.04,7.91-20.55,4.6-1.79-.79-3.49-1.89-5.07-3.07-10.9-8.12-17.12-19.11-18.71-32.47-.81-6.81-.43-13.75-.58-20.59-11.34-11.98-22.83-24.12-34.38-36.32-.16.78-.52,1.46-.37,2,4.06,14.64,9.51,28.78,15.32,42.79.96,2.32,2.47,3.63,4.56,4.85,13.95,8.19,17.65,21.5,17.2,36.39-.21,6.9-5.83,11.21-12.73,11.16-6.32-.05-11.61-2.57-15.72-7.21-4.67-5.28-7.8-11.48-8.86-18.51-1.24-8.19-.32-15.83,6.59-21.61.44-.37.56-1.13,1.07-2.22-13.73-22.24-20.73-47.17-24.18-72.7-18.27-6.92-35.82-13.58-53.39-20.21-22.6-8.52-45.94-14.33-69.78-17.87-17.27-2.56-34.68-4.16-52.03-6.13-.59-.07-1.24.41-2.04.71,14.3,4.44,28.23,8.39,41.89,13.1,22.91,7.89,44.29,18.79,63.05,34.37,9.44,7.84,17.93,16.59,24.37,27.13,3.46,5.66,6.13,11.68,6.99,18.34.86,6.72-2.17,11.5-7.81,14.75-5.15,2.96-10.76,3.1-16.34,1.73-8.01-1.96-15.93-4.25-22.98-8.81-8.86-5.73-17.97-11.08-26.59-17.14-18.35-12.9-36.32-26.35-54.7-39.2-21.15-14.8-43.67-27.15-67.98-36.05-17.19-6.29-34.8-10.16-53.25-8.86-7.57.53-15.13,1.24-22.69,1.93-1.14.1-2.76-.14-2.59,1.89.49.43.92,1.11,1.47,1.24,22.93,5.25,44.68,13.69,65.49,24.54,9.36,4.88,18.46,10.26,26.27,17.52,3.16,2.93,5.63,6.26,7.67,10.17,2.71,5.19-.59,12.92-5.89,14.89-3.33,1.24-7.05,2.23-10.53,2.04-5.55-.3-11.19-1.17-16.53-2.7-13.04-3.73-25.48-9.05-36.92-16.41-13.04-8.38-25.79-17.21-38.92-25.44-6.96-4.36-14.22-8.42-21.76-11.65-11.64-4.98-24.03-7.7-36.71-6.12-11.4,1.43-22.74,3.71-33.93,6.36-9.93,2.36-19.63,5.6-29.97,5.8-.91.02-1.8.56-2.92.94-1.05,14.22-9.16,22.84-22.12,27.44-12.75,4.53-24.62,3.04-35.17-5.84-15.34,4.29-29.61,10.12-42.37,19.22-3.32,2.37-7.09,4.45-8.91,8.69,1.1.19,1.8.51,2.38.37,17.68-4.24,35.64-6.47,53.73-8.11,7.75-.7,15.63-1.11,22.95-5.01,3.59-1.91,8.29-2.04,12.53-2.34,5.26-.37,10.57.09,15.84-.14,8.52-.36,16.22,2.35,23.75,5.86,3.99,1.86,7.19,4.64,9.34,8.52,3.04,5.5,2.17,11.02-2.46,15.21-4.09,3.7-9.04,5.46-14.43,5.73-5.27.26-10.61.57-15.83.04-9.19-.93-18.19-2.98-26.57-7.14-5.46-2.71-10.14-6.17-12.2-12.29-.28-.82-1.13-1.45-1.89-2.39-20.71,2.36-41.11,6.08-61.39,10.53-.8.18-1.45,1.07-2.74,2.07,9.67,5.86,19.58,9.83,29.85,13.71,6.74-7.86,15.71-9.85,25.09-9.57,5.85.18,11.66,1.87,17.48,2.96,7.8,1.46,13.84,5.91,19.25,11.44,6.06,6.21,6.14,13.86.05,20.17-4.26,4.42-9.56,7.16-15.54,8.07-9.73,1.49-19.05-.15-27.81-4.75-8.77-4.61-15.77-10.8-18.85-20.61-.18-.56-.85-.97-1.22-1.38-14.13-4.83-27.7-10.72-40.7-18.16-16.71,5.53-32.91,11.91-48.95,18.86-46.24,20.04-86.82,48.5-123.9,82.24-26.64,24.24-50.97,50.77-75.38,77.2-.63.68-2.37,1.55-.69,2.96.63-.31,1.28-.51,1.79-.89,1.84-1.39,3.61-2.87,5.44-4.28,22.21-17.14,44.63-33.9,70.22-45.93,17.38-8.17,35.18-14.89,54.12-18.19,5.8-1.01,11.83-1.31,17.71-1.03,3.81.18,7.78,1.51,11.28,3.18,7.19,3.43,9.8,9.23,8.44,17.16-.93,5.44-3.61,10.06-7.81,13.41-5.91,4.7-11.93,9.43-18.48,13.13-17.55,9.91-36.47,16.82-55.23,24.03-31.69,12.18-63.16,24.86-93.68,39.79-15.17,7.42-29.38,16.36-42.24,27.39-3.33,2.86-5.91,6.05-7.83,10.01-10.19,21.08-20.79,41.97-30.77,63.15-16.62,35.24-30.82,71.43-41.65,108.91-4.75,16.46-10.12,32.74-15.08,49.13-.55,1.83-.49,3.9-.42,5.85.4,12.2.88,24.4,1.36,36.6.04,1.13.31,2.25.49,3.48.89-.28,1.39-.3,1.45-.48,5.44-15.59,11.75-30.75,19.4-45.44,7.63-14.65,15.47-29.1,24.79-42.76,3.13-4.6,5.96-9.53,8.1-14.65,7.9-18.85,15.7-37.74,23.06-56.8,6.55-16.96,13.58-33.62,23.44-48.99,3.72-5.79,7.01-11.87,10.31-17.5-.41-1.12-.47-1.85-.86-2.3-5.86-6.8-5.75-14.24-2.97-22.29,4.31-12.51,13.63-19.98,24.98-25.31,5.84-2.74,11.63-1.58,16.67,2.57,5.15,4.24,5.18,10.11,3.5,15.47-4.53,14.4-13.03,25.77-27.51,31.66-2.88,1.17-5.15,2.57-6.7,5.42-8.2,15.06-16.97,29.82-23.47,45.74-6.11,14.95-12.15,29.93-18.17,44.91-.19.47.19,1.18.3,1.78.6-.12,1.42-.03,1.76-.39,17.28-18.18,34.65-36.28,51.68-54.68,6.23-6.73,11.65-14.22,17.21-21.07-5.95-13.49-4.73-12.04-1.3-23.29,2.53-8.29,7.34-15.44,13.29-21.8,4.16-4.45,9.25-7.47,14.83-9.6,10.33-3.94,20.44,3.01,20.72,14.01.14,5.42-.69,10.56-4.2,14.91-4.1,5.1-8.31,10.11-12.48,15.16-3.14,1.33-6.02,3.01-7.78,6.11ZM405.88,1435.55c.19.59.33,1.2.57,1.77.09.22.4.36.61.53.16-.26.46-.73.44-.74-.63-.45-1.29-.86-1.95-1.27-.09-2.27.27-4.66-.34-6.78-7.86-27.19-14.89-54.65-24.69-81.24-2.72-7.39-6.21-14.51-9.67-21.6-2.63-5.38-6.38-10.02-11.34-13.49-1.16-.81-2.66-2.21-4.21-.38.14.68.15,1.36.41,1.92,10.33,22.1,19.17,44.79,27.27,67.8,6.45,18.32,14.06,36.16,22.9,53.46ZM1264.96,291.65c.16-.61.42-1.22.44-1.83,0-.32-.41-.66-.63-.99.07.32.19.64.2.96.02.61-.02,1.22-.04,1.84,1.06,2.71,2.32,5.37,3.15,8.15,7.58,25.51,14.08,51.37,23.32,76.36,2.95,7.99,6.57,15.76,10.27,23.45,2.58,5.37,6.3,10.05,11.27,13.51,1.16.81,2.61,2.25,4.35.34-.27-.85-.48-1.78-.84-2.64-7.59-18.56-15.63-36.94-22.67-55.7-6.93-18.48-13.89-36.92-22.11-54.87-1.09-2.39-2.13-4.83-3.54-7.03-.54-.84-2.08-1.05-3.16-1.54ZM808.18,1578.05c.3.47.52,1.08.95,1.36.21.14.82-.34,1.24-.54-.26-.11-.51-.28-.78-.33-.56-.1-1.13-.15-1.69-.22-.99-.78-1.9-1.71-2.99-2.3-8.12-4.36-16.48-8.32-24.39-13.04-17.82-10.63-35.49-21.51-53.1-32.5-12.01-7.5-23.68-15.54-35.73-22.97-8.95-5.52-18.07-10.83-28.38-13.66-2.89-.79-5.66-1.59-9.13-.12.92,1.1,1.54,2.27,2.51,2.9,2.75,1.81,5.7,3.31,8.46,5.09,18.29,11.76,36.64,23.44,54.82,35.38,24.36,16,50.82,27.72,77.78,38.41,3.29,1.3,6.94,1.71,10.43,2.52ZM1412.43,1306.5c-2.36,1.06-4.85,1.89-7.04,3.22-26.75,16.25-54.44,30.62-83.22,42.95-17.22,7.38-34.18,15.36-51.27,23.06-1.49.67-3.15,1.15-2.16,3.56,6.95,1.77,13.8-.44,20.33-1.98,21.86-5.16,42.29-14.12,61.73-25.35,17.14-9.9,32.85-21.87,48.78-33.51,4.71-3.44,8.86-7.64,13.26-11.49,1.95-.21,3.38-.87,2.87-3.78-1.29,1.3-2.29,2.31-3.29,3.32ZM1556.65,836.75c-3.11-.49-3.86,2.04-4.71,4-5.56,12.73-12.73,24.53-20.66,35.86-7.92,11.32-16.21,22.39-24.36,33.54-11.86,16.23-23.08,32.84-30.64,51.62-2.34,5.81-4.52,11.66-4.29,18.06.04,1.14-.28,2.74,2.22,2.97.98-1.29,2.22-2.74,3.25-4.33,20.17-31.26,39.65-62.93,58.06-95.26,7.19-12.63,13.2-25.74,17.97-39.45.85-2.43,2.09-4.72,3.06-7.18l-.14-4.4c-.35.06-.71.12-1.06.18.44,1.46.88,2.93,1.32,4.39ZM254.82,433.75c2.82-1.62,5.53-3.48,8.49-4.81,25.19-11.29,50.41-22.53,75.65-33.7,18.33-8.11,37.21-15.04,54.61-25.11,5.66-3.27,10.89-7.33,16.08-11.33,2.72-2.1,2.56-2.58,2.5-7.37-.97.23-1.98.32-2.85.71-21.57,9.75-43.06,19.69-64.71,29.26-28.66,12.66-55.99,27.75-82.43,44.5-2.5,1.58-4.92,3.31-7.21,5.17-.43.35-.07,1.67-.08,2.54-.69,0-1.38,0-2.08.01.68.04,1.35.07,2.03.11ZM114.16,879.78c3.2-.28,3-3.27,3.71-5.16,4.25-11.45,9.34-22.5,15.35-33.12,7.46-13.19,14.73-26.48,22.49-39.49,10.29-17.25,20.97-34.27,31.46-51.41,1.11-1.81,1.99-3.76,3.01-5.72-3.23-1.51-5.15.32-6.9,1.42-21.45,13.46-38.12,31.18-48.36,54.62-6.76,15.48-10.85,31.75-14.55,48.13-2.31,10.26-5.62,20.34-6.02,31.04-.27,1.02-.53,2.05-.8,3.07.21.03.42.07.63.1v-3.47ZM656.48,1596.87c-3.51-1.93-7.08-.78-10.62-.17-5.84,1-11.65,2.23-17.52,3.07-15.65,2.25-31.37,4.1-46.99,6.54-30.6,4.78-61.03,10.63-91.86,13.84-1.31.14-2.52,1.3-4.46,2.35,6.78,5.15,13.94,6.66,21.03,7.07,9.53.55,19.18.53,28.67-.4,13.43-1.32,26.92-2.9,40.08-5.77,28.02-6.1,55.55-13.99,81.36-26.85.27-.19.57-.35.79-.58.35-.37.65-.8.97-1.21-.57.09-1.51.02-1.63.3-.21.48.09,1.19.18,1.8ZM1018.83,130.24c8.43-1.39,16.85-2.89,25.31-4.15,28.61-4.27,57.24-8.48,85.86-12.67,17.57-2.57,35.15-5.03,52.71-7.63,1.4-.21,2.7-1.16,4.65-2.04-1.61-1.43-2.42-2.67-3.54-3.07-6.49-2.34-13.01-4.68-20.06-4.64-10.53.05-21.02-.02-31.55,1.21-9.17,1.07-18.21,2.66-27.29,4.21-26.68,4.56-52.43,12.27-77.4,22.67-2.73,1.14-5.4,2.44-7.97,3.89-.48.27-.37,1.61-.57,2.41-1.35-.17-2.71-.34-4.96-.63,2.28,2.39,3.51.98,4.8.45ZM1610.43,547.91c-1.1-3.93-4.28-5.39-6.81-7.32-42.57-32.51-87.86-60.49-137.01-82-1.27-.56-2.65-2.19-4.88-.09,5.87,5.79,11.57,11.64,17.72,17.11,24.96,22.23,52.33,41.09,81,58.12,9.61,5.71,19.49,10.97,30.18,14.58,5.48,1.85,10.95,2.25,16.55,1.37,1.15-.18,2.17-1.16,3.25-1.77ZM210.05,1268.15c-4.77-6.28-10.2-11.9-16.07-17.14-25.2-22.46-52.79-41.61-81.78-58.78-9.63-5.7-19.5-10.97-30.18-14.62-5.47-1.87-10.94-2.35-16.55-1.48-1.17.18-2.22,1.16-3.47,1.84.58,1.18.78,2.29,1.44,2.84,24.2,20.02,50.87,36.46,77.32,53.23,21.76,13.8,45.58,23.42,69.29,34.1ZM1188.05,110.33c-2.94-.94-6.11-.33-9.25.09-2.61.35-5.2.83-7.81,1.2-17.59,2.45-35.2,4.78-52.78,7.36-18.55,2.73-37.01,6.11-55.6,8.46-19.29,2.43-38.33,5.99-57.24,10.41-1.26.3-2.59.76-2.31,3.02,6.89,1.54,14.08,1.93,21.17,1.52,28.26-1.62,56.56-2.79,84.7-6.19,20.62-2.5,40.86-6.81,60.81-12.52,5.73-1.64,11.08-4.23,15.74-8,1.43-1.15,3.26-2.39,2.56-5.36ZM484.33,1615.62c3.72.69,7.52.14,11.34-.39,13.03-1.79,26.07-3.5,39.1-5.34,10.42-1.47,20.82-3.04,31.22-4.64,14.95-2.3,29.83-5.07,44.83-6.92,18.96-2.35,37.66-5.86,56.22-10.29,1.21-.29,2.69-.54,2.16-2.93-.98-.26-2.15-.79-3.35-.84-6.9-.26-13.82-.79-20.71-.52-12.5.49-24.99,1.35-37.47,2.28-14.42,1.08-28.84,2.21-43.22,3.66-21,2.12-41.51,6.83-61.78,12.55-5.71,1.61-11.1,4.2-15.69,8.1-1.43,1.21-3.19,2.42-2.65,5.29ZM1559,843.84c-.31-.08-.61-.16-.92-.25-.95,2.06-2.06,4.05-2.82,6.18-5.21,14.65-12.22,28.43-19.95,41.87-5.58,9.71-10.88,19.6-16.65,29.2-11.21,18.64-22.68,37.11-33.97,55.69-.88,1.46-2.87,2.79-1.29,5.49,1.47-.53,3.04-.87,4.37-1.63,10.98-6.24,20.67-14.17,29.18-23.41,13.89-15.09,22.81-33.02,28.14-52.69,4.3-15.89,8.06-31.93,11.9-47.94.98-4.1,1.35-8.34,2-12.52ZM190.28,1267.1c-45.1-22.92-86.86-50.54-129.26-79.62,1.06,6.48,4.12,10.39,6.95,14.27,8.61,11.82,19.18,21.59,31.16,30.03,20.5,14.45,43.51,22.97,67.45,29.4,7.86,2.11,15.8,3.95,23.7,5.92ZM1481.79,459.59c45.35,21.87,86.96,49.69,129.87,78.8-1.03-3.21-1.21-4.86-2.02-6.11-2.83-4.43-5.63-8.92-8.89-13.03-13.14-16.58-30.08-28.47-48.74-37.88-22.11-11.15-46.02-16.97-70.23-21.78ZM798.48,1582.16c.12-.4.24-.81.36-1.21-5.06-2.1-10.09-4.25-15.17-6.28-18.36-7.3-36.53-15.09-53.51-25.23-12.71-7.6-24.9-16.05-37.33-24.13-10.77-7-21.52-14.02-32.31-20.98-1.26-.82-2.59-2.16-4.79-.45,1.7,5.63,5.31,10.2,9.08,14.62,12.15,14.24,27.11,24.92,43.54,33.58,24.28,12.79,50.16,21.29,76.76,27.71,4.39,1.06,8.91,1.6,13.37,2.39ZM1015.41,223.1c.45-.42.89-.85,1.34-1.27-.61-1.45-1.1-2.96-1.85-4.34-3.83-7.04-9.33-12.75-14.97-18.3-15.03-14.79-33.11-24.98-52.16-33.37-19.59-8.63-40.02-15.06-60.92-19.73-4.25-.95-8.57-2.93-14.93-1.72,3.91,1.54,6.29,2.53,8.7,3.42,36.01,13.41,69.52,31.47,100.78,53.83,9.1,6.51,18.68,12.37,28.09,18.44,1.86,1.2,3.95,2.03,5.93,3.03ZM1415.81,1296.2c-.3-.5-.6-.99-.9-1.49-1.44.57-2.92,1.05-4.32,1.71-29.1,13.91-58.78,26.5-88.45,39.13-14.52,6.19-29.12,12.23-42.97,19.9-6.4,3.54-12.22,7.77-17.37,12.89-1.48,1.47-3.27,3.5-.77,5.88.96-.27,1.96-.41,2.84-.81,22.48-10.17,44.86-20.55,67.43-30.51,27.48-12.13,53.52-26.85,78.92-42.79,1.92-1.21,3.72-2.61,5.58-3.92ZM350.01,1316.06c-.78.93-1.46,1.35-1.5,1.83-.52,6.6-.25,13.13,1.25,19.64,5.76,24.94,15.8,48.18,27.69,70.71,8.02,15.2,16.85,29.89,28.17,42.93.91,1.05,1.47,2.78,3.88,2.38-.59-1.36-1.02-2.53-1.59-3.62-10.98-21.1-20.4-42.88-28.44-65.25-7.26-20.19-15.29-40.04-24.17-59.56-1.43-3.15-2.51-6.57-5.29-9.06ZM257.68,419.43c.47.48.94.95,1.41,1.43,2.79-1.61,5.57-3.23,8.38-4.81,13.48-7.6,26.84-15.43,40.49-22.73,23.83-12.74,48.92-22.79,73.56-33.77,6.91-3.08,13.71-6.41,20.57-9.61,1.35-.63,2.1-1.44,1.03-3.17-6.51-1.86-13.05.3-19.25,1.75-21.91,5.12-42.61,13.69-61.8,25.4-13.2,8.05-25.93,16.91-38.59,25.81-8.85,6.22-17.21,13.11-25.8,19.71ZM1529.66,1386.75c2.04-1.88,3.1-2.38,3.32-3.14,1.01-3.45,2.1-6.93,2.59-10.48,3.51-25.05,1.33-49.94-2.96-74.66-3.5-20.19-10.55-39.35-18.44-58.19-.36-.85-1.05-1.57-2.69-3.95.31,5.32.27,8.61.72,11.83,1.42,10.1,2.95,20.19,4.59,30.26,2.16,13.32,4.94,26.55,6.58,39.93,1.88,15.34,2.8,30.8,4.17,46.21.61,6.86,1.3,13.71,2.11,22.19ZM160.78,486.42c-.21-3.57-.15-7.19-.68-10.72-2.15-14.32-4.31-28.65-6.78-42.92-3.31-19.15-6.62-38.27-7.24-57.77-.29-9.2-1.33-18.39-2.17-27.57-.22-2.46.06-5.21-2.61-7.33-.8,1.1-1.93,2.03-2.21,3.16-1.03,4.14-2.17,8.31-2.56,12.54-2.38,25.74-.88,51.33,4.35,76.6,3.86,18.67,10.32,36.56,19.88,54ZM1265.45,272.94c-.39.34-.77.68-1.16,1.02.25.89.37,1.84.77,2.65,11.76,23.22,21.61,47.24,30.73,71.62,6.68,17.86,14.34,35.36,21.65,52.98,1.32,3.17,2.57,6.48,5.85,9.69.55-2.76,1.38-4.67,1.22-6.5-.52-5.88-.81-11.88-2.23-17.58-9.42-37.84-26.39-72.19-48.77-103.97-2.45-3.47-5.37-6.61-8.07-9.91ZM490.73,123.54c-2.18,2.36-4.51,4.6-6.5,7.11-6.36,7.99-12.64,16.05-18.86,24.15-20.48,26.65-40.18,53.87-58.59,82-.89,1.36-3.2,2.69-1.15,5.24,2.14-2.12,4.34-4.09,6.31-6.28,12.77-14.21,25.71-28.27,38.16-42.75,12.02-13.99,23.25-28.64,33.07-44.29,4.69-7.48,8.74-15.3,7.57-25.17ZM1268.03,1482.9c-2.11,2.01-4.37,3.89-6.31,6.06-13.22,14.72-26.56,29.35-39.51,44.32-11.65,13.47-22.53,27.6-31.96,42.73-3.47,5.56-6.09,11.66-8.84,17.64-1.28,2.78-.94,3.44,1.07,8.86,31.11-38.37,59.95-77.62,85.55-119.6ZM908.72,1694.11c7.22-1.27,9.98-2.44,16.04-6.53,12.07-8.14,22.82-17.76,32.42-28.72,15.86-18.11,29.87-37.58,43.2-57.58.58-.88,2.29-1.7.59-3.67-2.36,2.18-4.86,4.19-7.02,6.52-11.64,12.54-23.18,25.18-34.79,37.76-5.58,6.04-11.09,12.16-16.88,18-8.81,8.88-17.87,17.5-26.74,26.32-2.25,2.24-4.17,4.81-6.83,7.9ZM763.43,32.71c-.4-.54-.8-1.08-1.2-1.62-5.24,1.72-10.06,4.3-14.68,7.4-12.96,8.69-24.2,19.27-34.36,31.06-15.08,17.5-28.44,36.27-41.27,55.43-.61.92-2.15,1.81-.54,3.85,28.46-27.92,53.09-59.4,82.67-86.1,3.38-3.05,6.26-6.67,9.37-10.02ZM1521.79,1374.23c.63-.62.97-.81.96-.98-.36-6.57-.59-13.15-1.18-19.69-1.01-11.15-2-22.31-3.45-33.4-2.01-15.34-4.49-30.62-6.68-45.93-1.58-11.05-3.03-22.12-4.53-33.18-1.23,2.38-1.85,4.84-1.99,7.31-.73,12.84-.22,25.65.4,38.51.96,20.11,3.2,40.03,7.25,59.72,1.71,8.35,4.67,16.44,7.17,24.62.33,1.09,1.32,1.97,2.06,3.03ZM165.46,483.19c.52.02,1.05.04,1.57.06.24-.55.7-1.09.7-1.64-.07-13.53.2-27.07-.4-40.57-.54-12.17-1.82-24.32-3.16-36.44-1.78-16.09-4.67-31.98-10.3-47.23-.51-1.38-.29-4.27-3.84-3.49.3,15.13,1.41,30.26,3.38,45.28,2.82,21.58,6.2,43.09,9.33,64.63.94,6.46,1.82,12.93,2.72,19.4ZM284.17,563.2c2.32,3.85,6.31,3.38,9.73,3.22,13.85-.65,24.02-8.05,32.26-18.58.99-1.26,1.58-2.9,2.09-4.45,2.18-6.64-3.53-12.88-10.39-11.29-1.89.44-3.78,1.25-5.44,2.27-9.32,5.71-17.8,12.45-24.88,20.85-1.95,2.31-3.34,4.81-3.38,7.98ZM1379.19,1159.45c-9.43.35-17.5,3.73-24.37,9.81-4.16,3.69-8.47,7.32-10.39,12.93-2.13,6.25,2.37,12.49,8.9,11.68,2.52-.31,5.15-1.31,7.32-2.66,8.98-5.58,17.25-12.09,24.09-20.25,2.11-2.52,4.78-5.24,3.16-8.67-1.7-3.58-5.74-2.36-8.71-2.85ZM573.68,235.48c-4.18.66-8.39,1.17-12.52,2.04-1.96.41-3.1,2.9-2.38,4.72.71,1.81,1.43,3.75,2.68,5.18,8.29,9.46,18.73,14.23,31.34,12.84,3.36-.37,6.87-2.26,9.67-4.32,4.76-3.49,4.62-7.84-.04-11.29-2.33-1.73-4.99-3.12-7.67-4.26-6.69-2.85-13.73-4.23-21.08-4.91ZM1101.19,1490.17c1.01-.12,2.32-.24,3.63-.42,1.64-.22,3.29-.39,4.89-.76,3.94-.93,5.42-3.91,3.26-7.45-1.69-2.77-3.79-5.46-6.25-7.54-5.1-4.33-11.16-6.97-17.74-8.29-5.32-1.06-10.54-.61-15.44,1.81-3.35,1.65-6.4,3.93-6.73,7.93-.32,3.85,2.83,5.72,5.65,7.44,8.72,5.31,18.47,6.69,28.73,7.29ZM905.08,1689.27c27.32-25.32,50.92-52.17,74.4-79.23-4.27,2.38-8.24,5.12-12.13,7.98-14.88,10.96-29.49,22.26-42.13,35.86-7.71,8.29-13.86,17.61-18.45,27.94-.85,1.92-.97,4.16-1.69,7.45ZM215.23,233.86c-.76-5.73-1.1-10.68-2.16-15.48-.69-3.14-1.97-6.35-3.74-9.02-3.27-4.91-9.57-4.86-13.46-.32-2.01,2.34-3.06,5.01-2.96,8.14.35,11.34,2.56,22.19,8.33,32.11.82,1.41,1.77,2.78,2.83,4.02,1.33,1.55,4.08,1.71,5.24.11,1.53-2.09,3.26-4.3,3.87-6.72,1.12-4.44,1.48-9.06,2.04-12.83ZM698.08,111.65c18.97-12.23,36.89-25.54,51.79-42.41,6.34-7.17,11.41-15.26,15.45-23.97,1.09-2.35,2.51-4.63,1.19-7.82-24.47,23.42-47.66,47.68-68.43,74.19ZM1479.78,1507.68c-.37-9.58-3.36-23.29-8.82-31.67-1.42-2.17-2.6-5.12-5.77-4.54-2.77.51-4.14,3.14-5.06,5.65-.79,2.15-1.47,4.4-1.77,6.67-1.18,8.91-.62,17.75,1.79,26.42.52,1.88,1.33,3.74,2.35,5.4,3.65,5.95,10.38,6.19,14.71.7,2.18-2.76,2.85-5.86,2.57-8.63ZM1544.72,701.88c-4.67,2.34-6.34,6.17-7.28,10.4-2.47,11.22-1.2,22.13,3.04,32.73.6,1.51,1.29,3.06,2.28,4.32,1.78,2.27,3.5,5.26,7.03,4.25,3.16-.9,4.36-3.71,4.8-6.8.05-.32.13-.65.13-.97.08-7.2.62-14.43.09-21.58-.48-6.53-2.42-12.9-6.05-18.5-.98-1.52-2.68-2.58-4.06-3.85ZM1441.37,460.75c.72,25.57-2.38,50.76-4.31,76.02-.81,10.54-.76,21.07,1.32,31.51.64,3.19,1.32,6.3,5.76,9.02,4.25-39.82,3.33-78.29-2.76-116.54ZM116.99,990.99c-.19,6.97.75,13.8,2.88,20.36,1.2,3.68,3.17,7.16,5.14,10.52,1.31,2.23,4.37,2.33,5.79.22,1.61-2.4,3.24-4.98,3.99-7.73,3.37-12.21,1.57-24.03-3.68-35.35-1.06-2.29-2.95-4.31-4.83-6.06-1.59-1.48-3.83-1.34-5.27.36-1.2,1.42-2.3,3.23-2.62,5.01-.74,4.18-.97,8.44-1.41,12.67ZM230.41,1149.53c-6.72,38.44-5,76.14.37,113.79.58-1.63.77-3.27.72-4.89-.75-21.1,2.14-42.01,3.34-63,.5-8.85.78-17.74.66-26.6-.06-4.55-1-9.14-2-13.61-.45-2.02-2.02-3.8-3.08-5.68ZM1463.31,342.39c4.84-.06,9.28-1.1,13.35-3.45,4.96-2.86,5.16-8.75.54-12.15-.53-.39-1.08-.76-1.67-1.02-10.57-4.67-21.64-5.46-32.78-3.24-7.1,1.41-8.31,6.52-2.95,11.21,2.67,2.33,5.84,4.46,9.15,5.59,4.6,1.56,9.56,2.1,14.36,3.07ZM216.49,1404.62c5.04-.31,8-.32,10.91-.73,3.6-.5,7.55-1.19,8.35-5.49.69-3.71-2.26-6.01-4.93-7.91-8.8-6.25-18.7-7.56-29.09-5.86-2.19.36-4.37,1.48-6.27,2.69-4.59,2.91-4.8,8.12-.42,11.4,1.79,1.34,3.95,2.49,6.11,2.98,5.72,1.3,11.53,2.2,15.35,2.9ZM1135.3,251.2c0,3.35-.12,6.64.02,9.92.34,8.13,2.95,15.52,7.9,21.96,3.06,3.99,6.84,7.19,12.16,7.75,4.14.43,7.26-2.55,6.4-6.58-2.73-12.79-7.78-24.42-17.46-33.67-2.75-2.63-5.21-2.01-9.03.62ZM536.91,1475.7c0-4.8.35-9.4-.08-13.93-.84-8.81-4.21-16.59-11.04-22.47-1.94-1.66-4.33-3.09-6.75-3.83-5.49-1.69-9.3,1.72-8.04,7.37,2.7,12.07,7.74,23,16.58,31.98,2.52,2.56,5.07,2.63,9.33.89ZM1313.61,257.7c1.44.57,2.84,1.29,4.33,1.68,27.97,7.29,56.07,13.97,84.59,18.78,5.21.88,9.95.32,14.89-1.39-.26-2.17-2.11-2.12-3.6-2.57-26.55-7.96-84.98-18.23-100.22-16.5ZM255.1,1448.13c-.09.72-.19,1.44-.28,2.16,3.06.98,6.06,2.22,9.18,2.89,18.34,3.93,36.67,7.92,55.08,11.49,11.95,2.32,23.91,4.91,36.19,4.94,1.06,0,2.13-.36,3.19-.55-2.63-2.15-5.34-3.06-8.11-3.72-14.4-3.46-28.77-7.04-43.23-10.22-12.51-2.75-25.1-5.24-37.72-7.39-4.68-.8-9.62-.97-14.3.39ZM1069.94,1568.14c5.83-.33,11.71-2.28,17-5.76,2.42-1.6,4.86-3.43,6.65-5.67,3.9-4.86,2.32-9.48-3.55-11.45-9.39-3.15-23.47,1.84-28.79,10.19-4.6,7.23-2.45,11.61,6.17,12.54.65.07,1.31.08,2.51.14ZM194.87,1034.91c1.44.32,2.15.73,2.67.56,13.22-4.14,27.09-21.6,28.03-35.23.17-2.45-.54-4.54-3.21-6.07-3.12.73-6.92.77-9.41,3.77-8.86,10.66-16.52,21.96-18.08,36.97ZM1477.93,689.97c-15.57,4-30.23,21.55-30.94,36.12-.11,2.36.66,4.56,3.17,5.51,5.86-.15,9.85-3.16,12.9-7.87,2.15-3.32,4.71-6.37,6.73-9.76,4.24-7.07,7.21-14.63,8.13-24.01ZM159.33,1034.25c10.29-11.35,16.39-22.74,19.68-35.71,2.93-11.52,3.22-16.09,1.08-21.96-9.73,6.98-13.73,17.48-17.68,27.84-3.37,8.85-5.97,17.97-3.08,29.83ZM589.04,181.35c11.26-.12,20.4-5.69,23.75-14.01,2.06-5.11,1.02-7.46-4.26-8.61-11.77-2.58-21.13,2.18-29.34,10.07-.69.66-1.13,1.62-1.6,2.48-1.62,2.99-.91,5.8,1.8,7.78,3.14,2.3,6.74,2.37,9.64,2.29ZM1513.24,692.5c-1.72,1.34-2.64,1.81-3.23,2.55-12.25,15.15-18.76,32.41-18.93,51.95,0,.76.87,1.53,1.6,2.73,10.78-9.27,15.42-21.54,19.34-34.15,2.24-7.21,3.98-14.55,1.22-23.07ZM768.63,1665.83c-4.11-.21-6.97-.57-9.82-.46-7.57.31-15.03,1.55-21.8,5.06-2.79,1.45-5.38,3.75-7.31,6.24-2.12,2.74-1.93,6.2-.18,9.29,1.47,2.6,4.68,3.64,8.73,2.45,5.32-1.56,10.82-2.94,15.7-5.46,6.43-3.31,11.53-8.34,14.67-17.12ZM734.08,1622.52c-4.03.75-9.24,1.42-14.25,2.77-3.74,1.01-7.43,2.57-10.79,4.51-4.05,2.34-3.57,5.88.75,8.15,12.46,6.58,30.1,3.59,39.87-6.76,1.81-1.91,1.27-4.21-1.02-5.73-4.13-2.73-8.93-1.71-14.55-2.94ZM921.47,97.26c1.43,3.38,4.11,4.37,7.11,4.92,10.3,1.86,20.27.43,29.93-3.25,2.39-.91,4.53-2.61,6.6-4.2,1.75-1.35,1.65-3.78-.06-5.12-1.27-1-2.64-1.99-4.12-2.59-9.62-3.93-19.16-4.22-28.44,1.09-4.22,2.42-8.74,4.51-11.02,9.15ZM310.09,595.41c-.05-.3-.09-.61-.14-.91-4.79.92-9.64,1.6-14.36,2.82-4,1.04-6.72,3.97-8.63,7.59-1.86,3.52-1,6.53,2.43,8.22,1.47.72,3.01,1.51,4.59,1.74,9.49,1.36,18.34-.31,26.14-6.15,1.28-.96,2.29-2.34,3.28-3.64,1.38-1.81.99-3.65-.09-5.5-1.44-2.45-3.56-3.9-6.33-4.13-2.28-.19-4.6-.04-6.9-.04ZM1375.61,1110.6c-8.5-.18-14.2,1.31-19.45,4.18-2.25,1.23-4.34,2.98-6.1,4.87-2.7,2.91-1.9,7.06,1.56,9.23,1.08.68,2.37,1.43,3.58,1.44,5.9.05,11.89.44,17.68-.41,5.64-.82,10.47-3.79,13.04-9.42,1.42-3.11.72-6.2-2.36-7.46-3.27-1.35-6.8-2.09-7.95-2.43ZM904.35,59.75c11.36,1.86,20.93-.07,30.23-3.71,3.74-1.47,6.86-3.85,8.84-7.53,1.57-2.91,1.45-5.75-.31-8.42-1.84-2.78-4.62-3.69-7.78-2.84-3.81,1.03-7.51,2.42-11.32,3.46-7.76,2.11-13.1,7.33-17.58,13.59-.88,1.22-1.12,2.89-2.07,5.46ZM1643.2,685.61c-12.2-13.53-71.61-62.95-85.14-71.22,3.72,6.22,17.27,20.14,33.28,34.2,18.15,15.93,40.34,32,51.86,37.02ZM257.54,201.95c-.22-2.62-.26-5.28-.71-7.87-.57-3.29-1.91-6.29-4.49-8.59-4.28-3.81-9.18-2.56-10.62,2.96-1.75,6.73-2.95,13.63-1.69,20.55.7,3.81,2.05,7.62,3.79,11.09,1.86,3.73,5.04,3.65,7.91.38,4.67-5.33,5.07-11.94,5.81-18.52ZM1433.3,1523.12c-.61-5.73-.77-11.31-3.79-16.36-2.79-4.66-5.86-4.97-9.16-.73-.8,1.03-1.62,2.12-2.12,3.31-3.58,8.49-4.41,17.24-1.35,25.99.8,2.3,2.85,4.42,4.83,5.99,3.26,2.59,7.61,1.28,8.67-2.73,1.34-5.06,1.98-10.3,2.92-15.46ZM115.14,1110.38c-5.34-5.32-10.8-10.53-16.01-15.99-17.62-18.45-38.13-33.39-58.53-48.47-1.05-.78-2.18-1.52-3.37-2.03-1.04-.45-2.23-.56-4.09-.98,6.34,9.17,61.77,55.91,82.01,67.48ZM1076.27,1516.78c-5.88-5.78-6.17-5.95-14.13-8.19-9.55-2.69-19.11-5.05-29.12-2.4-2.54.67-5.21,1-6.38,3.87,3.36,5.89,4.96,7.22,11.96,8.67,8.1,1.68,16.32,2.02,24.52.87,4.09-.57,8.52.11,13.14-2.83ZM1402.73,1191.63c-1.58.22-2.67.09-3.47.52-10.1,5.45-18.23,12.99-23.34,23.35-1.08,2.19-1.05,5.1-.95,7.66.11,2.83,2.68,4.79,5.52,4.34,1.86-.3,3.89-.95,5.37-2.08,10.2-7.74,15.47-18.54,18.31-30.69.21-.89-.95-2.1-1.44-3.1ZM596.75,209.4c3.62,4.42,3.67,4.32,7.53,5.87,7.06,2.84,14.45,4.44,21.95,5.38,5.61.7,11.19.04,16.55-1.88,3.45-1.23,3.89-4.28,1.15-6.87-2.99-2.82-6.71-4.18-10.59-4.88-11.47-2.08-22.94-1.34-34.36.55-.82.14-1.49,1.2-2.23,1.83ZM269.02,533.81c1.58.09,2.72.51,3.47.14,10.97-5.34,19.31-13.43,24.51-24.48.9-1.92.78-4.51.55-6.73-.33-3.16-3.45-5.12-6.51-4.36-1.24.31-2.48.85-3.58,1.53-9.52,5.9-17.97,21.12-18.45,33.91ZM87.59,637.79c-1.22,5.21-.38,8.99.21,12.77,2.32,14.96,4.68,29.91,6.94,44.88,2.25,14.97,4.37,29.96,6.61,44.93.24,1.61.9,3.16,1.32,4.75.39,1.47.71,2.95,1.07,4.42.42-6.41-.31-12.62-.54-18.85-.89-24.05-3.39-47.92-8.41-71.46-1.48-6.92-3.13-13.91-7.19-21.43ZM245.31,1361.88c-4.93-13.35-13.33-21.01-25.04-25.2-2.05-.73-4.58-.43-6.84-.2-3.51.36-5.61,3.78-4.71,7.23.88,3.36,2.87,5.68,5.88,7.54,7.62,4.71,15.77,8.14,24.34,10.58,1.46.41,3.14.06,6.37.06ZM1584.97,1088.3c.5-.29.99-.57,1.49-.86-2.62-17.54-5.21-35.09-7.89-52.62-2.65-17.33-4.77-34.76-8.82-51.9-.67,1.65-.93,3.27-.81,4.86,1.45,18.7,2.34,37.47,4.67,56.07,1.75,13.98,4.59,27.91,9.5,41.26.42,1.14,1.22,2.13,1.85,3.19ZM1428.43,364.21c.08,1.74-.16,2.83.21,3.65,4.27,9.36,11.21,16.18,20.62,20.18,2.87,1.22,6.37,1.41,9.57,1.33,4-.1,6.21-3.97,4.89-7.84-.98-2.9-2.84-5.04-5.5-6.69-8.15-5.08-16.84-8.85-26.19-11.04-.87-.2-1.87.19-3.6.41ZM1575.21,991.24c4.84,28.39,9.68,56.78,14.52,85.18.74-.12,1.49-.25,2.23-.37,3.31-29.78-3.6-57.89-16.75-84.8ZM97.13,733.33c-4.86-28.47-9.71-56.94-14.76-86.49-6.47,19.6.73,62.59,14.76,86.49ZM341.5,226.35c.03-5.22-4.24-8.63-9.19-7.06-3.11.98-6.25,2.33-7.98,5.36-2.26,3.96-4.38,8.01-6.3,12.15-.65,1.41-.73,3.19-.67,4.79.12,3.23,2.75,5.34,5.96,5.05,9.08-.83,18.14-10.93,18.19-20.28ZM1355.11,1486.95c.4-6.2-3.07-9-8.09-7.33-4.43,1.48-8.16,4.12-11.24,7.64-3.14,3.59-4.64,7.78-4.7,12.57-.07,5.23,4,7.78,8.47,6.87,2.16-.44,4.5-1.44,6.11-2.9,5.21-4.77,8.18-10.88,9.46-16.84ZM35.75,1053.93c12.89,19.81,62.61,60.1,79.11,63.98-26.65-21.56-52.31-42.3-79.11-63.98ZM1633.92,667.5c-1.95-2.24-3.67-4.44-5.62-6.4-4.87-4.91-9.73-9.84-14.82-14.52-15.54-14.33-32.35-26.97-50.75-37.43-1.18-.67-2.5-2.26-4.27-.32,24.69,19.76,49.34,39.49,74,59.19.12.09.53-.18,1.45-.52ZM1421.03,1243.96c2.91-1.58,5.8-2.94,8.47-4.65,7.75-4.96,11.55-12.23,11.64-21.35.04-3.95-3.55-5.96-6.84-3.66-8.55,5.98-14.74,13.82-17.14,24.19-.72,3.11.91,4.97,3.87,5.47ZM277.87,1349.11c4.79-8.07,2.27-14.98.09-21.83-2.09-6.59-4.76-12.83-11.76-16.34-4.92,4.57-3.28,10.04-2.67,14.9,1.19,9.39,5.45,17.23,14.34,23.27ZM231.32,505.46c.09,1.97.09,2.63.16,3.28.26,2.62,2.34,4.15,4.85,3.45,1.23-.34,2.55-.79,3.52-1.58,5.44-4.4,10.03-9.62,13.09-15.9,1.39-2.85,1.91-6.24,2.29-9.45.27-2.28-3.07-3.92-5.1-2.72-1.94,1.16-3.68,2.72-5.73,3.63-8.99,3.98-11.55,11.92-13.08,19.28ZM1393.64,378.11c-2.58,11.38-.03,23.7,6.51,31.84,1.01,1.26,2.23,2.38,3.48,3.43,2.17,1.84,4.58,1.09,5.23-1.52,2.9-11.78-2.73-27.07-12.58-33.96-.39-.28-1.22.08-2.63.21ZM1175.09,199.38c-.09,1.02-.23,1.38-.14,1.67,2.64,8.35,12.6,15.95,20.69,15.27,2.45-.2,5.08-1.51,7.08-3.04,3.3-2.51,2.94-6.76-.4-9.16-6.35-4.57-13.65-6.38-21.28-6.71-2.04-.09-4.15,1.33-5.96,1.97ZM467.75,1519.56c6.46,6.4,14.97,8.41,23.92,8.88,1.97.1,4.02-1.42,6.15-2.23-.43-1.96-.44-3.37-1.03-4.46-4.12-7.61-11.16-10.93-19.23-12-2.29-.3-5.11,1.12-7.23,2.45-2.3,1.45-3.26,4.03-2.57,7.36ZM1180.35,239.65c-2.05,1.93-3.34,3.87-2.09,6.32,3.74,7.31,8.97,12.96,17.3,15.05,2.45.62,4.63.31,6.22-1.72,1.49-1.9,1.26-5.49-.8-7.22-6.24-5.24-12.26-10.97-20.63-12.44ZM493,1486.55c.68-2.38,2.15-4.62,1.55-5.92-3.58-7.77-9.02-13.75-17.79-15.76-2.4-.55-4.61-.17-6.08,2.1-1.5,2.32-1.31,5.12,1.12,7.12,6.09,4.99,11.99,10.4,21.2,12.46ZM290.94,213.1c-2.75,1.31-6.27.85-7.67,3.74-3.28,6.73-6.53,13.59-5.56,21.44.24,1.97.96,3.79,3.81,4.4,6.75-2.45,8.35-9.07,10.41-15.1,1.55-4.56,2.4-9.4-.98-14.47ZM1381.12,1512.8c8.25-2.8,8.28-2.78,10.46-8.63,1.03-2.75,2.37-5.51,2.7-8.36.4-3.48.05-7.07-.28-10.59-.14-1.49-2.72-2.44-3.98-1.62-1.35.88-2.86,1.76-3.76,3.03-4.45,6.26-7.19,13.17-6.85,20.98.07,1.51.96,2.99,1.71,5.19ZM557.26,1433.73c-1.02,8.79-.03,12.91,4.84,20.58,1.9,2.99,3.51,6.36,8.14,6.5,4.64-7.67,1.87-14.63-1.8-21.37-2.34-4.31-5.84-7-11.18-5.71ZM1103.23,264.32c-4.19,5.03-3.81,9.5-2.48,14.11,1.39,4.81,3.07,9.51,7.42,12.47,2.48,1.7,5.28,2.92,8.22-.04-.74-10.33-3.49-19.7-13.15-26.55ZM833.88,1691.04c-11.44,3.6-16.75,11.26-21.18,19.75-.7,1.35-.61,3.19-.65,4.81-.06,2.89,2.94,4.69,5.53,3.18,1.64-.95,3.14-2.32,4.35-3.79,5.38-6.56,10-13.55,11.94-23.94ZM839.93,34.47c10.09-3.24,15.04-10.59,19.45-18.31,1.04-1.82.88-4.43.91-6.69.03-1.93-2.49-3.39-4.37-2.72-.91.32-1.94.65-2.58,1.31-6.3,6.41-11.24,13.68-13.69,22.44-.24.85.11,1.87.28,3.97ZM790.79,1693.04c-10.46,2.18-17.95,6.26-24.11,12.83-.65.7-1.17,1.6-1.52,2.49-.72,1.87-1.3,4.06.71,5.28,1.19.72,3.22.95,4.51.46,9.32-3.55,15.72-10.14,20.4-21.06ZM882.67,31.65c1.15.34,1.82.8,2.34.66,6.73-1.74,12.76-4.95,18.01-9.43,1.9-1.62,3.28-3.96,4.53-6.18.79-1.41.88-3.34-.74-4.39-.98-.64-2.58-1.18-3.57-.83-9.94,3.5-17.04,9.92-20.57,20.16ZM1594.34,700.38c-2.38-5.6-6.13-9.35-9.85-13.01-1.83-1.8-4.24-3.11-6.6-4.21-.88-.41-2.51.17-3.46.81-.58.38-.89,1.83-.68,2.63,1.87,6.93,5.76,12.46,11.95,16.21,3.37,2.04,3.7,1.89,8.64-2.42ZM97.66,1042.65c.33-.53.79-1.03.98-1.62.19-.6.27-1.33.11-1.92-1.87-6.93-5.86-12.31-11.98-16.07-.82-.5-1.87-1.16-2.69-1.02-1.52.26-3.21.74-4.37,1.69-1.39,1.13-1.42,3.06-.25,4.42,3.6,4.2,7.18,8.43,11.13,12.28,1.76,1.73,4.12,3.41,7.08,2.23ZM222.61,1161.8c-5.35,12.29-5.96,32.92-1.63,52.01.52-16.74,1.07-34.13,1.63-52.01ZM1453.16,521.72c-2.84,13.08-3.36,31.95-1.4,38.3,3.34-13.17,2.65-25.76,1.4-38.3ZM1451.44,511.07c-.07-.22-.18-.56-.29-.89,0,.3-.04.61.01.9.05.34.18.67.28,1v-1.01ZM109.61,841.71c-.01.26-.03.52-.04.78.19-.23.38-.47.56-.7-.17-.03-.35-.06-.52-.09ZM804.76,1583.25l-.65-.4-.14.54.79-.14ZM868.06,142.87l.05-.5-.69.2.63.3Z"/>
  <path class="cls-1" d="M353.95,1546.87c18.19-.5,36.06,2.53,54,4.98,13.66,1.87,27.1,5.57,41.11,4.81,5.26-.29,8.36,1.67,7.89,3.91-.78,3.75-4.2,3.75-6.99,4.33-17.13,3.53-33.51,9.47-49.99,15.14-19.22,6.62-39.05,9.61-59.33,7.73-7.79-.72-15.5-2.83-23.13-4.78-4.8-1.22-9.14-3.74-12.78-7.24-8.24-7.93-4.08-15.86,2.43-19.7,6.28-3.7,13.17-5.92,20.3-7.4,3.22-.67,6.44-1.55,9.69-1.71,5.59-.28,11.2-.08,16.8-.08ZM412.63,1562.5c-5.78-.6-9.34-1.16-12.92-1.32-11.86-.52-23.74-.58-35.57-1.44-10.25-.74-20.41-.15-30.62.29-6.37.27-12.35,1.84-18.13,4.37-1.07.47-1.92,1.46-2.91,2.24,2.33,3.85,5.85,4.78,9.29,5.86,15.08,4.72,30.53,4.96,46,3.17,14.75-1.71,28.83-6.14,44.86-13.16Z"/>
  <path class="cls-1" d="M1317.95,179.11c-18.52.34-36.7-2.78-54.95-5.37-13.33-1.89-26.49-5.43-40.15-4.56-1.85.12-3.83-.63-5.62-1.32-1.98-.77-2.12-3.76-.27-4.79,1.4-.78,2.93-1.45,4.49-1.77,18.11-3.67,35.38-10.07,52.83-15.93,18.31-6.15,37.14-8.88,56.44-7.42,9.2.7,18.28,2.44,26.89,5.87,5.56,2.21,10.62,5.26,13.62,10.86,1.72,3.22,1.72,6.19-.17,9.34-1.94,3.23-4.58,5.46-7.96,7.11-9.59,4.68-19.78,7.1-30.33,7.92-4.91.38-9.88.07-14.82.07ZM1259.83,163.35c5.79.67,9.33,1.29,12.89,1.44,11.87.52,23.77.48,35.6,1.42,11.59.93,23.08.3,34.57-.74,6.17-.56,12.05-2.23,17.32-5.95-1.89-3.89-5.19-5.01-8.19-5.74-7.01-1.71-14.12-3.34-21.29-4.03-11.52-1.11-23.04-.48-34.47,1.79-11.87,2.35-23.15,6.3-36.43,11.8Z"/>
  <path class="cls-1" d="M85.4,969.59c-14.16-5.72-24.57-15.96-34.88-26.09-18.4-18.09-31.24-39.92-40.61-63.81-2.51-6.39-4.92-12.95-4.19-20.16.75-7.46,4.47-10.25,11.92-9.05,7.67,1.24,13.15,5.83,18.14,11.19,6.8,7.32,11.84,15.84,16.02,24.85,7.76,16.75,15.37,33.58,23.03,50.38,3.97,8.7,7.96,17.39,11.83,26.12.9,2.03,2.12,4.32-1.26,6.55ZM70.64,947.02c-.17-1.22-.06-2.23-.44-3-9.09-18.23-18.08-36.5-27.42-54.6-4.25-8.23-10.32-15.24-16.85-21.77-1.97-1.97-4.09-3.99-7.37-4.03,3.07,21.92,31.33,67.25,52.09,83.39Z"/>
  <path class="cls-1" d="M1586.58,756.67c6.58,1.44,11.9,5.3,17.08,9.31,27.59,21.35,46.92,48.79,59.36,81.2,2.35,6.13,4.42,12.41,3.7,19.25-.8,7.65-4.39,10.33-11.85,9.02-7.25-1.28-12.62-5.44-17.46-10.51-6.92-7.23-12.06-15.72-16.28-24.68-7.71-16.4-15.06-32.98-22.56-49.48-4.23-9.3-8.46-18.61-12.68-27.92-.97-2.14-1.83-4.31.7-6.18ZM1601.8,779.24c9.46,21.61,19.2,42.83,31.44,62.73,3.59,5.83,8.58,10.82,13.12,16.03,1.87,2.15,4.09,4.17,7.34,4.2-1.18-18.14-28.39-64.08-51.91-82.96Z"/>
  <path class="cls-1" d="M60.15,1296.69c11.35.26,20.5,5.29,28.57,12.38,5.25,4.61,9.02,10.53,11.62,17,1.21,3,1.96,6.33,2.19,9.56.57,8.03-3.74,14.04-11.37,16.44-5.87,1.85-11.84,1.58-17.52-.37-13.05-4.47-23.72-12.15-32.55-23.04-12.22-15.06,1.63-31.01,14.33-31.77,1.64-.1,3.29-.15,4.73-.21ZM82.24,1342.1c1.19-.12,1.85-.14,2.49-.25,5.14-.89,6.84-3.62,4.87-8.38-4.85-11.75-13.59-19.09-25.85-22.23-3.55-.91-7.17-.92-10.63.65-2.5,1.13-4.48,3.7-4.09,6.15.67,4.22,1.6,8.46,5.37,11.21,6.12,4.46,12.44,8.6,19.73,10.9,2.8.89,5.72,1.39,8.1,1.95Z"/>
  <path class="cls-1" d="M1609.31,429.08c-9.56-.52-19.57-5.94-27.69-14.57-5.66-6.01-10.01-13.05-11.3-21.55-1.61-10.65,3.64-18,14.25-19.77,4.96-.83,9.92-.54,14.63,1.11,12.67,4.46,23.69,11.39,31.65,22.5,1.52,2.12,2.8,4.44,3.98,6.78,2.39,4.75,1.85,8.87-.84,13.85-4.98,9.2-12.53,11.91-24.67,11.66ZM1582.23,386.96c.21,1.79.06,3.51.63,4.95,4.93,12.61,14.18,20.29,27.38,22.92,2.77.55,5.89-.02,8.73-.63,2.83-.62,5.35-4.16,4.7-6.67-.97-3.73-1.4-7.85-4.94-10.44-7.73-5.66-15.73-10.66-25.34-12.65-3.8-.79-7.11-.52-11.15,2.52Z"/>
  <path class="cls-1" d="M126.41,572.73c-.42.63-.9,2.02-1.43,2.04-1.12.04-2.85-.3-3.3-1.07-1.12-1.96-1.83-4.21-2.41-6.42-.92-3.5-1.68-7.05-2.35-10.61-1.36-7.15-2.78-14.25-9.13-18.98-11.99-17.18-19.53-35.85-18.51-57.19.19-3.88.92-7.93,2.35-11.53,3.19-8.04,11.14-8.96,16.04-1.89,2.21,3.19,3.87,6.92,5.07,10.63,3.36,10.39,4.93,21.18,5.82,32.03,1.64,20.05,3.19,40.09,7.42,59.81.21.96.26,1.95.43,3.19ZM100.42,474.49c-3.69,15.62,2.42,41.83,11.6,51.4.08-12.58-2.96-32.34-6.66-43.52-.91-2.75-1.37-5.75-4.95-7.88Z"/>
  <path class="cls-1" d="M1583.28,1241.28c.04,6.33-.06,12.61-3.69,18.15-3.07,4.67-8.65,5.42-12.74,1.68-1.2-1.09-2.37-2.39-3.06-3.83-1.68-3.55-3.35-7.16-4.54-10.9-3.3-10.42-4.73-21.27-5.47-32.08-1.32-19.43-3.55-38.71-7.03-57.87-.65-3.57.07-5.86,1.63-5.74,2.99.23,3.51,2.81,4.07,4.9,1.67,6.37,3.39,12.75,4.45,19.24.67,4.11,2.33,7.21,4.98,10.38,13.55,16.19,20.99,34.82,21.39,56.06ZM1571.99,1252.28c3.2-14.82.92-28.3-7.6-47.69q-1.2-2.74-4.36-4.56c4.98,40.45,5.43,42.53,11.96,52.25Z"/>
  <path class="cls-1" d="M43.13,747.28c-.18,5.98-1.09,10.81-3.74,15.15-3.53,5.77-9.3,7.69-15.29,4.63-2.85-1.46-5.55-3.65-7.65-6.07-7.51-8.65-12-18.9-14.35-30.02-1.08-5.13-1.59-10.4-2.05-15.64-.27-3.1.75-5.88,3.9-7.36.29-.14.59-.32.82-.55,3.08-3.02,6.04-6.28,11.02-5.37,5.38.98,9.82,3.49,13.4,7.72,6.58,7.8,9.72,17.14,12.2,26.75.98,3.81,1.29,7.79,1.75,10.77ZM12.63,713.96c-.73,4.6-3.71,8.13-2.56,12.5,2.71,10.27,7.23,19.69,14.22,27.78,1.18,1.37,3.01,2.17,4.6,3.28,3.94-7.56,3.36-13.4-2.8-28.43-2.59-6.31-5.34-12.58-13.46-15.13Z"/>
  <path class="cls-1" d="M1672.76,1010.41c1.46,5.63-5.02,8.41-9.28,11.92-3.89,3.2-8.65,1.56-13.05-.6-6.35-3.11-9.96-8.7-12.91-14.52-4.18-8.24-6.96-17.08-7.67-26.4-.45-6,.02-11.88,3.23-17.2,3.48-5.77,9.22-7.8,15.2-4.83,2.87,1.43,5.51,3.63,7.71,6,5.23,5.62,8.72,12.38,11.37,19.54,2.88,7.76,4.63,15.79,5.41,26.1ZM1642.67,967.05c-.79,4.42-1.92,7.03-1.58,9.43,1.66,11.78,4.34,23.26,12.84,32.34,1.49,1.6,3.17,3.45,6.35,1.95.34-4.16,3.51-7.92,1.89-12.88-2.98-9.13-6.84-17.75-13.04-25.16-1.4-1.68-3.3-2.94-6.47-5.68Z"/>
  <path class="cls-1" d="M1056.04,1642.43c.72-10.84,6.78-20.08,17.54-26.16,4.57-2.59,9.55-4.26,14.9-4.85,9.7-1.06,16.99,5.13,16.44,14.75-.84,14.66-13.95,33.18-34.03,33.87-8.96.31-14.67-5.96-14.86-17.61ZM1072.67,1650.42c2-.7,3.73-.95,5.04-1.83,4.09-2.78,8.11-5.68,11.98-8.77,4.2-3.35,5.09-8.34,5.61-13.27.35-3.32-2.62-5.73-5.89-4.6-4,1.39-7.95,3.17-11.59,5.33-5.07,3.02-7.79,8.05-9.2,13.6-.52,2.05-.03,4.57.7,6.62.44,1.24,2.24,1.99,3.36,2.91Z"/>
  <path class="cls-1" d="M567.86,97.9c.51-1.84,1.06-5.85,2.7-9.33,5.79-12.29,14.69-20.88,28.9-22.44,10.23-1.12,16.48,4.12,16.79,14.46.41,13.61-6.35,23.17-18.01,29.3-3.98,2.1-8.55,3.36-13,4.24-10.59,2.1-17.43-3.66-17.39-16.24ZM604.28,82.37c-.06-.65-.09-1.31-.18-1.96-.48-3.46-3.05-5.26-6.31-4.31-1.24.36-2.52.84-3.57,1.57-3.51,2.46-6.89,5.09-10.36,7.58-4.75,3.41-5.92,8.55-6.59,13.82-.42,3.3,2.37,5.66,5.67,4.92,6.6-1.48,12.46-4.55,16.65-9.89,2.61-3.33,4.74-7.18,4.69-11.73Z"/>
  <path class="cls-1" d="M229.22,1506.92c-1.84-.51-6.16-1.15-9.96-2.92-6.53-3.04-12.79-6.68-19.04-10.29-2.8-1.62-3.82-4.46-3.47-7.67,1.17-10.44,14.37-19.86,24.64-17.9,10.04,1.92,17.55,7.16,22.56,16.04.16.29.4.53.56.82,6.05,11.25-.14,21.78-15.3,21.92ZM208.91,1486.86c6.72,5.89,13.84,8.64,21.63,9.68,1.29.17,2.79-1.19,4.38-1.93-1.61-4.96-4.61-8.22-8.63-10.57-6.88-4.03-9.44-3.68-17.38,2.81Z"/>
  <path class="cls-1" d="M1440.46,218.88c9.07.36,15.33,4.12,21.7,7.55,2.87,1.54,5.71,3.15,8.58,4.72,4.46,2.45,6.02,5.95,4.76,10.72-2.82,10.66-15.41,17.79-26.28,15.38-9.37-2.08-15.88-7.52-20.69-15.52-3.14-5.22-3.88-10.9-1.01-16.01,2.94-5.23,8.41-7.11,12.94-6.84ZM1437.44,230.92c2.31,5.75,5.31,9.03,9.41,11.3,6.72,3.72,9.62,3.17,16.06-2.91-4.63-4.89-12.24-8.95-19.36-9.85-1.67-.21-3.5.8-6.11,1.46Z"/>
  <path class="cls-1" d="M615.85,1679.28c-1.98,0-3.96-.03-5.93,0-3.45.05-5.48-1.86-6.74-4.82-2.13-4.99-1.13-9.8,2.69-13.55,3.45-3.39,7.78-4.78,12.33-5.82,5.52-1.27,11.05-2.15,16.56-.23,2.14.74,4.37,1.69,6.09,3.11,5.33,4.41,5.06,11-.52,15.11-5.49,4.04-12.03,5.13-18.55,6.09-1.94.29-3.95.04-5.93.04v.06ZM636.03,1666.18c-8.83-1.57-15.21-1.11-21.28,1.84-1.79.87-3.25,2.26-2.03,5,7.82,1.02,14.98-.64,23.31-6.85Z"/>
  <path class="cls-1" d="M1057.54,46.53c.99,0,1.98.05,2.96,0,3.93-.25,7.33.66,8.79,4.74,1.5,4.18,1.9,8.49-1.3,12.11-1.71,1.93-3.78,3.79-6.07,4.89-6.65,3.19-13.81,4.59-21.12,3.48-3.12-.48-6.45-1.84-8.93-3.76-5.17-4.02-5.48-10.87.28-15.06,5.81-4.23,12.6-5.37,19.46-6.27,1.94-.26,3.95-.04,5.92-.04v-.06ZM1038.88,59.38c7.98,1.81,13.11,1.61,18.68-1.38,1.46-.78,2.3-2.72,3.65-4.41-10.32-1.94-17.92.15-22.33,5.79Z"/>
  <path class="cls-1" d="M1275.8,1600.78c.3-.95.47-3.06,1.51-4.59,3.98-5.85,9.24-10.18,16.27-11.87,1.86-.45,3.92-.47,5.83-.25,5.14.58,8.25,4.27,7.89,9.41-.14,1.91-.69,3.87-1.49,5.62-1.62,3.56-3.31,7.13-5.38,10.45-3.45,5.53-8.27,7.08-14.38,5.07-6.31-2.08-10.33-7.12-10.26-13.84ZM1291.26,1599.51c-.35.67-.81,1.5-1.21,2.36-.13.28-.19.89-.13.91.5.18,1.34.52,1.52.31.62-.7,1.02-1.58,1.45-2.43.02-.04-.47-.34-1.62-1.16Z"/>
  <path class="cls-1" d="M374.87,142.08c-6.93-.18-11.32-5.22-9.18-11.77,1.8-5.5,4.37-11.05,7.87-15.61,4.69-6.11,11.31-5.83,18.2-.48,5.93,4.62,6.61,11.64,2.21,17.3-4.9,6.3-12.89,10.72-19.1,10.56ZM382.38,123.36c-.49-.18-.98-.36-1.46-.54-.21.57-.42,1.14-.63,1.71.5.18.99.35,1.49.53.2-.56.4-1.13.6-1.7Z"/>
  <path class="cls-1" d="M431.91,279.45c-.58-4.58,1.16-7.47,4.4-8.7,5.51-2.08,10.35-5.79,16.45-6.44,2.93-.31,5.82-1.13,8.67-1.95,16.77-4.86,33.91-4.61,51.09-3.69,7.68.41,14.92,2.7,21.56,6.53,2.52,1.46,4.99,3.35,6.85,5.57,5.36,6.4,2.72,14.93-5.34,17.2-5.42,1.52-11.02,1.97-16.69,1.28-9.82-1.2-19.67-2.14-29.47-3.43-17.97-2.37-35.86-5.4-54.06-5.57-.96,0-1.91-.43-3.45-.79ZM455.89,274c21.28,3.44,41.24,4.37,61.09,6.21,3.01.28,6.25.7,10.79-1.51-3.16-.44-4.71-.77-6.27-.86-16.77-.97-33.38-3.3-49.89-6.24-5.15-.92-9.61-.28-15.73,2.41ZM520.72,272.37c-12.92-4.58-19.03-4.9-27.23-2.38,7.09.87,13.25,1.71,19.44,2.33,2.57.26,5.19.04,7.79.04Z"/>
  <path class="cls-1" d="M1171.9,1467.68c-4.28-.24-12.92.47-21.18-2.2-4.65-1.5-9.09-3.64-13.6-5.56-.89-.38-1.68-1.04-2.44-1.66-4.04-3.33-6.84-7.36-5.38-12.83,1.47-5.48,5.84-7.43,11.09-8.27,9.59-1.54,19.03.09,28.48,1.18,13.69,1.58,27.35,3.47,41.02,5.22,9.12,1.17,18.25,2.21,27.49,2.05,3.32-.06,4.67,2.6,2.87,5.39-1.03,1.59-2.33,3.51-3.95,4.13-5.47,2.1-10.34,5.72-16.4,6.4-2.91.33-5.8,1.13-8.63,1.97-11.47,3.42-23.25,4.18-39.37,4.18ZM1145.63,1446.54c3.36.82,5.09,1.51,6.87,1.63,17.06,1.12,33.96,3.45,50.74,6.64,4.33.82,8.02-.72,12.51-2.72-17.67-3.44-59.42-6.9-70.12-5.55ZM1177.82,1456.52c-8.81-1.66-17.38-4.15-27.48-2.55,9.69,4.18,18.64,3.82,27.48,2.55Z"/>
  <path class="cls-1" d="M372.67,463.36c-5.15-.95-10.45-1.42-15.42-2.94-14.22-4.36-16.96-18.9-5.39-29.39,6.59-5.98,14.89-8.37,23.45-9.68,9.52-1.47,19.1-.79,28.65-.17,5.64.36,9.8,3.73,13.65,7.32,2.99,2.78,3.29,7.9,1.08,11.99-3.9,7.2-9.65,12.64-17.14,15.83-9.14,3.9-18.66,6.57-28.88,7.05ZM409.9,434.44c-2.31-3.36-5.2-3.92-8.22-3.92-4.95,0-9.89.21-14.84.27-6.7.07-13.02,1.95-19.17,4.28-5,1.89-9.39,4.77-10.83,10.26,1.57,3.82,4.56,4.96,7.92,5.61,11.72,2.26,22.98.15,33.77-4.26,5.22-2.14,9.34-6.09,11.37-12.24Z"/>
  <path class="cls-1" d="M1279.64,1305.43c-1.83-.13-5.45-.63-9.07-.59-5.71.07-10.12-2.64-14.19-6.11-4.4-3.74-5.22-8.16-2.5-13.24,3.87-7.23,9.62-12.67,17.08-15.9,10.7-4.63,21.93-7.32,33.69-6.27,4.21.38,8.54,1.25,12.46,2.8,12.46,4.92,12.94,17.19,6.9,25.13-3.72,4.88-8.74,7.89-14.36,10.09-9.1,3.56-18.62,4.14-30.02,4.1ZM1262.44,1291.66c5.37,3.59,5.37,3.76,9.38,3.75,5.93-.02,11.92.15,17.78-.61,6.82-.89,13.66-2.31,19.6-6.18,3.05-1.98,6.66-4.25,6.06-8.29-.62-4.19-4.76-4.94-8.4-5.52-11.37-1.82-22.34-.02-32.8,4.38-5.23,2.2-9.18,6.27-11.62,12.47Z"/>
  <path class="cls-1" d="M719.02,183.21c13.12.58,24.59,5.13,34.88,12.72,6.08,4.48,7.65,11.45,8.47,18.29.57,4.73-3.06,7.82-7.04,9.87-4.82,2.48-10.08,3.39-15.39,2.59-12.59-1.89-24.27-6.02-33.69-15.06-1.42-1.36-2.83-2.82-3.88-4.47-6.38-9.9-1.59-21.21,9.96-23.5,2.24-.45,4.59-.32,6.7-.45ZM750.97,213.87c-.13-5.6-2.43-9.75-7.73-12.34-7.42-3.63-15.1-6.27-23.36-6.93-2.25-.18-4.57.01-6.8.36-2.51.39-3.65,3.02-2.48,5.26,2.2,4.22,5.8,7.02,9.78,9.37,5.4,3.18,11.35,4.83,17.37,6.41,4.75,1.25,9,.96,13.22-2.13Z"/>
  <path class="cls-1" d="M953.65,1542.45c-13.01-.03-24.37-4.83-34.76-12.26-6.17-4.41-7.73-11.42-8.76-18.17-.7-4.55,2.75-7.93,6.79-10.03,5.11-2.66,10.68-3.7,16.31-2.78,11.85,1.95,22.95,5.9,32.08,14.11,1.94,1.74,3.82,3.73,5.14,5.94,6.25,10.43.33,21.88-11.86,23.16-1.63.17-3.29.02-4.94.02ZM921.32,1512.12c.79,6.91,4.11,10.66,9.78,13.16,6.99,3.09,14.12,5.28,21.68,6.14,1.61.18,3.27.17,4.88-.03,4.98-.61,6.29-3.56,3.36-7.38-3.06-3.98-6.83-7.21-11.46-9.07-4.84-1.94-9.93-3.24-14.86-4.97-4.73-1.66-9-.84-13.37,2.15Z"/>
  <path class="cls-1" d="M1394.84,552.52c-.46,2.92-1.16,5.83-1.35,8.77-.47,7.09-4.62,11.38-10.46,14.53-6.16,3.32-12.43,2.06-16.68-3.54-3.07-4.04-4.68-8.77-5.02-13.76-.56-8.04,1.03-15.81,4.36-23.12,1.07-2.34,2.93-4.37,4.62-6.38,6.02-7.17,13.48-4.37,17.63,1.06,4.1,5.37,5.81,11.78,6.5,18.44.13,1.31.02,2.64.02,3.96.12.02.25.03.37.05ZM1378.53,538.54c-5.77,8.2-6.88,15.91-4.48,24.19.57,1.97,1.98,3.52,4.3,3.24,2.03-.25,3.95-1.24,4.28-3.44,1.15-7.79,1.43-15.51-4.09-23.99Z"/>
  <path class="cls-1" d="M311.68,1172.05c-1.16,5.11-1.92,10.35-3.61,15.28-1.15,3.33-3.32,6.43-5.53,9.24-6.33,8.04-14.47,4.35-18.25-1.14-5.05-7.35-6.58-15.74-6.11-24.52.11-1.97.79-3.91.85-5.87.2-6.67,3.9-10.96,9.26-14.25,7.57-4.64,14.81-2.8,19.28,4.93,2.74,4.74,3.7,9.22,4.11,16.34ZM294.23,1187.55c5.38-8.41,6.54-16.14,4.29-24.38-.53-1.94-1.95-3.5-4.26-3.26-2.05.21-3.99,1.27-4.37,3.34-1.49,8.14-1.41,16.1,4.34,24.3Z"/>
  <path class="cls-1" d="M471.14,1385.71c0,1.53.04,2.19,0,2.85-.3,4.56-1.98,8.53-6.3,10.42-4.58,2.01-9.05,1.18-12.76-2.38-1.42-1.36-2.87-2.78-3.94-4.41-5.25-8.04-9.56-16.5-11.24-26.09-.17-.97-.51-1.93-.55-2.91-.51-10.22,9.17-16.65,18.13-11.72,3.04,1.67,5.74,4.45,7.81,7.28,6.02,8.22,8.09,17.85,8.85,26.96ZM459.14,1389.37c1.28-9.04-2.91-21.8-8.68-26.76-.24-.21-.56-.47-.84-.46-1.23.04-2.59-.11-3.64.37-.68.31-1.05,1.57-1.28,2.48-.14.56.19,1.27.39,1.88,2.59,7.78,6.27,14.99,11.54,21.31.52.62,1.61.77,2.5,1.17Z"/>
  <path class="cls-1" d="M1213.7,325.94c.94.4,3.55,1.04,5.59,2.48,2.1,1.48,3.96,3.54,5.39,5.69,4.95,7.44,8.72,15.47,10.81,24.2.77,3.22,1.01,6.43-.21,9.7-2.41,6.48-8.44,9.61-14.99,7.48-3.89-1.27-6.85-3.75-9.25-7.05-6.64-9.14-9.37-19.55-9.54-30.62-.11-7.21,4.23-11.71,12.19-11.89ZM1212.75,335.53c-1.1,10.93,2.95,19.05,8.25,26.7,1.12,1.61,2.98,2.7,5.14,1.63,2.27-1.13,2.14-3.11,1.4-5.07-2.78-7.43-6.26-14.48-11.23-20.72-.56-.71-1.51-1.1-3.56-2.54Z"/>
  <path class="cls-1" d="M1456.98,1057.8c-1.95-.31-3.61-.45-5.2-.84-9.5-2.31-13.65-12.38-7.62-19.98,5.8-7.31,13.28-12.84,22.58-15.18,2.18-.55,4.64-.52,6.88-.15,8.2,1.35,12.15,11.24,9.05,16.66-2.31,4.05-4.47,8.21-8.48,10.76-4.43,2.82-9.07,5.32-13.69,7.82-1.11.6-2.52.66-3.52.91ZM1472.17,1031.56c-9.12,1.25-15.03,5.75-19.88,12.29.8,1.08,1.2,2.19,1.95,2.5,1.12.47,2.62.82,3.72.48,6.15-1.92,11.16-5.43,14.16-11.3.38-.75.05-1.85.05-3.97Z"/>
  <path class="cls-1" d="M200.62,704.54c-7.58.61-14.88-9.54-10.17-18.08,2.44-4.43,5.49-8.29,9.74-10.98,3.61-2.29,7.33-4.51,11.26-6.14,5.67-2.35,11.04-1.08,15.6,2.97,4.72,4.19,6.04,10.06,2.31,15.13-6.17,8.37-14.17,14.62-24.7,16.86-.96.2-1.97.13-4.04.25ZM200.21,694.45c8.43-1.05,13.81-5.2,18.6-10.26.68-.72.9-2.6.45-3.5-.47-.92-2.01-1.31-3.11-1.87-.26-.13-.67-.06-.97.04-6.47,2.07-11.9,5.51-14.91,11.89-.35.74-.05,1.79-.05,3.71Z"/>
  <path class="cls-1" d="M235.96,862.87c-.42,8.09-4.9,15.73-12.69,21.59-2.5,1.88-5.34,2.42-8.36,2.35-6.97-.16-11.64-4.52-10.58-11.26,1.44-9.13,4.35-17.79,12.28-23.86,4.28-3.27,8.58-5.01,13.59-2.3,4.58,2.47,5.76,6.87,5.77,13.49ZM214.43,878.19c7.02-1.19,9.76-6.43,12.19-11.78,1.36-2.98,1.99-6.21-1.11-9.15-4.09,1.05-7.58,2.9-9.03,6.8-1.63,4.35-4.49,8.72-2.05,14.13Z"/>
  <path class="cls-1" d="M1455.73,839.02c8.79.09,13.15,4.08,12.35,11.11-1.23,10.8-5.42,20.3-15.23,26.25-5.55,3.36-12.29,1.28-14.79-4.75-1.09-2.63-1.73-5.77-1.45-8.57.9-8.94,5.19-16.24,12.52-21.42,2.28-1.62,5.34-2.14,6.6-2.62ZM1446.79,868.74c10.59-2.86,11.05-11.42,12.88-19.25-4.82-1.71-6.38-1.14-9.93,3.42-2.67,3.43-4.8,7.16-4.75,11.62.02,1.4,1.16,2.79,1.8,4.22Z"/>
</svg>