<?xml version="1.0" encoding="UTF-8"?>
<svg xmlns="http://www.w3.org/2000/svg" xmlns:xlink="http://www.w3.org/1999/xlink" id="svg" version="1.1" width="400" height="398.4496124031008" viewBox="0, 0, 400,398.4496124031008">
  <g id="svgg">
    <path id="path0" d="M243.669 0.860 C 242.682 1.091,241.785 1.405,241.675 1.557 C 241.565 1.709,240.354 2.167,238.983 2.575 C 237.612 2.983,236.491 3.448,236.491 3.608 C 236.491 3.768,235.868 4.016,235.108 4.159 C 234.347 4.301,233.488 4.655,233.199 4.944 C 232.909 5.233,232.006 5.711,231.192 6.006 C 230.377 6.300,229.711 6.686,229.711 6.863 C 229.711 7.040,228.993 7.472,228.116 7.823 C 227.238 8.174,226.520 8.604,226.520 8.778 C 226.520 8.952,225.982 9.282,225.324 9.512 C 224.666 9.741,224.128 10.117,224.128 10.348 C 224.128 10.579,223.929 10.768,223.687 10.768 C 223.444 10.768,222.566 11.306,221.735 11.964 C 220.904 12.622,220.089 13.161,219.925 13.161 C 219.593 13.161,219.460 13.280,214.372 18.150 C 211.168 21.216,210.767 21.486,210.497 20.755 C 210.331 20.307,210.039 19.940,209.847 19.940 C 209.656 19.940,209.256 19.203,208.959 18.303 C 208.662 17.402,208.201 16.581,207.934 16.479 C 207.668 16.377,207.344 15.870,207.214 15.353 C 207.084 14.836,206.754 14.176,206.479 13.886 C 206.205 13.597,205.292 12.231,204.451 10.851 C 201.310 5.698,199.117 4.851,194.867 7.151 C 192.118 8.638,190.151 9.979,189.711 10.668 C 189.536 10.942,189.133 11.167,188.817 11.167 C 188.501 11.167,188.018 11.525,187.744 11.964 C 187.470 12.403,187.057 12.762,186.827 12.762 C 186.596 12.762,185.783 13.435,185.019 14.257 C 184.254 15.080,182.948 16.265,182.115 16.892 C 181.282 17.518,180.506 18.278,180.390 18.580 C 180.274 18.883,179.116 20.254,177.818 21.629 C 174.991 24.620,174.277 25.450,174.277 25.746 C 174.277 25.869,173.719 26.663,173.037 27.512 C 171.892 28.937,170.688 29.292,170.688 28.204 C 170.688 27.971,169.880 27.006,168.893 26.060 C 167.906 25.114,167.099 24.187,167.099 24.000 C 167.099 23.812,166.336 22.937,165.404 22.055 C 164.472 21.172,162.970 19.662,162.068 18.700 C 161.165 17.737,159.999 16.562,159.476 16.088 C 158.952 15.614,156.909 13.596,154.935 11.602 C 152.961 9.608,151.208 7.977,151.040 7.977 C 150.872 7.976,149.961 7.168,149.015 6.181 C 148.069 5.194,147.079 4.387,146.816 4.387 C 146.552 4.387,146.233 4.118,146.106 3.789 C 145.940 3.354,145.260 3.191,143.626 3.193 C 140.948 3.195,138.246 5.449,134.308 10.963 C 134.150 11.185,133.587 11.864,133.056 12.474 C 132.526 13.083,131.871 14.115,131.601 14.767 C 131.331 15.419,130.969 15.952,130.798 15.952 C 130.627 15.952,130.299 16.491,130.070 17.149 C 129.840 17.807,129.493 18.345,129.297 18.345 C 129.101 18.345,128.704 19.063,128.415 19.940 C 128.125 20.818,127.752 21.535,127.585 21.535 C 127.419 21.535,126.984 22.433,126.620 23.529 C 126.256 24.626,125.813 25.523,125.635 25.523 C 125.458 25.523,125.074 26.331,124.782 27.318 C 124.491 28.305,124.125 29.113,123.969 29.113 C 123.814 29.113,123.465 30.100,123.195 31.306 C 122.925 32.512,122.588 33.500,122.445 33.500 C 122.178 33.500,121.461 36.130,121.006 38.784 C 120.785 40.067,120.040 40.951,120.040 39.929 C 120.040 39.736,119.501 39.355,118.843 39.083 C 118.185 38.810,117.647 38.429,117.647 38.237 C 117.647 38.044,117.403 37.886,117.105 37.886 C 116.806 37.886,115.954 37.476,115.210 36.975 C 114.467 36.473,113.230 35.810,112.463 35.502 C 111.695 35.193,110.977 34.830,110.867 34.696 C 110.758 34.561,110.040 34.200,109.272 33.893 C 108.504 33.585,107.639 33.102,107.349 32.818 C 106.810 32.291,103.079 32.103,101.926 32.545 C 101.124 32.853,99.142 35.774,98.464 37.648 C 98.179 38.437,97.822 39.083,97.671 39.083 C 97.520 39.083,97.158 39.890,96.866 40.877 C 96.575 41.864,96.223 42.672,96.084 42.672 C 95.945 42.672,95.515 43.841,95.128 45.269 C 94.742 46.697,94.283 47.954,94.108 48.062 C 93.934 48.170,93.563 49.558,93.284 51.148 C 93.005 52.737,92.635 54.135,92.461 54.254 C 92.287 54.373,91.921 56.572,91.649 59.140 C 91.376 61.708,91.012 63.809,90.841 63.809 C 90.669 63.809,90.526 64.482,90.522 65.304 C 90.519 66.127,90.384 66.597,90.223 66.349 C 90.062 66.101,88.898 65.669,87.637 65.388 C 86.376 65.108,85.344 64.757,85.344 64.609 C 85.344 64.462,83.953 64.001,82.253 63.586 C 80.553 63.171,79.073 62.714,78.963 62.569 C 78.853 62.425,77.687 62.087,76.371 61.818 C 75.055 61.549,73.799 61.192,73.579 61.024 C 73.360 60.857,71.386 60.392,69.192 59.991 C 66.999 59.590,65.115 59.139,65.005 58.988 C 64.895 58.837,63.146 58.480,61.117 58.194 C 59.088 57.908,57.428 57.529,57.428 57.351 C 57.428 57.174,56.530 57.029,55.434 57.029 C 54.337 57.029,53.440 57.196,53.440 57.401 C 53.440 57.605,53.079 57.887,52.638 58.027 C 51.423 58.413,50.301 61.173,49.811 64.978 C 49.569 66.857,49.189 68.739,48.967 69.161 C 48.380 70.271,48.412 88.254,49.001 88.451 C 49.249 88.533,49.452 89.225,49.452 89.987 C 49.452 91.973,50.282 97.072,50.644 97.308 C 50.813 97.418,51.077 98.440,51.232 99.579 L 51.514 101.651 42.738 101.773 C 33.450 101.901,31.904 102.270,31.904 104.357 C 31.904 104.647,31.725 104.885,31.505 104.885 C 31.268 104.885,31.107 106.414,31.107 108.674 C 31.107 110.934,31.268 112.463,31.505 112.463 C 31.725 112.463,31.904 113.225,31.904 114.158 C 31.903 116.370,32.759 122.575,33.100 122.832 C 33.246 122.941,33.599 124.197,33.885 125.623 C 34.171 127.049,34.635 128.754,34.915 129.412 C 35.195 130.070,35.647 131.326,35.918 132.203 C 36.190 133.081,36.633 134.158,36.902 134.596 C 37.172 135.035,37.513 135.909,37.659 136.539 C 37.806 137.168,38.186 137.944,38.504 138.262 C 39.496 139.254,39.217 139.369,34.007 140.106 C 31.216 140.501,28.838 140.973,28.723 141.155 C 28.608 141.337,27.174 141.694,25.536 141.947 C 23.898 142.200,22.463 142.553,22.346 142.731 C 22.229 142.908,20.922 143.280,19.442 143.556 C 17.961 143.832,16.750 144.177,16.750 144.322 C 16.750 144.467,15.224 144.920,13.360 145.329 C 11.496 145.738,9.970 146.198,9.970 146.352 C 9.970 146.506,8.983 146.869,7.777 147.159 C 6.570 147.448,5.583 147.816,5.583 147.975 C 5.583 148.135,4.942 148.386,4.159 148.533 C 3.053 148.741,2.642 149.063,2.325 149.974 C 2.100 150.619,1.754 151.147,1.556 151.147 C 1.358 151.147,1.196 151.864,1.196 152.742 C 1.196 153.619,1.333 154.337,1.499 154.337 C 1.666 154.337,2.125 155.773,2.519 157.527 C 2.913 159.282,3.366 160.718,3.525 160.718 C 3.684 160.718,4.052 161.525,4.344 162.512 C 4.635 163.500,4.994 164.307,5.141 164.307 C 5.289 164.307,5.648 165.115,5.939 166.102 C 6.230 167.089,6.611 167.896,6.784 167.896 C 6.958 167.896,7.431 168.703,7.837 169.689 C 8.242 170.676,8.687 171.483,8.825 171.484 C 8.963 171.485,9.299 172.024,9.571 172.682 C 9.844 173.340,10.181 173.878,10.320 173.878 C 10.459 173.878,10.824 174.462,11.131 175.174 C 11.677 176.442,11.903 176.761,13.511 178.534 C 13.943 179.011,14.518 179.819,14.789 180.329 C 15.060 180.839,15.612 181.491,16.015 181.777 C 16.419 182.064,16.750 182.479,16.750 182.699 C 16.750 182.920,18.015 184.356,19.562 185.891 L 22.375 188.681 20.999 189.615 C 20.243 190.128,19.246 190.668,18.785 190.814 C 18.324 190.961,17.946 191.229,17.946 191.409 C 17.946 191.590,17.228 192.025,16.351 192.376 C 15.474 192.727,14.756 193.195,14.756 193.417 C 14.756 193.638,14.519 193.819,14.229 193.819 C 13.939 193.819,12.996 194.352,12.135 195.004 C 11.273 195.656,10.445 196.194,10.294 196.200 C 9.737 196.223,7.718 198.440,7.242 199.551 C 6.669 200.890,7.430 204.166,8.699 205.820 C 9.104 206.348,9.550 207.094,9.690 207.478 C 9.830 207.861,10.130 208.175,10.356 208.175 C 10.583 208.175,10.768 208.381,10.768 208.633 C 10.768 208.884,11.438 209.916,12.257 210.926 C 13.077 211.936,13.929 213.001,14.152 213.294 C 15.185 214.652,23.958 223.330,24.297 223.330 C 24.508 223.330,24.915 223.656,25.202 224.055 C 25.488 224.453,26.306 225.120,27.019 225.537 C 27.732 225.953,28.315 226.406,28.315 226.542 C 28.315 226.679,28.764 226.996,29.312 227.245 C 30.356 227.721,30.667 228.514,29.809 228.514 C 29.534 228.514,28.793 229.062,28.162 229.730 C 27.531 230.399,26.413 231.405,25.679 231.965 C 23.875 233.340,10.401 246.796,8.499 249.122 C 7.663 250.143,6.396 251.581,5.683 252.317 C 4.505 253.531,4.387 253.878,4.387 256.113 L 4.387 258.572 7.148 261.190 C 8.667 262.630,10.394 264.167,10.984 264.606 C 11.575 265.045,12.369 265.691,12.749 266.042 C 13.129 266.393,14.005 266.930,14.696 267.236 C 15.387 267.542,15.952 267.930,15.952 268.100 C 15.952 268.269,16.580 268.707,17.348 269.073 C 18.116 269.439,18.744 269.852,18.744 269.989 C 18.744 270.127,19.372 270.486,20.140 270.788 C 20.907 271.089,21.535 271.467,21.535 271.628 C 21.535 271.788,22.433 272.218,23.529 272.582 C 24.626 272.947,25.523 273.390,25.523 273.567 C 25.523 273.745,26.331 274.128,27.318 274.420 C 28.305 274.711,29.113 275.076,29.113 275.230 C 29.113 275.384,29.689 275.636,30.393 275.791 C 31.097 275.946,32.308 276.396,33.085 276.793 C 33.861 277.189,35.618 277.728,36.989 277.991 C 38.360 278.254,39.482 278.625,39.482 278.816 C 39.482 279.006,39.862 279.163,40.328 279.163 C 41.069 279.163,41.106 279.244,40.627 279.814 C 40.071 280.476,38.885 282.614,37.669 285.145 C 37.301 285.912,36.874 286.630,36.722 286.740 C 36.570 286.849,36.195 287.567,35.888 288.335 C 35.582 289.103,35.113 289.910,34.846 290.130 C 33.096 291.567,33.129 299.103,34.885 299.103 C 35.220 299.103,35.494 299.250,35.494 299.431 C 35.494 299.860,41.153 302.692,42.010 302.692 C 42.374 302.692,42.672 302.852,42.672 303.047 C 42.672 303.243,43.159 303.525,43.755 303.675 C 44.350 303.824,45.562 304.275,46.447 304.677 C 47.332 305.079,49.222 305.633,50.648 305.909 C 52.074 306.184,53.338 306.556,53.457 306.735 C 53.577 306.914,55.416 307.280,57.545 307.549 C 59.674 307.818,61.416 308.181,61.416 308.356 C 61.416 308.531,62.089 308.676,62.911 308.678 C 63.734 308.681,65.051 308.789,65.837 308.919 L 67.268 309.156 66.867 310.909 C 66.646 311.873,66.341 312.662,66.189 312.662 C 66.036 312.662,65.683 313.739,65.404 315.055 C 65.125 316.371,64.761 317.448,64.595 317.448 C 64.429 317.448,64.062 318.614,63.779 320.040 C 63.495 321.466,63.136 322.632,62.980 322.632 C 62.824 322.632,62.376 324.337,61.983 326.421 C 61.591 328.504,61.142 330.209,60.985 330.209 C 60.829 330.209,60.474 331.735,60.196 333.599 C 59.919 335.464,59.573 336.989,59.429 336.989 C 58.992 336.989,58.111 344.429,58.379 345.857 C 58.792 348.060,61.993 349.722,65.869 349.745 C 66.454 349.748,67.007 349.975,67.099 350.249 C 67.227 350.634,70.158 350.748,79.960 350.748 C 89.762 350.748,92.693 350.634,92.822 350.249 C 92.913 349.975,93.398 349.751,93.899 349.751 C 95.824 349.751,101.883 348.497,102.174 348.039 C 102.343 347.774,102.483 351.461,102.486 356.231 C 102.490 361.744,102.638 364.905,102.891 364.905 C 103.111 364.905,103.290 365.230,103.290 365.628 C 103.290 366.760,104.739 368.032,106.378 368.340 C 108.141 368.670,119.955 367.854,120.596 367.358 C 120.838 367.170,122.428 366.785,124.128 366.503 C 125.828 366.220,127.218 365.859,127.218 365.701 C 127.218 365.543,128.295 365.185,129.611 364.905 C 130.927 364.626,132.004 364.243,132.004 364.053 C 132.004 363.864,132.267 363.709,132.588 363.709 C 133.382 363.709,136.940 362.489,137.188 362.131 C 137.298 361.974,137.747 361.746,138.185 361.625 C 138.624 361.505,139.267 361.289,139.614 361.145 C 140.148 360.924,140.324 361.502,140.756 364.888 C 141.037 367.091,141.397 368.893,141.556 368.893 C 141.715 368.893,142.083 370.419,142.373 372.283 C 142.663 374.148,143.030 375.673,143.190 375.673 C 143.349 375.673,143.700 376.884,143.971 378.365 C 144.241 379.845,144.689 381.595,144.965 382.253 C 145.241 382.911,145.697 384.482,145.978 385.743 C 146.259 387.004,146.615 388.036,146.769 388.036 C 146.923 388.036,147.278 389.113,147.557 390.429 C 147.837 391.745,148.196 392.822,148.355 392.822 C 148.514 392.822,148.876 393.913,149.160 395.247 C 149.687 397.735,150.358 398.804,151.391 398.804 C 152.544 398.804,158.128 397.528,158.324 397.220 C 158.434 397.047,159.577 396.671,160.863 396.385 C 162.149 396.099,163.410 395.656,163.665 395.400 C 163.921 395.145,164.798 394.715,165.614 394.446 C 166.431 394.177,167.099 393.819,167.099 393.652 C 167.099 393.485,167.817 393.111,168.694 392.822 C 169.571 392.532,170.291 392.189,170.293 392.060 C 170.295 391.930,171.103 391.470,172.088 391.037 C 173.072 390.604,173.878 390.111,173.878 389.941 C 173.878 389.770,174.067 389.631,174.298 389.631 C 174.919 389.631,181.046 385.305,182.592 383.775 C 183.327 383.048,184.066 382.453,184.235 382.453 C 184.404 382.453,185.732 381.263,187.187 379.809 C 188.814 378.181,189.831 377.415,189.831 377.815 C 189.831 378.172,189.974 378.465,190.150 378.465 C 190.325 378.465,190.909 379.302,191.446 380.325 C 193.139 383.549,193.542 384.227,194.085 384.770 C 194.377 385.062,194.724 385.736,194.858 386.269 C 194.992 386.802,195.253 387.238,195.438 387.238 C 195.624 387.238,196.070 387.860,196.431 388.620 C 198.041 392.012,203.536 394.293,204.922 392.143 C 205.066 391.920,205.796 391.423,206.543 391.040 C 207.290 390.657,208.266 390.004,208.712 389.589 C 209.158 389.173,209.668 388.833,209.846 388.833 C 210.024 388.833,210.484 388.557,210.867 388.219 C 211.251 387.881,212.726 386.669,214.144 385.527 C 216.845 383.351,223.330 376.929,223.330 376.430 C 223.330 376.271,223.913 375.522,224.626 374.767 C 226.185 373.116,226.889 372.240,227.826 370.787 C 228.640 369.525,229.227 369.393,229.596 370.389 C 229.738 370.773,230.540 371.760,231.378 372.582 C 232.216 373.404,232.901 374.185,232.901 374.318 C 232.901 374.710,249.119 390.828,249.514 390.828 C 249.713 390.828,250.588 391.634,251.458 392.619 C 252.329 393.604,253.243 394.412,253.491 394.414 C 253.738 394.415,254.164 394.686,254.437 395.015 C 255.052 395.757,258.593 395.827,259.475 395.115 C 261.032 393.857,263.569 391.150,265.206 388.999 C 266.192 387.703,267.313 386.295,267.697 385.869 C 268.081 385.442,268.395 384.867,268.395 384.591 C 268.395 384.314,268.619 383.944,268.894 383.769 C 269.169 383.593,269.662 382.911,269.990 382.253 C 270.318 381.595,270.701 380.967,270.840 380.857 C 271.315 380.483,273.978 375.209,273.978 374.643 C 273.978 374.332,274.150 374.078,274.361 374.078 C 274.571 374.078,274.969 373.315,275.244 372.383 C 275.519 371.451,275.953 370.472,276.209 370.209 C 276.464 369.946,276.801 369.049,276.958 368.216 C 277.114 367.383,277.397 366.606,277.587 366.488 C 277.778 366.371,278.244 364.845,278.623 363.097 C 279.003 361.350,279.459 359.860,279.637 359.787 C 279.815 359.714,279.963 359.355,279.966 358.990 C 279.970 358.583,280.086 358.491,280.265 358.753 C 280.426 358.988,280.828 359.303,281.157 359.453 C 281.486 359.602,282.652 360.264,283.749 360.924 C 284.845 361.584,286.550 362.506,287.537 362.973 C 288.524 363.440,289.422 363.950,289.531 364.107 C 289.641 364.263,290.392 364.606,291.201 364.870 C 292.009 365.133,292.738 365.553,292.821 365.801 C 292.905 366.053,294.130 366.328,295.578 366.420 C 298.702 366.619,299.601 365.899,301.837 361.411 C 302.573 359.933,303.492 358.096,303.880 357.328 C 304.268 356.560,304.721 355.304,304.885 354.536 C 305.050 353.769,305.306 353.051,305.453 352.941 C 305.799 352.684,307.079 348.006,307.079 346.998 C 307.079 346.575,307.252 346.168,307.464 346.095 C 307.675 346.022,308.074 344.302,308.349 342.273 C 308.625 340.244,308.990 338.584,309.161 338.584 C 309.332 338.584,309.489 337.552,309.511 336.291 C 309.558 333.584,309.971 331.798,310.393 332.479 C 310.552 332.737,311.666 333.167,312.868 333.436 C 314.071 333.705,315.055 334.054,315.055 334.210 C 315.055 334.367,316.580 334.815,318.445 335.206 C 320.309 335.597,321.834 336.048,321.834 336.209 C 321.834 336.369,323.046 336.726,324.526 337.002 C 326.007 337.278,327.314 337.650,327.431 337.829 C 327.548 338.007,329.433 338.465,331.619 338.846 C 333.805 339.227,335.690 339.677,335.808 339.846 C 335.926 340.015,337.676 340.378,339.696 340.653 C 341.717 340.928,343.370 341.293,343.370 341.464 C 343.370 341.635,344.088 341.775,344.965 341.775 C 345.842 341.775,346.560 341.608,346.560 341.404 C 346.560 341.200,346.946 340.975,347.417 340.905 C 347.888 340.835,348.471 340.419,348.713 339.980 C 348.955 339.541,349.264 339.093,349.401 338.983 C 349.745 338.707,350.548 334.806,350.548 333.413 C 350.548 332.784,350.773 332.195,351.047 332.104 C 351.698 331.887,351.778 307.607,351.129 307.164 C 350.900 307.007,350.485 305.270,350.207 303.302 C 349.930 301.334,349.560 299.540,349.385 299.314 C 349.211 299.088,348.969 298.500,348.849 298.006 L 348.629 297.109 356.621 297.109 C 369.041 297.109,369.141 297.038,368.998 288.362 C 368.946 285.196,368.756 282.504,368.574 282.380 C 368.393 282.255,368.024 280.454,367.753 278.377 C 367.482 276.299,367.123 274.505,366.955 274.389 C 366.788 274.273,366.419 273.101,366.136 271.785 C 365.853 270.469,365.382 268.853,365.089 268.195 C 364.796 267.537,364.338 266.236,364.070 265.304 C 363.802 264.372,363.453 263.609,363.294 263.609 C 363.136 263.609,362.803 262.802,362.554 261.815 C 362.306 260.828,361.925 260.020,361.709 260.020 C 359.604 260.020,362.361 259.225,366.500 258.639 C 369.352 258.236,371.685 257.785,371.685 257.639 C 371.685 257.492,373.121 257.139,374.875 256.854 C 376.630 256.569,378.066 256.206,378.066 256.048 C 378.066 255.890,379.322 255.524,380.857 255.234 C 382.393 254.945,383.649 254.585,383.649 254.435 C 383.649 254.285,385.174 253.842,387.039 253.451 C 388.903 253.060,390.429 252.612,390.429 252.455 C 390.429 252.299,391.461 251.941,392.722 251.660 C 393.983 251.380,395.105 251.026,395.214 250.874 C 395.324 250.722,396.463 250.273,397.745 249.876 C 400.020 249.172,400.071 249.124,399.877 247.907 C 399.598 246.156,398.720 243.110,398.426 242.871 C 398.290 242.762,397.938 241.685,397.644 240.479 C 397.133 238.383,395.362 234.119,394.828 233.699 C 394.689 233.589,394.238 232.602,393.827 231.506 C 393.415 230.409,392.841 229.275,392.551 228.985 C 392.261 228.695,392.024 228.236,392.024 227.965 C 392.024 227.695,391.620 226.917,391.127 226.236 C 390.633 225.556,390.010 224.669,389.742 224.265 C 386.531 219.419,385.825 218.455,384.546 217.165 C 384.053 216.667,383.646 216.101,383.642 215.906 C 383.638 215.712,382.368 214.312,380.819 212.795 C 378.311 210.338,378.083 209.992,378.733 209.630 C 379.134 209.407,379.699 208.988,379.989 208.700 C 380.278 208.411,380.763 208.175,381.065 208.175 C 381.368 208.175,381.759 207.946,381.934 207.666 C 382.110 207.385,383.016 206.819,383.948 206.409 C 384.880 205.998,385.643 205.543,385.643 205.398 C 385.643 205.253,386.271 204.887,387.039 204.586 C 387.807 204.285,388.435 203.888,388.435 203.704 C 388.435 203.520,388.883 203.200,389.432 202.991 C 389.980 202.783,390.429 202.428,390.429 202.203 C 390.429 201.979,390.682 201.795,390.991 201.795 C 393.999 201.795,394.129 193.555,391.141 192.290 C 390.969 192.217,390.828 191.913,390.828 191.615 C 390.828 191.316,390.513 190.838,390.130 190.551 C 389.746 190.264,389.165 189.492,388.840 188.833 C 387.851 186.833,376.068 174.773,373.644 173.280 C 369.883 170.964,369.696 170.693,371.227 169.790 C 371.852 169.420,373.087 168.394,373.971 167.510 C 374.856 166.626,375.701 165.902,375.850 165.902 C 376.530 165.902,394.417 147.311,394.417 146.604 C 394.417 146.356,394.776 145.930,395.214 145.656 C 395.857 145.255,396.012 144.726,396.012 142.941 C 396.012 139.563,395.674 139.131,388.701 133.599 C 388.286 133.270,387.734 132.800,387.473 132.554 C 387.213 132.308,386.397 131.796,385.661 131.415 C 384.925 131.034,383.958 130.383,383.512 129.968 C 383.066 129.552,382.466 129.212,382.178 129.212 C 381.890 129.212,381.655 129.033,381.655 128.814 C 381.655 128.594,381.472 128.415,381.248 128.415 C 381.024 128.415,380.171 127.984,379.353 127.458 C 378.536 126.932,377.193 126.268,376.371 125.982 C 375.548 125.697,374.875 125.327,374.875 125.160 C 374.875 124.994,374.158 124.642,373.280 124.380 C 372.403 124.117,371.685 123.790,371.685 123.653 C 371.685 123.516,370.836 123.154,369.799 122.848 C 368.762 122.541,367.486 122.069,366.964 121.798 C 366.441 121.527,364.867 121.078,363.466 120.799 C 362.064 120.520,360.917 120.146,360.917 119.967 C 360.917 119.788,360.513 119.638,360.020 119.635 C 359.508 119.631,359.309 119.503,359.557 119.336 C 359.796 119.175,360.324 118.280,360.730 117.348 C 361.137 116.416,361.595 115.653,361.748 115.653 C 361.902 115.653,362.137 115.217,362.270 114.684 C 362.404 114.151,362.749 113.478,363.037 113.188 C 363.648 112.575,366.500 106.746,366.500 106.113 C 366.500 105.876,366.680 105.683,366.899 105.683 C 367.926 105.683,367.314 101.691,366.080 100.335 C 364.835 98.967,359.652 96.112,358.414 96.112 C 358.036 96.112,357.727 95.935,357.727 95.719 C 357.727 95.502,356.919 95.122,355.932 94.874 C 354.945 94.625,354.138 94.290,354.138 94.128 C 354.138 93.966,352.657 93.516,350.847 93.127 C 349.038 92.738,347.461 92.270,347.343 92.086 C 347.225 91.902,345.475 91.526,343.454 91.251 C 341.434 90.976,339.781 90.611,339.781 90.440 C 339.781 90.269,339.197 90.128,338.485 90.126 C 333.924 90.114,332.206 89.386,333.554 88.038 C 333.858 87.734,334.336 86.465,334.615 85.218 C 334.894 83.971,335.240 82.951,335.384 82.951 C 335.528 82.951,335.878 81.785,336.162 80.359 C 336.445 78.933,336.806 77.767,336.964 77.767 C 337.122 77.767,337.587 76.062,337.996 73.978 C 338.406 71.894,338.864 70.189,339.013 70.189 C 339.162 70.189,339.508 68.754,339.781 66.999 C 340.054 65.244,340.411 63.809,340.576 63.809 C 340.740 63.809,341.101 62.100,341.377 60.011 C 341.653 57.922,342.036 56.117,342.226 55.999 C 342.692 55.711,342.670 53.041,342.201 53.041 C 341.997 53.041,341.773 52.655,341.703 52.184 C 341.496 50.796,339.745 49.831,336.559 49.349 C 334.931 49.103,333.500 48.758,333.379 48.583 C 332.653 47.531,307.500 47.603,307.145 48.657 C 307.072 48.875,306.534 49.056,305.949 49.060 C 305.364 49.063,303.327 49.385,301.423 49.774 L 297.960 50.482 297.834 41.880 C 297.741 35.602,297.569 33.120,297.195 32.691 C 296.913 32.368,296.432 31.745,296.126 31.306 C 295.497 30.404,285.264 30.233,281.555 31.063 C 280.568 31.284,278.327 31.758,276.574 32.116 C 274.821 32.474,273.295 32.902,273.184 33.066 C 273.072 33.231,271.859 33.599,270.489 33.886 C 269.118 34.172,267.996 34.547,267.996 34.719 C 267.996 34.891,267.413 35.159,266.700 35.314 C 265.987 35.470,264.260 36.121,262.863 36.760 C 261.465 37.399,260.278 37.869,260.226 37.804 C 260.174 37.740,259.815 35.533,259.428 32.901 C 259.042 30.269,258.589 27.936,258.422 27.717 C 258.255 27.498,257.890 26.017,257.610 24.427 C 257.330 22.836,256.984 21.535,256.842 21.535 C 256.699 21.535,256.255 19.920,255.854 17.946 C 255.454 15.972,255.004 14.357,254.854 14.357 C 254.705 14.357,254.351 13.190,254.068 11.765 C 253.784 10.339,253.417 9.172,253.251 9.172 C 253.086 9.172,252.722 8.096,252.443 6.780 C 252.163 5.464,251.802 4.387,251.640 4.387 C 251.478 4.387,251.245 3.893,251.121 3.290 C 250.602 0.750,247.896 -0.132,243.669 0.860 M244.490 11.964 C 244.645 12.512,245.408 15.115,246.187 17.747 C 248.515 25.610,250.525 34.493,251.765 42.390 C 251.921 43.385,251.617 43.745,248.901 45.778 C 245.083 48.636,239.566 53.912,236.584 57.557 C 233.887 60.854,233.793 60.716,234.648 54.730 C 234.984 52.375,235.365 49.103,235.494 47.458 C 235.624 45.813,235.819 43.883,235.929 43.170 C 236.625 38.636,232.780 47.244,227.805 61.355 L 227.054 63.487 225.948 59.361 C 223.736 51.107,221.541 45.094,217.391 35.922 L 214.981 30.596 217.860 27.620 C 223.183 22.115,230.553 16.735,236.910 13.714 C 242.795 10.919,243.060 10.807,243.640 10.888 C 243.954 10.931,244.336 11.416,244.490 11.964 M152.144 22.034 C 158.180 28.083,167.105 37.847,167.097 38.392 C 167.097 38.443,166.542 39.831,165.864 41.476 C 163.517 47.176,160.772 56.727,160.690 59.478 C 160.633 61.384,160.079 62.157,159.587 61.017 C 152.803 45.312,151.833 43.430,152.204 46.705 C 152.764 51.649,154.077 60.465,154.760 63.871 C 155.186 65.989,155.533 67.824,155.533 67.948 C 155.533 68.072,153.963 66.606,152.044 64.689 C 146.735 59.389,134.486 49.440,130.019 46.801 C 128.568 45.944,128.574 46.074,129.784 41.420 C 132.181 32.193,136.794 22.805,142.529 15.476 C 143.851 13.786,144.053 13.924,152.144 22.034 M201.055 23.220 C 205.625 31.157,210.887 41.932,212.988 47.657 C 216.422 57.014,217.414 60.375,218.995 67.996 C 219.751 71.641,219.905 73.631,219.907 79.761 L 219.908 87.139 217.863 95.115 C 216.111 101.951,213.548 111.493,211.560 118.586 C 211.262 119.650,210.961 120.574,210.893 120.638 C 210.824 120.702,208.883 120.639,206.580 120.497 L 202.393 120.239 202.297 114.257 C 202.171 106.432,200.678 75.737,200.211 71.386 C 200.011 69.521,199.561 65.325,199.212 62.060 C 198.585 56.196,197.189 47.106,196.866 46.783 C 196.385 46.302,194.644 57.551,193.737 66.999 C 192.696 77.843,193.148 110.202,194.461 118.943 C 194.676 120.372,194.636 120.439,193.554 120.441 C 192.932 120.443,190.359 120.801,187.836 121.236 C 185.314 121.672,182.927 122.030,182.532 122.031 C 181.931 122.033,176.271 111.351,176.271 110.214 C 176.271 110.091,176.009 109.425,175.688 108.734 C 173.157 103.278,169.953 91.345,169.114 84.245 C 165.900 57.069,174.034 35.393,193.420 19.467 C 197.502 16.113,196.750 15.744,201.055 23.220 M288.856 49.173 C 288.627 75.369,283.914 96.020,275.181 109.096 C 273.070 112.256,249.618 136.391,248.658 136.391 C 248.312 136.391,242.446 132.509,241.767 131.831 C 241.660 131.724,243.066 128.982,244.890 125.738 C 255.772 106.393,266.452 84.608,271.417 71.628 C 272.181 69.631,272.987 67.569,273.208 67.047 C 275.825 60.858,262.332 78.416,253.172 93.121 C 247.442 102.318,239.546 117.209,235.968 125.564 C 235.284 127.162,234.701 128.019,234.391 127.886 C 230.502 126.221,225.819 124.368,224.515 123.978 L 222.870 123.484 223.088 121.264 C 223.209 120.042,223.412 117.338,223.541 115.254 C 225.267 87.286,240.430 59.651,260.032 48.751 C 269.053 43.735,276.202 41.209,284.546 40.090 C 289.241 39.460,288.946 38.838,288.856 49.173 M112.212 46.030 C 136.827 59.945,154.494 76.705,160.800 92.124 C 162.038 95.151,167.918 116.138,169.645 123.692 C 169.778 124.275,169.990 125.020,170.116 125.348 C 170.356 125.973,162.965 129.815,162.306 129.407 C 162.132 129.300,161.130 127.732,160.079 125.922 C 148.496 105.982,132.923 82.966,122.244 70.006 C 119.858 67.109,121.848 73.069,127.499 85.743 C 133.757 99.779,145.484 119.922,153.796 130.912 C 155.994 133.819,156.051 133.561,152.642 136.142 C 151.052 137.346,148.943 139.056,147.956 139.942 C 145.732 141.939,146.350 142.032,141.839 139.016 C 105.937 115.012,91.537 79.682,104.358 47.059 C 106.280 42.167,105.548 42.263,112.212 46.030 M328.342 57.263 C 330.915 57.439,331.920 57.662,332.085 58.094 C 332.673 59.625,326.371 82.158,323.600 88.435 C 322.692 90.493,322.647 90.528,320.959 90.530 C 317.177 90.534,306.342 93.249,299.364 95.942 C 298.959 96.099,300.503 93.733,302.796 90.685 C 307.757 84.091,309.953 80.907,309.709 80.663 C 309.451 80.405,302.094 86.016,296.411 90.806 C 293.724 93.071,291.525 94.861,291.525 94.785 C 291.525 94.709,292.160 92.149,292.935 89.098 C 294.601 82.538,296.532 70.851,296.929 64.918 L 297.212 60.696 299.653 59.899 C 304.062 58.459,309.987 57.371,315.055 57.069 C 320.001 56.776,321.568 56.798,328.342 57.263 M66.600 68.867 C 72.258 70.233,76.498 71.463,82.715 73.539 C 90.670 76.197,91.326 76.505,91.326 77.584 C 91.326 81.131,93.644 91.291,95.771 97.065 C 97.175 100.874,97.074 101.044,94.632 99.003 C 91.573 96.445,82.055 89.697,81.828 89.924 C 81.455 90.296,87.420 98.131,93.030 104.639 C 96.192 108.306,96.188 108.374,92.860 107.361 C 86.803 105.516,76.065 103.567,68.066 102.860 C 65.396 102.624,62.824 102.356,62.353 102.265 C 59.088 101.631,56.082 71.833,58.834 67.381 C 59.026 67.070,59.680 67.195,66.600 68.867 M336.202 99.319 C 342.679 100.116,354.670 103.663,356.259 105.252 C 356.604 105.597,355.926 107.036,353.053 112.064 C 339.061 136.547,320.936 155.328,306.479 160.323 C 303.974 161.189,293.318 164.268,288.534 165.509 C 286.999 165.907,283.288 166.876,280.289 167.663 C 277.289 168.449,274.504 169.093,274.100 169.093 C 273.029 169.093,269.599 161.615,270.422 161.075 C 270.733 160.871,272.243 159.981,273.779 159.098 C 275.314 158.214,277.468 156.932,278.564 156.249 C 279.661 155.566,283.340 153.297,286.740 151.207 C 302.329 141.623,318.070 130.700,327.534 122.900 C 331.925 119.281,331.763 119.273,323.031 122.657 C 306.520 129.056,282.827 142.237,268.834 152.808 C 265.805 155.096,265.903 155.081,264.736 153.440 C 264.229 152.727,262.502 150.567,260.899 148.640 L 257.984 145.135 259.248 142.926 C 275.702 114.167,308.023 95.852,336.202 99.319 M65.204 111.269 C 83.499 112.802,100.117 117.668,110.015 124.389 C 116.168 128.568,137.941 150.392,137.115 151.554 C 136.826 151.959,135.716 153.559,134.648 155.109 C 133.580 156.658,132.632 157.926,132.541 157.926 C 132.450 157.926,130.901 157.089,129.099 156.065 C 109.393 144.874,86.455 133.529,72.848 128.245 C 65.226 125.285,65.075 125.348,70.042 129.412 C 84.540 141.274,107.850 155.521,124.826 162.894 C 129.036 164.723,129.068 164.755,128.310 166.378 C 127.237 168.673,125.751 172.407,125.034 174.609 L 124.341 176.734 120.894 176.482 C 112.814 175.891,101.955 174.285,97.906 173.082 C 73.493 165.828,58.478 155.119,48.978 138.185 C 43.421 128.280,38.854 111.336,41.575 110.719 C 42.909 110.417,59.695 110.808,65.204 111.269 M357.284 128.628 C 366.395 130.776,385.084 140.324,385.226 142.904 C 385.283 143.934,369.835 159.109,363.253 164.489 L 361.002 166.329 358.667 165.277 C 354.185 163.260,345.779 160.700,341.775 160.132 C 337.174 159.480,336.774 159.146,339.482 158.218 C 342.051 157.337,354.979 151.456,354.781 151.258 C 354.434 150.911,339.186 153.003,335.394 153.918 C 330.916 154.998,330.907 155.140,335.643 150.250 C 340.720 145.008,345.881 138.761,350.320 132.486 C 352.078 129.999,353.759 128.019,354.108 128.022 C 354.453 128.025,355.882 128.298,357.284 128.628 M206.744 135.624 C 208.417 137.611,207.975 140.416,205.787 141.709 C 203.417 143.109,200.557 142.021,199.867 139.456 C 198.769 135.376,204.056 132.430,206.744 135.624 M175.101 139.288 C 179.996 142.587,176.243 150.371,170.576 148.673 C 164.804 146.944,166.058 138.385,172.084 138.385 C 173.166 138.385,174.236 138.705,175.101 139.288 M230.726 143.751 C 231.821 144.846,231.919 145.456,231.238 146.950 C 229.881 149.927,224.863 147.803,226.115 144.782 C 227.026 142.581,229.094 142.119,230.726 143.751 M152.810 146.622 C 154.418 148.078,152.972 151.147,150.678 151.147 C 148.413 151.147,147.117 148.348,148.616 146.691 C 149.451 145.769,151.824 145.730,152.810 146.622 M249.056 147.710 C 251.023 149.148,249.612 152.343,247.011 152.343 C 245.353 152.343,244.467 151.438,244.467 149.745 C 244.467 147.542,247.180 146.338,249.056 147.710 M44.840 148.255 C 45.150 148.639,46.478 150.299,47.790 151.944 C 50.215 154.984,57.679 162.479,60.219 164.425 C 61.939 165.743,62.001 165.740,53.878 164.730 C 47.532 163.941,42.672 163.540,42.672 163.806 C 42.672 164.252,53.668 168.780,60.898 171.310 C 62.697 171.940,64.109 172.515,64.036 172.587 C 63.963 172.660,61.953 173.233,59.569 173.860 C 52.206 175.798,40.911 180.079,34.173 183.487 L 31.855 184.659 30.107 183.227 C 24.496 178.629,16.816 167.904,13.188 159.598 C 11.548 155.842,11.632 155.534,14.559 154.612 C 22.971 151.959,37.727 148.441,43.972 147.598 C 44.139 147.576,44.529 147.871,44.840 148.255 M193.167 149.181 C 195.160 150.750,194.044 153.938,191.501 153.938 C 188.948 153.938,187.802 151.145,189.613 149.334 C 190.809 148.138,191.787 148.096,193.167 149.181 M216.768 149.334 C 219.189 151.755,215.880 155.300,213.050 153.317 C 211.753 152.409,211.838 150.264,213.214 149.181 C 214.594 148.096,215.572 148.138,216.768 149.334 M172.383 161.824 C 174.000 163.243,172.630 166.301,170.378 166.301 C 167.159 166.301,166.405 162.749,169.292 161.182 C 170.201 160.688,171.365 160.930,172.383 161.824 M155.092 163.869 C 157.767 166.367,156.025 170.688,152.343 170.688 C 151.044 170.688,150.435 170.436,149.521 169.522 C 146.984 166.986,148.755 162.712,152.343 162.712 C 153.460 162.712,154.177 163.014,155.092 163.869 M201.817 165.914 C 202.719 166.397,203.789 168.316,203.789 169.453 C 203.789 172.955,199.444 174.780,196.978 172.314 C 193.641 168.977,197.645 163.681,201.817 165.914 M220.937 167.896 C 222.670 169.630,221.468 172.283,218.949 172.283 C 217.078 172.283,216.152 171.459,216.152 169.794 C 216.152 167.296,219.149 166.108,220.937 167.896 M338.624 168.473 C 355.474 171.287,371.519 180.811,380.790 193.502 C 382.956 196.467,383.147 196.099,377.767 199.316 C 349.377 216.290,325.185 222.354,305.683 217.387 C 296.505 215.049,279.166 210.306,278.929 210.069 C 278.862 210.002,278.933 208.069,279.085 205.772 L 279.362 201.595 292.921 201.129 C 318.680 200.244,332.355 199.266,345.165 197.392 C 354.670 196.002,354.677 195.897,345.364 194.472 C 326.740 191.622,295.077 191.209,280.524 193.626 L 279.292 193.830 278.821 190.335 C 278.562 188.412,278.159 185.705,277.927 184.319 C 277.361 180.948,277.254 181.084,282.512 178.527 C 301.902 169.097,321.421 165.600,338.624 168.473 M246.760 169.700 C 248.053 171.188,248.000 173.825,246.650 175.175 C 243.228 178.597,237.898 174.428,240.362 170.257 C 241.652 168.073,245.086 167.774,246.760 169.700 M179.267 171.713 C 188.844 175.714,186.528 189.531,176.271 189.590 C 166.248 189.648,163.376 176.342,172.483 172.037 C 174.801 170.941,177.152 170.829,179.267 171.713 M144.278 172.904 C 144.936 173.364,145.165 173.925,145.165 175.075 C 145.165 177.737,142.471 178.798,140.560 176.888 C 138.139 174.467,141.448 170.922,144.278 172.904 M196.235 175.896 C 197.365 177.026,197.136 178.941,195.748 179.973 C 193.685 181.505,191.059 179.648,191.627 177.058 C 192.060 175.090,194.750 174.411,196.235 175.896 M260.254 178.861 C 261.458 180.698,260.153 183.051,257.929 183.051 C 255.551 183.051,254.314 180.342,255.894 178.596 C 256.923 177.459,259.436 177.611,260.254 178.861 M227.279 179.043 C 232.368 181.639,229.985 189.572,224.308 188.932 C 218.817 188.313,217.619 181.483,222.561 178.964 C 224.323 178.065,225.398 178.083,227.279 179.043 M92.323 180.793 C 97.127 181.964,106.421 184.382,110.269 185.460 C 123.402 189.140,121.758 188.000,121.410 193.183 L 121.127 197.408 116.297 197.404 C 105.517 197.397,79.802 198.699,68.395 199.829 C 61.429 200.520,51.587 201.821,48.696 202.434 C 46.965 202.801,48.383 203.264,53.838 204.112 C 71.255 206.819,94.705 207.515,112.662 205.857 C 117.268 205.432,121.096 205.136,121.169 205.200 C 121.242 205.264,121.543 207.261,121.839 209.637 C 122.134 212.014,122.548 214.716,122.758 215.642 C 123.029 216.835,123.008 217.432,122.687 217.693 C 122.156 218.124,113.426 222.532,113.104 222.532 C 112.983 222.532,111.938 222.963,110.780 223.488 C 76.942 238.852,39.261 231.168,19.399 204.855 C 17.494 202.332,17.280 202.687,22.632 199.493 C 49.676 183.352,74.979 176.562,92.323 180.793 M156.457 191.087 C 158.233 192.022,158.437 193.743,156.947 195.232 C 155.756 196.424,154.382 196.485,153.216 195.398 C 150.901 193.242,153.637 189.602,156.457 191.087 M204.830 191.726 C 206.112 193.415,204.672 196.211,202.520 196.211 C 201.504 196.211,199.801 194.463,199.801 193.420 C 199.801 191.076,203.413 189.860,204.830 191.726 M135.624 192.990 C 138.267 195.633,136.639 199.801,132.965 199.801 C 129.105 199.801,127.451 195.548,130.315 192.988 C 132.095 191.398,134.032 191.399,135.624 192.990 M253.929 193.231 C 255.210 194.513,255.316 194.789,255.111 196.322 C 254.431 201.392,247.258 200.871,247.258 195.751 C 247.258 192.038,251.234 190.536,253.929 193.231 M237.864 194.306 C 239.209 196.227,238.009 198.604,235.693 198.604 C 233.364 198.604,232.038 195.833,233.561 194.149 C 234.535 193.073,237.065 193.166,237.864 194.306 M176.770 197.400 C 178.003 198.768,178.151 200.088,177.264 201.803 C 175.656 204.913,170.988 204.524,169.887 201.187 C 168.508 197.009,173.795 194.101,176.770 197.400 M194.385 203.436 C 196.656 205.222,194.590 208.741,191.749 207.926 C 190.887 207.679,190.315 207.199,190.077 206.523 C 189.030 203.546,191.905 201.485,194.385 203.436 M162.078 208.605 C 164.999 212.076,161.443 216.681,157.344 214.737 C 153.533 212.928,154.875 207.378,159.123 207.378 C 160.781 207.378,161.188 207.547,162.078 208.605 M141.945 209.625 C 142.400 210.203,142.772 210.897,142.772 211.167 C 142.772 213.494,138.707 214.719,137.434 212.776 C 136.176 210.856,137.450 208.574,139.781 208.574 C 140.751 208.574,141.346 208.863,141.945 209.625 M220.607 209.234 C 221.515 210.057,221.552 212.061,220.676 213.029 C 219.653 214.160,217.135 214.014,216.325 212.778 C 214.552 210.072,218.198 207.054,220.607 209.234 M203.646 211.420 C 205.004 212.695,204.983 215.791,203.607 217.167 C 201.613 219.161,197.901 218.256,197.011 215.558 C 195.680 211.528,200.537 208.499,203.646 211.420 M258.854 213.728 C 262.512 217.386,257.064 222.913,253.282 219.381 C 252.294 218.458,252.044 217.900,252.044 216.620 C 252.044 212.862,256.216 211.090,258.854 213.728 M371.814 216.949 C 378.562 223.096,390.097 241.402,388.301 243.115 C 387.893 243.503,385.919 244.163,378.863 246.267 C 374.388 247.601,364.817 249.729,359.199 250.639 L 356.085 251.143 353.038 247.306 C 349.560 242.926,345.114 238.337,341.455 235.351 C 338.494 232.935,338.235 232.995,346.920 234.070 C 357.359 235.361,358.460 235.434,357.527 234.767 C 356.113 233.757,347.092 230.126,338.905 227.274 C 337.437 226.762,336.285 226.294,336.347 226.232 C 336.408 226.171,338.686 225.508,341.410 224.760 C 349.211 222.616,357.870 219.340,366.085 215.425 C 368.950 214.059,368.514 213.943,371.814 216.949 M237.981 216.302 C 244.098 219.497,244.270 228.594,238.284 232.303 C 231.949 236.229,223.274 230.762,224.273 223.473 C 225.174 216.898,232.142 213.253,237.981 216.302 M183.633 222.352 C 186.250 223.594,186.616 227.456,184.282 229.182 C 182.452 230.534,179.207 229.824,178.320 227.878 C 176.584 224.067,179.925 220.592,183.633 222.352 M286.939 222.985 C 320.791 226.269,347.233 244.798,356.523 271.744 C 357.850 275.594,359.721 284.193,359.721 286.444 L 359.721 287.842 356.294 288.127 C 333.719 290.008,302.005 282.993,288.880 273.216 C 285.585 270.762,263.210 248.755,263.210 247.969 C 263.210 247.581,266.696 242.186,267.633 241.123 C 267.804 240.929,271.500 242.748,275.846 245.165 C 296.618 256.719,312.456 264.491,326.900 270.219 C 335.801 273.749,335.812 273.729,328.315 267.733 C 313.529 255.905,293.620 243.888,275.573 235.898 C 271.169 233.948,271.344 234.292,272.919 230.669 C 273.673 228.936,274.690 226.313,275.179 224.842 L 276.069 222.166 279.311 222.362 C 281.094 222.470,284.526 222.750,286.939 222.985 M201.940 227.347 C 203.968 228.942,202.810 232.104,200.199 232.104 C 197.588 232.104,196.431 228.942,198.459 227.347 C 199.037 226.892,199.820 226.520,200.199 226.520 C 200.579 226.520,201.362 226.892,201.940 227.347 M128.864 233.506 L 130.662 237.302 122.278 242.338 C 100.199 255.601,68.730 277.437,69.945 278.653 C 70.536 279.243,88.721 271.601,96.510 267.488 C 110.615 260.042,117.643 255.796,128.473 248.177 C 135.383 243.315,134.334 243.522,136.648 246.560 C 137.692 247.931,139.407 250.054,140.460 251.277 C 142.824 254.026,142.922 253.345,139.407 258.588 C 115.212 294.675,78.532 308.693,45.763 294.375 C 43.482 293.379,43.500 293.730,45.534 289.996 C 60.273 262.953,79.760 242.814,96.112 237.729 C 100.034 236.509,110.866 233.485,116.251 232.105 C 118.883 231.431,121.934 230.629,123.031 230.322 C 126.851 229.254,126.851 229.254,128.864 233.506 M153.396 233.121 C 155.139 234.863,153.940 237.448,151.389 237.448 C 149.516 237.448,148.754 236.702,148.754 234.869 C 148.754 232.205,151.461 231.186,153.396 233.121 M46.401 235.316 C 50.285 236.740,54.435 237.885,57.827 238.465 C 63.603 239.455,63.661 239.510,60.319 240.857 C 53.259 243.702,45.668 247.196,45.945 247.474 C 46.364 247.893,65.886 245.022,67.915 244.243 C 69.185 243.756,68.598 244.550,64.585 248.754 C 59.762 253.805,54.822 259.800,50.276 266.115 C 48.427 268.685,46.658 270.788,46.346 270.788 C 40.556 270.788,23.088 262.755,16.506 257.065 L 15.020 255.780 19.449 251.021 C 24.756 245.317,33.658 237.047,38.408 233.409 L 39.528 232.551 41.399 233.359 C 42.428 233.803,44.679 234.684,46.401 235.316 M173.050 240.110 C 175.653 242.713,173.957 246.859,170.289 246.859 C 166.607 246.859,164.865 242.539,167.540 240.040 C 169.286 238.409,171.375 238.436,173.050 240.110 M248.834 240.069 C 250.562 240.994,250.114 244.013,248.126 244.837 C 246.122 245.667,244.484 244.483,244.473 242.196 C 244.463 240.168,246.846 239.006,248.834 240.069 M214.392 243.467 C 215.626 245.350,214.325 247.619,211.996 247.644 C 209.689 247.669,208.475 244.923,210.032 243.202 C 211.061 242.065,213.573 242.218,214.392 243.467 M197.408 246.031 C 201.244 248.747,199.262 255.633,194.643 255.633 C 190.332 255.633,187.671 251.448,189.605 247.708 C 191.018 244.976,194.776 244.168,197.408 246.031 M183.791 254.207 C 186.075 255.389,186.530 258.596,184.677 260.449 C 182.159 262.967,177.866 261.263,177.866 257.747 C 177.866 254.478,180.858 252.691,183.791 254.207 M259.101 260.107 C 295.196 284.220,309.573 321.336,295.311 353.585 C 294.144 356.224,294.322 356.227,289.392 353.467 C 269.260 342.198,252.269 327.817,244.200 315.218 C 240.557 309.529,239.322 306.550,236.692 297.109 C 236.111 295.025,235.296 292.154,234.881 290.728 C 234.465 289.302,233.239 284.684,232.157 280.466 L 230.188 272.795 233.991 270.994 C 236.082 270.003,237.904 269.197,238.039 269.203 C 238.175 269.208,239.785 271.752,241.619 274.856 C 253.661 295.239,267.353 315.535,276.588 326.693 C 279.999 330.814,280.033 330.794,278.192 325.770 C 271.461 307.403,259.925 286.263,246.251 267.236 L 244.701 265.080 246.065 264.045 C 246.815 263.477,248.960 261.722,250.833 260.147 C 254.964 256.671,253.966 256.676,259.101 260.107 M226.140 258.359 C 226.772 258.871,227.033 259.490,227.007 260.414 C 226.904 264.021,221.602 264.025,221.602 260.419 C 221.602 258.021,224.242 256.823,226.140 258.359 M152.907 262.757 C 153.024 262.946,154.381 263.955,155.922 264.998 C 159.314 267.295,159.376 266.304,155.396 273.416 C 142.944 295.668,130.057 322.526,127.021 332.552 C 126.577 334.018,127.265 333.375,130.940 328.894 C 142.642 314.623,156.070 292.378,164.511 273.280 C 165.117 271.909,165.669 270.788,165.738 270.788 C 165.807 270.788,167.263 271.393,168.974 272.133 C 170.684 272.873,173.295 273.903,174.776 274.422 C 177.874 275.509,177.673 274.852,177.074 281.954 C 174.240 315.514,159.916 340.200,136.293 352.237 C 129.370 355.765,118.601 358.923,113.497 358.923 L 111.665 358.923 111.671 349.850 C 111.689 323.883,116.292 303.427,125.155 289.930 C 126.841 287.363,130.282 283.613,139.338 274.477 C 150.271 263.446,152.267 261.721,152.907 262.757 M220.376 280.359 C 239.817 318.226,234.795 356.526,207.451 378.937 C 203.505 382.171,203.461 382.178,201.909 379.761 C 191.315 363.258,182.807 341.639,180.841 326.221 C 179.611 316.585,180.108 312.858,185.100 294.239 C 186.647 288.469,188.241 282.521,188.642 281.021 C 189.043 279.521,189.445 278.218,189.537 278.127 C 189.733 277.930,197.750 278.574,197.980 278.805 C 198.067 278.892,198.339 285.603,198.585 293.719 C 199.375 319.810,201.224 342.393,203.260 350.847 C 203.634 352.399,204.085 351.830,204.368 349.452 C 204.517 348.190,204.800 346.530,204.997 345.763 C 207.716 335.130,208.323 293.976,205.970 279.708 L 205.764 278.460 208.451 278.172 C 209.928 278.014,212.310 277.646,213.744 277.356 C 218.277 276.436,218.387 276.486,220.376 280.359 M307.277 291.346 C 312.058 292.969,324.789 295.257,333.371 296.036 L 338.755 296.524 339.634 299.110 C 341.802 305.492,342.373 309.813,342.373 319.840 C 342.373 331.539,342.362 331.586,339.820 331.249 C 335.201 330.636,321.736 326.790,313.016 323.591 L 309.183 322.185 308.933 319.517 C 308.537 315.304,306.892 308.053,305.295 303.490 C 304.489 301.186,303.723 298.952,303.592 298.523 C 303.433 298.001,304.330 298.533,306.313 300.134 C 311.243 304.115,318.567 309.282,318.862 308.988 C 319.103 308.746,312.826 300.429,309.145 296.112 C 307.274 293.918,305.478 291.810,305.153 291.426 C 304.416 290.555,304.894 290.537,307.277 291.346 M101.030 303.655 C 100.628 304.184,98.997 306.324,97.407 308.410 C 93.623 313.372,90.487 317.938,90.710 318.161 C 90.970 318.421,99.192 312.130,104.387 307.697 C 106.854 305.591,108.873 304.062,108.873 304.299 C 108.873 304.535,108.440 306.290,107.910 308.197 C 105.978 315.147,103.290 331.692,103.290 336.628 C 103.290 338.051,103.251 338.086,100.736 338.912 C 91.998 341.780,73.797 343.041,68.801 341.124 C 67.951 340.798,67.988 340.528,69.959 332.640 C 72.103 324.061,74.243 317.129,76.677 310.882 L 77.604 308.504 81.374 308.022 C 86.778 307.332,91.731 306.145,96.736 304.342 C 102.000 302.445,101.942 302.454,101.030 303.655 M249.923 335.407 C 255.744 341.075,265.991 349.309,271.036 352.373 C 271.680 352.764,271.698 353.012,271.239 355.165 C 269.183 364.801,263.775 376.081,257.506 383.812 L 256.565 384.971 248.780 377.231 C 240.640 369.138,233.138 360.678,233.455 359.948 C 236.643 352.617,238.614 346.256,239.672 339.880 C 240.067 337.498,240.877 335.838,240.877 337.410 C 240.877 337.864,244.017 345.211,246.364 350.249 C 247.759 353.244,248.665 354.280,248.283 352.443 C 248.181 351.949,247.985 350.289,247.849 348.754 C 247.574 345.658,245.424 332.685,245.005 331.593 C 244.527 330.348,245.513 331.113,249.923 335.407 M174.261 338.289 C 174.940 341.465,177.786 350.312,179.356 354.129 C 180.125 355.998,181.080 358.351,181.478 359.357 C 182.139 361.031,184.886 367.067,185.325 367.813 C 185.978 368.922,174.611 378.728,168.295 382.504 C 164.420 384.822,157.690 388.036,156.714 388.036 C 155.956 388.036,151.612 372.048,149.779 362.512 C 149.210 359.551,148.660 356.751,148.557 356.290 C 148.407 355.619,149.023 354.949,151.652 352.927 C 155.838 349.707,160.937 344.783,163.948 341.053 C 165.578 339.034,166.301 338.381,166.301 338.928 C 166.301 339.586,165.307 348.897,164.508 355.717 C 164.370 356.889,164.434 357.361,164.694 357.101 C 165.553 356.242,172.041 340.117,172.833 336.873 C 173.212 335.317,173.736 335.836,174.261 338.289 " stroke="none" fill="#fff" fill-rule="evenodd"></path>
    <path id="path1" d="M241.675 11.461 C 235.334 14.426,233.100 15.606,230.131 17.560 C 225.530 20.589,221.326 24.035,217.860 27.620 L 214.981 30.596 217.391 35.922 C 221.541 45.094,223.736 51.107,225.948 59.361 L 227.054 63.487 227.805 61.355 C 232.780 47.244,236.625 38.636,235.929 43.170 C 235.819 43.883,235.624 45.813,235.494 47.458 C 235.365 49.103,234.984 52.375,234.648 54.730 C 233.793 60.716,233.887 60.854,236.584 57.557 C 239.566 53.912,245.083 48.636,248.901 45.778 C 251.617 43.745,251.921 43.385,251.765 42.390 C 250.525 34.493,248.515 25.610,246.187 17.747 C 245.408 15.115,244.645 12.512,244.490 11.964 C 244.145 10.736,243.480 10.618,241.675 11.461 M142.529 15.476 C 136.794 22.805,132.181 32.193,129.784 41.420 C 128.574 46.074,128.568 45.944,130.019 46.801 C 134.486 49.440,146.735 59.389,152.044 64.689 C 153.963 66.606,155.533 68.072,155.533 67.948 C 155.533 67.824,155.186 65.989,154.760 63.871 C 154.077 60.465,152.764 51.649,152.204 46.705 C 151.833 43.430,152.803 45.312,159.587 61.017 C 160.079 62.157,160.633 61.384,160.690 59.478 C 160.772 56.727,163.517 47.176,165.864 41.476 C 166.542 39.831,167.097 38.443,167.097 38.392 C 167.114 37.267,144.990 14.337,143.927 14.379 C 143.621 14.391,142.991 14.885,142.529 15.476 M196.398 17.243 C 188.383 21.557,176.755 36.636,172.552 48.168 C 166.196 65.602,167.518 91.125,175.688 108.734 C 176.009 109.425,176.271 110.091,176.271 110.214 C 176.271 111.351,181.931 122.033,182.532 122.031 C 182.927 122.030,185.314 121.672,187.836 121.236 C 190.359 120.801,192.932 120.443,193.554 120.441 C 194.636 120.439,194.676 120.372,194.461 118.943 C 193.148 110.202,192.696 77.843,193.737 66.999 C 194.644 57.551,196.385 46.302,196.866 46.783 C 197.189 47.106,198.585 56.196,199.212 62.060 C 199.561 65.325,200.011 69.521,200.211 71.386 C 200.678 75.737,202.171 106.432,202.297 114.257 L 202.393 120.239 206.580 120.497 C 211.692 120.812,210.486 122.547,213.960 109.870 C 214.982 106.142,216.739 99.501,217.863 95.115 L 219.908 87.139 219.907 79.761 C 219.905 73.631,219.751 71.641,218.995 67.996 C 217.414 60.375,216.422 57.014,212.988 47.657 C 210.887 41.932,205.625 31.157,201.055 23.220 C 197.244 16.601,197.346 16.732,196.398 17.243 M284.546 40.090 C 276.202 41.209,269.053 43.735,260.032 48.751 C 240.430 59.651,225.267 87.286,223.541 115.254 C 223.412 117.338,223.209 120.042,223.088 121.264 L 222.870 123.484 224.515 123.978 C 225.819 124.368,230.502 126.221,234.391 127.886 C 234.701 128.019,235.284 127.162,235.968 125.564 C 239.546 117.209,247.442 102.318,253.172 93.121 C 262.332 78.416,275.825 60.858,273.208 67.047 C 272.987 67.569,272.181 69.631,271.417 71.628 C 266.452 84.608,255.772 106.393,244.890 125.738 C 243.066 128.982,241.660 131.724,241.767 131.831 C 242.446 132.509,248.312 136.391,248.658 136.391 C 249.618 136.391,273.070 112.256,275.181 109.096 C 283.914 96.020,288.627 75.369,288.856 49.173 C 288.946 38.838,289.241 39.460,284.546 40.090 M105.743 43.769 C 104.889 45.396,103.269 49.903,102.340 53.240 C 93.559 84.769,108.175 116.509,141.839 139.016 C 146.350 142.032,145.732 141.939,147.956 139.942 C 148.943 139.056,151.052 137.346,152.642 136.142 C 156.051 133.561,155.994 133.819,153.796 130.912 C 145.484 119.922,133.757 99.779,127.499 85.743 C 121.848 73.069,119.858 67.109,122.244 70.006 C 132.923 82.966,148.496 105.982,160.079 125.922 C 161.130 127.732,162.132 129.300,162.306 129.407 C 162.965 129.815,170.356 125.973,170.116 125.348 C 169.990 125.020,169.778 124.275,169.645 123.692 C 167.918 116.138,162.038 95.151,160.800 92.124 C 154.494 76.705,136.827 59.945,112.212 46.030 C 106.528 42.817,106.287 42.733,105.743 43.769 M315.055 57.069 C 309.987 57.371,304.062 58.459,299.653 59.899 L 297.212 60.696 296.929 64.918 C 296.532 70.851,294.601 82.538,292.935 89.098 C 292.160 92.149,291.525 94.709,291.525 94.785 C 291.525 94.861,293.724 93.071,296.411 90.806 C 302.094 86.016,309.451 80.405,309.709 80.663 C 309.953 80.907,307.757 84.091,302.796 90.685 C 300.503 93.733,298.959 96.099,299.364 95.942 C 306.342 93.249,317.177 90.534,320.959 90.530 C 322.647 90.528,322.692 90.493,323.600 88.435 C 326.371 82.158,332.673 59.625,332.085 58.094 C 331.920 57.662,330.915 57.439,328.342 57.263 C 321.568 56.798,320.001 56.776,315.055 57.069 M58.834 67.381 C 56.082 71.833,59.088 101.631,62.353 102.265 C 62.824 102.356,65.396 102.624,68.066 102.860 C 76.065 103.567,86.803 105.516,92.860 107.361 C 96.188 108.374,96.192 108.306,93.030 104.639 C 87.420 98.131,81.455 90.296,81.828 89.924 C 82.055 89.697,91.573 96.445,94.632 99.003 C 97.074 101.044,97.175 100.874,95.771 97.065 C 93.644 91.291,91.326 81.131,91.326 77.584 C 91.326 76.505,90.670 76.197,82.715 73.539 C 76.498 71.463,72.258 70.233,66.600 68.867 C 59.680 67.195,59.026 67.070,58.834 67.381 M319.043 99.499 C 296.683 102.852,271.862 120.879,259.248 142.926 L 257.984 145.135 260.899 148.640 C 262.502 150.567,264.229 152.727,264.736 153.440 C 265.903 155.081,265.805 155.096,268.834 152.808 C 282.827 142.237,306.520 129.056,323.031 122.657 C 331.763 119.273,331.925 119.281,327.534 122.900 C 318.070 130.700,302.329 141.623,286.740 151.207 C 283.340 153.297,279.661 155.566,278.564 156.249 C 277.468 156.932,275.314 158.214,273.779 159.098 C 272.243 159.981,270.733 160.871,270.422 161.075 C 269.599 161.615,273.029 169.093,274.100 169.093 C 274.504 169.093,277.289 168.449,280.289 167.663 C 283.288 166.876,286.999 165.907,288.534 165.509 C 301.829 162.060,307.936 160.017,312.461 157.500 C 327.020 149.405,342.002 132.121,355.242 108.148 C 356.883 105.177,356.971 105.320,352.350 103.436 C 342.709 99.506,329.450 97.938,319.043 99.499 M41.575 110.719 C 38.854 111.336,43.421 128.280,48.978 138.185 C 58.478 155.119,73.493 165.828,97.906 173.082 C 101.955 174.285,112.814 175.891,120.894 176.482 L 124.341 176.734 125.034 174.609 C 125.751 172.407,127.237 168.673,128.310 166.378 C 129.068 164.755,129.036 164.723,124.826 162.894 C 107.850 155.521,84.540 141.274,70.042 129.412 C 65.075 125.348,65.226 125.285,72.848 128.245 C 86.455 133.529,109.393 144.874,129.099 156.065 C 130.901 157.089,132.450 157.926,132.541 157.926 C 132.632 157.926,133.580 156.658,134.648 155.109 C 135.716 153.559,136.826 151.959,137.115 151.554 C 137.941 150.392,116.168 128.568,110.015 124.389 C 100.117 117.668,83.499 112.802,65.204 111.269 C 59.695 110.808,42.909 110.417,41.575 110.719 M350.320 132.486 C 345.881 138.761,340.720 145.008,335.643 150.250 C 330.907 155.140,330.916 154.998,335.394 153.918 C 339.186 153.003,354.434 150.911,354.781 151.258 C 354.979 151.456,342.051 157.337,339.482 158.218 C 336.774 159.146,337.174 159.480,341.775 160.132 C 345.779 160.700,354.185 163.260,358.667 165.277 L 361.002 166.329 363.253 164.489 C 369.835 159.109,385.283 143.934,385.226 142.904 C 385.170 141.877,375.079 135.416,369.890 133.085 C 364.399 130.618,356.373 128.043,354.108 128.022 C 353.759 128.019,352.078 129.999,350.320 132.486 M201.093 135.294 C 197.650 138.970,201.505 144.238,205.787 141.709 C 207.975 140.416,208.417 137.611,206.744 135.624 C 205.395 134.021,202.447 133.849,201.093 135.294 M169.066 139.288 C 164.162 142.593,167.955 150.406,173.619 148.668 C 179.366 146.904,178.094 138.385,172.084 138.385 C 171.002 138.385,169.931 138.705,169.066 139.288 M227.271 143.173 C 225.947 143.946,225.515 145.892,226.402 147.084 C 228.164 149.453,231.705 148.280,231.705 145.327 C 231.705 143.642,228.846 142.253,227.271 143.173 M148.616 146.691 C 147.117 148.348,148.413 151.147,150.678 151.147 C 152.972 151.147,154.418 148.078,152.810 146.622 C 151.824 145.730,149.451 145.769,148.616 146.691 M245.353 147.779 C 243.392 149.153,244.552 152.343,247.011 152.343 C 248.916 152.343,249.811 151.514,249.811 149.751 C 249.811 147.377,247.430 146.324,245.353 147.779 M40.678 148.170 C 33.334 149.474,21.952 152.281,14.559 154.612 C 11.632 155.534,11.548 155.842,13.188 159.598 C 16.816 167.904,24.496 178.629,30.107 183.227 L 31.855 184.659 34.173 183.487 C 40.911 180.079,52.206 175.798,59.569 173.860 C 61.953 173.233,63.963 172.660,64.036 172.587 C 64.109 172.515,62.697 171.940,60.898 171.310 C 53.668 168.780,42.672 164.252,42.672 163.806 C 42.672 163.540,47.532 163.941,53.878 164.730 C 62.001 165.740,61.939 165.743,60.219 164.425 C 57.679 162.479,50.215 154.984,47.790 151.944 C 46.478 150.299,45.150 148.639,44.840 148.255 C 44.529 147.871,44.139 147.576,43.972 147.598 C 43.805 147.621,42.323 147.878,40.678 148.170 M189.613 149.334 C 187.802 151.145,188.948 153.938,191.501 153.938 C 194.044 153.938,195.160 150.750,193.167 149.181 C 191.787 148.096,190.809 148.138,189.613 149.334 M213.214 149.181 C 211.145 150.809,212.229 153.938,214.863 153.938 C 215.372 153.938,216.229 153.498,216.768 152.959 C 219.245 150.482,215.978 147.008,213.214 149.181 M169.292 161.182 C 166.405 162.749,167.159 166.301,170.378 166.301 C 171.807 166.301,173.081 165.015,173.081 163.571 C 173.081 161.720,170.869 160.325,169.292 161.182 M149.594 163.869 C 146.919 166.367,148.661 170.688,152.343 170.688 C 153.642 170.688,154.251 170.436,155.165 169.522 C 157.702 166.986,155.931 162.712,152.343 162.712 C 151.226 162.712,150.509 163.014,149.594 163.869 M196.864 166.555 C 194.543 168.876,196.223 173.480,199.391 173.480 C 202.812 173.480,204.723 170.462,203.186 167.490 C 202.001 165.197,198.708 164.710,196.864 166.555 M216.812 167.828 C 215.977 168.751,215.958 170.837,216.778 171.656 C 218.435 173.314,221.735 171.946,221.735 169.602 C 221.735 167.447,218.282 166.203,216.812 167.828 M313.858 168.496 C 302.834 170.245,293.208 173.325,282.512 178.527 C 277.254 181.084,277.361 180.948,277.927 184.319 C 278.159 185.705,278.562 188.412,278.821 190.335 L 279.292 193.830 280.524 193.626 C 295.077 191.209,326.740 191.622,345.364 194.472 C 354.677 195.897,354.670 196.002,345.165 197.392 C 332.355 199.266,318.680 200.244,292.921 201.129 L 279.362 201.595 279.085 205.772 C 278.933 208.069,278.862 210.002,278.929 210.069 C 279.166 210.306,296.505 215.049,305.683 217.387 C 325.185 222.354,349.377 216.290,377.767 199.316 C 383.147 196.099,382.956 196.467,380.790 193.502 C 366.618 174.101,340.362 164.292,313.858 168.496 M242.057 168.713 C 239.854 169.563,239.003 172.908,240.504 174.817 C 242.903 177.867,247.657 176.295,247.657 172.450 C 247.657 169.422,244.932 167.603,242.057 168.713 M172.483 172.037 C 168.858 173.751,167.099 176.503,167.099 180.459 C 167.099 189.668,178.728 193.134,183.882 185.460 C 188.950 177.913,180.672 168.166,172.483 172.037 M140.560 173.262 C 138.139 175.683,141.448 179.228,144.278 177.246 C 144.936 176.785,145.165 176.224,145.165 175.075 C 145.165 172.412,142.471 171.352,140.560 173.262 M192.759 175.472 C 191.575 175.950,191.161 178.002,191.994 179.272 C 193.421 181.450,196.670 180.580,196.933 177.950 C 197.154 175.741,195.107 174.525,192.759 175.472 M255.894 178.596 C 254.314 180.342,255.551 183.051,257.929 183.051 C 260.153 183.051,261.458 180.698,260.254 178.861 C 259.436 177.611,256.923 177.459,255.894 178.596 M222.561 178.964 C 217.619 181.483,218.817 188.313,224.308 188.932 C 229.985 189.572,232.368 181.639,227.279 179.043 C 225.398 178.083,224.323 178.065,222.561 178.964 M72.183 180.051 C 56.723 182.612,39.774 189.262,22.632 199.493 C 17.280 202.687,17.494 202.332,19.399 204.855 C 39.261 231.168,76.942 238.852,110.780 223.488 C 111.938 222.963,112.983 222.532,113.104 222.532 C 113.426 222.532,122.156 218.124,122.687 217.693 C 123.008 217.432,123.029 216.835,122.758 215.642 C 122.548 214.716,122.134 212.014,121.839 209.637 C 121.543 207.261,121.242 205.264,121.169 205.200 C 121.096 205.136,117.268 205.432,112.662 205.857 C 101.588 206.879,80.778 206.968,70.389 206.038 C 54.988 204.658,45.577 203.095,48.696 202.434 C 51.587 201.821,61.429 200.520,68.395 199.829 C 79.802 198.699,105.517 197.397,116.297 197.404 L 121.127 197.408 121.410 193.183 C 121.758 188.000,123.402 189.140,110.269 185.460 C 106.421 184.382,97.127 181.964,92.323 180.793 C 87.231 179.551,77.391 179.188,72.183 180.051 M153.394 191.455 C 152.072 192.495,151.992 194.258,153.216 195.398 C 154.382 196.485,155.756 196.424,156.947 195.232 C 159.537 192.642,156.283 189.182,153.394 191.455 M200.824 191.562 C 199.539 192.848,199.525 193.978,200.779 195.232 C 203.144 197.597,206.850 194.388,204.830 191.726 C 203.881 190.476,201.988 190.399,200.824 191.562 M130.315 192.988 C 127.451 195.548,129.105 199.801,132.965 199.801 C 135.451 199.801,136.790 198.471,136.790 196.000 C 136.790 192.226,133.093 190.506,130.315 192.988 M248.424 192.990 C 247.524 193.890,247.258 194.520,247.258 195.751 C 247.258 200.871,254.431 201.392,255.111 196.322 C 255.601 192.663,251.029 190.385,248.424 192.990 M233.561 194.149 C 232.038 195.833,233.364 198.604,235.693 198.604 C 238.009 198.604,239.209 196.227,237.864 194.306 C 237.065 193.166,234.535 193.073,233.561 194.149 M171.653 196.544 C 168.162 198.732,169.542 203.868,173.622 203.868 C 177.265 203.868,179.136 200.025,176.770 197.400 C 175.345 195.820,173.343 195.485,171.653 196.544 M191.139 202.999 C 189.123 203.810,189.556 207.297,191.749 207.926 C 194.590 208.741,196.656 205.222,194.385 203.436 C 193.234 202.531,192.536 202.437,191.139 202.999 M156.167 208.605 C 153.292 212.021,157.100 216.833,161.059 214.786 C 164.702 212.902,163.258 207.378,159.123 207.378 C 157.465 207.378,157.057 207.547,156.167 208.605 M137.616 209.625 C 136.621 210.890,136.587 211.483,137.434 212.776 C 138.707 214.719,142.772 213.494,142.772 211.167 C 142.772 210.006,141.120 208.574,139.781 208.574 C 138.810 208.574,138.216 208.863,137.616 209.625 M216.881 208.988 C 215.862 209.582,215.564 211.616,216.325 212.778 C 217.135 214.014,219.653 214.160,220.676 213.029 C 222.833 210.646,219.720 207.331,216.881 208.988 M199.202 210.528 C 195.080 212.311,196.383 218.146,200.904 218.146 C 205.709 218.146,206.122 210.983,201.353 210.360 C 200.609 210.263,199.641 210.338,199.202 210.528 M253.076 213.789 C 250.081 217.349,254.260 222.462,258.037 219.859 C 259.574 218.799,259.994 218.067,260.007 216.420 C 260.037 212.868,255.349 211.089,253.076 213.789 M366.085 215.425 C 357.870 219.340,349.211 222.616,341.410 224.760 C 338.686 225.508,336.408 226.171,336.347 226.232 C 336.285 226.294,337.437 226.762,338.905 227.274 C 347.092 230.126,356.113 233.757,357.527 234.767 C 358.460 235.434,357.359 235.361,346.920 234.070 C 338.235 232.995,338.494 232.935,341.455 235.351 C 345.114 238.337,349.560 242.926,353.038 247.306 L 356.085 251.143 359.199 250.639 C 364.817 249.729,374.388 247.601,378.863 246.267 C 385.919 244.163,387.893 243.503,388.301 243.115 C 390.097 241.402,378.562 223.096,371.814 216.949 C 368.514 213.943,368.950 214.059,366.085 215.425 M231.835 215.407 C 223.397 216.895,221.461 228.063,228.885 232.428 C 231.606 234.027,235.587 233.974,238.284 232.303 C 246.949 226.934,241.874 213.638,231.835 215.407 M180.060 222.353 C 178.444 223.180,177.866 224.031,177.866 225.581 C 177.866 230.016,183.343 231.665,185.379 227.843 C 187.240 224.347,183.567 220.556,180.060 222.353 M275.179 224.842 C 274.690 226.313,273.673 228.936,272.919 230.669 C 271.344 234.292,271.169 233.948,275.573 235.898 C 293.620 243.888,313.529 255.905,328.315 267.733 C 335.812 273.729,335.801 273.749,326.900 270.219 C 312.456 264.491,296.618 256.719,275.846 245.165 C 271.500 242.748,267.804 240.929,267.633 241.123 C 266.696 242.186,263.210 247.581,263.210 247.969 C 263.210 248.755,285.585 270.762,288.880 273.216 C 302.005 282.993,333.719 290.008,356.294 288.127 L 359.721 287.842 359.721 286.444 C 359.721 284.193,357.850 275.594,356.523 271.744 C 346.462 242.561,318.602 224.743,279.311 222.362 L 276.069 222.166 275.179 224.842 M198.459 227.347 C 196.431 228.942,197.588 232.104,200.199 232.104 C 202.810 232.104,203.968 228.942,201.940 227.347 C 201.362 226.892,200.579 226.520,200.199 226.520 C 199.820 226.520,199.037 226.892,198.459 227.347 M123.031 230.322 C 121.934 230.629,118.883 231.431,116.251 232.105 C 110.866 233.485,100.034 236.509,96.112 237.729 C 81.080 242.404,64.192 258.894,49.357 283.380 C 46.946 287.359,43.868 292.922,43.868 293.301 C 43.868 293.965,52.665 297.120,57.827 298.307 C 87.402 305.110,118.303 290.065,139.407 258.588 C 142.922 253.345,142.824 254.026,140.460 251.277 C 139.407 250.054,137.692 247.931,136.648 246.560 C 134.334 243.522,135.383 243.315,128.473 248.177 C 121.276 253.240,118.529 255.023,111.665 259.089 C 106.617 262.079,103.815 263.632,96.510 267.488 C 88.721 271.601,70.536 279.243,69.945 278.653 C 68.730 277.437,100.199 255.601,122.278 242.338 L 130.662 237.302 128.864 233.506 C 126.851 229.254,126.851 229.254,123.031 230.322 M149.640 232.725 C 148.554 233.485,148.398 236.098,149.389 236.920 C 150.236 237.623,152.612 237.592,153.319 236.869 C 155.741 234.397,152.486 230.731,149.640 232.725 M38.408 233.409 C 33.658 237.047,24.756 245.317,19.449 251.021 L 15.020 255.780 16.506 257.065 C 23.088 262.755,40.556 270.788,46.346 270.788 C 46.658 270.788,48.427 268.685,50.276 266.115 C 54.822 259.800,59.762 253.805,64.585 248.754 C 68.598 244.550,69.185 243.756,67.915 244.243 C 65.886 245.022,46.364 247.893,45.945 247.474 C 45.668 247.196,53.259 243.702,60.319 240.857 C 63.661 239.510,63.603 239.455,57.827 238.465 C 53.148 237.664,46.792 235.688,41.399 233.359 L 39.528 232.551 38.408 233.409 M167.540 240.040 C 164.865 242.539,166.607 246.859,170.289 246.859 C 171.588 246.859,172.197 246.608,173.111 245.694 C 176.810 241.995,171.364 236.468,167.540 240.040 M245.353 240.302 C 244.460 240.927,244.133 242.952,244.772 243.908 C 246.488 246.479,250.568 244.476,249.805 241.437 C 249.371 239.708,247.047 239.116,245.353 240.302 M210.032 243.202 C 208.475 244.923,209.689 247.669,211.996 247.644 C 214.325 247.619,215.626 245.350,214.392 243.467 C 213.573 242.218,211.061 242.065,210.032 243.202 M192.724 245.250 C 188.234 246.330,187.640 252.871,191.836 255.041 C 195.316 256.840,199.408 254.434,199.396 250.595 C 199.384 246.582,196.568 244.326,192.724 245.250 M180.003 254.035 C 177.639 254.988,177.105 258.522,179.032 260.449 C 182.294 263.711,187.296 260.056,185.366 255.821 C 184.543 254.014,182.083 253.195,180.003 254.035 M250.833 260.147 C 248.960 261.722,246.815 263.477,246.065 264.045 L 244.701 265.080 246.251 267.236 C 259.925 286.263,271.461 307.403,278.192 325.770 C 280.033 330.794,279.999 330.814,276.588 326.693 C 267.353 315.535,253.661 295.239,241.619 274.856 C 239.785 271.752,238.175 269.208,238.039 269.203 C 237.904 269.197,236.082 270.003,233.991 270.994 L 230.188 272.795 232.157 280.466 C 233.239 284.684,234.465 289.302,234.881 290.728 C 235.296 292.154,236.111 295.025,236.692 297.109 C 239.322 306.550,240.557 309.529,244.200 315.218 C 252.269 327.817,269.260 342.198,289.392 353.467 C 294.322 356.227,294.144 356.224,295.311 353.585 C 309.573 321.336,295.196 284.220,259.101 260.107 C 253.966 256.676,254.964 256.671,250.833 260.147 M222.510 258.363 C 220.409 260.064,222.055 263.565,224.706 263.035 C 226.332 262.710,226.962 261.993,227.007 260.414 C 227.075 258.023,224.424 256.813,222.510 258.363 M139.338 274.477 C 130.282 283.613,126.841 287.363,125.155 289.930 C 116.292 303.427,111.689 323.883,111.671 349.850 L 111.665 358.923 113.497 358.923 C 118.601 358.923,129.370 355.765,136.293 352.237 C 159.916 340.200,174.240 315.514,177.074 281.954 C 177.673 274.852,177.874 275.509,174.776 274.422 C 173.295 273.903,170.684 272.873,168.974 272.133 C 167.263 271.393,165.807 270.788,165.738 270.788 C 165.669 270.788,165.117 271.909,164.511 273.280 C 156.070 292.378,142.642 314.623,130.940 328.894 C 127.265 333.375,126.577 334.018,127.021 332.552 C 130.057 322.526,142.944 295.668,155.396 273.416 C 159.376 266.304,159.314 267.295,155.922 264.998 C 154.381 263.955,153.024 262.946,152.907 262.757 C 152.267 261.721,150.271 263.446,139.338 274.477 M213.744 277.356 C 212.310 277.646,209.928 278.014,208.451 278.172 L 205.764 278.460 205.970 279.708 C 208.323 293.976,207.716 335.130,204.997 345.763 C 204.800 346.530,204.517 348.190,204.368 349.452 C 204.085 351.830,203.634 352.399,203.260 350.847 C 201.224 342.393,199.375 319.810,198.585 293.719 C 198.339 285.603,198.067 278.892,197.980 278.805 C 197.750 278.574,189.733 277.930,189.537 278.127 C 189.445 278.218,189.043 279.521,188.642 281.021 C 188.241 282.521,186.647 288.469,185.100 294.239 C 180.108 312.858,179.611 316.585,180.841 326.221 C 182.807 341.639,191.315 363.258,201.909 379.761 C 203.461 382.178,203.505 382.171,207.451 378.937 C 232.933 358.052,239.096 323.999,223.909 287.999 C 219.110 276.623,218.825 276.325,213.744 277.356 M305.153 291.426 C 305.478 291.810,307.274 293.918,309.145 296.112 C 312.826 300.429,319.103 308.746,318.862 308.988 C 318.567 309.282,311.243 304.115,306.313 300.134 C 304.330 298.533,303.433 298.001,303.592 298.523 C 303.723 298.952,304.489 301.186,305.295 303.490 C 306.892 308.053,308.537 315.304,308.933 319.517 L 309.183 322.185 313.016 323.591 C 321.736 326.790,335.201 330.636,339.820 331.249 C 342.362 331.586,342.373 331.539,342.373 319.840 C 342.373 309.813,341.802 305.492,339.634 299.110 L 338.755 296.524 333.371 296.036 C 324.789 295.257,312.058 292.969,307.277 291.346 C 304.894 290.537,304.416 290.555,305.153 291.426 M96.736 304.342 C 91.731 306.145,86.778 307.332,81.374 308.022 L 77.604 308.504 76.677 310.882 C 72.083 322.673,67.416 340.593,68.801 341.124 C 73.797 343.041,91.998 341.780,100.736 338.912 C 103.251 338.086,103.290 338.051,103.290 336.628 C 103.290 331.692,105.978 315.147,107.910 308.197 C 108.440 306.290,108.873 304.535,108.873 304.299 C 108.873 304.062,106.854 305.591,104.387 307.697 C 99.192 312.130,90.970 318.421,90.710 318.161 C 90.487 317.938,93.623 313.372,97.407 308.410 C 98.997 306.324,100.628 304.184,101.030 303.655 C 101.942 302.454,102.000 302.445,96.736 304.342 M245.005 331.593 C 245.424 332.685,247.574 345.658,247.849 348.754 C 247.985 350.289,248.181 351.949,248.283 352.443 C 248.665 354.280,247.759 353.244,246.364 350.249 C 244.017 345.211,240.877 337.864,240.877 337.410 C 240.877 335.838,240.067 337.498,239.672 339.880 C 238.614 346.256,236.643 352.617,233.455 359.948 C 233.138 360.678,240.640 369.138,248.780 377.231 L 256.565 384.971 257.506 383.812 C 263.775 376.081,269.183 364.801,271.239 355.165 C 271.698 353.012,271.680 352.764,271.036 352.373 C 265.991 349.309,255.744 341.075,249.923 335.407 C 245.513 331.113,244.527 330.348,245.005 331.593 M172.833 336.873 C 172.041 340.117,165.553 356.242,164.694 357.101 C 164.434 357.361,164.370 356.889,164.508 355.717 C 165.307 348.897,166.301 339.586,166.301 338.928 C 166.301 338.381,165.578 339.034,163.948 341.053 C 160.937 344.783,155.838 349.707,151.652 352.927 C 149.023 354.949,148.407 355.619,148.557 356.290 C 148.660 356.751,149.210 359.551,149.779 362.512 C 151.612 372.048,155.956 388.036,156.714 388.036 C 157.690 388.036,164.420 384.822,168.295 382.504 C 174.611 378.728,185.978 368.922,185.325 367.813 C 184.886 367.067,182.139 361.031,181.478 359.357 C 181.080 358.351,180.125 355.998,179.356 354.129 C 177.786 350.312,174.940 341.465,174.261 338.289 C 173.736 335.836,173.212 335.317,172.833 336.873 " stroke="none" fill="#000" fill-rule="evenodd"></path>
  </g>
</svg>
