<svg height="162.435897" viewBox="0 0 400 162.43589744" width="400" xmlns="http://www.w3.org/2000/svg"><path d="m193.235 2.435c.146 3.049.762 7.165 1.47 9.815.098.367.232.929.299 1.25.066.321.182.731.257.912.091.218-.144.093-.698-.375-.459-.387-.923-.704-1.032-.704s-.198-.058-.198-.13-.431-.328-.958-.569c-4.092-1.871-8.537-.878-8.541 1.908-.001.553.047.558.804.091.816-.504 4.08-.541 5.218-.06 2.002.848 3.426 1.537 3.715 1.799.177.16.458.334.625.387s.304.167.304.252c0 .086.074.156.165.156.09 0 .326.131.524.291 1.135.923 1.448 1.247 1.528 1.584.102.428.538 1.636.858 2.375 1.135 2.619 1.178 2.825.491 2.344-1.817-1.273-7.566-1.709-7.566-.574 0 .08-.075.146-.167.146-.414 0-1.693 2.03-1.438 2.284.055.055.645-.062 1.311-.259 3.327-.986 9.888 1.466 11.214 4.191.171.352.559 1.016.862 1.476.303.461.551.863.551.894s-.468-.136-1.041-.371c-3.15-1.291-6.756-.327-7.451 1.991-.245.818-.178.889.52.566 1.565-.725 3.686-.698 6.018.077.873.291 1.171.418 1.954.837 1.618.864 4.244 2.864 4.911 3.738.251.329.745.911 1.097 1.292.784.849.831.819-.674.43-4.711-1.217-9.114.117-10.061 3.048-.348 1.076-.347 1.748 0 1.943.21.117.064.199-.625.354-.998.224-2.104.558-3.481 1.05-1.852.661-4.075 1.741-4.626 2.247-.286.262-1.056.458-3.124.798-.917.15-1.881.313-2.142.361-.448.082-.47.06-.374-.388 2.664-12.51-.935-26.777-9.84-39.007-2.059-2.828-5.697-7.227-6.144-7.431-.347-.158-6.982 8.061-9.948 12.324-5.413 7.778-9.753 16.261-11.851 23.161l-.412 1.355 1.247 1.562c4.562 5.71 7.637 12.965 8.144 19.212l.11 1.36-1.228 1.798-1.229 1.798-.106-2.303c-.734-15.881-13.168-30.121-32.711-37.46-1.356-.509-1.213-.592-1.611.932-1.568 5.999-2.143 13.195-1.436 17.971.3 2.024.321 1.946-.406 1.52-.522-.306-.72-.319-2.73-.182-1.191.081-3.941.102-6.11.046-4.198-.107-4.024-.129-5.973.753-2.248 1.017-4.944 3.865-7.207 7.616-.166.275-.346.631-.4.791-.136.403-.411.368-1.431-.18-.483-.26-1.141-.569-1.462-.688-2.767-1.024-4.989-1.664-5.797-1.669-.925-.007-.764-.942.484-2.804.264-.395.48-.754.48-.799 0-.14.373-.565 1.583-1.803 1.336-1.366 2.461-2.007 4.149-2.362.641-.135 1.194-.274 1.229-.308.111-.112-.528-.762-.748-.762-.118 0-.213-.068-.213-.151 0-.266-1.529-.682-2.505-.682-1.238 0-2.756.52-3.622 1.242-.488.406-1.54 1.43-1.54 1.499 0 .041-.172.261-.382.488-.679.732-1.87 3.364-2.027 4.479-.117.832-.424 1.097-.424.366 0-.235-.083-.756-.185-1.158-.204-.812.321-2.87 1.127-4.415.215-.411.391-.836.391-.944s.056-.221.125-.251c.069-.031.274-.356.455-.723.429-.864 1.903-2.736 2.614-3.318.952-.779 1.043-.841 1.641-1.122 1.378-.646 1.881-.81 2.494-.81.822 0 .982-.247.463-.717-2.553-2.309-7.53-.631-9.353 3.155-.171.355-.423.859-.56 1.119-.137.261-.303.674-.368.917-.09.337-.168.08-.326-1.076-.181-1.322-.174-1.601.053-2.146.144-.344.262-.736.262-.872 0-.135.108-.482.24-.771.131-.289.438-1.013.682-1.609.243-.596.51-1.154.593-1.241.084-.087.152-.294.152-.459s.062-.3.138-.3.245-.206.375-.458c.33-.64.433-.769 1.646-2.07 1.496-1.603 2.588-2.215 4.799-2.689 1.169-.251.927-.676-.875-1.537-1.74-.832-4.274-.132-6.181 1.709-.496.479-.902.948-.902 1.042 0 .093-.068.17-.152.17-.083 0-.418.469-.744 1.042-.673 1.183-.665 1.212-.45-1.572.125-1.625.371-2.69.937-4.053.524-1.265 1.251-2.722 1.644-3.299.237-.348.431-.667.431-.709 0-.083.31-.425 1.474-1.626 1.363-1.406 3.386-2.45 4.749-2.45.546 0 .576-.328.069-.764-1.944-1.675-5.027-1.271-7.336.961-1.349 1.304-1.32 1.649-.352-4.113.565-3.359 1.618-8.368 2.155-10.25.715-2.506.416-2.552-.795-.125-.914 1.829-1.178 2.41-1.955 4.291-.209.504-.483 1.163-.611 1.464-.127.301-.231.655-.231.786 0 .132-.104.485-.231.786-.27.637-.811 2.351-1.121 3.548-.16.618-.241.747-.313.5-.109-.376-.449-1.167-.715-1.667-.098-.183-.334-.63-.524-.993-1.596-3.044-5.798-4.898-7.92-3.493-1.086.718-1.033.906.324 1.149 2.001.359 4.459 2.323 5.863 4.686.656 1.103 1.413 2.527 1.537 2.892.048.142.203.559.343.926.274.713.28.635-.409 4.916l-.282 1.75-.383-.75c-1.347-2.635-4.85-4.625-7.056-4.008-1.103.309-2.221 1.342-1.452 1.342 1.312 0 3.775 1.374 5.115 2.853.261.288.605.664.766.835.16.171.291.35.291.397 0 .046.246.44.545.875 1.377 1.995 1.812 3.254 1.868 5.403l.052 1.971-.489-.615c-2.428-3.055-5.89-4.113-7.661-2.342l-.521.521 1.062.297c2.051.574 2.537.86 4.061 2.395 1.642 1.654 1.931 2.106 3.662 5.743.415.872 1.216 4.552.917 4.214-.063-.072-.297-.405-.518-.739-1.165-1.761-7.238-7.975-7.794-7.975-.101 0-.184-.062-.184-.138 0-.077-.356-.392-.791-.702-.436-.31-.817-.623-.848-.695-.03-.072-.161-.132-.291-.132s-.236-.056-.237-.125c0-.068-.356-.348-.791-.621-.436-.272-.867-.557-.958-.633-.509-.417-2.636-1.706-4.667-2.828-1.751-.967-5.832-2.89-6.477-3.052-.244-.061-.484-.178-.534-.259-.051-.082-.204-.148-.34-.148-.137 0-.559-.15-.938-.334-.38-.183-.811-.333-.959-.333s-.34-.064-.427-.142c-.087-.077-.721-.308-1.408-.511-.688-.203-1.627-.514-2.087-.691-.46-.178-.941-.323-1.069-.323-.127 0-.613-.107-1.08-.239-4.57-1.288-8.098-1.814-8.098-1.207-.003 4.184 1.61 13.111 2.936 16.244.127.301.231.69.231.865s.067.359.148.409c.082.051.2.296.262.546.201.801 1.427 3.49 2.488 5.457.427.792.429.812.065.498-2.885-2.486-6.725.273-5.641 4.053.189.661.031.683-.61.083-.768-.719-.838-1.447-.626-6.542.194-4.656-1.616-7.184-4.683-6.54-.85.178-1.872.771-1.894 1.098-.005.077-.177.377-.383.666-.543.763-.534 3.882.016 5.34.466 1.236.475 1.232-.814.339-1.638-1.134-2.006-2.502-1.541-5.736.389-2.706.011-5.178-1.028-6.726-1.415-2.106-4.899-1.806-5.923.509-.374.844-.481 3.647-.171 4.462.164.431.16.43-.519-.114-1.214-.973-1.507-3.179-.751-5.658 1.47-4.822-.023-8.807-3.301-8.807-2.461 0-3.402 1.297-3.418 4.709-.005 1.077-.048 1.958-.095 1.958-.174 0-1.071-1.091-1.076-1.308-.003-.124-.106-.461-.23-.75-.676-1.581-.787-2.234-.837-4.953-.091-4.879-1.441-7.274-4.202-7.457-4.965-.329-4.659 7.369.482 12.142l.636.59-1.176-.163c-3.25-.449-5.178.793-5.178 3.335 0 3.223 4.045 4.978 8.751 3.795 1.451-.364 4.18.134 4.884.891l.429.461-1.407.095c-4.942.335-6.701 4.506-2.851 6.762 1.265.742 5.943.726 7.087-.023.664-.435 3.157-.527 3.538-.13.175.183.715.681 1.2 1.106l.88.774h-.576c-3.384 0-5.289 2.512-3.957 5.219 1.054 2.139 5.422 2.808 8.819 1.349 1.17-.502 3.919-.32 4.831.321.434.306.898.592 1.03.636.133.044-.13.182-.584.306-4.268 1.173-4.07 6.223.274 6.978 1.729.301 4.898-.232 6.205-1.042 1.45-.9 3.472-.905 5.367-.015.915.43 1.963.912 2.33 1.07 1.98.857 1.967.841.583.711-4.283-.401-10.872.074-14.916 1.075-2.526.626-6.292 1.787-7.5 2.314-.367.16-.817.351-1 .425-1.118.451-2.044.856-2.334 1.02-.183.105-.689.364-1.125.578-3.028 1.484-3.791 1.913-3.791 2.127.002.414 5.27 5.901 7.215 7.515.439.364.978.823 1.197 1.019s.872.719 1.451 1.163c.579.443 1.128.864 1.22.936 1.403 1.101 1.91 1.461 2.052 1.461.093 0 .195.057.226.125.086.195 1.263 1.042 1.447 1.042.09 0 .189.056.219.125.053.117 1.376.975 2.306 1.494.229.128.642.376.917.551.722.458 6.507 3.33 6.708 3.33.094 0 .385.112.648.249.262.137.604.249.759.25s.324.069.376.153c.051.084.75.354 1.551.601.802.247 1.758.547 2.124.666 7.707 2.505 17.391 2.496 25.268-.023.73-.234.8-.227 1.404.129l.635.375-1.003.925c-3.189 2.942-3.387 3.47-3.387 9.028v3.963l-.792.398c-.435.219-1.391.724-2.125 1.122-.733.398-1.821.973-2.416 1.276-.596.304-1.196.623-1.334.709-.137.085-.606.317-1.04.515-.435.198-.833.428-.885.512-.052.083-.221.154-.376.156s-.469.15-.699.329c-.229.18-.513.328-.631.33-.722.012-2.748 2.021-3.206 3.177-.818 2.066.881 5.223 3.328 6.183l.408.16-.601.534c-.938.832-1.286 1.124-2.714 2.278-.734.592-1.371 1.124-1.417 1.183-.046.058-.533.468-1.083.91-.55.443-1.038.849-1.084.904-.045.055-.409.354-.808.665-1.879 1.463-2.025 1.652-2.025 2.633v.903l1.296 1.278c1.285 1.267 3.078 2.362 3.867 2.362.185 0 .337.046.337.101 0 .105-.992 1.419-1.182 1.566-.059.046-.581.683-1.159 1.417-.578.733-1.096 1.37-1.151 1.416s-.359.421-.675.834c-.316.412-.616.787-.666.833-.051.046-.351.421-.667.833-.316.413-.619.788-.673.834-.054.045-.765.908-1.58 1.916-2.575 3.188-2.828 3.498-2.918 3.584-.048.045-.346.42-.662.833-.316.412-.652.804-.746.869-.408.283-.197 1.971.3 2.398l.47.405 9.464-.044c8.368-.04 9.447-.016 9.329.205-.603 1.132-.817 2.253-.817 4.279 0 3.305.515 3.793 3.365 3.188.853-.181 1.851-.386 2.218-.455s1.117-.242 1.667-.385 1.6-.385 2.333-.538 1.763-.386 2.289-.517c1.479-.369 1.378-.526 1.378 2.14v2.378l.556.867c1.296 2.021 4.563 2.185 7.503.375.446-.274.875-.498.953-.498.079 0 .745-.292 1.482-.648.736-.357 1.789-.848 2.339-1.093.55-.244 1.3-.585 1.667-.758.366-.173 1.191-.553 1.833-.845.642-.291 1.692-.773 2.333-1.069.642-.297 1.579-.729 2.084-.962.504-.233 1.275-.591 1.714-.795.96-.448.859-.536 1.372 1.184.777 2.602 1.39 3.507 2.743 4.048 2.007.803 3.241-.205 7.924-6.479.684-.917 1.303-1.742 1.376-1.833.072-.092.31-.467.528-.834.218-.366.528-.816.688-1 .16-.183.466-.656.681-1.051.609-1.12.724-1.314.919-1.556.215-.268 1.313-2.428 1.454-2.862.106-.327.434-.233.434.125 0 .892 1.519 4.342 2.452 5.57 1.632 2.148 4.384 2.035 5.898-.241 1.043-1.567 4.253-7.876 5.42-10.651 1.045-2.485 2.397-6.389 2.397-6.922 0-.148.12-.623.268-1.056l.268-.788.357.482c.909 1.229 2.149 2.2 2.807 2.2.534 0 2.966-1.096 2.966-1.337 0-.089.112-.163.248-.163.356 0 3.046-2.708 4.056-4.083.472-.642.926-1.249 1.01-1.35.184-.22 2.52-4.221 2.52-4.315 0-.036.375-.854.833-1.819.458-.964.833-1.886.833-2.047 0-.407.301.062.821 1.281 1.217 2.85 1.515 3.499 2.715 5.917 1.854 3.737 2.285 4.464 4.51 7.61 1.769 2.502 7.101 7.64 7.929 7.64.09 0 .189.058.22.128.107.249 1.629 1.158 3.251 1.941.901.435 1.85.898 2.11 1.028.259.13.575.236.702.236s.477.104.778.23c.301.127.838.322 1.194.435.355.113 1.444.741 2.418 1.395.975.655 2.109 1.375 2.521 1.6.411.226 1.048.577 1.415.781 1.28.711 3.993 1.951 5.333 2.437 1.426.517 1.879.666 3.167 1.041 6.046 1.764 11.855 1.809 16.916.132.951-.315 3.89-1.567 4-1.704.046-.057.271-.199.5-.315.713-.362 2.615-1.607 2.834-1.854.046-.052.533-.462 1.083-.912.55-.449 1.527-1.358 2.171-2.021l1.17-1.205.298.605c.352.717 1.024 1.522 1.27 1.522.096 0 .174.061.174.137 0 .414 1.628 1.163 4.084 1.878 1.774.517 8.795.572 10.5.083.55-.158 1.283-.358 1.63-.445s.76-.223.917-.303.698-.319 1.203-.532c.504-.212 1.035-.483 1.179-.602.145-.119.346-.216.447-.216s.282-.094.403-.209c.122-.114.558-.391.971-.614.412-.224.825-.489.916-.589.092-.1.579-.459 1.084-.797.504-.338 1.105-.785 1.335-.994.231-.209.854-.747 1.386-1.194 1.306-1.1 3.322-3.637 4.268-5.371.195-.357.546-.987.78-1.399.369-.649 1.367-2.516 2.405-4.5.292-.557 1.746-3.651 2.252-4.792.682-1.537.806-1.717.971-1.414.087.159.201.327.255.373.054.045.244.346.422.666 1.139 2.05 5.039 6.5 5.695 6.5.127 0 .231.061.231.135 0 .163 1.902 1.126 2.541 1.286.763.192 1.199-.031 2.462-1.257.665-.646 1.232-1.151 1.26-1.122.028.028.142.424.252.88.269 1.116 1.317 4.54 1.58 5.162.116.275.486 1.175.822 2 1.314 3.223 4.38 9.373 5.567 11.166 2.09 3.16 5.685 1.989 7.421-2.416.162-.413.4-.997.528-1.298s.237-.676.241-.833.1-.503.214-.769l.206-.483.733 1.483c.403.816.781 1.52.84 1.566s.289.421.512.833c.905 1.676 5.282 7.859 6.077 8.584.1.092.511.579.913 1.083 2.27 2.851 4.22 3.368 5.917 1.569.685-.726 1.92-3.706 1.915-4.62-.001-.278.033-.282.457-.048.252.139.983.488 1.625.775 2.338 1.048 2.673 1.2 3 1.37.482.25.743.374 1.583.752 1.017.457 2.886 1.308 4 1.822 2.679 1.235 3.57 1.655 5.167 2.439 5.026 2.465 8.421.367 7.674-4.743-.239-1.637-.265-1.608 1.121-1.278.617.147 1.722.393 2.455.548.733.154 1.896.417 2.583.584.688.166 1.85.429 2.584.584.733.154 1.618.341 1.966.414.831.176 1.684-.072 2.109-.613.732-.93.376-6.019-.5-7.138-.087-.111 3.071-.152 9.422-.122l9.552.044.452-.537c.762-.905-.072-3.492-1.269-3.941-.082-.03-.149-.161-.149-.291s-.06-.236-.134-.236-.531-.522-1.015-1.16c-.485-.637-1.049-1.331-1.254-1.541-.205-.211-.694-.814-1.088-1.341s-.782-.958-.862-.958c-.081 0-.147-.109-.147-.242s-.096-.302-.212-.375c-.117-.073-.62-.658-1.117-1.3s-1.04-1.302-1.207-1.468c-.167-.165-.724-.859-1.237-1.541-.514-.683-1-1.241-1.081-1.241-.08 0-.146-.07-.146-.156s-.225-.403-.5-.704c-.608-.665-.623-.807-.088-.807.45 0 2.558-1.058 2.856-1.434.102-.128.239-.232.304-.232.108 0 .621-.536 1.583-1.651.735-.853.5-2.023-.596-2.961-.517-.443-1.059-.936-1.203-1.097-.145-.16-.359-.291-.476-.291-.118 0-.213-.066-.213-.147s-.411-.456-.912-.835c-.502-.379-1.045-.822-1.208-.984-.164-.163-.826-.721-1.472-1.24s-1.381-1.135-1.633-1.369c-.253-.234-.488-.425-.524-.425-.363 0-1.108-1.001-.823-1.107 1.712-.633 3.738-3.194 3.738-4.725 0-.724-.6-2.502-.845-2.502-.085 0-.155-.071-.155-.158 0-.219-.75-1.008-.959-1.008-.095 0-.208-.094-.253-.209-.044-.114-1.646-.996-3.559-1.958-1.913-.963-3.516-1.793-3.562-1.845-.046-.053-.571-.341-1.167-.642-.596-.3-1.571-.794-2.166-1.099l-1.084-.553-.007-3.972c-.01-5.505-.169-5.949-3.128-8.755-1.33-1.262-1.345-1.285-.942-1.458.226-.096.538-.266.693-.377.227-.163.401-.146.881.083.329.156.721.285.872.285s.767.145 1.37.324c6.381 1.887 16.815 1.622 23.1-.588.37-.13.799-.236.953-.236s.527-.104.828-.231.997-.397 1.547-.599c1.489-.549 3.702-1.485 4.833-2.046 1.695-.839 1.795-.891 3.167-1.629.733-.394 1.633-.909 2-1.144.941-.604 1.28-.81 1.708-1.038.207-.11.375-.263.375-.34s.076-.14.169-.14c.244 0 3.026-1.958 3.137-2.208.03-.069.164-.125.297-.125s.284-.113.337-.25c.053-.138.194-.25.314-.25s.244-.057.274-.127c.031-.069.393-.387.806-.706.412-.318.836-.655.941-.748s.665-.582 1.243-1.086c2.634-2.295 3.58-3.208 5.629-5.434 2.433-2.644 2.582-2.19-1.397-4.224-1.586-.811-2.383-1.175-4-1.828-.183-.074-.633-.265-1-.425-.637-.278-2.936-1.04-5.25-1.741-4.711-1.426-12.028-2.129-17.166-1.648-1.384.13-1.398.147.583-.711.367-.159 1.154-.51 1.75-.78.596-.271 1.368-.621 1.715-.778.916-.415 2.762-.18 4.368.556 3.156 1.446 7.029 1.432 8.432-.03 2.031-2.116.973-5.132-2.089-5.962-.454-.123-.717-.259-.584-.303.132-.044.596-.33 1.03-.636.906-.637 3.712-.825 4.853-.326 2.745 1.2 6.783.937 8.243-.537 2.404-2.427.456-6.026-3.262-6.026h-.623l1.167-1.1 1.167-1.099 1.352.099c.863.062 1.646.232 2.166.469 1.329.606 5.668.566 6.732-.062 1.458-.86 2.094-2.003 1.967-3.536-.072-.86-.814-2.259-1.204-2.268-.085-.002-.272-.103-.417-.225-.43-.362-1.673-.665-3.139-.767l-1.375-.095.388-.45c.639-.741 3.445-1.258 4.878-.898 2.954.742 6.325.157 7.852-1.364l.883-.878v-1.435c0-1.648-.283-2.299-1.248-2.868-1.097-.647-3.581-.864-4.849-.423-.183.063.002-.21.43-.636 4.965-4.944 5.498-11.809.939-12.099-3.043-.194-4.82 2.826-4.738 8.051.038 2.426-.527 4.633-1.499 5.851-.625.783-.617.799-.638-1.392-.031-3.367-1.035-4.709-3.523-4.709-1.116 0-2.44.591-2.681 1.197-.031.078-.143.235-.25.348-.837.887-1.057 4.533-.41 6.789.761 2.651.568 5.008-.497 6.048l-.619.605.057-2.135c.062-2.278-.471-4.018-1.229-4.018-.075 0-.28-.132-.458-.292-.546-.495-2.698-.411-3.489.136-1.92 1.328-2.222 2.751-1.958 9.239.091 2.231-.156 3.105-1.049 3.714-.364.249-.791.571-.948.715-.25.231-.843.541-.843.441 0-.02.161-.449.358-.953 1.121-2.869.271-6.391-1.711-7.09-3.887-1.372-5.885 2.325-5.052 9.347.079.668-.298 3.421-.479 3.497-.018.007-.22.13-.449.273l-.417.259v-1.696c0-3.401-3.155-5.042-5.645-2.937-.2.168-.071-.191.356-.995 1.865-3.508 3.455-8.012 4.439-12.575.645-2.992 1.27-7.977 1.267-10.109v-.609l-1.042.081c-.573.044-1.621.225-2.329.401-.708.175-1.451.319-1.652.319s-.746.108-1.213.239c-.466.132-1.335.366-1.931.52-1.222.317-2.504.714-4.333 1.342-.688.236-1.438.472-1.667.525-.229.052-.663.233-.963.401-.301.169-.676.309-.834.312-.157.003-.432.115-.61.25s-.423.245-.545.245c-.464 0-5.879 2.659-7.969 3.914-1.273.765-1.336.803-2.193 1.321-.442.267-.84.53-.886.584s-.421.323-.833.597c-.413.275-.788.542-.834.595-.046.052-.533.424-1.083.825-.55.402-1.085.809-1.189.905-.105.097-.592.51-1.084.919-1.986 1.652-5.077 4.935-6.837 7.259-1.036 1.369-1.055 1.349-.623-.684.827-3.894 2.931-7.595 5.4-9.5 1.111-.857 3.16-1.735 4.05-1.735.543 0-.698-1.004-1.589-1.284-1.808-.57-3.88.274-5.86 2.386l-1.111 1.186.051-1.686c.14-4.561 3.706-9.324 7.782-10.393 1.248-.327 1.252-.333.635-.905-1.559-1.446-4.467-.887-6.628 1.273-.788.788-1.914 2.316-1.914 2.597 0 .748-.328-.272-.418-1.3-.063-.71-.261-1.988-.442-2.841l-.328-1.55.344-.711c.189-.391.344-.768.344-.838 0-.276 1.165-2.428 1.864-3.445 1.654-2.405 3.465-3.765 5.624-4.223 1.143-.242 1.2-.433.32-1.08-2.673-1.966-7.948 1.356-9.033 5.689-.13.521-.441.62-.441.139 0-.175-.143-.718-.317-1.208-.174-.489-.55-1.64-.836-2.556-.287-.917-.663-2.005-.836-2.417-.173-.413-.479-1.163-.681-1.667-1.422-3.561-3.41-6.789-2.601-4.223.302.957.643 2.339 1 4.057.142.687.405 1.925.582 2.75.502 2.331 1.29 6.981 1.431 8.444.05.519.14 1.082.2 1.25s-.117.027-.393-.313c-2.316-2.849-5.984-3.587-8.258-1.66-.468.396-.358.695.256.695 2.558 0 5.77 2.718 7.485 6.334 1.426 3.008 1.824 4.451 1.766 6.417l-.048 1.627-.567-.897c-1.345-2.129-2.876-3.314-5.181-4.009-1.17-.354-3.072.182-3.929 1.107l-.435.469 1.389.363c3.477.91 6.032 3.752 7.8 8.673.564 1.569.66 2.228.555 3.784l-.098 1.451-.321-.701c-.176-.385-.443-.964-.592-1.284-1.767-3.793-6.217-5.749-8.974-3.945-1.074.703-1.164 1.111-.246 1.111 1.527 0 3.142.885 5.122 2.804.386.374 1.727 2.312 1.727 2.495 0 .096.063.199.141.229.127.05 1.1 2.239 1.692 3.806.327.864.372 2.305.102 3.25-.132.458-.246.677-.254.487-.041-.968-1.112-3.564-2.029-4.92-2.266-3.353-6.249-4.529-8.609-2.543-.75.632-.734.655.633.944 2.783.588 5.335 2.882 6.893 6.198.172.367.377.797.455.956.245.498.16.628-.411.628-.305 0-.886.101-1.292.224-.406.124-1.3.393-1.988.598-.687.205-1.475.471-1.75.591-.275.119-.913.385-1.417.59s-1.064.476-1.245.601c-.5.348-.828.276-1.048-.229-1.35-3.094-5.004-7.03-7.79-8.389l-1.167-.57-5.666-.011c-3.117-.005-5.987-.069-6.378-.14-.577-.104-.822-.063-1.301.22-.325.191-.61.348-.633.348-.024 0 .064-.694.194-1.542.69-4.5.228-11.38-1.156-17.208-.647-2.72-.374-2.581-2.99-1.53-20.054 8.05-31.535 22.137-31.564 38.724l-.006 3.527-.75-.528c-.412-.291-1.031-.677-1.375-.857l-.625-.328v-1.922c0-8.468 2.972-16.708 8.499-23.568l1.194-1.482-.666-2.033c-3.421-10.443-9.774-21.075-19.504-32.641l-1.939-2.305-1.058 1.138c-5.975 6.427-12.261 16.964-13.783 23.104-.11.442-.152.46-.823.359-2.101-.315-4.435 1.211-5.239 3.425-.651 1.792-.898 4.662-.516 5.994.14.486.13.537-.061.332-.57-.61-1.783-2.586-1.923-3.134-1.048-4.085-.893-8.246.392-10.525.233-.413.477-.863.542-1 .191-.401 1.809-2 2.023-2 .108 0 .196-.113.196-.25 0-.401-2.733-.349-3.594.068-1.954.947-3.388 3.786-3.444 6.817-.013.657-.046 1.171-.074 1.142-.129-.129-.92-1.589-1.166-2.152-.15-.344-.337-.625-.414-.625-.078 0-.142-.137-.142-.304s-.105-.635-.233-1.041c-1.505-4.762-.698-9.744 2.013-12.428 1.239-1.227 1.239-1.215.017-1.341-2.812-.29-5.152 1.969-5.727 5.531l-.108.666-.254-.583c-.306-.705-.419-.982-.88-2.167-.428-1.095-.881-2.231-1.164-2.916-.114-.275-.266-.725-.338-1s-.332-1.025-.579-1.667c-.246-.642-.505-1.392-.575-1.667-.071-.275-.204-.687-.295-.916-.092-.229-.297-.867-.457-1.417-.159-.55-.425-1.413-.59-1.917s-.392-1.275-.504-1.712c-.395-1.538-.539-1.09-.424 1.314m-58.812 1.607c-.316.995-1.627 7.644-2.079 10.541-.649 4.163-1.335 11.114-1.343 13.607-.001.381.255.599 1.908 1.631 3.379 2.109 6.598 4.557 9.424 7.166.901.831 1.103.952 1.198.715.062-.157.465-1.26.894-2.452 1.731-4.807 5.334-12.195 7.515-15.414.566-.836.538-.909-1.085-2.836-3.767-4.473-8.675-8.604-14.43-12.146-1.762-1.084-1.898-1.139-2.002-.812m128.922.981c-5.557 3.416-11.206 8.245-14.567 12.452-1.297 1.624-1.263 1.469-.561 2.575 2.847 4.481 6.329 11.766 7.864 16.45.255.779.489 1.446.52 1.481.031.036.692-.537 1.469-1.273 2.458-2.327 5.611-4.719 9.086-6.893 2.088-1.307 1.978-.971 1.685-5.148-.365-5.208-1.142-10.833-2.187-15.834-.277-1.329-.624-2.998-.77-3.708-.319-1.554-.185-1.548-2.539-.102m-126.435 3.71c3.641 7.565 5.991 16.771 6.002 23.517.006 3.701-.134 4.108-.772 2.25-3.786-11.029-6.519-21.937-6.898-27.531l-.105-1.552.361.566c.198.312.834 1.549 1.412 2.75m127.891-1.691c-.471 5.595-2.44 13.767-5.833 24.204-1.76 5.414-1.851 5.475-1.856 1.254-.008-6.827 2.512-16.695 6.134-24.021.808-1.635 1.552-2.979 1.649-2.979.02 0-.023.694-.094 1.542m-96.811 7.318c1.859 10.872 2.023 26.658.397 38.255l-.284 2.032-1.425.498c-.783.274-1.447.475-1.476.446-.028-.028.099-1.804.282-3.946.184-2.142.45-5.92.59-8.395.243-4.259.356-6.78.763-17 .095-2.383.283-6.321.418-8.75s.245-4.598.245-4.819c0-.786.166-.216.49 1.679m64.829 3.307c.106 2.245.338 7.646.516 12 .466 11.426.581 13.483 1.181 21.309.186 2.416.302 4.429.258 4.472-.043.044-.583-.771-1.2-1.809-.616-1.039-1.366-2.189-1.666-2.556-1.992-2.432-1.746-27.881.368-38.083l.121-.583.115.583c.064.321.202 2.421.307 4.667m-189.597 9.418c15.903 4.041 28.511 13.05 34.519 24.665l.948 1.833-1.069 1.001c-.589.55-2.241 1.814-3.673 2.809-4.162 2.891-5.21 4.113-5.915 6.896-.401 1.587-.289 1.563-2.152.456-14.526-8.631-22.734-20.207-25.039-35.317-.398-2.612-.413-2.928-.131-2.928.115 0 1.246.263 2.512.585m316.164 1.123c-2.108 15.765-10.519 27.942-25.277 36.594-1.82 1.068-1.68 1.086-2.015-.26-.783-3.147-1.648-4.12-6.957-7.826-2.069-1.444-3.637-2.812-3.637-3.173 0-.389 1.709-3.554 2.903-5.376 6.404-9.777 18.116-17.397 32.43-21.101 3.059-.791 2.825-.895 2.553 1.142m-317.553.069c.726.777 1.844 1.929 9.848 10.139 3.506 3.597 5.169 5.3 13.101 13.417 1.747 1.788 3.821 3.925 4.609 4.75 1.744 1.825 1.773 1.721.257-.928-5.907-10.322-15.426-20.019-26.255-26.746l-2.31-1.435zm315.421.233c-11.48 7.048-21.927 17.746-27.258 27.914l-.87 1.659 2.145-2.168c2.211-2.235 3.784-3.844 15.141-15.498 3.662-3.759 7.971-8.165 9.576-9.792 1.604-1.627 2.844-2.952 2.756-2.945-.088.008-.759.381-1.49.83m-140.072.367c-.768 2.019-1.682 8.664-1.682 12.225 0 3.499-.799 2.479-1.435-1.832-.62-4.202.112-7.572 2.139-9.847.873-.98 1.215-1.171.978-.546m-92.977 7.54c1.401 2.622 8.07 15.898 9.462 18.833 1.167 2.463 7.67 15.456 8.029 16.042.415.678.329.677-.656-.008-.435-.301-1.152-.758-1.594-1.014-1.542-.893-6.601-9.943-10.446-18.687-2.566-5.835-6.667-17.147-6.667-18.389 0-.208.484.626 1.872 3.223m153.121-1.807c-3.157 11.27-13.935 34.497-16.499 35.559-.27.112-.958.529-1.528.926-.571.397-1.056.704-1.077.682-.022-.021 1.476-3.074 3.33-6.783 1.853-3.709 5.369-10.794 7.814-15.744 5.082-10.291 8.112-16.161 8.263-16.01.035.035-.101.652-.303 1.37m-68.878 8.955c2.285.556 3.608.946 3.794 1.12.087.082.387.158.666.169.28.012.021.094-.575.182-1.406.209-1.208.21-4-.026-2.596-.22-5.201-.131-7.416.253-2.68.464-2.971.245-1.092-.824 2.344-1.332 5.447-1.647 8.623-.874m12.135 5.337c4.76.868 7.486 2.794 10.045 7.098 2.058 3.463 3.979 6.234 6.147 8.869 1.193 1.449 1.199 1.463.683 1.467-.497.004-2.543.547-3.35.889l-.642.272-.99-.895c-3.29-2.978-8.499-3.523-15.122-1.583l-1.73.506-.953-.413c-1.926-.836-5.905-1.677-7.522-1.592-.8.043-.821.031-1.757-1.004-1.837-2.029-4.541-3.559-7.465-4.223l-1.592-.361-.959.697c-4.907 3.567-8.622 4.292-11.36 2.218l-.4-.303.599-.98c4.789-7.836 13.833-11.612 25.285-10.558 1.369.126 2.094.106 3.333-.088.871-.137 1.846-.28 2.167-.318 1.021-.122 4.203.05 5.583.302m-111.519 1.032c1.98.06 3.895.031 4.678-.071l1.325-.172 1.919 1.446c1.055.795 2.559 2.069 3.341 2.83.783.762 2.135 1.897 3.006 2.524 2.063 1.483 2.271 1.727 2.575 3.012.613 2.59.455 5.976-.38 8.133-.264.683-.36.756-1.864 1.417-4.529 1.991-9.442 5.422-14.136 9.871-.703.666-1.289 1.199-1.302 1.185-.014-.014.121-.588.299-1.276.179-.687.402-2.112.496-3.166.41-4.571 1.327-8.844 2.66-12.39.686-1.825.733-2.366.138-1.608-2.983 3.803-6.257 12.383-6.392 16.748-.038 1.223-.071 1.337-.401 1.386-.433.064-.433.087-.022-1.458.241-.906.33-1.78.331-3.25.002-2.787.397-6.127 1.023-8.654.412-1.663.336-1.871-.345-.938-1.983 2.718-4.132 9.114-3.967 11.805.099 1.599.105 1.601-1.042-.391-5.184-9.007-6.453-15.637-3.857-20.15 2.524-4.385 5.923-7.331 8.084-7.006.264.04 1.989.118 3.833.173m180.269-.018c1.605.001 3.742-.037 4.75-.083 1.771-.08 1.868-.066 2.826.404 2.037 1 5.313 4.821 6.657 7.763 1.815 3.972-.009 11.287-4.851 19.457l-.814 1.374.068-1.542c.128-2.942-2.189-9.757-4.056-11.926-.553-.642-.606-.431-.244.98.549 2.144.856 4.62 1 8.074.093 2.227.227 3.604.402 4.151.342 1.067.331 1.265-.071 1.265-.3 0-.334-.113-.339-1.125-.02-3.828-2.808-11.691-5.627-15.867-.886-1.313-1.613-2.011-1.289-1.239 1.494 3.563 2.916 9.453 3.174 13.148.102 1.465.5 3.844.85 5.083.089.317-.218.098-1.284-.916-4.682-4.454-9.654-7.937-14.053-9.843-1.865-.808-1.865-.808-2.365-3.016-.548-2.419-.213-7.059.575-7.953.151-.172 1.025-.847 1.941-1.5.917-.653 2.259-1.772 2.981-2.488 2.631-2.605 5.231-4.442 6.103-4.312.412.061 2.062.111 3.666.111m-243.833.769c0 .079.394.656.875 1.282s1.025 1.345 1.208 1.597c.784 1.077 1.3 1.648 3.707 4.099 2.762 2.813 2.755 2.804 2.085 2.44-.252-.137-1.872-.939-3.6-1.782l-3.142-1.532-.506-1.103c-.394-.857-.534-1.455-.631-2.686-.069-.871-.209-1.794-.311-2.053-.259-.656-.237-.864.065-.614.137.114.25.272.25.352m309.338.348c-.11.303-.256 1.225-.323 2.05-.111 1.357-.284 1.977-.907 3.249-.149.306-1.033.826-3.364 1.978-1.738.859-3.386 1.674-3.661 1.812-.309.154.17-.409 1.258-1.478.967-.95 2.205-2.244 2.75-2.876.546-.632 1.124-1.268 1.284-1.412.16-.145.292-.322.292-.393s.131-.268.291-.438c.545-.576.875-1.028.875-1.199 0-.093.113-.213.25-.266.138-.052.25-.194.25-.314s.059-.243.131-.274c.072-.03.306-.303.519-.607.466-.663.63-.586.355.168m-171.899 3.842c-.894 1.107-2.488 3.563-3.104 4.783-.493.976-.773 1.332-1.246 1.583-1.501.795-5.115 5.391-5.658 7.194-.07.233-.469.506-1.188.812-.614.261-1.216.649-1.391.898-.58.823-2.677 4.768-3.59 6.751-.678 1.474-1.034 2.055-1.396 2.275-.665.404-3.107 3.471-4.775 5.996-3.543 5.363-5.272 9.954-5.691 15.107l-.118 1.46-1.325 1.501c-1.777 2.015-3.382 4.49-4.891 7.546l-1.25 2.53-.761-.28c-2.211-.815-4.275-5.004-4.744-9.626-.645-6.36 1.88-13.013 7.112-18.74.8-.875.867-1.022 1.396-3.084 2.732-10.635 7.735-18.686 13.199-21.241 2.364-1.106 11.396-4.015 16.254-5.237 3.865-.972 3.761-.965 3.167-.228m-99.439 1.369c2.857.437 5.446 1.276 8.118 2.633l1.035.525-.097 1.507c-.23 3.557.978 8.178 3.547 13.575.585 1.228 1.064 2.256 1.064 2.285 0 .216-4.471-3.612-6.029-5.164-1.876-1.866-4.259-4.662-4.901-5.749-.245-.414-.737-.729-.737-.471 0 1.728 4.618 8.878 8.221 12.73.915.978.954 1.052.561 1.052-1.051 0-5.644-1.517-7.848-2.591-1.423-.694-1.684-.671-1.042.092 1.213 1.441 3.833 3.276 6.81 4.77 1.073.538 1.955 1.022 1.958 1.076.004.054-1.062.19-2.368.304-6.855.595-10.695 1.671-14.025 3.931-.774.525-.765.526-1.994-.123-1.984-1.049-2.456-1.71-3.006-4.209-.262-1.192-.895-3.78-1.406-5.75-1.118-4.311-1.211-5.471-.712-8.879.615-4.197 1.029-4.878 4.382-7.202 2.568-1.78 4.077-2.939 4.969-3.817.874-.86 1.093-.893 3.5-.525m236.425.437c.733.759 2.868 2.391 5.186 3.966 3.124 2.121 3.662 2.971 4.223 6.672.53 3.503.486 5.045-.221 7.598-.329 1.191-.984 3.815-1.454 5.829-1.067 4.573-1.192 4.782-3.559 5.95l-1.057.521-.98-.59c-3.924-2.364-6.541-3.114-12.939-3.713-1.581-.148-2.972-.301-3.092-.34-.121-.039.704-.547 1.833-1.129 3.017-1.556 5.397-3.204 6.873-4.761.757-.798.42-.789-1.439.037-2.524 1.122-5.126 1.996-7.173 2.411l-.791.161.962-1.105c3.876-4.448 6.021-7.549 7.373-10.654 1.138-2.617 1.035-2.909-.35-.992-2.214 3.06-5.189 6.106-8.585 8.789-1.046.826-1.902 1.475-1.902 1.441s.557-1.215 1.238-2.625c2.325-4.819 3.267-8.231 3.352-12.147l.056-2.583.802-.455c2.639-1.497 7.421-2.873 10.227-2.943.679-.017.826.052 1.417.662m-121.617 3.922c2.668.763 5.094 2.5 6.445 4.617l.3.469-1.003-.113c-1.853-.21-4.612.816-6.773 2.518-1.168.921-1.149.987.168.577 7.109-2.213 10.218-.952 11.385 4.618 1.272 6.072 2.51 10.128 4.024 13.184 1.159 2.341 1.174 2.536.392 5.002-.686 2.163-3.566 6.192-4.427 6.192-.07 0-.369.204-.666.453l-.539.454.59-.829c4.217-5.919 2.034-12.82-5.245-16.581-1.081-.558-1.135-.616-1.385-1.473-1.415-4.854-6.382-8.167-12.275-8.188l-.951-.003-1.185 1.671c-1.611 2.273-2.727 3.141-6.746 5.248-2.883 1.511-3.821 2.165-5.124 3.572-6.683 7.218-2.184 23.118 5.874 20.759 1.703-.498 1.621-.501 1.746.067.208.949 3.324 4.516 3.944 4.516.54 0-.1.386-1.482.892-8.551 3.134-13.189.764-14.463-7.392-.166-1.058-.292-1.233-1.293-1.798-6.023-3.399-5.473-13.514 1.397-25.675 1.225-2.171.989-2.015 5.234-3.441 9.941-3.34 17.929-2.397 20.081 2.371.534 1.185.563 1.04.171-.862-1.138-5.533-8.119-7.183-18.402-4.349-2.576.71-2.511.746-1.441-.802 2.439-3.528 4.477-4.481 6.924-3.24 3.93 1.993 7.917 1.256 12.5-2.311.594-.462.968-.482 2.225-.123m-149.648 3.665c5.27.679 11.829 2.708 16.84 5.209l1.583.79.001 1.408c.001 1.183.153 1.982.953 4.992.523 1.97 1.212 4.745 1.529 6.166s.623 2.702.679 2.846c.202.521-5.383 1.569-9.328 1.75-11.494.527-24.822-4.825-35.25-14.156-2.419-2.163-4.167-3.855-4.167-4.03 0-.248 3.028-1.61 5.864-2.637 6.725-2.438 14.179-3.256 21.296-2.338m311.647-.267c5.82.398 12.432 2.178 17.399 4.685l1.004.507-.73.751c-11.269 11.581-26.887 18.406-39.869 17.421-3.995-.303-8.429-1.216-8.297-1.709.035-.131.355-1.512.71-3.068s1.038-4.294 1.517-6.084c.71-2.649.877-3.533.901-4.754l.03-1.5 1.946-.943c8.439-4.091 16.994-5.879 25.389-5.306m-149.235 2.244c3.649.837 5.546 2.126 5.923 4.025 1.156 5.819 3.508 13.883 5.047 17.302l.67 1.489-.113 2.095c-.379 7.04-2.276 11.966-4.876 12.661-2.867.765-13.666 1.813-16.446 1.594l-1.473-.115.557-.583c1.349-1.412 4.16-3.31 5.257-3.549 2.599-.567 4.251-1.382 5.831-2.876 3.464-3.276 5.591-9.299 4.067-11.514-1.502-2.183-3.149-7.207-4.517-13.78-.734-3.523-1.756-5.349-3.599-6.429-1.75-1.026-.053-1.173 3.672-.32m16.761.179c4.001 1.22 5.719 4.176 5.709 9.826l-.005 2.5-.759 2.333c-3.031 9.313-4.256 16.736-3.378 20.469.651 2.771.231 3.619-3.783 7.63-3.123 3.121-4.784 5.603-4.784 7.152 0 1.161-9.561 3.542-14.333 3.568-3.422.019-3.379.044-2.292-1.341 4.741-6.044 9.288-10.036 14.586-12.805 3.389-1.772 5.244-5.907 5.869-13.089.241-2.756.218-4.359-.068-4.766-1.215-1.736-3.862-10.432-5.498-18.068-.161-.753-.466-1.55-.764-2l-.496-.75 1.456-.369c2.97-.754 6.611-.878 8.54-.29m-202.588 3.735c.168.271 3.411 1.99 5.422 2.873 5.761 2.532 12.367 4.032 22.25 5.053 5.196.537 15.438.688 15.151.224-.048-.078-.266-.142-.483-.142-.218 0-1.32-.184-2.449-.409s-4.04-.789-6.469-1.254c-2.43-.465-4.942-.951-5.584-1.08-.641-.13-1.766-.349-2.5-.487-.733-.138-3.471-.664-6.083-1.169-2.613-.505-6.738-1.302-9.167-1.771-5.685-1.098-7.518-1.466-8.749-1.756-1.183-.279-1.471-.297-1.339-.082m216.665.096c6.302 1.642 9.796 9.789 10.361 24.162l.112 2.833.875 1.833c3.938 8.248 3.405 16.076-1.462 21.5-.525.585-1.089 1.58-1.889 3.334-3.744 8.201-6.394 12.548-8.992 14.75-5.801 4.916-10.742 6.487-17.018 5.413-4.193-.718-4.931-1.691-3.478-4.584.852-1.698 1.687-3.729 1.773-4.318.05-.346.241-.445 1.475-.773 4.845-1.285 10.874-4.995 16.282-10.018.976-.906 1.021-1.036 2.61-7.554 2.462-10.093 2.836-12.57 2.847-18.833.019-11.923-3.02-19.754-8.991-23.163l-.669-.382-.288-1.762c-.323-1.97-.352-1.888.792-2.247 1.614-.506 4.124-.591 5.66-.191m131.84-.095c-.275.07-1.437.322-2.583.561-1.956.408-3.712.749-15.667 3.043-2.613.502-5.088.983-5.5 1.07-.413.087-2.925.575-5.583 1.086-2.659.511-5.921 1.145-7.25 1.408-1.33.264-3.036.577-3.792.696-1.914.301-1.729.409.917.536 8.12.389 22.375-1.268 29.458-3.424 5.271-1.605 14.155-6.025 10-4.976m-240.25.965c4.042 1.402 7.352 3.598 8.315 5.516.289.574 1.285 4.567 1.768 7.088l.219 1.145-1.055 1.579c-2.093 3.129-3.709 7.001-4.335 10.38-.47 2.54-.866 2.933-3.836 3.807-4.419 1.299-8.086.72-10.826-1.712-2.041-1.811-2.962-2.462-4.5-3.179-2.767-1.292-4.456-2.741-6.24-5.353-1.787-2.618-1.787-2.444.003-2.213.813.104 2.281.135 3.487.074 3.506-.179 8.818.359 12.235 1.237 2.399.617 2.312.319-.279-.958-3.449-1.7-10.6-3.529-13.844-3.541-1.546-.006-1.475-.122.388-.64 1.918-.533 4.948-1.005 7.252-1.128 2.361-.126 2.51-.227 1.04-.705-2.832-.922-8.941-1.356-11.292-.804l-1.083.255.916-.827c9.461-8.539 16.523-11.805 21.667-10.021m137.358-.386c3.827.379 9.907 3.866 15.87 9.101 2.367 2.078 2.499 2.226 1.736 1.945-.892-.329-7.549-.257-9.239.099-3.229.68-4.335 1.281-2.364 1.284 2.355.003 6.141.586 8.472 1.306l1.417.437-1.75.107c-4.501.277-11.212 2.179-14.578 4.131-1.277.74-1.007.811 1.117.295 3.659-.89 8.559-1.374 11.961-1.182 1.137.064 2.553.03 3.48-.083.86-.105 1.585-.169 1.612-.143.026.027-.654 1.061-1.512 2.298-1.874 2.701-3.246 3.916-5.83 5.161-1.888.91-3.34 1.923-4.917 3.429-2.783 2.659-7.39 3.11-12.363 1.211-1.484-.566-1.787-.946-3.532-4.426-.636-1.268-1.107-1.988-1.495-2.283-1.129-.862-2.801-3.729-3.038-5.21-.222-1.39 1.753-10.766 2.509-11.908 1.742-2.633 8.494-6.084 11.169-5.709.184.026.757.089 1.275.14m-78.373 3.362c3.064.775 5.585 2.858 7.573 6.256.377.645 1.275 2.714 1.275 2.938 0 .036-.424-.313-.942-.775-.859-.765-2.039-1.353-2.717-1.353-.147 0-.348-.214-.447-.475-.661-1.752-5.747-1.267-7.909.755-2.229 2.084-4.95 8.654-4.582 11.063.082.537.018.664-.671 1.333-2.266 2.2-3.529 4.955-2.991 6.519l.235.682-1.029-.095c-3.756-.344-6.029-4.104-6.015-9.949.013-5.219 1.781-7.842 7.189-10.666 4.026-2.102 6.192-3.809 7.469-5.887l.494-.803 1.068.111c.588.061 1.488.217 2 .346m44.193 3.517c4.609 3.858 6.844 11.169 6.61 21.622-.114 5.112-.732 8.699-3.217 18.677l-1.08 4.333-1.201 1.133c-11.481 10.83-23.19 12.432-28.221 3.86-1.009-1.721-2.642-1.716-2.305.006.756 3.864-1.058 6.959-5.996 10.234-4.946 3.279-7.029 3.336-11.613.316-1.99-1.311-7.155-6.355-7.155-6.987 0-.038.556-.04 1.235-.006 5.121.258 10.963-2.456 16.224-7.539l1.813-1.751.989.274c3.565.989 12.313-.397 18.558-2.939 1.411-.575 1.452-.619 1.606-1.76.269-1.98 1.127-3.283 4.067-6.175 4.375-4.303 5.312-6.238 4.59-9.482-.844-3.792.381-11.208 3.25-19.684.471-1.391.709-2.419.781-3.375.119-1.586.095-1.569 1.065-.757m-41.22 3.901c.448.166.497 1.183.193 3.98-.294 2.703-.191 2.545-1.829 2.772-2.078.289-4.142 1.161-6.28 2.656-1.224.856-1.227.85-.624-1.401 1.686-6.294 4.944-9.348 8.54-8.007m8.284 1.481c1.515 1.824 3.488 4.796 3.938 5.931 1.494 3.762-.601 8.209-5.398 11.461-3.104 2.105-5.571 4.666-6.866 7.132l-.591 1.125-.621-.223c-3.557-1.274-10.028-4.734-10.88-5.816l-.348-.443h.89c3.487 0 8.293-3.031 12.236-7.718.379-.45.648-.616 1.003-.616 1.295 0 4.538-2.65 5.409-4.419.631-1.281.644-2.935.033-4.247-.246-.529-.377-1.236-.445-2.399l-.096-1.648.349.315c.193.173.817.878 1.387 1.565m-2.76 2.785c.957 1.913.035 3.87-2.679 5.692-.983.659-.918.69-.91-.435.009-1.163-.333-1.875-1.137-2.372l-.585-.361.49-.613c.857-1.071 1.164-2.007 1.275-3.888l.101-1.725 1.547 1.5c.851.825 1.705 1.816 1.898 2.202m-36.995-1.243c-1.854 6.427-.31 12.974 3.741 15.865l1.05.75.215 1.204c.472 2.64 1.622 5.144 3.053 6.647.32.336.429.681.526 1.666.066.684.234 1.73.372 2.326.31 1.341.239 1.805-.7 4.575-.41 1.208-.814 2.742-.898 3.408-.083.666-.195 1.255-.248 1.308-.37.37-8.298-8.374-11.482-12.663-3.439-4.633-3.357-11.557.222-18.878 1.086-2.22 3.944-6.75 4.26-6.75.025 0-.025.244-.111.542m-53.432.64.528.015-.562.161c-.612.176-1.021.095-1.021-.204 0-.104.118-.144.264-.088.145.055.501.107.791.116m179.831.166c-.111.111-.414.126-.823.042l-.646-.134.75-.09c.845-.101.97-.07.719.182m-194.719.391c0 .039-.703.451-1.561.916-3.227 1.744-7.54 5.348-6.398 5.344.115 0 .448-.146.741-.325 1.258-.767 6.111-2.67 6.307-2.474.038.039-1.238 1.37-2.836 2.958l-2.905 2.889-1.141-.367c-.955-.307-1.172-.447-1.325-.852-.617-1.636-3.082-.899-3.082.922 0 1.151.768 1.755 1.91 1.5.73-.162 1.91-.186 2.055-.041.207.208-1.316 1.465-1.682 1.388-.816-.172-2.404-.887-2.9-1.305-.671-.567-1.241-.583-1.774-.05-1.005 1.005-.235 2.38 1.221 2.18.754-.104 2.036.2 2.036.482 0 .049-.373.383-.829.744l-.83.656-.879-.322c-.483-.177-1.077-.432-1.321-.568-.851-.476-1.641-.107-1.641.767 0 .632.406.985 1.137.988.906.004 1.216.253.642.515-.382.174-.552.16-1.075-.091-1.683-.807-2.596-.913-2.969-.343-.397.606.019 1.207.939 1.354.881.141.961.326.245.562-.615.203-.777.634-.366.975.16.133.45.108 1.08-.094 1.047-.335 1.1-.292.855.682-.229.911.085 1.606.725 1.602.824-.006.912-.21.94-2.185l.014-.937.792-.344c1.026-.447 1.091-.171.454 1.911-.233.762.953 1.353 1.666.831.273-.199.305-.441.274-2.041l-.035-1.816.987-.542c.543-.298 1.045-.541 1.116-.541.271 0-.075 2.181-.415 2.614-.452.574-.428 1.145.07 1.643 1.068 1.068 2.853-.25 2.048-1.512-.15-.235-.186-.837-.125-2.111l.085-1.782.958-.685c.575-.411.964-.599.973-.468.093 1.437-.055 2.063-.612 2.573-1.293 1.186-.249 3.153 1.499 2.825 1.318-.248 1.88-1.792.979-2.693-.244-.244-.278-.574-.235-2.267l.052-1.981.943-.86c.518-.473 1.561-1.498 2.318-2.278.756-.781 1.375-1.377 1.375-1.325 0 .051-.256.647-.568 1.325-1.401 3.04-2.869 8.482-2.288 8.482.079 0 .392-.568.694-1.263.891-2.042 3.909-7.244 4.08-7.032.02.024-.07.72-.201 1.545-.455 2.871-.013 10.601.758 13.25.451 1.552 1.343 4.102 1.798 5.142l.39.892-.76.889c-.945 1.106-2.558 2.532-3.644 3.221-1.861 1.179-8.576.468-11.224-1.189-.474-.296-1.312-.795-1.864-1.108-2.938-1.668-4.978-3.85-7.484-8.007-.951-1.578-1.981-3.199-2.289-3.603-.872-1.143-1.224-7.305-.546-9.568.867-2.895 9.196-8.063 14.129-8.766 3.329-.476 8.519-.982 8.519-.831m212.41.268c6.384.652 7.908 1.02 11.068 2.672 2.895 1.514 7.234 5.112 7.824 6.488.694 1.62.377 8.594-.439 9.636-.265.337-1.331 2.017-2.37 3.733-2.618 4.323-4.985 6.778-8 8.301-.53.267-1.235.671-1.568.896-2.093 1.421-8.806 2.173-10.723 1.202-.864-.438-2.408-1.757-3.774-3.225l-.881-.946.469-1.137c.558-1.352 1.735-4.901 1.977-5.96.602-2.632.871-10.215.448-12.625-.117-.665-.187-1.209-.156-1.209.318 0 3.479 5.519 4.224 7.375.811 2.017.853.557.072-2.45-.418-1.609-1.136-3.587-1.998-5.507l-.448-.999 2.357 2.306 2.358 2.307.045 1.985c.039 1.722.006 2.021-.249 2.252-.709.642-.513 1.846.391 2.397 1.836 1.12 3.71-1.226 2.077-2.601-.441-.371-.522-.566-.582-1.399-.101-1.399-.053-1.429 1.019-.627l.963.72.022 1.746c.014 1.063-.054 1.888-.174 2.109-.69 1.281.864 2.46 2.032 1.541.533-.419.581-1.132.122-1.786-.35-.499-.59-1.995-.374-2.335.106-.167.352-.091 1.078.333l.94.55.021 1.25c.011.688.006 1.462-.011 1.721-.069 1.036 1.215 1.53 1.771.682.236-.361.25-.52.087-.971-.107-.296-.195-.849-.195-1.229v-.689l.708.3.709.3.137 1.4c.151 1.528.29 1.819.871 1.819.708 0 .934-.422.81-1.518-.123-1.087-.139-1.075.97-.739 1.291.392 1.79-.367.616-.937-.589-.286-.552-.339.376-.542.882-.193 1.246-.964.708-1.502-.355-.354-.627-.331-1.988.166-.642.234-1.294.466-1.448.516-.155.049-.446-.025-.646-.165-.358-.251-.353-.258.281-.36 1.234-.2 1.387-.258 1.567-.594.463-.864-.781-1.981-1.456-1.307-.101.102-.675.35-1.274.552l-1.09.366-.857-.653c-.471-.359-.794-.711-.717-.781.332-.304 1.423-.517 2.118-.413.934.14 1.438-.274 1.438-1.18 0-1.243-1.276-1.816-2.132-.956-.373.374-1.484.884-2.88 1.322-.157.049-.594-.219-1.083-.663l-.821-.745.637-.121c.384-.073.802-.046 1.05.067 1.596.727 3.049-.654 2.315-2.2-.619-1.305-2.325-1.372-2.956-.118-.22.439-.451.617-1 .772-.392.111-.868.252-1.058.313-.353.113-4.491-3.672-5.744-5.253l-.51-.645 1.883.66c1.035.362 2.689 1.063 3.674 1.556 2.114 1.059 2.311.909.78-.59-1.288-1.259-3.017-2.537-4.821-3.561-2.149-1.22-2.438-1.407-2.173-1.411.134-.001 1.746.151 3.583.338m-209.244 1.024c0 .289-2.094 2.974-3.71 4.759-2.908 3.21-6.799 6.41-9.873 8.119l-.833.464.581-.478c3.516-2.894 9.391-8.509 12.169-11.632 1.179-1.325 1.666-1.685 1.666-1.232m203.958 1.177c2.527 2.746 8.009 8.087 10.126 9.864 2.4 2.015 2.819 2.392 2.416 2.172-3.748-2.047-8.4-5.996-11.772-9.994-2.721-3.226-3.319-4.812-.77-2.042m-197.547 1.224c.152 1.014.101 1.019-.537.055l-.543-.82h.482c.446 0 .492.058.598.765m190.331-.296c-.153.258-.422.652-.598.875l-.321.406.102-.667c.154-1.012.198-1.083.663-1.083.427 0 .429.004.154.469m-4.137.989c-.311.619-.867 2.063-1.235 3.208-1.33 4.147-3.763 9.164-5.648 11.649-1.296 1.709-.513 1.443 1.413-.48 2.418-2.415 3.954-4.5 6.237-8.463.648-1.125 1.212-2.01 1.255-1.968.262.262-1.733 5.846-2.818 7.888-.989 1.861-.694 1.912.962.165 2.673-2.819 5.238-7.363 5.856-10.374l.137-.667.609 1.834c2.285 6.882.515 17.441-4.176 24.916-4.72 7.522-13.959 9.094-20.206 3.438-.418-.378-.981-.805-1.25-.949-.891-.475-2.228-2.916-2.237-4.084-.006-.751-.702-2.678-1.788-4.947l-.954-1.994.442-1.274c.243-.7.667-1.768.942-2.372l.501-1.1 1.468-.106c3.005-.217 5.492-1.208 7.287-2.903 1.646-1.554 2.853-2.439 3.932-2.883 2.966-1.221 5.399-3.361 7.827-6.885 1.051-1.526 1.933-2.774 1.96-2.774.028 0-.205.506-.516 1.125m-181.681 1.208c.718 1.055 1.593 2.31 1.945 2.791.896 1.222 3.546 3.232 5.553 4.211 1.995.973 2.594 1.392 4.4 3.081 1.987 1.858 4.301 2.806 7.397 3.029l1.469.106.469.933c1.49 2.965 1.569 3.741.581 5.707-1.066 2.122-1.721 3.883-1.895 5.095-.183 1.27-1.049 3.081-1.744 3.646-.283.23-1.151.935-1.927 1.565-4.278 3.469-9.62 4.136-14.278 1.781-7.81-3.947-13.213-20.324-9.948-30.153.682-2.053.804-2.162.937-.833.218 2.168 4.027 8.464 6.361 10.513 1.115.98 1.147.802.194-1.1-1.054-2.104-2.939-7.426-2.711-7.654.031-.031.734 1.089 1.563 2.488 2.154 3.637 3.353 5.25 5.651 7.6 2.394 2.447 2.835 2.526 1.296.23-1.926-2.874-3.966-7.167-5.237-11.02-.35-1.063-.848-2.382-1.105-2.932s-.498-1.075-.535-1.167c-.151-.371.312.245 1.564 2.083m85.406-.754c1.186 1.429-4.472 7.073-8.885 8.863-3.535 1.434-4.18.025-1.476-3.223 2.882-3.46 9.28-6.943 10.361-5.64m62.709 7.171c2.102 4.176 3.155 5.096 6.914 6.04.622.157 1.161.304 1.197.328.037.023-.203.738-.533 1.587-1.283 3.305-1.287 3.97-.038 6.527 1.115 2.285 1.755 3.954 1.755 4.579 0 1.267 1.357 4.056 2.552 5.243.871.867 3.818 3.189 4.52 3.563.346.184.386.355.486 2.083.198 3.426.63 9.678.844 12.217.116 1.375.19 2.526.165 2.559-.074.094-1.301-2.414-2.154-4.401-1.695-3.947-2.926-7.942-3.251-10.545-.439-3.516-1.6-3.63-4.589-.447l-1.945 2.072-.47-.243c-1.63-.843-4.755-4.668-6.321-7.738l-.352-.69.658-1.2c3.264-5.951 3.082-13.895-.49-21.43-.451-.952-.82-1.96-.82-2.24v-.51l.516.49c.284.269.894 1.239 1.356 2.156m-119.607 7.47c.806 5.089 3.339 9.616 6.142 10.977.953.464.983.263-.473 3.225-2.039 4.15-4.535 7.522-6.794 9.181l-.809.594-2.004-2.087c-2.96-3.08-4.252-3.047-4.561.117-.273 2.779-1.926 7.905-4.022 12.465-1.47 3.199-1.449 3.178-1.318 1.308.061-.871.313-4.612.559-8.313.427-6.41.465-6.743.804-7 5.711-4.332 6.484-5.342 7.195-9.405.102-.585.628-1.918 1.327-3.367 1.61-3.333 1.632-3.888.281-7.2-.699-1.716-.699-1.714-.217-1.717.206-.002 1.087-.247 1.958-.546 1.534-.527 1.585-.534 1.628-.206.025.185.161 1.074.304 1.974m-66.986 1.988c.276.39 1.148 1.807 1.939 3.149 1.666 2.828 2.901 4.441 4.606 6.018.669.619 1.179 1.125 1.134 1.125-.461 0-8.251-3.497-13.953-6.263l-1.745-.846 2.495-1.31c1.372-.721 3.02-1.595 3.662-1.943 1.425-.773 1.259-.78 1.862.07m84.554-.314c0 2.302 9.773 14.076 15 18.071.871.665 2.109 1.624 2.75 2.13 1.187.935 3.886 2.399 5.088 2.759.364.109.662.25.662.314 0 .211 2.118 2.899 3.442 4.367 4.639 5.149 9.26 7.819 13.131 7.591 4.341-.256 11.964-6.137 13.345-10.294.324-.977.368-.991 1.009-.318 1.272 1.336 3.585 2.611 5.614 3.095 1.55.369 1.537.272.28 2.217-9.067 14.021-23.717 15.96-39.399 5.216-1.224-.839-2.16-1.348-2.833-1.541-9.035-2.591-14.833-8.697-20.579-21.668-.791-1.787-1.636-3.539-1.876-3.892l-.438-.642.538-1.108c1.149-2.366 1.624-3.209 2.769-4.922 1.065-1.593 1.497-1.99 1.497-1.375m176.925 1.37c1.861.971 3.508 1.855 3.659 1.966.348.254-4.507 2.654-11.667 5.765-3.995 1.737-3.944 1.734-2.302.137 1.874-1.822 2.549-2.719 4.522-6.006 1.592-2.654 2.21-3.61 2.342-3.621.034-.003 1.585.789 3.446 1.759m-119.939-1.369c-.038.034-.714.578-1.502 1.208-2.169 1.736-3.971 3.436-5.759 5.433l-1.615 1.805-.43-.396c-.392-.362-6.207-5.058-6.558-5.297-.165-.112.496-1.521.986-2.1.276-.326.39-.349 1.059-.214 1.65.333 12.406-.03 12.819-.433.039-.037.295-.068.57-.068s.469.028.43.062m-19.692 3.431c2.031.807 2.59 1.113 3.834 2.101l1.455 1.156-2.249.107c-3.326.159-3.805.286-5.917 1.57-8.373 5.092-13.373 4.338-15.09-2.275-.416-1.6-.424-2.059-.035-1.907 2.939 1.145 6.83.242 11.031-2.56l1.237-.825 1.678.845c.924.465 2.749 1.269 4.056 1.788m-129.787 1.268c5.803 5.94 17.426 11.162 26.327 11.829 2.341.175 2.345.166-.864 2.03-3.8 2.208-7.095 4.047-7.251 4.047-.07 0-2.078-.631-4.464-1.401-6.043-1.952-11.149-3.509-15.088-4.602-1.054-.292-2.017-.587-2.141-.655-.154-.085.479-.706 2.05-2.009 2.458-2.038 2.591-2.194 2.591-3.041 0-.774-.375-1.117-2.192-2.004-3.731-1.822-4.013-2.984-1.065-4.397 1.425-.683 1.212-.703 2.097.203m275.464-.192c2.977 1.499 2.779 2.385-.969 4.332-3.258 1.693-3.22 2.191.394 5.196 2.478 2.059 2.522 1.828-.508 2.658-3.813 1.044-9.406 2.76-15.325 4.701l-3.854 1.264-1.479-.797c-3.727-2.006-8.723-4.996-8.526-5.1.117-.062.888-.163 1.713-.224 8.846-.654 19.568-5.39 26.248-11.594.595-.553 1.103-1.005 1.13-1.005.026 0 .555.256 1.176.569m-139.141 4.62c1.018.168 1.223.269 1.851.909l.707.72-.979 1.133c-8.882 10.276-18.634 12.657-26.532 6.477l-1.17-.915-.11-1.215c-.134-1.474.585-4.942 1.163-5.605.028-.032.487.386 1.02.929 3.369 3.43 8.926 2.942 15.824-1.389 1.091-.685 1.701-.955 2.389-1.056 1.403-.207 4.553-.2 5.837.012m-93.041 7.418 1.738 1.69-.18 1.56c-.783 6.799-.433 15.962.811 21.22.186.786-.904 2.471-4.091 6.325l-1.779 2.152-.245-.468c-.286-.544-.789-2.595-.962-3.919-.213-1.631-1.039-2.428-2.098-2.025-.347.132-6.232 2.809-9.035 4.11-1.226.569-1.203.622-.627-1.432 1.156-4.117 2.622-10.092 5.189-21.138.904-3.887 1.707-7.132 1.786-7.211.079-.078 1.563-1.039 3.299-2.136l3.155-1.993.65.788c.358.433 1.433 1.548 2.389 2.477m193.545-.933c1.512.947 2.773 1.737 2.801 1.756.028.018.649 2.611 1.38 5.76 2.624 11.309 4.181 17.683 5.421 22.202.323 1.177.551 2.177.507 2.221-.044.045-2.056-.833-4.47-1.95-7.248-3.354-7.266-3.355-7.741-.156-.242 1.631-.816 3.756-1.053 3.903-.294.181-6.333-7.533-6.088-7.778.466-.466 1.409-9.572 1.409-13.607 0-2.285-.371-7.919-.603-9.157-.098-.522-.025-.622 1.551-2.108.909-.859 1.978-1.982 2.376-2.497l.722-.936.519.313c.285.172 1.756 1.087 3.269 2.034m-240.341 2.163c4.366 2.923 11.139 5.285 17.332 6.045l1.741.214-.658.392c-1.192.71-10.266 5.12-13.324 6.474-4.76 2.109-13.86 5.651-14.044 5.467-.037-.037 2.191-2.85 4.951-6.251 5.167-6.365 5.403-6.727 5.015-7.665-.346-.834-1.095-1.067-2.364-.736-1.349.352-2.309.216-3.481-.492-1.122-.678-1.176-.565 1.221-2.571 2.388-1.999 2.057-1.918 3.611-.877m284.049.93c2.396 1.986 2.312 1.86 1.565 2.343-1.317.853-2.644 1.064-4.039.643-1.648-.498-2.996.89-2.141 2.206.278.429 9.045 11.323 9.808 12.187l.349.396-.417-.124c-5.305-1.571-17.603-6.933-26.25-11.445l-1.667-.869 2.25-.289c5.752-.737 13.216-3.388 17-6.037 1.382-.967 1.081-1.051 3.542.989m-249.179.676c-3.5 6.867-6.359 19.122-6.362 27.275l-.001 1.635-1.614.749c-.888.412-2.737 1.284-4.11 1.937-1.768.841-2.693 1.19-3.177 1.199l-.682.012-.047-1.25c-.036-.947.061-1.653.402-2.916.601-2.228.59-2.678-.08-3.276-.67-.599-.604-.602-4.127.192-3.379.762-3.196.786-2.819-.368.913-2.789 2.361-8.584 3.178-12.715.548-2.773.224-2.39 3.428-4.05 4.97-2.574 11.064-5.981 14.815-8.282 1.627-.998 1.633-.998 1.196-.142m214.304 1.598c3.422 2.009 8.985 5.079 12.938 7.139l2.355 1.228.543 2.754c.643 3.266 2.259 9.787 2.966 11.973l.503 1.552-.528-.11c-.29-.06-1.688-.367-3.107-.681-4.123-.914-4.663-.489-3.765 2.964 1.183 4.552.691 5.222-2.627 3.578-.841-.417-2.653-1.271-4.028-1.898l-2.5-1.141-.039-1.658c-.209-8.996-2.728-19.991-6.129-26.744-.687-1.363-.695-1.409-.207-1.101.206.13 1.837 1.095 3.625 2.145m-195.667-.577c1.661.486 6.587.625 7.975.224.898-.259.828-.473.65 1.979-.24 3.302-.049 9.938.385 13.34l.372 2.924-.641 1.114c-.613 1.066-.654 1.102-.951.832-1.108-1.002-2.796-6.564-3.212-10.581-.304-2.944-2.685-2.744-3.417.288-.636 2.631-1.81 5.351-3.67 8.5-1.071 1.813-1.063 1.829-.762-1.442.342-3.71.575-6.704.778-9.975.095-1.513.244-3.725.332-4.917.088-1.191.161-2.343.161-2.559 0-.311.061-.367.292-.267.16.069.929.312 1.708.54m175.591 3.053c.593 8.408 1.104 15.141 1.224 16.13.149 1.229.111 1.202-1.01-.704-1.758-2.989-3.046-6.001-3.645-8.526-.366-1.54-.82-2.083-1.743-2.083-1.089 0-1.426.515-1.693 2.592-.456 3.544-1.772 7.98-2.852 9.613-.497.75-.538.73-1.29-.613l-.592-1.06.38-2.725c.343-2.454.38-3.365.38-9.18 0-5.741.029-6.448.257-6.375 2.017.64 6.178.501 8.91-.298.733-.215 1.353-.378 1.378-.364.025.015.158 1.632.296 3.593m-216.582 8.602c-1.383 3.252-2.068 6.818-2.082 10.841-.008 2.554-.05 3.056-.26 3.119-.47.143-4.193.921-4.405.921-.839 0 .464-2.965 1.912-4.351 1.337-1.28 1.505-1.896.756-2.764l-.403-.468-7.805.034c-4.701.021-7.672-.025-7.472-.115.184-.082 1.009-.388 1.834-.679 4.187-1.482 10.549-4.137 15.666-6.538 1.467-.688 2.687-1.233 2.712-1.21.024.023-.179.568-.453 1.21m256.181-.679c4.676 2.311 12.521 5.591 18.102 7.569.573.203 1.042.403 1.042.444s-3.358.02-7.462-.046c-8.267-.134-8.265-.134-8.7.916-.326.785-.086 1.284 1.229 2.57 1.244 1.215 1.567 1.82 1.86 3.482.133.758.127.759-1.99.284-.836-.188-1.783-.397-2.104-.465l-.583-.122-.108-3.328c-.148-4.586-.603-6.778-2.291-11.035-.19-.482-.318-.875-.284-.875.035 0 .614.272 1.289.606" fill="#fff" fill-rule="evenodd"/></svg>