<?xml version="1.0" encoding="UTF-8"?>
<svg xmlns="http://www.w3.org/2000/svg" xmlns:xlink="http://www.w3.org/1999/xlink" version="1.1" width="3074px" height="2332px" style="shape-rendering:geometricPrecision; text-rendering:geometricPrecision; image-rendering:optimizeQuality; fill-rule:evenodd; clip-rule:evenodd">
  <g>
    <path style="opacity:0.991" fill="#fff" d="M 1193.5,-0.5 C 1202.17,-0.5 1210.83,-0.5 1219.5,-0.5C 1253.61,7.10769 1274.11,28.1077 1281,62.5C 1284.83,97.008 1272,123.175 1242.5,141C 1234.36,145.367 1225.7,147.867 1216.5,148.5C 1216.45,215.191 1224.61,280.858 1241,345.5C 1245.41,362.473 1250.74,379.14 1257,395.5C 1263.48,367.202 1275.82,341.869 1294,319.5C 1329.28,273.706 1371.78,236.373 1421.5,207.5C 1421.83,206.833 1422.17,206.167 1422.5,205.5C 1410.41,167.26 1420.41,136.427 1452.5,113C 1484.09,95.9174 1514.09,98.2507 1542.5,120C 1568.24,145.708 1574.41,175.542 1561,209.5C 1539.63,246.743 1508.13,259.576 1466.5,248C 1454.03,243.026 1443.36,235.526 1434.5,225.5C 1400.44,255.044 1370.94,288.377 1346,325.5C 1342.67,331.5 1339.33,337.5 1336,343.5C 1318.69,381.089 1302.36,419.089 1287,457.5C 1313.03,512.87 1344.86,564.703 1382.5,613C 1553.19,696.443 1711.86,797.609 1858.5,916.5C 1865.36,877.07 1870.36,837.403 1873.5,797.5C 1850.02,798.175 1829.35,791.008 1811.5,776C 1791.28,756.43 1775.78,733.597 1765,707.5C 1735.34,631.193 1723.34,552.193 1729,470.5C 1737.32,369.781 1752.48,270.114 1774.5,171.5C 1836.02,227.379 1889.52,289.712 1935,358.5C 1959.16,395.941 1978.16,435.941 1992,478.5C 2005.35,525.655 2009.68,573.655 2005,622.5C 2002.04,666.701 1988.71,707.368 1965,744.5C 1947.17,769.166 1923.67,785.833 1894.5,794.5C 1896.86,803.445 1899.02,812.445 1901,821.5C 1905.5,848.143 1909.83,874.81 1914,901.5C 1915.46,920.173 1912.3,938.007 1904.5,955C 2037.79,1068.61 2156.63,1195.11 2261,1334.5C 2261.45,1236.91 2272.62,1140.57 2294.5,1045.5C 2270.26,1038.43 2253.93,1022.93 2245.5,999C 2234.47,957.084 2247.8,925.751 2285.5,905C 2322.14,891.7 2352.97,899.867 2378,929.5C 2397.91,961.743 2396.58,993.077 2374,1023.5C 2357.49,1041.4 2336.99,1050.07 2312.5,1049.5C 2307.91,1114.42 2306.41,1179.42 2308,1244.5C 2314.03,1303.82 2319.87,1363.16 2325.5,1422.5C 2344.07,1412.43 2361.4,1400.59 2377.5,1387C 2402.03,1363.47 2426.19,1339.64 2450,1315.5C 2477.88,1281.42 2502.55,1245.08 2524,1206.5C 2537.6,1181.23 2550.77,1155.73 2563.5,1130C 2529.83,1111.82 2516,1083.66 2522,1045.5C 2530.81,1012.02 2552.31,992.52 2586.5,987C 2624.07,984.619 2650.57,1000.45 2666,1034.5C 2676.24,1066.35 2669.74,1094.19 2646.5,1118C 2627.45,1134.24 2605.61,1140.07 2581,1135.5C 2556.08,1223.65 2517.08,1304.65 2464,1378.5C 2432.17,1417.67 2391.34,1441.84 2341.5,1451C 2434.66,1598.49 2509.82,1754.99 2567,1920.5C 2572.45,1911.94 2577.11,1902.94 2581,1893.5C 2589.81,1872.23 2598.31,1850.9 2606.5,1829.5C 2582.01,1822.99 2563.51,1808.66 2551,1786.5C 2540.63,1766.35 2533.96,1745.02 2531,1722.5C 2522.49,1637.23 2533.49,1554.56 2564,1474.5C 2601.26,1381.31 2644.43,1290.97 2693.5,1203.5C 2735.53,1271.36 2768.03,1343.7 2791,1420.5C 2804.67,1466.17 2812.17,1512.84 2813.5,1560.5C 2811.63,1622.31 2796.46,1680.64 2768,1735.5C 2752.59,1764.24 2732.09,1788.74 2706.5,1809C 2683.26,1825.69 2657.26,1833.86 2628.5,1833.5C 2625.89,1871.39 2621.39,1909.06 2615,1946.5C 2612.65,1955.22 2609.32,1963.55 2605,1971.5C 2600.5,1978.98 2595.67,1986.15 2590.5,1993C 2597.25,2015.49 2603.91,2037.99 2610.5,2060.5C 2617.86,2049.31 2626.53,2039.14 2636.5,2030C 2643.7,2025.57 2650.7,2020.9 2657.5,2016C 2648.15,1997.58 2644.65,1978.08 2647,1957.5C 2652.05,1925.01 2663.05,1894.68 2680,1866.5C 2702.25,1830.24 2727.59,1796.24 2756,1764.5C 2772.27,1747.89 2789.44,1732.39 2807.5,1718C 2891.93,1653.93 2980.59,1596.1 3073.5,1544.5C 3073.5,1559.17 3073.5,1573.83 3073.5,1588.5C 3069.23,1661.47 3056.73,1733.13 3036,1803.5C 3022.07,1849.36 3001.73,1892.02 2975,1931.5C 2935.63,1984.21 2886.13,2024.38 2826.5,2052C 2798.68,2064.03 2769.68,2068.7 2739.5,2066C 2722.41,2064.08 2706.58,2058.58 2692,2049.5C 2674.8,2074.94 2651.13,2090.94 2621,2097.5C 2638.34,2169.21 2653.01,2241.55 2665,2314.5C 2667.89,2323.36 2665.06,2329.02 2656.5,2331.5C 2652.83,2331.5 2649.17,2331.5 2645.5,2331.5C 2642.95,2329.43 2641.12,2326.76 2640,2323.5C 2594.13,2158.37 2536.29,1997.7 2466.5,1841.5C 2440.72,1840.74 2417.38,1832.91 2396.5,1818C 2371.96,1805.89 2347.29,1794.06 2322.5,1782.5C 2312.94,1808.9 2295.27,1827.73 2269.5,1839C 2233.98,1852.02 2197.31,1857.02 2159.5,1854C 2103.12,1851.32 2048.46,1840.32 1995.5,1821C 1930.51,1794.34 1867.51,1763.67 1806.5,1729C 1770.59,1708.8 1735.09,1687.96 1700,1666.5C 1699.31,1665.67 1699.48,1665 1700.5,1664.5C 1780.53,1621.1 1865.19,1590.27 1954.5,1572C 2054.58,1550.79 2148.58,1566.12 2236.5,1618C 2260.06,1632.22 2280.56,1650.05 2298,1671.5C 2318.75,1697.92 2327.92,1727.92 2325.5,1761.5C 2336.55,1762.12 2347.55,1763.28 2358.5,1765C 2384.21,1769.68 2409.88,1774.51 2435.5,1779.5C 2435.83,1779.17 2436.17,1778.83 2436.5,1778.5C 2349.2,1597.92 2243.87,1429.42 2120.5,1273C 2100.43,1320.61 2067.43,1356.95 2021.5,1382C 1943.74,1420.64 1861.74,1445.47 1775.5,1456.5C 1775.07,1494.56 1757.07,1520.06 1721.5,1533C 1684.87,1541.42 1656.03,1530.25 1635,1499.5C 1618.62,1467.47 1621.62,1437.47 1644,1409.5C 1668.55,1385.6 1697.05,1379.43 1729.5,1391C 1750.36,1400.87 1764.7,1416.71 1772.5,1438.5C 1831.52,1420.66 1888.52,1397.83 1943.5,1370C 1952.66,1364.92 1961.66,1359.59 1970.5,1354C 1998.07,1334.44 2025.07,1314.1 2051.5,1293C 2068.28,1278.56 2083.28,1262.56 2096.5,1245C 2035.75,1230.65 1975.08,1215.98 1914.5,1201C 1852.66,1190.16 1790.5,1183.33 1728,1180.5C 1724,1209.67 1708.5,1230.17 1681.5,1242C 1647.36,1253.64 1618.19,1246.14 1594,1219.5C 1572,1187.83 1572,1156.17 1594,1124.5C 1618.25,1098.15 1647.42,1090.65 1681.5,1102C 1707.25,1113.33 1722.58,1132.83 1727.5,1160.5C 1815.63,1153.34 1903.63,1154.84 1991.5,1165C 2006.75,1167.25 2021.75,1170.25 2036.5,1174C 1912.16,1035.93 1773.66,915.097 1621,811.5C 1612.5,824 1602,834.5 1589.5,843C 1557.95,860.945 1525.95,878.111 1493.5,894.5C 1506.32,925.581 1506.82,956.915 1495,988.5C 1484.73,1015.05 1470.4,1039.05 1452,1060.5C 1390.84,1130.68 1314,1173.18 1221.5,1188C 1143.36,1199.98 1065.03,1201.31 986.5,1192C 967.793,1189.73 949.126,1187.23 930.5,1184.5C 930.351,1183.45 930.517,1182.45 931,1181.5C 986.521,1114.96 1045.35,1051.13 1107.5,990C 1121.83,977 1136.17,964 1150.5,951C 1107.16,955.834 1064.16,953.5 1021.5,944C 964.195,930.677 909.195,911.01 856.5,885C 816.033,864.942 777.033,842.609 739.5,818C 738.289,817.107 738.289,816.274 739.5,815.5C 822.87,774.647 908.203,738.48 995.5,707C 1076.09,677.379 1159.09,667.045 1244.5,676C 1271.99,678.705 1297.99,686.372 1322.5,699C 1347.35,712.674 1363.35,733.174 1370.5,760.5C 1405.5,748.415 1440,735.082 1474,720.5C 1475.61,720.026 1475.77,719.359 1474.5,718.5C 1326.13,632.311 1170.96,560.644 1009,503.5C 995.791,507.429 982.625,511.596 969.5,516C 927.986,531.394 886.319,546.394 844.5,561C 797.706,581.396 752.372,604.396 708.5,630C 721.088,660.753 714.754,686.753 689.5,708C 666.34,722.629 643.007,722.963 619.5,709C 592.882,687.699 586.049,661.199 599,629.5C 614.392,604.057 636.892,593.557 666.5,598C 679.284,600.793 690.117,606.959 699,616.5C 759.965,568.576 825.798,528.076 896.5,495C 911.779,489.264 927.445,484.93 943.5,482C 862.427,455.815 780.093,434.482 696.5,418C 673.828,415.641 651.162,414.475 628.5,414.5C 620.392,436.892 606.059,454.058 585.5,466C 551.602,483.183 515.602,492.517 477.5,494C 419.009,498.19 361.342,493.19 304.5,479C 235.649,459.495 168.315,435.828 102.5,408C 67.9366,393.647 33.6033,378.814 -0.5,363.5C -0.5,362.833 -0.5,362.167 -0.5,361.5C 73.069,308.879 153.069,268.045 239.5,239C 343.681,203.527 445.014,210.194 543.5,259C 572.011,274.177 595.511,295.011 614,321.5C 622.748,336.752 628.915,352.919 632.5,370C 656.677,376.392 680.677,383.392 704.5,391C 851.384,416.554 994.718,455.221 1134.5,507C 1187.69,527.055 1240.36,548.055 1292.5,570C 1260.53,533.92 1238.03,492.42 1225,445.5C 1195.21,348.665 1186.71,249.999 1199.5,149.5C 1157.24,142.238 1134.57,117.238 1131.5,74.5C 1133.95,34.3839 1154.62,9.38389 1193.5,-0.5 Z M 1529.5,752.5 C 1546.11,762.144 1562.45,772.311 1578.5,783C 1564.42,792.417 1552.25,803.917 1542,817.5C 1522.33,836.5 1502.67,855.5 1483,874.5C 1466.27,852.045 1443.77,839.878 1415.5,838C 1394.5,836.635 1373.83,838.302 1353.5,843C 1365.15,824.552 1370.81,804.385 1370.5,782.5C 1408.96,781.322 1447.29,778.489 1485.5,774C 1501.98,770.257 1516.65,763.09 1529.5,752.5 Z"></path>
  </g>
</svg>
