<?xml version="1.0" encoding="UTF-8"?>
<svg xmlns="http://www.w3.org/2000/svg" xmlns:xlink="http://www.w3.org/1999/xlink" version="1.1" width="2151px" height="3093px" style="shape-rendering:geometricPrecision; text-rendering:geometricPrecision; image-rendering:optimizeQuality; fill-rule:evenodd; clip-rule:evenodd">
  <g>
    <path style="opacity:0.983" fill="#fff" d="M 183.5,-0.5 C 184.167,-0.5 184.833,-0.5 185.5,-0.5C 176.429,32.9203 177.929,65.9203 190,98.5C 197.978,115.433 204.978,132.767 211,150.5C 222.89,195.511 221.557,240.178 207,284.5C 197.459,313.247 185.459,340.914 171,367.5C 170.333,395.5 170.333,423.5 171,451.5C 176.789,418.468 186.789,386.801 201,356.5C 208.661,341.678 218.827,328.844 231.5,318C 235.241,315.268 239.241,312.934 243.5,311C 253.625,307.775 263.958,305.442 274.5,304C 295.174,296.998 310.674,283.831 321,264.5C 318.238,351.882 280.738,419.715 208.5,468C 196.4,475.468 183.9,482.302 171,488.5C 171.864,571.721 176.531,654.721 185,737.5C 188.165,702.337 196.165,668.337 209,635.5C 216.869,615.886 229.369,600.053 246.5,588C 250.491,585.754 254.657,583.921 259,582.5C 290.469,577.764 312.469,560.764 325,531.5C 329.85,627.954 293.683,704.787 216.5,762C 207.669,767.917 198.669,773.583 189.5,779C 197.06,860.586 208.56,941.752 224,1022.5C 224.137,983.868 230.137,946.201 242,909.5C 248.912,889.944 260.412,873.778 276.5,861C 286.033,855.823 296.033,851.823 306.5,849C 328.748,837.691 343.915,820.191 352,796.5C 365.428,910.781 325.595,1001.28 232.5,1068C 248.757,1146.2 267.924,1223.7 290,1300.5C 289.044,1274.17 289.377,1247.83 291,1221.5C 293.032,1193.67 301.366,1168.01 316,1144.5C 321.919,1136.58 329.086,1130.08 337.5,1125C 371.399,1113.77 392.899,1090.94 402,1056.5C 424.523,1155.07 402.857,1242.41 337,1318.5C 326.956,1330.04 316.123,1340.71 304.5,1350.5C 328.137,1425.25 354.637,1498.92 384,1571.5C 381.634,1554.93 379.634,1538.26 378,1521.5C 377.333,1503.83 377.333,1486.17 378,1468.5C 379.293,1443.29 386.96,1420.29 401,1399.5C 404.833,1395.67 408.667,1391.83 412.5,1388C 422.166,1382.84 431.5,1377.17 440.5,1371C 459.906,1354.7 471.406,1333.87 475,1308.5C 504.567,1393.69 497.9,1476.03 455,1555.5C 441.029,1579.79 424.863,1602.46 406.5,1623.5C 436.523,1693.88 470.023,1762.55 507,1829.5C 503.198,1813.95 499.532,1798.29 496,1782.5C 491.247,1758.05 489.247,1733.38 490,1708.5C 490.719,1686.35 497.053,1666.01 509,1647.5C 511.797,1643.7 514.964,1640.2 518.5,1637C 552.239,1617.72 570.405,1588.55 573,1549.5C 616.989,1646.2 614.656,1741.87 566,1836.5C 557.278,1852.54 547.778,1868.04 537.5,1883C 574.834,1947.64 615.334,2010.14 659,2070.5C 648.905,2045.21 640.571,2019.21 634,1992.5C 625.735,1961.44 625.735,1930.44 634,1899.5C 636.806,1892.55 640.139,1885.89 644,1879.5C 653.581,1869.85 663.248,1860.18 673,1850.5C 689.618,1828.64 696.952,1803.97 695,1776.5C 744.957,1857.46 757.957,1944.13 734,2036.5C 725.757,2067.31 713.924,2096.65 698.5,2124.5C 742.51,2182.69 789.344,2238.69 839,2292.5C 832.013,2277.52 824.679,2262.52 817,2247.5C 801.515,2215.06 792.682,2180.89 790.5,2145C 790.285,2123.67 796.451,2104.5 809,2087.5C 837.589,2059.73 848.589,2026.06 842,1986.5C 903.406,2064.77 927.073,2153.44 913,2252.5C 908.579,2284.18 900.413,2314.85 888.5,2344.5C 939.345,2396.52 992.179,2446.19 1047,2493.5C 1039.9,2482.01 1032.23,2470.68 1024,2459.5C 1012.97,2441.44 1002.97,2422.77 994,2403.5C 981.472,2376.86 976.139,2348.86 978,2319.5C 979.418,2306.91 983.418,2295.25 990,2284.5C 1015.77,2252.55 1022.61,2216.88 1010.5,2177.5C 1011,2176.48 1011.67,2176.31 1012.5,2177C 1097.49,2265.66 1130.99,2371.16 1113,2493.5C 1110.79,2509.04 1107.62,2524.38 1103.5,2539.5C 1159.54,2586.08 1217.87,2629.24 1278.5,2669C 1244.73,2635.56 1217.57,2597.39 1197,2554.5C 1185.24,2528.86 1181.91,2502.2 1187,2474.5C 1188.33,2470.5 1189.67,2466.5 1191,2462.5C 1215.12,2425.26 1218.29,2386.43 1200.5,2346C 1281.08,2407.79 1327.91,2489.63 1341,2591.5C 1346.11,2630.94 1345.61,2670.27 1339.5,2709.5C 1353.73,2719.89 1368.4,2729.72 1383.5,2739C 1558.19,2845.34 1741.52,2934.67 1933.5,3007C 2001.09,3032.64 2069.43,3056.31 2138.5,3078C 2142.97,3079.4 2146.97,3081.57 2150.5,3084.5C 2150.5,3086.83 2150.5,3089.17 2150.5,3091.5C 2149.83,3091.5 2149.5,3091.83 2149.5,3092.5C 2145.17,3092.5 2140.83,3092.5 2136.5,3092.5C 1962.86,3043.34 1794.19,2980.84 1630.5,2905C 1524.85,2855.02 1422.85,2799.19 1324.5,2737.5C 1241.03,2791.69 1151.03,2806.19 1054.5,2781C 997.955,2763.91 947.955,2735.74 904.5,2696.5C 912.182,2698.25 920.182,2700.08 928.5,2702C 955.257,2706.45 980.257,2701.78 1003.5,2688C 1012.5,2681 1021.5,2674 1030.5,2667C 1053.86,2655.38 1078.52,2651.38 1104.5,2655C 1128.3,2657.36 1151.63,2662.03 1174.5,2669C 1208.15,2679.49 1241.15,2691.66 1273.5,2705.5C 1255.19,2691.49 1235.86,2677.99 1215.5,2665C 1170.83,2633.41 1127.33,2600.24 1085,2565.5C 1018.53,2599.27 948.695,2608.77 875.5,2594C 820.758,2581.3 772.091,2556.96 729.5,2521C 715.695,2508.2 702.195,2495.03 689,2481.5C 688.312,2480.67 688.479,2480 689.5,2479.5C 731.847,2499.73 771.513,2495.57 808.5,2467C 829.436,2458.48 851.102,2456.15 873.5,2460C 898.628,2464.71 922.962,2472.04 946.5,2482C 977.375,2495.94 1007.71,2510.61 1037.5,2526C 978.519,2475.53 921.852,2422.36 867.5,2366.5C 759.04,2403.43 659.707,2386.93 569.5,2317C 542.612,2294.16 518.945,2268.49 498.5,2240C 499.5,2239.33 500.5,2239.33 501.5,2240C 526.429,2255.98 553.429,2260.98 582.5,2255C 595.644,2249.93 608.644,2244.59 621.5,2239C 641.057,2235.2 660.39,2236.2 679.5,2242C 691.464,2245.54 703.131,2249.88 714.5,2255C 752.848,2273.83 788.848,2296.16 822.5,2322C 824.055,2323.29 825.721,2323.96 827.5,2324C 774.86,2265.71 724.86,2205.37 677.5,2143C 538.34,2167.82 430.173,2121.32 353,2003.5C 348.667,1996.17 344.333,1988.83 340,1981.5C 339.312,1980.67 339.479,1980 340.5,1979.5C 364.094,1998.97 391.094,2006.81 421.5,2003C 431.258,2000.29 440.925,1997.29 450.5,1994C 469.732,1990.64 488.399,1992.64 506.5,2000C 537.789,2013.98 566.456,2031.98 592.5,2054C 610.77,2069.85 628.77,2085.35 646.5,2100.5C 598.928,2035.05 555.094,1967.05 515,1896.5C 391.163,1905.75 297.496,1857.42 234,1751.5C 226.763,1738.13 220.096,1724.46 214,1710.5C 213.009,1708.55 212.675,1706.55 213,1704.5C 240.193,1732.76 272.693,1741.59 310.5,1731C 332.646,1728.03 353.313,1732.37 372.5,1744C 392.591,1756.42 411.258,1770.75 428.5,1787C 450.071,1809.23 470.905,1832.07 491,1855.5C 452.567,1783.44 417.067,1709.77 384.5,1634.5C 257.957,1628.09 171.457,1566.09 125,1448.5C 121.34,1438.73 118.507,1429.06 116.5,1419.5C 144.146,1452.33 179.146,1464.16 221.5,1455C 232.066,1456.62 242.066,1459.95 251.5,1465C 261.39,1470.89 270.723,1477.56 279.5,1485C 312.896,1517.71 341.729,1553.87 366,1593.5C 366.654,1594.7 367.154,1594.7 367.5,1593.5C 335.813,1516.61 307.98,1438.28 284,1358.5C 185.34,1344.8 114.673,1293.14 72,1203.5C 61.3934,1179.4 54.0601,1154.4 50,1128.5C 73.6497,1162.08 106.15,1176.58 147.5,1172C 161.462,1175.81 173.796,1182.48 184.5,1192C 208.494,1215.31 228.661,1241.48 245,1270.5C 254.509,1286.85 263.509,1303.51 272,1320.5C 249.373,1238.65 229.873,1155.99 213.5,1072.5C 127.663,1053.67 67.163,1004 32,923.5C 20.4304,894.892 13.7637,865.226 12,834.5C 23.6041,857.443 41.7708,872.277 66.5,879C 93.188,878.221 115.688,887.388 134,906.5C 155.007,931.146 172.007,958.48 185,988.5C 192.391,1005.34 199.391,1022.34 206,1039.5C 191.699,954.223 179.865,868.556 170.5,782.5C 81.3018,752.801 26.1351,692.134 5,600.5C 2.66174,588.428 0.828408,576.428 -0.5,564.5C -0.5,556.5 -0.5,548.5 -0.5,540.5C 13.2761,571.092 36.9428,587.926 70.5,591C 87.415,596.884 101.248,607.05 112,621.5C 123.125,637.408 132.458,654.408 140,672.5C 150.929,699.954 160.262,727.954 168,756.5C 160.894,667.661 156.394,578.661 154.5,489.5C 73.4053,454.887 26.2387,393.887 13,306.5C 10.3505,286.532 10.0172,266.532 12,246.5C 23.2237,277.388 45.057,295.555 77.5,301C 89.8132,306.984 99.9799,315.484 108,326.5C 120.748,346.728 130.415,368.394 137,391.5C 144.53,417.817 150.53,444.484 155,471.5C 155.545,435.495 155.878,399.495 156,363.5C 125.179,296.883 109.846,226.883 110,153.5C 110.501,114.489 120.501,78.1558 140,44.5C 151.651,26.6834 166.151,11.6834 183.5,-0.5 Z"></path>
  </g>
</svg>
